<?xml version="1.0" encoding="UTF-8" standalone="no"?>
<!DOCTYPE svg PUBLIC "-//W3C//DTD SVG 1.1//EN" "http://www.w3.org/Graphics/SVG/1.1/DTD/svg11.dtd">
<svg width="100%" height="100%" viewBox="0 0 20 20" version="1.1" xmlns="http://www.w3.org/2000/svg" xmlns:xlink="http://www.w3.org/1999/xlink" xml:space="preserve" xmlns:serif="http://www.serif.com/" style="fill-rule:evenodd;clip-rule:evenodd;stroke-linejoin:round;stroke-miterlimit:2;">
    <g transform="matrix(0.0382824,0,0,0.0382824,0.238053,0.238052)">
        <path d="M211.26,389.24L150.929,449.571C125.917,474.583 85.412,474.583 60.421,449.576C35.425,424.58 35.425,384.071 60.416,359.08L181.099,238.397C206.09,213.405 246.599,213.405 271.59,238.397C279.921,246.728 293.429,246.728 301.76,238.397C310.091,230.066 310.091,216.558 301.76,208.227C260.106,166.573 192.583,166.573 150.929,208.227L30.247,328.909C-11.407,370.563 -11.407,438.086 30.247,479.74C71.896,521.416 139.424,521.416 181.1,479.74L241.431,419.409C249.762,411.078 249.762,397.57 241.431,389.239C233.1,380.908 219.591,380.909 211.26,389.24Z" style="fill:rgb(0,90,170);fill-rule:nonzero;"/>
        <path d="M479.751,30.24C438.097,-11.414 370.552,-11.414 328.898,30.24L256.514,102.624C248.183,110.955 248.183,124.463 256.514,132.794C264.845,141.125 278.353,141.125 286.684,132.794L359.068,60.41C384.059,35.418 424.589,35.418 449.581,60.41C474.572,85.401 474.572,125.91 449.581,150.901L316.845,283.638C291.853,308.63 251.345,308.63 226.354,283.638C218.023,275.307 204.515,275.307 196.184,283.638C187.853,291.969 187.853,305.477 196.184,313.808C237.838,355.462 305.361,355.462 347.015,313.808L479.751,181.072C521.405,139.418 521.405,71.894 479.751,30.24Z" style="fill:rgb(0,90,170);fill-rule:nonzero;"/>
    </g>
</svg>
