<?xml version="1.0" encoding="UTF-8" standalone="no"?>
<!DOCTYPE svg PUBLIC "-//W3C//DTD SVG 1.1//EN" "http://www.w3.org/Graphics/SVG/1.1/DTD/svg11.dtd">
<svg width="100%" height="100%" viewBox="0 0 1200 1200" version="1.1" xmlns="http://www.w3.org/2000/svg" xmlns:xlink="http://www.w3.org/1999/xlink" xml:space="preserve" xmlns:serif="http://www.serif.com/" style="fill-rule:evenodd;clip-rule:evenodd;stroke-linejoin:round;stroke-miterlimit:2;">
    <g transform="matrix(20.1004,0,0,20.1004,-6843.89,-11513.4)">
        <g transform="matrix(1,0,0,1,382.902,577.372)">
            <path d="M0,-0.792L-0.404,-1.536C-0.217,-1.455 -0.027,-1.369 0.162,-1.277C0.432,-1.153 0.695,-1.023 0.959,-0.89C1.32,-0.706 1.682,-0.512 2.031,-0.313L1.531,0.599L0.971,0.323L0.426,0.744L-0.107,0.259L0,-0.792Z" style="fill:rgb(0,90,170);"/>
        </g>
        <g transform="matrix(-0.909326,0.416084,0.416084,0.909326,359.812,619.201)">
            <path d="M1.543,-7.089C1.607,-4.522 1.596,-2.034 1.535,0.33L1.543,0.337C1.606,-2.027 1.615,-4.52 1.549,-7.092L1.543,-7.089Z" style="fill:rgb(0,90,170);fill-rule:nonzero;"/>
        </g>
        <g transform="matrix(1,0,0,1,377.631,578.914)">
            <path d="M0,0.238C0.258,0.152 0.518,0.071 0.781,-0.005C0.518,0.071 0.264,0.163 0,0.243L0,0.238Z" style="fill:rgb(0,90,170);fill-rule:nonzero;"/>
        </g>
        <g transform="matrix(1,0,0,1,342.027,591.998)">
            <path d="M0,5.158L0.818,5.196L0.582,1.848L0.943,-0.038C0.361,1.417 -0.109,2.932 -0.447,4.49L-0.361,4.495L0,5.158Z" style="fill:rgb(0,90,170);fill-rule:nonzero;"/>
        </g>
        <g transform="matrix(1,0,0,1,345.332,593.684)">
            <path d="M0,-1.628L1.072,-0.873L2.123,0.593L0.662,2.156L-0.686,3.66L-1.24,5.902L-0.352,5.374L0.625,3.574L1.035,4.727L0.123,5.962L-0.912,7.973L-0.793,8.538C0.748,6.636 2.49,4.662 4.441,2.695C3.455,-1.59 2.834,-5.929 2.775,-10.166C1.326,-8.494 0.064,-6.657 -0.988,-4.69L-0.805,-4.29L-1.5,-2.829L-1.865,-2.895C-2.033,-2.533 -2.184,-2.172 -2.33,-1.8L-0.891,-1.1L0,-1.628Z" style="fill:rgb(0,90,170);fill-rule:nonzero;"/>
        </g>
        <g transform="matrix(1,0,0,1,377.631,582.651)">
            <path d="M0,-3.499L0.113,-4.248L0.227,-4.453L1.127,-4.339L0.949,-3.559C1.18,-3.311 1.412,-3.053 1.639,-2.788L2.021,-3.742L1.342,-4.266L0.965,-5.181L0.812,-6.614L1.492,-7.105L1.238,-6.47L1.848,-6.237L1.465,-5.548L1.967,-4.787L2.879,-3.235L3.449,-3.203L3.324,-1.71L2.672,-1.483C2.834,-1.273 2.986,-1.052 3.143,-0.831L3.434,-0.75L3.967,-1.975L4.344,-3.531L5.223,-4.291L4.668,-5.32L4.451,-6.389L4.797,-6.846C4.598,-6.938 4.398,-7.02 4.193,-7.105L4.059,-6.782L3.389,-7.164L3.299,-7.461C0.049,-8.685 -3.473,-9.358 -7.148,-9.358C-12.549,-9.358 -17.611,-7.908 -21.973,-5.381C-21.146,-2.211 -20.064,1.622 -18.674,5.859C-13.412,2.063 -7.213,-1.277 0,-3.499" style="fill:rgb(0,90,170);fill-rule:nonzero;"/>
        </g>
        <g transform="matrix(1,0,0,1,350.123,619.915)">
            <path d="M0,1.362L-2.236,-0.794L-2.291,-2.853L-2.484,-5.699L-3.271,-4.885L-4.953,-5.456L-5.639,-6.27L-6.496,-6.243C-6.668,-6.081 -6.846,-5.915 -7.023,-5.747C-4.766,-0.271 -0.916,4.386 3.957,7.632L2.053,2.235L0,1.362Z" style="fill:rgb(0,90,170);fill-rule:nonzero;"/>
        </g>
        <g transform="matrix(1,0,0,1,358.506,631.847)">
            <path d="M0,-11.546L-0.508,-8.797L-0.361,-6.096L-1.521,-5.578L-1.498,-4.371L-1.898,-2.792C0.699,-1.412 3.529,-0.403 6.521,0.151C4.721,-2.824 2.398,-6.916 0.043,-11.697L0,-11.546Z" style="fill:rgb(0,90,170);fill-rule:nonzero;"/>
        </g>
        <g transform="matrix(1,0,0,1,396.627,598.838)">
            <path d="M0,14.665L-1.311,13.594L-2.836,12.504L-3.037,10.526L-4.199,9.938L-5.004,10.52L-5.613,10.111L-6.621,9.566L-9.197,10.86L-10.189,10.564L-11.73,11.146L-14.447,9.583L-15.17,8.473L-17.418,6.37L-17.979,5.044L-17.715,4.23L-18.145,2.494L-18.674,1.056L-18.16,-1.667L-17.562,-2.61L-16.668,-3.43L-16.867,-4.448L-16.539,-5.839L-15.936,-6.389L-15.736,-7.574L-15.471,-7.429L-15.023,-7.262L-14.053,-7.203L-13.197,-8.302L-10.395,-9.192L-10.092,-9.611L-9.688,-9.277L-9.559,-9.683L-9.482,-9.009L-9.008,-8.194L-9.225,-7.354L-8.502,-7.1L-6.934,-7.132L-6.566,-6.529L-4.857,-6.367L-4.744,-7.015L-5.078,-7.736L-4.814,-8.345L-4.064,-8.701L-2.896,-8.572L-1.531,-8.976L-0.814,-10.07L-0.18,-10.076L-0.158,-10.13C-0.738,-11.191 -1.387,-12.215 -2.092,-13.191L-2.6,-13.109L-2.6,-12.356L-3.66,-12.377L-4.664,-13.579L-5.02,-14.339L-4.41,-14.689L-4.189,-15.429L-3.979,-15.559C-4.453,-16.098 -4.955,-16.625 -5.473,-17.126L-5.219,-15.563L-4.465,-15.218L-4.814,-15.024L-5.418,-14.377L-6.043,-14.075L-5.59,-13.703L-5.834,-13.407L-6.312,-13.665L-5.969,-13.1L-4.891,-12.28L-5.283,-11.92L-4.982,-11.089L-5.488,-11.035L-6.113,-11.784L-7.299,-12.711L-7.715,-13.746L-8.766,-14.221L-9.871,-14.933L-10.496,-15.481L-10.953,-15.294L-10.695,-14.496L-10.043,-14.156L-9.709,-13.536L-8.799,-13.153L-7.633,-12.674L-7.65,-12.42L-8.082,-12.642L-8.227,-12.184L-7.73,-11.779L-7.85,-10.776L-8.07,-10.89L-8.33,-11.79L-9.014,-12.215L-10.857,-13.224L-11.795,-14.248L-12.189,-13.688L-12.377,-13.057L-13.271,-13.095L-13.525,-12.841L-13.354,-12.242L-13.342,-12.215C-13.182,-11.779 -13.029,-11.337 -12.895,-10.879C-13.246,-10.761 -13.602,-10.642 -13.957,-10.512L-13.93,-9.913L-14.098,-9.041L-14.533,-8.313L-15.299,-8.205L-15.816,-7.79L-16.117,-8.522L-16.566,-8.394L-17.105,-8.522L-17.201,-9.277C-22.154,-7.278 -27.826,-4.41 -34.053,-0.318C-29.811,10.375 -23.854,22.132 -15.758,31.791C-8.34,29.01 -2.33,23.334 0.889,16.143L0.301,15.398L0,14.665Z" style="fill:rgb(0,90,170);fill-rule:nonzero;"/>
        </g>
        <g transform="matrix(1,0,0,1,343.627,612.442)">
            <path d="M0,1.229C0.443,0.814 0.885,0.404 1.322,0C0.885,0.394 0.443,0.809 0,1.229" style="fill:rgb(0,90,170);fill-rule:nonzero;"/>
        </g>
        <g transform="matrix(1,0,0,1,345.514,605.872)">
            <path d="M0,8.037L1.645,7.752L2.4,6.086L3.332,6.058L4.867,5.843L6.652,6.345L7.979,5.913L9.084,7.525L9.939,7.525C8.912,5.109 7.92,2.587 7.025,0C4.557,1.989 2.021,4.172 -0.564,6.57L-0.506,6.593L0,8.037Z" style="fill:rgb(0,90,170);fill-rule:nonzero;"/>
        </g>
    </g>
</svg>
