<?xml version="1.0" encoding="UTF-8" standalone="no"?>
<!DOCTYPE svg PUBLIC "-//W3C//DTD SVG 1.1//EN" "http://www.w3.org/Graphics/SVG/1.1/DTD/svg11.dtd">
<svg width="100%" height="100%" viewBox="0 0 1200 1200" version="1.1" xmlns="http://www.w3.org/2000/svg" xmlns:xlink="http://www.w3.org/1999/xlink" xml:space="preserve" xmlns:serif="http://www.serif.com/" style="fill-rule:evenodd;clip-rule:evenodd;stroke-linejoin:round;stroke-miterlimit:2;">
    <g transform="matrix(7.95874,0,0,7.95874,-852.309,-675.701)">
        <g transform="matrix(0,-1,-1,0,182.476,86.157)">
            <path d="M-74.129,-74.129C-115.069,-74.129 -148.258,-40.941 -148.258,-0C-148.258,40.94 -115.069,74.129 -74.129,74.129C-33.189,74.129 -0,40.94 -0,-0C-0,-40.941 -33.189,-74.129 -74.129,-74.129" style="fill:rgb(0,90,170);"/>
        </g>
        <g transform="matrix(1,0,0,1,162.675,181.214)">
            <path d="M0,-31.895C10.624,-5.115 25.538,24.322 45.812,48.511C37.712,51.548 28.952,53.208 19.802,53.208C15.132,53.208 10.569,52.775 6.142,51.938C-2.416,37.78 -15.725,13.605 -25.132,-13.484C-32.786,-7.316 -40.668,-0.418 -48.767,7.289C-51.183,1.418 -52.87,-4.832 -53.707,-11.338C-48.132,-19.248 -40.966,-28.264 -32.057,-37.253C-34.526,-47.984 -36.079,-58.849 -36.228,-69.459C-30.854,-75.654 -24.471,-80.959 -17.317,-85.103C-15.252,-77.166 -12.539,-67.569 -9.057,-56.96C4.589,-66.8 20.761,-75.425 39.657,-80.999C45.177,-75.154 50.171,-67.677 52.979,-58.336C38.267,-53.383 20.315,-45.244 0,-31.895" style="fill:white;fill-rule:nonzero;"/>
        </g>
        <g transform="matrix(1,0,0,1,117.484,190.217)">
            <path d="M0,-63.749L-0.458,-64.748C-1.241,-63.277 -1.982,-61.778 -2.658,-60.253L-1.74,-60.091L0,-63.749ZM-0.27,-33.042L2.322,-38.077L4.604,-41.167L3.578,-44.056L1.135,-39.548L-1.093,-38.226L0.298,-43.84L3.672,-47.606L7.33,-51.52L4.697,-55.191L2.012,-57.081L-0.215,-55.758L-3.819,-57.514L-3.859,-57.527L-3.899,-57.324L-4.805,-52.6L-4.211,-44.218L-6.262,-44.312L-7.166,-45.959L-7.383,-45.986C-8.529,-40.817 -9.137,-35.431 -9.137,-29.924C-9.137,-26.685 -8.936,-23.486 -8.517,-20.341C-6.003,-23.907 -3.146,-27.706 0.027,-31.618L-0.27,-33.042ZM-8.017,-17.088L-8.015,-17.089C-8.02,-17.118 -8.025,-17.147 -8.031,-17.177C-8.025,-17.147 -8.021,-17.118 -8.017,-17.088M131.699,-62.278L130.307,-63.561L131.361,-62.967C130.941,-63.817 130.51,-64.64 130.064,-65.463L130.012,-65.329L128.418,-65.315L126.623,-62.575L123.207,-61.563L120.279,-61.886L118.402,-60.996L117.74,-59.47L118.578,-57.662L118.295,-56.042L114.016,-56.447L113.098,-57.959L109.17,-57.878L107.361,-58.512L107.9,-60.618L106.713,-62.656L106.523,-64.343L106.201,-63.331L105.188,-64.167L104.432,-63.115L97.412,-60.888L95.268,-58.134L92.838,-58.283L91.717,-58.701L91.057,-59.065L90.557,-56.096L89.045,-54.719L88.223,-51.237L88.721,-48.686L86.48,-46.634L84.982,-44.272L83.699,-37.456L85.023,-33.852L86.102,-29.506L85.441,-27.467L86.846,-24.147L92.473,-18.883L94.281,-16.103L101.084,-12.188L104.945,-13.646L107.43,-12.89L113.881,-16.143L116.404,-14.78L117.93,-13.754L119.941,-15.211L122.857,-13.741L123.355,-8.787L127.176,-6.061L130.455,-3.374L131.211,-1.539L132.684,0.324C136.812,-8.922 139.121,-19.153 139.121,-29.924C139.121,-41.519 136.449,-52.506 131.699,-62.278M25.215,-3.645L22.447,-7.681L19.127,-6.587L14.66,-7.856L10.813,-7.316L8.478,-7.248L6.588,-3.078L2.471,-2.362L1.202,-5.979L1.046,-6.027C-0.049,-5.016 -1.148,-3.991 -2.252,-2.95L-0.107,-3.023L1.607,-0.985L5.818,0.445L7.789,-1.593L8.274,5.534L8.41,10.69L14.012,16.089L19.154,18.276L23.919,31.787C25.957,33.15 28.076,34.405 30.249,35.566L31.248,31.611L31.194,28.588L34.096,27.292L33.731,20.53L35,13.659L35.119,13.247C32.509,7.928 29.891,2.277 27.37,-3.638L25.215,-3.645ZM87.627,-61.441L88.977,-61.117L90.098,-61.441L90.854,-59.605L92.148,-60.645L94.066,-60.915L95.158,-62.737L95.578,-64.923L95.5,-66.417C92.887,-65.492 90.174,-64.462 87.375,-63.329L87.627,-61.441ZM96.266,-94.132L97.252,-92.904L98.264,-94.942L98.494,-96.076C97.832,-96.414 97.17,-96.738 96.496,-97.048L97.197,-96.157L96.725,-94.82L96.266,-94.132ZM85.268,-89.535L85.711,-91.5L83.457,-91.784L83.174,-91.27L82.881,-89.372C83.543,-89.576 84.18,-89.805 84.848,-90.002C84.988,-89.852 85.127,-89.687 85.268,-89.535M92.824,-85.575L91.488,-82.511L90.756,-82.713C93.211,-79.148 95.375,-75.147 97.039,-70.686L96.59,-72.253L97.225,-72.887L99.465,-72.792L99.938,-74.372L100.922,-75.775L103.271,-73.211L107.889,-70.687L109.602,-69.621L110.25,-67.367L110.803,-67.083L111.1,-69.593L109.859,-70.606L110.223,-71.753L111.303,-71.2L111.344,-71.834L108.428,-73.036L106.146,-73.994L105.309,-75.546L103.676,-76.396L103.027,-78.394L104.176,-78.867L105.742,-77.49L108.51,-75.708L111.141,-74.52L112.18,-71.929L115.15,-69.607L116.715,-67.731L117.984,-67.866L117.229,-69.945L118.213,-70.849L115.514,-72.901L114.65,-74.318L115.852,-73.67L116.459,-74.413L115.324,-75.344L116.891,-76.1L118.402,-77.719L119.279,-78.206L117.391,-79.069L116.756,-82.983C112.113,-87.519 106.889,-91.446 101.18,-94.632L99.924,-92.351L98.52,-93.039L97.156,-91.986L95.82,-93.201L96.09,-95.832L95.078,-97.696L94.984,-97.884L94.902,-97.777L94.039,-96.629L94.578,-93.957L95.969,-91.379L93.77,-89.476L92.824,-85.575ZM118.781,-74.102L121.291,-71.092L123.951,-71.038L123.951,-72.928L125.219,-73.13C123.762,-75.182 122.182,-77.166 120.494,-79.056L119.967,-78.731L119.414,-76.882L117.891,-76.005L118.781,-74.102ZM86.25,-91.311L87.951,-90.002L86.992,-87.606C87.879,-86.567 88.734,-85.468 89.572,-84.336L91.219,-84.914L91.527,-88.652L90.098,-88.733L87.816,-92.621L86.561,-94.524L87.52,-96.251L85.994,-96.832L86.629,-98.425L84.928,-97.196L85.307,-93.606L86.25,-91.311ZM93.053,-97.615L93.391,-98.425C92.648,-98.735 91.906,-99.032 91.15,-99.315L91.381,-98.573L93.053,-97.615Z" style="fill:rgb(141,216,248);fill-rule:nonzero;"/>
        </g>
    </g>
</svg>
