<?xml version="1.0" encoding="UTF-8" standalone="no"?>
<!DOCTYPE svg PUBLIC "-//W3C//DTD SVG 1.1//EN" "http://www.w3.org/Graphics/SVG/1.1/DTD/svg11.dtd">
<svg width="100%" height="100%" viewBox="0 0 1200 500" version="1.1" xmlns="http://www.w3.org/2000/svg" xmlns:xlink="http://www.w3.org/1999/xlink" xml:space="preserve" xmlns:serif="http://www.serif.com/" style="fill-rule:evenodd;clip-rule:evenodd;stroke-linejoin:round;stroke-miterlimit:2;">
    <g transform="matrix(7.88527,0,0,7.88527,-2683.45,-4510.57)">
        <g transform="matrix(1,0,0,1,382.902,577.372)">
            <path d="M0,-0.792L-0.404,-1.536C-0.217,-1.455 -0.027,-1.369 0.162,-1.277C0.432,-1.153 0.695,-1.023 0.959,-0.89C1.32,-0.706 1.682,-0.512 2.031,-0.313L1.531,0.599L0.971,0.323L0.426,0.744L-0.107,0.259L0,-0.792Z" style="fill:white;"/>
        </g>
        <g transform="matrix(1,0,0,1,491.225,589.52)">
            <path d="M0,13.611L0,18.766L-8.344,18.766C-9.096,18.765 -9.752,18.745 -10.307,18.707C-10.43,18.7 -10.529,18.691 -10.582,18.687C-11.025,18.651 -11.432,18.597 -11.795,18.528L-11.801,18.528L-11.805,18.527C-11.807,18.527 -11.807,18.525 -11.809,18.525L-11.811,18.525L-11.813,18.523C-12.209,18.447 -12.594,18.346 -12.967,18.226C-13.344,18.103 -13.701,17.961 -14.039,17.8C-15.801,16.957 -17.127,15.571 -18.012,13.635L-18.014,13.634C-18.41,12.755 -18.709,11.771 -18.908,10.681C-19.104,9.602 -19.203,8.431 -19.203,7.168L-19.203,7.16C-19.201,5.633 -19.051,4.24 -18.748,2.986C-18.707,2.804 -18.652,2.604 -18.588,2.377C-18.291,1.353 -17.885,0.424 -17.375,-0.404L-17.373,-0.408L-17.373,-0.409C-17.25,-0.608 -17.117,-0.8 -16.98,-0.987C-16.838,-1.181 -16.695,-1.361 -16.551,-1.526L-16.549,-1.526C-15.777,-2.41 -14.848,-3.093 -13.76,-3.569L-13.76,-3.571L-13.754,-3.573L-13.75,-3.573C-13.541,-3.665 -13.324,-3.751 -13.098,-3.829C-12.859,-3.913 -12.627,-3.985 -12.398,-4.047C-11.178,-4.379 -9.74,-4.545 -8.09,-4.545L0,-4.545L0,0.609L-7.555,0.609C-9.475,0.609 -10.863,1.103 -11.725,2.085C-12.063,2.471 -12.32,3.035 -12.502,3.782C-12.693,4.575 -12.787,5.559 -12.787,6.732C-12.787,8.304 -12.639,9.596 -12.34,10.607C-12.061,11.555 -11.654,12.247 -11.121,12.681C-10.75,12.981 -10.264,13.208 -9.66,13.365C-9.021,13.529 -8.26,13.611 -7.377,13.611L0,13.611Z" style="fill:white;"/>
        </g>
        <g transform="matrix(1,0,0,1,458.264,607.852)">
            <path d="M0,-22.877L0,-9.015C0,-8.501 0.021,-8.055 0.062,-7.677C0.07,-7.585 0.076,-7.531 0.082,-7.494C0.119,-7.208 0.168,-6.96 0.229,-6.749L0.23,-6.749L0.23,-6.746L0.234,-6.732L0.236,-6.73L0.234,-6.73L0.236,-6.728C0.25,-6.673 0.273,-6.605 0.303,-6.528C0.328,-6.461 0.354,-6.397 0.379,-6.337C0.521,-6.022 0.717,-5.744 0.961,-5.505C1.367,-5.114 1.85,-4.819 2.412,-4.622C2.992,-4.419 3.662,-4.319 4.422,-4.319L4.432,-4.319C4.92,-4.319 5.375,-4.359 5.793,-4.44C5.861,-4.454 5.93,-4.468 5.994,-4.483C6.33,-4.561 6.645,-4.667 6.93,-4.797L6.936,-4.799C7.27,-4.949 7.551,-5.124 7.777,-5.328C7.99,-5.519 8.156,-5.731 8.271,-5.966L8.273,-5.969C8.4,-6.222 8.5,-6.593 8.566,-7.084C8.641,-7.606 8.676,-8.256 8.676,-9.032L8.676,-22.877L14.594,-22.877L14.594,-9.259C14.594,-8.377 14.549,-7.567 14.457,-6.831C14.363,-6.089 14.221,-5.416 14.029,-4.816L14.029,-4.813C13.98,-4.66 13.922,-4.496 13.854,-4.319C13.787,-4.151 13.721,-3.992 13.65,-3.846C13.277,-3.053 12.781,-2.385 12.174,-1.843L12.172,-1.84C11.238,-1.021 10.109,-0.404 8.785,0.005C7.486,0.409 6.006,0.61 4.338,0.61L4.332,0.61C2.572,0.61 1.039,0.413 -0.262,0.02C-0.463,-0.04 -0.674,-0.112 -0.891,-0.193C-1.949,-0.587 -2.838,-1.125 -3.557,-1.808L-3.559,-1.811C-4.002,-2.236 -4.379,-2.687 -4.687,-3.164C-5,-3.648 -5.244,-4.156 -5.416,-4.685C-5.586,-5.204 -5.713,-5.822 -5.795,-6.535C-5.877,-7.237 -5.916,-8.032 -5.916,-8.917L-5.916,-22.877L0,-22.877Z" style="fill:white;"/>
        </g>
        <g transform="matrix(1,0,0,1,450.105,607.675)">
            <path d="M0,-22.7L0,-17.547L-6.742,-17.547C-8.289,-17.547 -9.4,-17.444 -10.074,-17.24L-10.076,-17.24L-10.082,-17.239L-10.082,-17.24C-10.156,-17.218 -10.236,-17.189 -10.322,-17.153C-10.404,-17.119 -10.482,-17.083 -10.555,-17.047C-10.943,-16.846 -11.289,-16.553 -11.582,-16.172L-11.58,-16.171C-11.723,-15.984 -11.84,-15.797 -11.934,-15.614C-12.023,-15.433 -12.094,-15.254 -12.141,-15.074L-12.141,-15.07C-12.195,-14.867 -12.246,-14.594 -12.293,-14.251C-12.318,-14.067 -12.346,-13.842 -12.369,-13.576L0,-13.576L0,-8.421L-12.357,-8.421C-12.354,-8.394 -12.35,-8.366 -12.346,-8.342C-12.309,-8.118 -12.268,-7.902 -12.217,-7.694C-11.975,-6.699 -11.566,-5.979 -10.994,-5.528C-10.59,-5.212 -10.029,-4.971 -9.313,-4.808C-8.555,-4.633 -7.629,-4.545 -6.531,-4.545L0,-4.545L0,0.61L-6.766,0.61C-7.621,0.609 -8.412,0.583 -9.141,0.531C-9.289,0.519 -9.414,0.511 -9.5,0.505C-10.078,0.455 -10.654,0.385 -11.227,0.291C-12.291,0.12 -13.248,-0.199 -14.098,-0.666C-14.959,-1.139 -15.709,-1.757 -16.344,-2.52L-16.344,-2.526C-17.234,-3.607 -17.898,-4.872 -18.34,-6.323C-18.773,-7.755 -18.992,-9.369 -18.992,-11.163C-18.992,-15.2 -17.742,-18.346 -15.242,-20.6L-15.238,-20.601L-15.236,-20.603L-15.238,-20.605C-15.141,-20.693 -15.018,-20.796 -14.871,-20.914C-14.736,-21.023 -14.611,-21.119 -14.496,-21.202L-14.494,-21.2C-13.838,-21.672 -13.15,-22.02 -12.43,-22.241C-11.934,-22.397 -11.357,-22.513 -10.705,-22.589C-10.063,-22.664 -9.346,-22.7 -8.555,-22.7L0,-22.7Z" style="fill:white;"/>
        </g>
        <g transform="matrix(1,0,0,1,413.508,607.859)">
            <path d="M0,-22.457L4.937,-6.999L10.139,-22.468L10.277,-22.884L18.186,-22.884L18.186,0.427L12.48,0.427L12.48,-13.162L7.895,0.016L7.75,0.427L2.037,0.427L1.9,0.004L-2.363,-12.96L-2.363,0.427L-8.068,0.427L-8.068,-22.884L-0.137,-22.884L0,-22.457Z" style="fill:white;"/>
        </g>
        <g transform="matrix(-0.909326,0.416084,0.416084,0.909326,359.812,619.201)">
            <path d="M1.543,-7.089C1.607,-4.522 1.596,-2.034 1.535,0.33L1.543,0.337C1.606,-2.027 1.615,-4.52 1.549,-7.092L1.543,-7.089Z" style="fill:white;fill-rule:nonzero;"/>
        </g>
        <g transform="matrix(1,0,0,1,377.631,578.914)">
            <path d="M0,0.238C0.258,0.152 0.518,0.071 0.781,-0.005C0.518,0.071 0.264,0.163 0,0.243L0,0.238Z" style="fill:white;fill-rule:nonzero;"/>
        </g>
        <g transform="matrix(1,0,0,1,342.027,591.998)">
            <path d="M0,5.158L0.818,5.196L0.582,1.848L0.943,-0.038C0.361,1.417 -0.109,2.932 -0.447,4.49L-0.361,4.495L0,5.158Z" style="fill:white;fill-rule:nonzero;"/>
        </g>
        <g transform="matrix(1,0,0,1,345.332,593.684)">
            <path d="M0,-1.628L1.072,-0.873L2.123,0.593L0.662,2.156L-0.686,3.66L-1.24,5.902L-0.352,5.374L0.625,3.574L1.035,4.727L0.123,5.962L-0.912,7.973L-0.793,8.538C0.748,6.636 2.49,4.662 4.441,2.695C3.455,-1.59 2.834,-5.929 2.775,-10.166C1.326,-8.494 0.064,-6.657 -0.988,-4.69L-0.805,-4.29L-1.5,-2.829L-1.865,-2.895C-2.033,-2.533 -2.184,-2.172 -2.33,-1.8L-0.891,-1.1L0,-1.628Z" style="fill:white;fill-rule:nonzero;"/>
        </g>
        <g transform="matrix(1,0,0,1,377.631,582.651)">
            <path d="M0,-3.499L0.113,-4.248L0.227,-4.453L1.127,-4.339L0.949,-3.559C1.18,-3.311 1.412,-3.053 1.639,-2.788L2.021,-3.742L1.342,-4.266L0.965,-5.181L0.812,-6.614L1.492,-7.105L1.238,-6.47L1.848,-6.237L1.465,-5.548L1.967,-4.787L2.879,-3.235L3.449,-3.203L3.324,-1.71L2.672,-1.483C2.834,-1.273 2.986,-1.052 3.143,-0.831L3.434,-0.75L3.967,-1.975L4.344,-3.531L5.223,-4.291L4.668,-5.32L4.451,-6.389L4.797,-6.846C4.598,-6.938 4.398,-7.02 4.193,-7.105L4.059,-6.782L3.389,-7.164L3.299,-7.461C0.049,-8.685 -3.473,-9.358 -7.148,-9.358C-12.549,-9.358 -17.611,-7.908 -21.973,-5.381C-21.146,-2.211 -20.064,1.622 -18.674,5.859C-13.412,2.063 -7.213,-1.277 0,-3.499" style="fill:white;fill-rule:nonzero;"/>
        </g>
        <g transform="matrix(1,0,0,1,350.123,619.915)">
            <path d="M0,1.362L-2.236,-0.794L-2.291,-2.853L-2.484,-5.699L-3.271,-4.885L-4.953,-5.456L-5.639,-6.27L-6.496,-6.243C-6.668,-6.081 -6.846,-5.915 -7.023,-5.747C-4.766,-0.271 -0.916,4.386 3.957,7.632L2.053,2.235L0,1.362Z" style="fill:white;fill-rule:nonzero;"/>
        </g>
        <g transform="matrix(1,0,0,1,358.506,631.847)">
            <path d="M0,-11.546L-0.508,-8.797L-0.361,-6.096L-1.521,-5.578L-1.498,-4.371L-1.898,-2.792C0.699,-1.412 3.529,-0.403 6.521,0.151C4.721,-2.824 2.398,-6.916 0.043,-11.697L0,-11.546Z" style="fill:white;fill-rule:nonzero;"/>
        </g>
        <g transform="matrix(1,0,0,1,396.627,598.838)">
            <path d="M0,14.665L-1.311,13.594L-2.836,12.504L-3.037,10.526L-4.199,9.938L-5.004,10.52L-5.613,10.111L-6.621,9.566L-9.197,10.86L-10.189,10.564L-11.73,11.146L-14.447,9.583L-15.17,8.473L-17.418,6.37L-17.979,5.044L-17.715,4.23L-18.145,2.494L-18.674,1.056L-18.16,-1.667L-17.562,-2.61L-16.668,-3.43L-16.867,-4.448L-16.539,-5.839L-15.936,-6.389L-15.736,-7.574L-15.471,-7.429L-15.023,-7.262L-14.053,-7.203L-13.197,-8.302L-10.395,-9.192L-10.092,-9.611L-9.688,-9.277L-9.559,-9.683L-9.482,-9.009L-9.008,-8.194L-9.225,-7.354L-8.502,-7.1L-6.934,-7.132L-6.566,-6.529L-4.857,-6.367L-4.744,-7.015L-5.078,-7.736L-4.814,-8.345L-4.064,-8.701L-2.896,-8.572L-1.531,-8.976L-0.814,-10.07L-0.18,-10.076L-0.158,-10.13C-0.738,-11.191 -1.387,-12.215 -2.092,-13.191L-2.6,-13.109L-2.6,-12.356L-3.66,-12.377L-4.664,-13.579L-5.02,-14.339L-4.41,-14.689L-4.189,-15.429L-3.979,-15.559C-4.453,-16.098 -4.955,-16.625 -5.473,-17.126L-5.219,-15.563L-4.465,-15.218L-4.814,-15.024L-5.418,-14.377L-6.043,-14.075L-5.59,-13.703L-5.834,-13.407L-6.312,-13.665L-5.969,-13.1L-4.891,-12.28L-5.283,-11.92L-4.982,-11.089L-5.488,-11.035L-6.113,-11.784L-7.299,-12.711L-7.715,-13.746L-8.766,-14.221L-9.871,-14.933L-10.496,-15.481L-10.953,-15.294L-10.695,-14.496L-10.043,-14.156L-9.709,-13.536L-8.799,-13.153L-7.633,-12.674L-7.65,-12.42L-8.082,-12.642L-8.227,-12.184L-7.73,-11.779L-7.85,-10.776L-8.07,-10.89L-8.33,-11.79L-9.014,-12.215L-10.857,-13.224L-11.795,-14.248L-12.189,-13.688L-12.377,-13.057L-13.271,-13.095L-13.525,-12.841L-13.354,-12.242L-13.342,-12.215C-13.182,-11.779 -13.029,-11.337 -12.895,-10.879C-13.246,-10.761 -13.602,-10.642 -13.957,-10.512L-13.93,-9.913L-14.098,-9.041L-14.533,-8.313L-15.299,-8.205L-15.816,-7.79L-16.117,-8.522L-16.566,-8.394L-17.105,-8.522L-17.201,-9.277C-22.154,-7.278 -27.826,-4.41 -34.053,-0.318C-29.811,10.375 -23.854,22.132 -15.758,31.791C-8.34,29.01 -2.33,23.334 0.889,16.143L0.301,15.398L0,14.665Z" style="fill:white;fill-rule:nonzero;"/>
        </g>
        <g transform="matrix(1,0,0,1,343.627,612.442)">
            <path d="M0,1.229C0.443,0.814 0.885,0.404 1.322,0C0.885,0.394 0.443,0.809 0,1.229" style="fill:white;fill-rule:nonzero;"/>
        </g>
        <g transform="matrix(1,0,0,1,345.514,605.872)">
            <path d="M0,8.037L1.645,7.752L2.4,6.086L3.332,6.058L4.867,5.843L6.652,6.345L7.979,5.913L9.084,7.525L9.939,7.525C8.912,5.109 7.92,2.587 7.025,0C4.557,1.989 2.021,4.172 -0.564,6.57L-0.506,6.593L0,8.037Z" style="fill:white;fill-rule:nonzero;"/>
        </g>
        <g transform="matrix(0.892209,0,0,0.892209,-623.104,356.164)">
            <rect x="1153.25" y="288.374" width="28.958" height="1.136" style="fill:white;"/>
        </g>
        <g transform="matrix(0.669157,0,0,0.669157,196.22,544.278)">
            <text x="311.875px" y="120.676px" style="font-family:'OpenSans-Bold', 'Open Sans', sans-serif;font-weight:700;font-size:13.077px;fill:white;">Nome da cidade em</text>
            <text x="311.875px" y="134.322px" style="font-family:'OpenSans-Bold', 'Open Sans', sans-serif;font-weight:700;font-size:13.077px;fill:white;">até duas linhas</text>
        </g>
    </g>
</svg>
