<?xml version="1.0" encoding="UTF-8" standalone="no"?>
<!DOCTYPE svg PUBLIC "-//W3C//DTD SVG 1.1//EN" "http://www.w3.org/Graphics/SVG/1.1/DTD/svg11.dtd">
<svg width="100%" height="100%" viewBox="0 0 791 1500" version="1.1" xmlns="http://www.w3.org/2000/svg" xmlns:xlink="http://www.w3.org/1999/xlink" xml:space="preserve" xmlns:serif="http://www.serif.com/" style="fill-rule:evenodd;clip-rule:evenodd;stroke-linejoin:round;stroke-miterlimit:2;">
    <g transform="matrix(15.8389,0,0,15.8389,780.929,913.025)">
        <path d="M0,7.69L0,10.604L-4.715,10.604C-5.14,10.603 -5.511,10.593 -5.824,10.57C-5.893,10.566 -5.949,10.561 -5.979,10.559C-6.23,10.538 -6.46,10.509 -6.665,10.47L-6.668,10.47C-6.67,10.47 -6.671,10.469 -6.671,10.469C-6.671,10.469 -6.672,10.467 -6.673,10.467L-6.676,10.467C-6.899,10.423 -7.116,10.367 -7.327,10.298C-7.541,10.229 -7.744,10.149 -7.935,10.057C-8.93,9.581 -9.679,8.798 -10.179,7.703L-10.18,7.703C-10.404,7.207 -10.572,6.651 -10.686,6.035C-10.795,5.426 -10.852,4.763 -10.852,4.05L-10.852,4.045C-10.85,3.181 -10.767,2.394 -10.596,1.685C-10.571,1.581 -10.541,1.47 -10.504,1.343C-10.337,0.764 -10.107,0.238 -9.818,-0.229L-9.818,-0.231L-9.816,-0.234C-9.747,-0.345 -9.673,-0.454 -9.596,-0.56C-9.516,-0.669 -9.436,-0.771 -9.354,-0.864L-9.352,-0.864C-8.916,-1.362 -8.391,-1.75 -7.775,-2.018L-7.775,-2.019L-7.772,-2.021L-7.771,-2.021C-7.652,-2.072 -7.531,-2.121 -7.402,-2.164C-7.268,-2.214 -7.135,-2.255 -7.007,-2.288C-6.316,-2.475 -5.503,-2.569 -4.572,-2.569L0,-2.569L0,0.343L-4.269,0.343C-5.354,0.343 -6.141,0.62 -6.626,1.178C-6.815,1.395 -6.963,1.714 -7.063,2.136C-7.173,2.584 -7.227,3.141 -7.227,3.802C-7.227,4.691 -7.142,5.421 -6.975,5.992C-6.815,6.53 -6.586,6.92 -6.285,7.165C-6.073,7.334 -5.799,7.462 -5.459,7.551C-5.097,7.644 -4.667,7.69 -4.169,7.69L0,7.69Z" style="fill:rgb(0,90,170);"/>
    </g>
    <g transform="matrix(15.8389,0,0,15.8389,485.912,1077.1)">
        <path d="M0,-12.928L0,-5.095C0,-4.805 0.012,-4.552 0.034,-4.338C0.039,-4.288 0.043,-4.256 0.047,-4.236C0.066,-4.074 0.094,-3.933 0.128,-3.814L0.13,-3.814L0.132,-3.813L0.132,-3.804L0.134,-3.804L0.132,-3.804L0.134,-3.802C0.141,-3.772 0.154,-3.734 0.171,-3.689C0.185,-3.652 0.199,-3.615 0.215,-3.583C0.295,-3.404 0.405,-3.246 0.542,-3.112C0.771,-2.89 1.044,-2.723 1.364,-2.613C1.691,-2.498 2.069,-2.44 2.497,-2.44L2.503,-2.44C2.779,-2.44 3.038,-2.463 3.272,-2.51C3.312,-2.517 3.349,-2.525 3.387,-2.534C3.576,-2.579 3.754,-2.637 3.915,-2.712L3.918,-2.713C4.107,-2.797 4.267,-2.897 4.395,-3.011C4.515,-3.119 4.607,-3.239 4.675,-3.373L4.675,-3.374C4.746,-3.517 4.802,-3.727 4.84,-4.003C4.882,-4.3 4.902,-4.667 4.902,-5.104L4.902,-12.928L8.247,-12.928L8.247,-5.233C8.247,-4.733 8.222,-4.275 8.168,-3.861C8.115,-3.442 8.035,-3.061 7.928,-2.721C7.9,-2.633 7.867,-2.541 7.829,-2.44C7.791,-2.346 7.753,-2.255 7.712,-2.173C7.501,-1.726 7.223,-1.349 6.879,-1.042L6.879,-1.041C6.351,-0.577 5.714,-0.229 4.964,0.002C4.23,0.23 3.393,0.344 2.451,0.344L2.447,0.344C1.453,0.344 0.586,0.233 -0.148,0.01C-0.261,-0.023 -0.38,-0.064 -0.503,-0.109C-1.102,-0.333 -1.604,-0.637 -2.011,-1.021L-2.013,-1.024C-2.262,-1.264 -2.475,-1.519 -2.649,-1.79C-2.826,-2.062 -2.964,-2.348 -3.062,-2.648C-3.158,-2.942 -3.229,-3.29 -3.275,-3.693C-3.321,-4.09 -3.345,-4.539 -3.345,-5.04L-3.345,-12.928L0,-12.928Z" style="fill:rgb(0,90,170);"/>
    </g>
    <g transform="matrix(15.8389,0,0,15.8389,412.874,1075.54)">
        <path d="M0,-12.829L0,-9.918L-3.809,-9.918C-4.685,-9.918 -5.312,-9.86 -5.692,-9.745L-5.693,-9.745L-5.697,-9.743L-5.697,-9.745C-5.739,-9.732 -5.785,-9.715 -5.832,-9.695C-5.881,-9.676 -5.925,-9.655 -5.965,-9.635C-6.185,-9.522 -6.379,-9.355 -6.545,-9.141L-6.544,-9.141C-6.624,-9.034 -6.691,-8.929 -6.743,-8.826C-6.796,-8.723 -6.834,-8.622 -6.86,-8.521L-6.86,-8.519C-6.892,-8.403 -6.921,-8.248 -6.947,-8.055C-6.96,-7.951 -6.976,-7.824 -6.99,-7.673L0,-7.673L0,-4.76L-6.983,-4.76C-6.981,-4.745 -6.979,-4.731 -6.976,-4.716C-6.957,-4.589 -6.932,-4.467 -6.904,-4.349C-6.766,-3.788 -6.537,-3.381 -6.212,-3.126C-5.983,-2.947 -5.667,-2.811 -5.263,-2.718C-4.835,-2.619 -4.31,-2.57 -3.691,-2.57L0,-2.57L0,0.344L-3.823,0.344C-4.308,0.343 -4.755,0.328 -5.164,0.299C-5.249,0.293 -5.319,0.286 -5.368,0.282C-5.694,0.255 -6.021,0.217 -6.345,0.164C-6.944,0.066 -7.486,-0.113 -7.968,-0.379C-8.453,-0.645 -8.877,-0.995 -9.235,-1.424L-9.235,-1.428C-9.739,-2.04 -10.114,-2.755 -10.365,-3.574C-10.608,-4.384 -10.731,-5.298 -10.731,-6.311C-10.731,-8.591 -10.026,-10.369 -8.613,-11.643L-8.612,-11.643L-8.611,-11.644L-8.612,-11.645C-8.556,-11.696 -8.487,-11.754 -8.403,-11.82C-8.326,-11.881 -8.256,-11.936 -8.191,-11.983L-8.19,-11.982C-7.82,-12.248 -7.431,-12.445 -7.025,-12.57C-6.745,-12.658 -6.418,-12.724 -6.05,-12.766C-5.687,-12.809 -5.28,-12.829 -4.835,-12.829L0,-12.829Z" style="fill:rgb(0,90,170);"/>
    </g>
    <g transform="matrix(15.8389,0,0,15.8389,85.2999,1077.18)">
        <path d="M0,-12.693L2.791,-3.957L5.729,-12.699L5.808,-12.933L10.277,-12.933L10.277,0.24L7.054,0.24L7.054,-7.44L4.461,0.006L4.38,0.24L1.15,0.24L1.073,0L-1.335,-7.326L-1.335,0.24L-4.56,0.24L-4.56,-12.933L-0.076,-12.933L0,-12.693Z" style="fill:rgb(0,90,170);"/>
    </g>
    <g transform="matrix(0,-15.8389,-15.8389,0,395.472,10)">
        <path d="M-24.337,-24.336C-37.777,-24.336 -48.673,-13.441 -48.673,0.001C-48.673,13.442 -37.777,24.337 -24.337,24.337C-10.896,24.337 0,13.442 0,0.001C0,-13.441 -10.896,-24.336 -24.337,-24.336" style="fill:rgb(0,90,170);"/>
    </g>
    <g transform="matrix(15.8389,0,0,15.8389,292.489,504.302)">
        <path d="M0,-10.472C3.487,-1.68 8.385,7.985 15.04,15.925C12.382,16.922 9.504,17.468 6.501,17.468C4.968,17.468 3.471,17.326 2.017,17.05C-0.793,12.402 -5.162,4.466 -8.252,-4.428C-10.764,-2.403 -13.352,-0.139 -16.011,2.392C-16.804,0.465 -17.358,-1.586 -17.633,-3.723C-15.802,-6.32 -13.449,-9.281 -10.524,-12.231C-11.335,-15.753 -11.846,-19.321 -11.894,-22.805C-10.13,-24.839 -8.034,-26.579 -5.687,-27.94C-5.008,-25.335 -4.117,-22.184 -2.975,-18.701C1.506,-21.931 6.815,-24.763 13.02,-26.594C14.832,-24.675 16.471,-22.22 17.394,-19.153C12.563,-17.527 6.669,-14.854 0,-10.472" style="fill:white;fill-rule:nonzero;"/>
    </g>
    <g transform="matrix(15.8389,0,0,15.8389,57.4883,551.09)">
        <path d="M0,-20.929L-0.15,-21.256C-0.407,-20.772 -0.649,-20.282 -0.872,-19.781L-0.57,-19.727L0,-20.929ZM-0.088,-10.847L0.762,-12.5L1.513,-13.514L1.176,-14.462L0.373,-12.983L-0.357,-12.549L0.099,-14.392L1.206,-15.628L2.406,-16.914L1.542,-18.118L0.661,-18.74L-0.071,-18.305L-1.254,-18.881L-1.267,-18.885L-1.279,-18.819L-1.578,-17.268L-1.383,-14.516L-2.055,-14.547L-2.353,-15.087L-2.424,-15.097C-2.801,-13.4 -2.998,-11.631 -2.998,-9.823C-2.998,-8.759 -2.934,-7.71 -2.796,-6.677C-1.97,-7.847 -1.033,-9.096 0.009,-10.379L-0.088,-10.847ZM-2.631,-5.609C-2.632,-5.619 -2.635,-5.629 -2.637,-5.637C-2.635,-5.629 -2.634,-5.619 -2.631,-5.609M43.238,-20.446L42.78,-20.866L43.126,-20.67C42.99,-20.95 42.848,-21.22 42.701,-21.491L42.684,-21.448L42.161,-21.442L41.572,-20.543L40.45,-20.211L39.489,-20.316L38.873,-20.025L38.656,-19.523L38.931,-18.929L38.837,-18.398L37.433,-18.531L37.132,-19.027L35.842,-19.001L35.248,-19.208L35.425,-19.901L35.034,-20.569L34.974,-21.123L34.866,-20.792L34.534,-21.066L34.285,-20.721L31.982,-19.99L31.277,-19.085L30.479,-19.133L30.112,-19.272L29.896,-19.391L29.73,-18.416L29.234,-17.965L28.964,-16.82L29.129,-15.983L28.393,-15.309L27.9,-14.534L27.479,-12.296L27.914,-11.113L28.268,-9.687L28.052,-9.017L28.513,-7.927L30.36,-6.199L30.954,-5.285L33.188,-4.001L34.455,-4.48L35.271,-4.231L37.389,-5.299L38.217,-4.852L38.718,-4.515L39.379,-4.992L40.335,-4.511L40.499,-2.884L41.753,-1.989L42.831,-1.106L43.078,-0.505L43.562,0.107C44.918,-2.928 45.675,-6.287 45.675,-9.823C45.675,-13.629 44.798,-17.236 43.238,-20.446M8.278,-1.196L7.37,-2.521L6.279,-2.161L4.813,-2.577L3.55,-2.4L2.783,-2.379L2.163,-1.009L0.812,-0.775L0.395,-1.961L0.343,-1.978C-0.016,-1.646 -0.378,-1.309 -0.74,-0.967L-0.035,-0.992L0.528,-0.322L1.91,0.148L2.558,-0.522L2.717,1.819L2.762,3.51L4.601,5.283L6.288,6.001L7.853,10.436C8.521,10.884 9.218,11.297 9.932,11.677L10.259,10.38L10.241,9.387L11.193,8.961L11.074,6.742L11.491,4.486L11.53,4.35C10.674,2.604 9.813,0.749 8.986,-1.193L8.278,-1.196ZM28.769,-20.171L29.212,-20.063L29.58,-20.171L29.828,-19.568L30.254,-19.909L30.884,-19.997L31.242,-20.596L31.379,-21.314L31.354,-21.804C30.495,-21.5 29.604,-21.162 28.687,-20.79L28.769,-20.171ZM31.605,-30.903L31.93,-30.5L32.262,-31.17L32.336,-31.541C32.118,-31.652 31.902,-31.759 31.681,-31.861L31.911,-31.568L31.756,-31.129L31.605,-30.903ZM27.994,-29.394L28.141,-30.039L27.4,-30.132L27.307,-29.964L27.211,-29.34C27.43,-29.407 27.638,-29.482 27.856,-29.548C27.903,-29.498 27.948,-29.444 27.994,-29.394M30.476,-28.094L30.037,-27.087L29.797,-27.155C30.602,-25.984 31.312,-24.671 31.859,-23.206L31.711,-23.72L31.92,-23.929L32.655,-23.897L32.811,-24.415L33.134,-24.877L33.905,-24.034L35.421,-23.206L35.982,-22.857L36.196,-22.116L36.378,-22.022L36.476,-22.847L36.067,-23.179L36.188,-23.556L36.542,-23.374L36.556,-23.583L35.599,-23.977L34.849,-24.292L34.574,-24.802L34.037,-25.081L33.824,-25.737L34.202,-25.892L34.716,-25.439L35.624,-24.854L36.489,-24.465L36.83,-23.614L37.805,-22.852L38.319,-22.236L38.736,-22.28L38.488,-22.962L38.811,-23.26L37.925,-23.933L37.64,-24.398L38.035,-24.185L38.234,-24.429L37.862,-24.736L38.377,-24.983L38.873,-25.514L39.161,-25.675L38.541,-25.958L38.333,-27.243C36.808,-28.733 35.092,-30.021 33.219,-31.067L32.806,-30.319L32.346,-30.544L31.897,-30.199L31.458,-30.598L31.548,-31.461L31.215,-32.074L31.185,-32.135L31.157,-32.1L30.874,-31.723L31.051,-30.846L31.508,-30L30.785,-29.374L30.476,-28.094ZM38.997,-24.327L39.821,-23.34L40.694,-23.322L40.694,-23.942L41.11,-24.008C40.633,-24.681 40.113,-25.333 39.56,-25.953L39.387,-25.847L39.205,-25.24L38.705,-24.952L38.997,-24.327ZM28.317,-29.978L28.876,-29.548L28.56,-28.762C28.852,-28.419 29.133,-28.058 29.408,-27.688L29.948,-27.877L30.049,-29.104L29.58,-29.13L28.831,-30.407L28.419,-31.032L28.733,-31.598L28.233,-31.789L28.441,-32.313L27.883,-31.909L28.008,-30.731L28.317,-29.978ZM30.55,-32.047L30.662,-32.313C30.417,-32.415 30.175,-32.512 29.926,-32.606L30.002,-32.361L30.55,-32.047Z" style="fill:rgb(141,216,248);fill-rule:nonzero;"/>
    </g>
    <g transform="matrix(13.3361,0,0,13.3361,514.233,937.637)">
        <path d="M0,5.843C0,5.843 0,5.848 0.005,5.853C0.005,5.858 0,5.848 0,5.843M-31.731,-4.609L-28.447,5.677L-24.984,-4.618L-24.894,-4.896L-19.626,-4.896L-19.626,-0.108C-19.23,-1.456 -18.528,-2.587 -17.52,-3.496L-17.515,-3.496L-17.515,-3.501C-17.453,-3.558 -17.369,-3.628 -17.27,-3.709C-17.181,-3.779 -17.1,-3.84 -17.021,-3.897C-16.587,-4.208 -16.125,-4.443 -15.648,-4.589C-15.314,-4.693 -14.934,-4.769 -14.499,-4.821C-14.07,-4.873 -13.594,-4.896 -13.067,-4.896L-7.374,-4.896L-7.374,-1.465L-11.86,-1.465C-12.893,-1.465 -13.632,-1.395 -14.08,-1.262L-14.084,-1.259L-14.084,-1.262C-14.132,-1.244 -14.188,-1.225 -14.244,-1.202C-14.301,-1.178 -14.353,-1.155 -14.4,-1.131C-14.659,-0.999 -14.885,-0.802 -15.084,-0.552L-15.084,-0.547C-15.178,-0.424 -15.253,-0.302 -15.314,-0.179C-15.376,-0.056 -15.423,0.061 -15.456,0.179L-15.456,0.184C-15.493,0.321 -15.526,0.5 -15.555,0.731C-15.574,0.852 -15.592,1 -15.606,1.178L-7.374,1.178L-7.374,4.609L-15.597,4.609C-15.597,4.627 -15.592,4.646 -15.592,4.661C-15.569,4.812 -15.54,4.953 -15.503,5.094C-15.342,5.754 -15.074,6.234 -14.692,6.535C-14.424,6.743 -14.052,6.908 -13.571,7.017C-13.067,7.13 -12.449,7.19 -11.724,7.19L-7.374,7.19L-7.374,10.621L-11.874,10.621C-12.444,10.621 -12.973,10.603 -13.458,10.57C-13.557,10.56 -13.642,10.555 -13.698,10.551C-14.084,10.517 -14.467,10.47 -14.848,10.409C-15.555,10.297 -16.191,10.084 -16.756,9.773C-17.331,9.457 -17.831,9.047 -18.251,8.539L-18.251,8.534C-18.844,7.813 -19.287,6.969 -19.579,6.008C-19.598,5.951 -19.611,5.895 -19.631,5.843L-19.631,10.621L-23.43,10.621L-23.43,1.574L-26.478,10.348L-26.576,10.621L-30.379,10.621L-30.468,10.339L-33.306,1.71L-33.306,10.621L-37.103,10.621L-37.103,-4.896L-31.825,-4.896L-31.731,-4.609ZM19.998,7.19L19.998,10.621L14.443,10.621C13.943,10.621 13.506,10.607 13.138,10.584C13.054,10.579 12.987,10.574 12.954,10.57C12.658,10.547 12.389,10.508 12.148,10.461L12.134,10.461C11.87,10.409 11.615,10.344 11.366,10.263C11.116,10.183 10.876,10.089 10.654,9.981C9.481,9.42 8.595,8.496 8.006,7.205C7.86,6.881 7.733,6.532 7.625,6.159C7.568,6.508 7.492,6.833 7.394,7.13L7.398,7.13L7.394,7.13C7.365,7.234 7.323,7.341 7.28,7.459C7.233,7.573 7.19,7.676 7.144,7.776C6.894,8.302 6.564,8.745 6.159,9.109C5.537,9.655 4.788,10.065 3.907,10.339C3.04,10.607 2.055,10.739 0.947,10.739L0.943,10.739C-0.23,10.739 -1.249,10.607 -2.116,10.348C-2.252,10.305 -2.389,10.258 -2.534,10.206C-3.241,9.943 -3.83,9.585 -4.307,9.133L-4.312,9.128C-4.608,8.844 -4.858,8.543 -5.061,8.228C-5.273,7.907 -5.434,7.568 -5.546,7.215C-5.659,6.871 -5.743,6.461 -5.8,5.984C-5.852,5.518 -5.881,4.99 -5.881,4.397L-5.881,-4.896L-1.941,-4.896L-1.941,4.335C-1.941,4.674 -1.927,4.972 -1.903,5.222C-1.895,5.287 -1.89,5.321 -1.89,5.348C-1.861,5.536 -1.828,5.702 -1.79,5.843C-1.79,5.838 -1.79,5.843 -1.79,5.843L-1.785,5.853L-1.785,5.858C-1.776,5.895 -1.763,5.937 -1.743,5.989C-1.724,6.031 -1.706,6.074 -1.691,6.117C-1.598,6.324 -1.466,6.512 -1.306,6.668C-1.031,6.932 -0.711,7.125 -0.334,7.257C0.047,7.393 0.496,7.459 0.999,7.459L1.004,7.459C1.334,7.459 1.636,7.432 1.913,7.38C1.96,7.37 2.004,7.361 2.046,7.351C2.271,7.299 2.479,7.229 2.672,7.138C2.894,7.04 3.082,6.923 3.232,6.785C3.374,6.663 3.487,6.517 3.563,6.362C3.647,6.192 3.713,5.947 3.761,5.622C3.809,5.274 3.831,4.839 3.831,4.321L3.831,-4.896L7.771,-4.896L7.771,-0.745C7.949,-1.249 8.167,-1.711 8.431,-2.139L8.436,-2.139C8.516,-2.276 8.6,-2.404 8.693,-2.525C8.788,-2.658 8.883,-2.775 8.982,-2.884C9.495,-3.472 10.112,-3.925 10.839,-4.245L10.844,-4.245C10.984,-4.307 11.126,-4.364 11.276,-4.416C11.437,-4.472 11.593,-4.519 11.743,-4.562C12.559,-4.782 13.515,-4.896 14.613,-4.896L19.998,-4.896L19.998,-1.46L14.972,-1.46C13.689,-1.46 12.766,-1.136 12.19,-0.481C11.969,-0.226 11.795,0.15 11.677,0.651C11.551,1.178 11.484,1.833 11.484,2.611C11.484,3.657 11.583,4.52 11.781,5.193C11.969,5.825 12.238,6.286 12.597,6.574C12.841,6.772 13.166,6.923 13.566,7.027C13.991,7.135 14.5,7.19 15.089,7.19L19.998,7.19Z" style="fill:rgb(16,81,158);"/>
    </g>
    <g transform="matrix(13.3361,0,0,13.3361,-12823.4,-2219.13)">
        <rect x="963.007" y="251.374" width="17.443" height="0.674" style="fill:rgb(141,216,248);"/>
    </g>
    <g transform="matrix(10.0021,0,0,10.0021,-3112.72,59.8592)">
        <text x="311.875px" y="120.676px" style="font-family:'OpenSans-Bold', 'Open Sans', sans-serif;font-weight:700;font-size:9.998px;fill:rgb(16,81,158);">Nome da</text>
        <text x="311.875px" y="131.022px" style="font-family:'OpenSans-Bold', 'Open Sans', sans-serif;font-weight:700;font-size:9.998px;fill:rgb(16,81,158);">cidade em até</text>
        <text x="311.875px" y="141.367px" style="font-family:'OpenSans-Bold', 'Open Sans', sans-serif;font-weight:700;font-size:9.998px;fill:rgb(16,81,158);">três linhas</text>
    </g>
</svg>
