<?xml version="1.0" encoding="UTF-8" standalone="no"?>
<!DOCTYPE svg PUBLIC "-//W3C//DTD SVG 1.1//EN" "http://www.w3.org/Graphics/SVG/1.1/DTD/svg11.dtd">
<svg width="100%" height="100%" viewBox="0 0 791 1280" version="1.1" xmlns="http://www.w3.org/2000/svg" xmlns:xlink="http://www.w3.org/1999/xlink" xml:space="preserve" xmlns:serif="http://www.serif.com/" style="fill-rule:evenodd;clip-rule:evenodd;stroke-linejoin:round;stroke-miterlimit:2;">
    <g transform="matrix(15.8389,0,0,15.8389,780.929,913.025)">
        <path d="M0,7.69L0,10.604L-4.715,10.604C-5.14,10.603 -5.511,10.593 -5.824,10.57C-5.893,10.566 -5.949,10.561 -5.979,10.559C-6.23,10.538 -6.46,10.509 -6.665,10.47L-6.668,10.47C-6.67,10.47 -6.671,10.469 -6.671,10.469C-6.671,10.469 -6.672,10.467 -6.673,10.467L-6.676,10.467C-6.899,10.423 -7.116,10.367 -7.327,10.298C-7.541,10.229 -7.744,10.149 -7.935,10.057C-8.93,9.581 -9.679,8.798 -10.179,7.703L-10.18,7.703C-10.404,7.207 -10.572,6.651 -10.686,6.035C-10.795,5.426 -10.852,4.763 -10.852,4.05L-10.852,4.045C-10.85,3.181 -10.767,2.394 -10.596,1.685C-10.571,1.581 -10.541,1.47 -10.504,1.343C-10.337,0.764 -10.107,0.238 -9.818,-0.229L-9.818,-0.231L-9.816,-0.234C-9.747,-0.345 -9.673,-0.454 -9.596,-0.56C-9.516,-0.669 -9.436,-0.771 -9.354,-0.864L-9.352,-0.864C-8.916,-1.362 -8.391,-1.75 -7.775,-2.018L-7.775,-2.019L-7.772,-2.021L-7.771,-2.021C-7.652,-2.072 -7.531,-2.121 -7.402,-2.164C-7.268,-2.214 -7.135,-2.255 -7.007,-2.288C-6.316,-2.475 -5.503,-2.569 -4.572,-2.569L0,-2.569L0,0.343L-4.269,0.343C-5.354,0.343 -6.141,0.62 -6.626,1.178C-6.815,1.395 -6.963,1.714 -7.063,2.136C-7.173,2.584 -7.227,3.141 -7.227,3.802C-7.227,4.691 -7.142,5.421 -6.975,5.992C-6.815,6.53 -6.586,6.92 -6.285,7.165C-6.073,7.334 -5.799,7.462 -5.459,7.551C-5.097,7.644 -4.667,7.69 -4.169,7.69L0,7.69Z" style="fill:rgb(0,90,170);"/>
    </g>
    <g transform="matrix(15.8389,0,0,15.8389,485.912,1077.1)">
        <path d="M0,-12.928L0,-5.095C0,-4.805 0.012,-4.552 0.034,-4.338C0.039,-4.288 0.043,-4.256 0.047,-4.236C0.066,-4.074 0.094,-3.933 0.128,-3.814L0.13,-3.814L0.132,-3.813L0.132,-3.804L0.134,-3.804L0.132,-3.804L0.134,-3.802C0.141,-3.772 0.154,-3.734 0.171,-3.689C0.185,-3.652 0.199,-3.615 0.215,-3.583C0.295,-3.404 0.405,-3.246 0.542,-3.112C0.771,-2.89 1.044,-2.723 1.364,-2.613C1.691,-2.498 2.069,-2.44 2.497,-2.44L2.503,-2.44C2.779,-2.44 3.038,-2.463 3.272,-2.51C3.312,-2.517 3.349,-2.525 3.387,-2.534C3.576,-2.579 3.754,-2.637 3.915,-2.712L3.918,-2.713C4.107,-2.797 4.267,-2.897 4.395,-3.011C4.515,-3.119 4.607,-3.239 4.675,-3.373L4.675,-3.374C4.746,-3.517 4.802,-3.727 4.84,-4.003C4.882,-4.3 4.902,-4.667 4.902,-5.104L4.902,-12.928L8.247,-12.928L8.247,-5.233C8.247,-4.733 8.222,-4.275 8.168,-3.861C8.115,-3.442 8.035,-3.061 7.928,-2.721C7.9,-2.633 7.867,-2.541 7.829,-2.44C7.791,-2.346 7.753,-2.255 7.712,-2.173C7.501,-1.726 7.223,-1.349 6.879,-1.042L6.879,-1.041C6.351,-0.577 5.714,-0.229 4.964,0.002C4.23,0.23 3.393,0.344 2.451,0.344L2.447,0.344C1.453,0.344 0.586,0.233 -0.148,0.01C-0.261,-0.023 -0.38,-0.064 -0.503,-0.109C-1.102,-0.333 -1.604,-0.637 -2.011,-1.021L-2.013,-1.024C-2.262,-1.264 -2.475,-1.519 -2.649,-1.79C-2.826,-2.062 -2.964,-2.348 -3.062,-2.648C-3.158,-2.942 -3.229,-3.29 -3.275,-3.693C-3.321,-4.09 -3.345,-4.539 -3.345,-5.04L-3.345,-12.928L0,-12.928Z" style="fill:rgb(0,90,170);"/>
    </g>
    <g transform="matrix(15.8389,0,0,15.8389,412.874,1075.54)">
        <path d="M0,-12.829L0,-9.918L-3.809,-9.918C-4.685,-9.918 -5.312,-9.86 -5.692,-9.745L-5.693,-9.745L-5.697,-9.743L-5.697,-9.745C-5.739,-9.732 -5.785,-9.715 -5.832,-9.695C-5.881,-9.676 -5.925,-9.655 -5.965,-9.635C-6.185,-9.522 -6.379,-9.355 -6.545,-9.141L-6.544,-9.141C-6.624,-9.034 -6.691,-8.929 -6.743,-8.826C-6.796,-8.723 -6.834,-8.622 -6.86,-8.521L-6.86,-8.519C-6.892,-8.403 -6.921,-8.248 -6.947,-8.055C-6.96,-7.951 -6.976,-7.824 -6.99,-7.673L0,-7.673L0,-4.76L-6.983,-4.76C-6.981,-4.745 -6.979,-4.731 -6.976,-4.716C-6.957,-4.589 -6.932,-4.467 -6.904,-4.349C-6.766,-3.788 -6.537,-3.381 -6.212,-3.126C-5.983,-2.947 -5.667,-2.811 -5.263,-2.718C-4.835,-2.619 -4.31,-2.57 -3.691,-2.57L0,-2.57L0,0.344L-3.823,0.344C-4.308,0.343 -4.755,0.328 -5.164,0.299C-5.249,0.293 -5.319,0.286 -5.368,0.282C-5.694,0.255 -6.021,0.217 -6.345,0.164C-6.944,0.066 -7.486,-0.113 -7.968,-0.379C-8.453,-0.645 -8.877,-0.995 -9.235,-1.424L-9.235,-1.428C-9.739,-2.04 -10.114,-2.755 -10.365,-3.574C-10.608,-4.384 -10.731,-5.298 -10.731,-6.311C-10.731,-8.591 -10.026,-10.369 -8.613,-11.643L-8.612,-11.643L-8.611,-11.644L-8.612,-11.645C-8.556,-11.696 -8.487,-11.754 -8.403,-11.82C-8.326,-11.881 -8.256,-11.936 -8.191,-11.983L-8.19,-11.982C-7.82,-12.248 -7.431,-12.445 -7.025,-12.57C-6.745,-12.658 -6.418,-12.724 -6.05,-12.766C-5.687,-12.809 -5.28,-12.829 -4.835,-12.829L0,-12.829Z" style="fill:rgb(0,90,170);"/>
    </g>
    <g transform="matrix(15.8389,0,0,15.8389,85.2999,1077.18)">
        <path d="M0,-12.693L2.791,-3.957L5.729,-12.699L5.808,-12.933L10.277,-12.933L10.277,0.24L7.054,0.24L7.054,-7.44L4.461,0.006L4.38,0.24L1.15,0.24L1.073,0L-1.335,-7.326L-1.335,0.24L-4.56,0.24L-4.56,-12.933L-0.076,-12.933L0,-12.693Z" style="fill:rgb(0,90,170);"/>
    </g>
    <g transform="matrix(15.8389,0,0,15.8389,42.7327,1109.52)">
        <path d="M0,4.207L-1.429,0.478L-1.451,0.478C-1.425,0.773 -1.411,1.124 -1.411,1.531L-1.411,4.207L-1.862,4.207L-1.862,0L-1.126,0L0.206,3.47L0.23,3.47L1.573,0L2.305,0L2.305,4.207L1.815,4.207L1.815,1.497C1.815,1.186 1.828,0.847 1.855,0.483L1.833,0.483L0.394,4.207L0,4.207Z" style="fill:rgb(118,120,123);fill-rule:nonzero;"/>
    </g>
    <g transform="matrix(15.8389,0,0,15.8389,-3272.38,-9686.59)">
        <path d="M213.165,685.825L212.687,685.825L212.687,682.671L213.165,682.671L213.165,685.825ZM212.646,681.817C212.646,681.707 212.675,681.628 212.728,681.576C212.782,681.525 212.848,681.5 212.931,681.5C213.006,681.5 213.072,681.525 213.128,681.579C213.183,681.63 213.212,681.709 213.212,681.817C213.212,681.924 213.183,682.004 213.128,682.057C213.072,682.11 213.006,682.136 212.931,682.136C212.848,682.136 212.782,682.11 212.728,682.057C212.675,682.004 212.646,681.924 212.646,681.817" style="fill:rgb(118,120,123);fill-rule:nonzero;"/>
    </g>
    <g transform="matrix(15.8389,0,0,15.8389,152.197,1139.83)">
        <path d="M0,1.433C0,1.726 -0.109,1.954 -0.329,2.112C-0.547,2.271 -0.854,2.351 -1.25,2.351C-1.667,2.351 -1.993,2.285 -2.228,2.152L-2.228,1.709C-2.075,1.787 -1.913,1.846 -1.739,1.89C-1.567,1.933 -1.397,1.956 -1.237,1.956C-0.987,1.956 -0.796,1.918 -0.663,1.837C-0.527,1.758 -0.461,1.637 -0.461,1.474C-0.461,1.35 -0.514,1.246 -0.62,1.158C-0.727,1.07 -0.935,0.968 -1.244,0.849C-1.536,0.739 -1.746,0.644 -1.869,0.562C-1.993,0.481 -2.084,0.388 -2.145,0.285C-2.206,0.182 -2.236,0.058 -2.236,-0.087C-2.236,-0.343 -2.132,-0.546 -1.922,-0.695C-1.713,-0.843 -1.428,-0.918 -1.062,-0.918C-0.723,-0.918 -0.39,-0.85 -0.065,-0.71L-0.235,-0.322C-0.553,-0.453 -0.84,-0.518 -1.096,-0.518C-1.323,-0.518 -1.493,-0.483 -1.608,-0.412C-1.723,-0.34 -1.781,-0.243 -1.781,-0.119C-1.781,-0.034 -1.761,0.038 -1.718,0.098C-1.673,0.158 -1.604,0.214 -1.509,0.267C-1.412,0.321 -1.229,0.399 -0.956,0.5C-0.582,0.637 -0.329,0.774 -0.197,0.912C-0.065,1.05 0,1.223 0,1.433" style="fill:rgb(118,120,123);fill-rule:nonzero;"/>
    </g>
    <g transform="matrix(15.8389,0,0,15.8389,196.713,1139.83)">
        <path d="M0,1.433C0,1.726 -0.108,1.954 -0.328,2.112C-0.545,2.271 -0.854,2.351 -1.247,2.351C-1.667,2.351 -1.993,2.285 -2.227,2.152L-2.227,1.709C-2.075,1.787 -1.913,1.846 -1.738,1.89C-1.565,1.933 -1.398,1.956 -1.237,1.956C-0.987,1.956 -0.796,1.918 -0.662,1.837C-0.526,1.758 -0.46,1.637 -0.46,1.474C-0.46,1.35 -0.513,1.246 -0.62,1.158C-0.727,1.07 -0.934,0.968 -1.243,0.849C-1.536,0.739 -1.745,0.644 -1.869,0.562C-1.992,0.481 -2.084,0.388 -2.145,0.285C-2.205,0.182 -2.234,0.058 -2.234,-0.087C-2.234,-0.343 -2.132,-0.546 -1.922,-0.695C-1.712,-0.843 -1.426,-0.918 -1.062,-0.918C-0.723,-0.918 -0.39,-0.85 -0.065,-0.71L-0.235,-0.322C-0.552,-0.453 -0.839,-0.518 -1.096,-0.518C-1.323,-0.518 -1.493,-0.483 -1.608,-0.412C-1.723,-0.34 -1.781,-0.243 -1.781,-0.119C-1.781,-0.034 -1.759,0.038 -1.716,0.098C-1.674,0.158 -1.604,0.214 -1.508,0.267C-1.412,0.321 -1.228,0.399 -0.954,0.5C-0.582,0.637 -0.328,0.774 -0.197,0.912C-0.065,1.05 0,1.223 0,1.433" style="fill:rgb(118,120,123);fill-rule:nonzero;"/>
    </g>
    <g transform="matrix(15.8389,0,0,15.8389,222.638,1113.99)">
        <path d="M0,3.587C0.298,3.587 0.532,3.507 0.701,3.343C0.872,3.18 0.956,2.951 0.956,2.658L0.956,2.373L0.479,2.393C0.098,2.406 -0.176,2.465 -0.344,2.57C-0.512,2.675 -0.595,2.838 -0.595,3.058C-0.595,3.231 -0.543,3.362 -0.437,3.452C-0.334,3.543 -0.187,3.587 0,3.587M0.709,0.348C0.625,0.348 0.546,0.33 0.467,0.294C0.389,0.258 0.312,0.22 0.236,0.177C0.159,0.133 0.086,0.094 0.017,0.059C-0.054,0.023 -0.121,0.005 -0.187,0.005C-0.282,0.005 -0.354,0.033 -0.404,0.091C-0.452,0.148 -0.49,0.235 -0.516,0.353L-0.799,0.353C-0.774,0.121 -0.707,-0.06 -0.596,-0.192C-0.486,-0.323 -0.344,-0.39 -0.169,-0.39C-0.081,-0.39 0.005,-0.371 0.087,-0.335C0.17,-0.299 0.249,-0.262 0.323,-0.218C0.398,-0.174 0.47,-0.135 0.54,-0.1C0.607,-0.064 0.674,-0.047 0.735,-0.047C0.827,-0.047 0.898,-0.075 0.945,-0.132C0.99,-0.188 1.028,-0.276 1.057,-0.395L1.343,-0.395C1.317,-0.162 1.251,0.019 1.142,0.15C1.033,0.282 0.89,0.348 0.709,0.348M1.08,3.924L0.985,3.475L0.961,3.475C0.806,3.674 0.647,3.807 0.491,3.878C0.334,3.947 0.14,3.982 -0.094,3.982C-0.407,3.982 -0.652,3.901 -0.829,3.74C-1.007,3.579 -1.095,3.35 -1.095,3.053C-1.095,2.416 -0.586,2.082 0.432,2.05L0.968,2.034L0.968,1.838C0.968,1.59 0.914,1.407 0.808,1.29C0.701,1.172 0.531,1.113 0.297,1.113C0.034,1.113 -0.264,1.194 -0.595,1.355L-0.741,0.989C-0.586,0.904 -0.416,0.838 -0.23,0.791C-0.046,0.743 0.14,0.719 0.326,0.719C0.702,0.719 0.981,0.803 1.161,0.969C1.344,1.136 1.434,1.404 1.434,1.772L1.434,3.924L1.08,3.924Z" style="fill:rgb(118,120,123);fill-rule:nonzero;"/>
    </g>
    <g transform="matrix(15.8389,0,0,15.8389,265.994,1151.23)">
        <path d="M0,-0.007C0,0.396 0.08,0.702 0.243,0.914C0.403,1.125 0.641,1.231 0.952,1.231C1.266,1.231 1.503,1.126 1.664,0.916C1.828,0.705 1.908,0.397 1.908,-0.007C1.908,-0.407 1.828,-0.713 1.664,-0.921C1.503,-1.128 1.265,-1.232 0.947,-1.232C0.635,-1.232 0.397,-1.13 0.239,-0.924C0.079,-0.72 0,-0.413 0,-0.007M2.403,-0.007C2.403,0.508 2.273,0.909 2.015,1.198C1.755,1.486 1.398,1.631 0.94,1.631C0.66,1.631 0.41,1.565 0.19,1.431C-0.028,1.299 -0.196,1.11 -0.316,0.862C-0.435,0.615 -0.495,0.326 -0.495,-0.007C-0.495,-0.521 -0.366,-0.921 -0.108,-1.209C0.147,-1.495 0.505,-1.638 0.962,-1.638C1.401,-1.638 1.753,-1.492 2.013,-1.198C2.273,-0.905 2.403,-0.508 2.403,-0.007" style="fill:rgb(118,120,123);fill-rule:nonzero;"/>
    </g>
    <g transform="matrix(15.8389,0,0,15.8389,379.836,1109.52)">
        <path d="M0,4.207L-2.344,4.207L-2.344,0L0,0L0,0.435L-1.856,0.435L-1.856,1.79L-0.111,1.79L-0.111,2.222L-1.856,2.222L-1.856,3.77L0,3.77L0,4.207Z" style="fill:rgb(118,120,123);fill-rule:nonzero;"/>
    </g>
    <g transform="matrix(15.8389,0,0,15.8389,404.397,1126.2)">
        <path d="M0,3.154L-1.197,0L-0.684,0L-0.005,1.871C0.148,2.306 0.238,2.592 0.265,2.722L0.289,2.722C0.309,2.621 0.376,2.41 0.488,2.092C0.602,1.771 0.853,1.074 1.244,0L1.756,0L0.559,3.154L0,3.154Z" style="fill:rgb(118,120,123);fill-rule:nonzero;"/>
    </g>
    <g transform="matrix(15.8389,0,0,15.8389,453.864,1131.64)">
        <path d="M0,2.473C0.297,2.473 0.53,2.393 0.7,2.229C0.871,2.066 0.955,1.837 0.955,1.544L0.955,1.259L0.478,1.279C0.097,1.292 -0.176,1.351 -0.345,1.456C-0.512,1.561 -0.597,1.724 -0.597,1.944C-0.597,2.117 -0.545,2.248 -0.438,2.338C-0.335,2.429 -0.187,2.473 0,2.473M1.078,2.81L0.984,2.361L0.961,2.361C0.804,2.56 0.646,2.693 0.49,2.764C0.334,2.833 0.139,2.868 -0.096,2.868C-0.407,2.868 -0.652,2.787 -0.829,2.626C-1.007,2.465 -1.097,2.236 -1.097,1.939C-1.097,1.302 -0.588,0.968 0.431,0.936L0.967,0.92L0.967,0.724C0.967,0.476 0.914,0.293 0.808,0.176C0.7,0.058 0.53,-0.001 0.297,-0.001C0.033,-0.001 -0.264,0.08 -0.597,0.241L-0.742,-0.125C-0.588,-0.21 -0.417,-0.276 -0.231,-0.323C-0.046,-0.371 0.139,-0.395 0.325,-0.395C0.7,-0.395 0.979,-0.311 1.161,-0.145C1.342,0.022 1.433,0.29 1.433,0.658L1.433,2.81L1.078,2.81Z" style="fill:rgb(118,120,123);fill-rule:nonzero;"/>
    </g>
    <g transform="matrix(15.8389,0,0,15.8389,526.314,1125.29)">
        <path d="M0,3.211L0,1.171C0,0.914 -0.058,0.722 -0.176,0.595C-0.291,0.468 -0.474,0.406 -0.724,0.406C-1.055,0.406 -1.296,0.495 -1.449,0.673C-1.604,0.852 -1.68,1.146 -1.68,1.556L-1.68,3.211L-2.157,3.211L-2.157,0.057L-1.769,0.057L-1.691,0.49L-1.668,0.49C-1.57,0.333 -1.433,0.213 -1.257,0.128C-1.08,0.043 -0.884,0 -0.666,0C-0.287,0 -0.002,0.092 0.191,0.274C0.383,0.458 0.479,0.75 0.479,1.153L0.479,3.211L0,3.211Z" style="fill:rgb(118,120,123);fill-rule:nonzero;"/>
    </g>
    <g transform="matrix(15.8389,0,0,15.8389,554.59,1181.66)">
        <path d="M0,-2.492C0,-2.271 0.062,-2.104 0.187,-1.991C0.311,-1.879 0.485,-1.823 0.707,-1.823C1.173,-1.823 1.408,-2.047 1.408,-2.5C1.408,-2.973 1.171,-3.212 0.698,-3.212C0.475,-3.212 0.302,-3.151 0.183,-3.03C0.06,-2.909 0,-2.729 0,-2.492M-0.261,0.181C-0.261,0.352 -0.187,0.482 -0.043,0.57C0.1,0.657 0.308,0.701 0.575,0.701C0.976,0.701 1.273,0.642 1.465,0.523C1.658,0.402 1.755,0.239 1.755,0.035C1.755,-0.137 1.702,-0.255 1.597,-0.321C1.491,-0.387 1.293,-0.42 1.001,-0.42L0.429,-0.42C0.211,-0.42 0.043,-0.368 -0.079,-0.264C-0.198,-0.162 -0.261,-0.013 -0.261,0.181M2.255,-3.502L2.255,-3.2L1.672,-3.131C1.726,-3.063 1.772,-2.976 1.814,-2.867C1.857,-2.76 1.88,-2.637 1.88,-2.5C1.88,-2.192 1.772,-1.945 1.561,-1.76C1.351,-1.577 1.062,-1.484 0.693,-1.484C0.6,-1.484 0.512,-1.492 0.429,-1.508C0.226,-1.401 0.124,-1.266 0.124,-1.101C0.124,-1.016 0.159,-0.951 0.229,-0.911C0.3,-0.869 0.423,-0.849 0.596,-0.849L1.153,-0.849C1.495,-0.849 1.757,-0.777 1.939,-0.633C2.124,-0.49 2.216,-0.28 2.216,-0.006C2.216,0.343 2.076,0.61 1.795,0.793C1.516,0.977 1.106,1.067 0.57,1.067C0.157,1.067 -0.161,0.99 -0.385,0.838C-0.608,0.684 -0.721,0.467 -0.721,0.186C-0.721,-0.005 -0.658,-0.171 -0.535,-0.311C-0.413,-0.45 -0.24,-0.546 -0.018,-0.596C-0.099,-0.632 -0.167,-0.688 -0.221,-0.765C-0.275,-0.842 -0.303,-0.93 -0.303,-1.034C-0.303,-1.148 -0.272,-1.249 -0.21,-1.335C-0.15,-1.422 -0.053,-1.506 0.08,-1.586C-0.083,-1.654 -0.216,-1.767 -0.318,-1.928C-0.421,-2.089 -0.473,-2.273 -0.473,-2.48C-0.473,-2.826 -0.368,-3.092 -0.162,-3.278C0.045,-3.466 0.339,-3.559 0.72,-3.559C0.884,-3.559 1.032,-3.541 1.165,-3.502L2.255,-3.502Z" style="fill:rgb(118,120,123);fill-rule:nonzero;"/>
    </g>
    <g transform="matrix(15.8389,0,0,15.8389,614,1163.26)">
        <path d="M0,-2.83C0.094,-2.948 0.192,-3.091 0.299,-3.26C0.405,-3.43 0.488,-3.577 0.551,-3.702L1.131,-3.702L1.131,-3.641C1.047,-3.516 0.922,-3.363 0.755,-3.18C0.588,-2.998 0.442,-2.856 0.32,-2.757L0,-2.757L0,-2.83ZM0.354,-1.997C0.102,-1.997 -0.1,-1.914 -0.252,-1.749C-0.402,-1.585 -0.49,-1.357 -0.518,-1.065L1.131,-1.065C1.131,-1.366 1.065,-1.598 0.931,-1.758C0.796,-1.916 0.604,-1.997 0.354,-1.997M0.484,0.872C0.019,0.872 -0.351,0.73 -0.618,0.445C-0.889,0.161 -1.022,-0.233 -1.022,-0.737C-1.022,-1.246 -0.897,-1.65 -0.648,-1.948C-0.397,-2.248 -0.061,-2.397 0.36,-2.397C0.756,-2.397 1.068,-2.268 1.298,-2.008C1.529,-1.747 1.643,-1.405 1.643,-0.979L1.643,-0.677L-0.529,-0.677C-0.52,-0.306 -0.425,-0.025 -0.248,0.167C-0.071,0.359 0.179,0.453 0.501,0.453C0.842,0.453 1.178,0.382 1.509,0.241L1.509,0.668C1.34,0.74 1.181,0.793 1.029,0.824C0.879,0.856 0.696,0.872 0.484,0.872" style="fill:rgb(118,120,123);fill-rule:nonzero;"/>
    </g>
    <g transform="matrix(-15.8389,0,0,15.8389,4585.82,-9689.01)">
        <rect x="247.827" y="681.5" width="0.478" height="4.478" style="fill:rgb(118,120,123);"/>
    </g>
    <g transform="matrix(15.8389,0,0,15.8389,-3272.38,-9686.59)">
        <path d="M249.796,685.825L249.317,685.825L249.317,682.671L249.796,682.671L249.796,685.825ZM249.278,681.817C249.278,681.707 249.306,681.628 249.358,681.576C249.411,681.525 249.479,681.5 249.559,681.5C249.637,681.5 249.702,681.525 249.758,681.579C249.813,681.63 249.842,681.709 249.842,681.817C249.842,681.924 249.813,682.004 249.758,682.057C249.702,682.11 249.637,682.136 249.559,682.136C249.479,682.136 249.411,682.11 249.358,682.057C249.306,682.004 249.278,681.924 249.278,681.817" style="fill:rgb(118,120,123);fill-rule:nonzero;"/>
    </g>
    <g transform="matrix(15.8389,0,0,15.8389,720.124,1125.29)">
        <path d="M0,3.269C-0.457,3.269 -0.811,3.129 -1.062,2.848C-1.312,2.567 -1.437,2.168 -1.437,1.654C-1.437,1.127 -1.31,0.719 -1.055,0.431C-0.801,0.144 -0.438,0 0.031,0C0.183,0 0.335,0.017 0.485,0.049C0.637,0.081 0.757,0.121 0.842,0.164L0.696,0.569C0.591,0.527 0.476,0.492 0.351,0.464C0.225,0.436 0.116,0.423 0.02,0.423C-0.621,0.423 -0.941,0.831 -0.941,1.648C-0.941,2.036 -0.863,2.334 -0.706,2.541C-0.55,2.748 -0.319,2.851 -0.013,2.851C0.251,2.851 0.521,2.795 0.797,2.682L0.797,3.104C0.585,3.214 0.319,3.269 0,3.269" style="fill:rgb(118,120,123);fill-rule:nonzero;"/>
    </g>
    <g transform="matrix(15.8389,0,0,15.8389,758.206,1131.64)">
        <path d="M0,2.473C0.299,2.473 0.531,2.393 0.701,2.229C0.871,2.066 0.956,1.837 0.956,1.544L0.956,1.259L0.479,1.279C0.098,1.292 -0.175,1.351 -0.344,1.456C-0.512,1.561 -0.596,1.724 -0.596,1.944C-0.596,2.117 -0.543,2.248 -0.437,2.338C-0.334,2.429 -0.187,2.473 0,2.473M1.079,2.81L0.985,2.361L0.961,2.361C0.805,2.56 0.647,2.693 0.491,2.764C0.335,2.833 0.14,2.868 -0.095,2.868C-0.406,2.868 -0.652,2.787 -0.829,2.626C-1.007,2.465 -1.097,2.236 -1.097,1.939C-1.097,1.302 -0.586,0.968 0.433,0.936L0.966,0.92L0.966,0.724C0.966,0.476 0.915,0.293 0.808,0.176C0.701,0.058 0.531,-0.001 0.298,-0.001C0.034,-0.001 -0.263,0.08 -0.596,0.241L-0.741,-0.125C-0.586,-0.21 -0.417,-0.276 -0.231,-0.323C-0.045,-0.371 0.14,-0.395 0.325,-0.395C0.701,-0.395 0.98,-0.311 1.162,-0.145C1.343,0.022 1.435,0.29 1.435,0.658L1.435,2.81L1.079,2.81Z" style="fill:rgb(118,120,123);fill-rule:nonzero;"/>
    </g>
    <g transform="matrix(15.8389,0,0,15.8389,63.5514,1270)">
        <path d="M0,-4.265L0,-1.543C0,-1.063 -0.146,-0.686 -0.436,-0.411C-0.724,-0.136 -1.123,0 -1.628,0C-2.136,0 -2.526,-0.138 -2.805,-0.413C-3.082,-0.69 -3.221,-1.07 -3.221,-1.554L-3.221,-4.265L-2.73,-4.265L-2.73,-1.519C-2.73,-1.168 -2.635,-0.898 -2.443,-0.711C-2.252,-0.523 -1.97,-0.428 -1.599,-0.428C-1.242,-0.428 -0.969,-0.523 -0.777,-0.712C-0.586,-0.901 -0.489,-1.172 -0.489,-1.524L-0.489,-4.265L0,-4.265Z" style="fill:rgb(118,120,123);fill-rule:nonzero;"/>
    </g>
    <g transform="matrix(15.8389,0,0,15.8389,114.223,1218.24)">
        <path d="M0,3.211L0,1.17C0,0.914 -0.06,0.722 -0.175,0.594C-0.292,0.468 -0.476,0.405 -0.725,0.405C-1.055,0.405 -1.297,0.495 -1.451,0.673C-1.604,0.851 -1.68,1.146 -1.68,1.557L-1.68,3.211L-2.157,3.211L-2.157,0.057L-1.77,0.057L-1.692,0.488L-1.669,0.488C-1.57,0.334 -1.435,0.213 -1.258,0.127C-1.081,0.043 -0.884,0 -0.668,0C-0.288,0 -0.002,0.09 0.189,0.273C0.382,0.458 0.478,0.751 0.478,1.153L0.478,3.211L0,3.211Z" style="fill:rgb(118,120,123);fill-rule:nonzero;"/>
    </g>
    <g transform="matrix(15.8389,0,0,15.8389,-3272.38,-9500.7)">
        <path d="M215.752,679.957L215.274,679.957L215.274,676.803L215.752,676.803L215.752,679.957ZM215.233,675.949C215.233,675.838 215.261,675.759 215.314,675.707C215.369,675.657 215.437,675.632 215.517,675.632C215.593,675.632 215.658,675.658 215.716,675.71C215.771,675.762 215.799,675.841 215.799,675.949C215.799,676.056 215.771,676.136 215.716,676.188C215.658,676.241 215.593,676.268 215.517,676.268C215.437,676.268 215.369,676.241 215.314,676.188C215.261,676.136 215.233,676.056 215.233,675.949" style="fill:rgb(118,120,123);fill-rule:nonzero;"/>
    </g>
    <g transform="matrix(15.8389,0,0,15.8389,174.563,1206.94)">
        <path d="M0,3.587C0.297,3.587 0.531,3.505 0.7,3.343C0.871,3.18 0.955,2.952 0.955,2.658L0.955,2.373L0.478,2.393C0.098,2.406 -0.176,2.466 -0.343,2.57C-0.511,2.674 -0.596,2.837 -0.596,3.058C-0.596,3.231 -0.543,3.362 -0.438,3.452C-0.334,3.542 -0.187,3.587 0,3.587M0.708,0.347C0.625,0.347 0.545,0.329 0.468,0.294C0.389,0.258 0.311,0.22 0.235,0.175C0.159,0.133 0.086,0.093 0.015,0.057C-0.055,0.022 -0.121,0.004 -0.187,0.004C-0.282,0.004 -0.355,0.033 -0.403,0.091C-0.453,0.149 -0.49,0.236 -0.518,0.354L-0.8,0.354C-0.774,0.121 -0.707,-0.062 -0.598,-0.192C-0.487,-0.324 -0.344,-0.389 -0.168,-0.389C-0.082,-0.389 0.004,-0.372 0.086,-0.336C0.169,-0.301 0.249,-0.261 0.322,-0.218C0.397,-0.174 0.47,-0.136 0.539,-0.1C0.608,-0.064 0.673,-0.046 0.734,-0.046C0.828,-0.046 0.898,-0.076 0.945,-0.132C0.99,-0.189 1.027,-0.277 1.058,-0.394L1.342,-0.394C1.316,-0.163 1.25,0.019 1.141,0.15C1.033,0.281 0.889,0.347 0.708,0.347M1.079,3.924L0.984,3.476L0.961,3.476C0.805,3.672 0.647,3.806 0.49,3.877C0.334,3.947 0.139,3.981 -0.095,3.981C-0.406,3.981 -0.651,3.901 -0.83,3.74C-1.008,3.579 -1.097,3.349 -1.097,3.051C-1.097,2.416 -0.586,2.082 0.432,2.051L0.967,2.034L0.967,1.837C0.967,1.591 0.914,1.408 0.807,1.289C0.7,1.172 0.531,1.112 0.297,1.112C0.033,1.112 -0.264,1.192 -0.596,1.355L-0.742,0.989C-0.586,0.905 -0.417,0.838 -0.231,0.791C-0.045,0.743 0.139,0.718 0.326,0.718C0.702,0.718 0.979,0.801 1.162,0.969C1.343,1.136 1.433,1.403 1.433,1.772L1.433,3.924L1.079,3.924Z" style="fill:rgb(118,120,123);fill-rule:nonzero;"/>
    </g>
    <g transform="matrix(15.8389,0,0,15.8389,217.935,1244.17)">
        <path d="M0,-0.006C0,0.397 0.079,0.703 0.241,0.915C0.401,1.126 0.639,1.23 0.951,1.23C1.265,1.23 1.501,1.126 1.662,0.916C1.825,0.707 1.906,0.399 1.906,-0.006C1.906,-0.407 1.825,-0.712 1.662,-0.92C1.501,-1.128 1.262,-1.232 0.945,-1.232C0.632,-1.232 0.397,-1.129 0.238,-0.923C0.079,-0.719 0,-0.413 0,-0.006M2.4,-0.006C2.4,0.508 2.272,0.91 2.012,1.197C1.755,1.487 1.396,1.631 0.938,1.631C0.658,1.631 0.407,1.564 0.189,1.432C-0.03,1.301 -0.199,1.111 -0.318,0.862C-0.437,0.616 -0.497,0.326 -0.497,-0.006C-0.497,-0.519 -0.367,-0.921 -0.11,-1.207C0.146,-1.494 0.504,-1.637 0.96,-1.637C1.401,-1.637 1.752,-1.49 2.011,-1.197C2.271,-0.904 2.4,-0.507 2.4,-0.006" style="fill:rgb(118,120,123);fill-rule:nonzero;"/>
    </g>
    <g transform="matrix(15.8389,0,0,15.8389,323.147,1263.09)">
        <path d="M0,-3.452C-0.463,-3.452 -0.828,-3.297 -1.096,-2.99C-1.362,-2.681 -1.497,-2.261 -1.497,-1.725C-1.497,-1.175 -1.367,-0.749 -1.109,-0.449C-0.851,-0.148 -0.483,0.002 -0.006,0.002C0.289,0.002 0.623,-0.052 0.998,-0.157L0.998,0.272C0.707,0.381 0.348,0.436 -0.08,0.436C-0.701,0.436 -1.178,0.248 -1.515,-0.128C-1.851,-0.504 -2.02,-1.037 -2.02,-1.732C-2.02,-2.164 -1.938,-2.544 -1.777,-2.869C-1.615,-3.196 -1.381,-3.447 -1.074,-3.624C-0.769,-3.801 -0.409,-3.888 0.005,-3.888C0.448,-3.888 0.832,-3.808 1.162,-3.647L0.955,-3.227C0.637,-3.377 0.318,-3.452 0,-3.452" style="fill:rgb(118,120,123);fill-rule:nonzero;"/>
    </g>
    <g transform="matrix(15.8389,0,0,15.8389,375.149,1269.09)">
        <path d="M0,-3.211C0.141,-3.211 0.267,-3.199 0.377,-3.177L0.311,-2.733C0.18,-2.762 0.064,-2.777 -0.034,-2.777C-0.289,-2.777 -0.508,-2.672 -0.689,-2.465C-0.87,-2.258 -0.96,-2.001 -0.96,-1.692L-0.96,0L-1.439,0L-1.439,-3.154L-1.044,-3.154L-0.99,-2.569L-0.967,-2.569C-0.851,-2.775 -0.709,-2.933 -0.544,-3.044C-0.378,-3.156 -0.198,-3.211 0,-3.211" style="fill:rgb(118,120,123);fill-rule:nonzero;"/>
    </g>
    <g transform="matrix(15.8389,0,0,15.8389,-3272.38,-9500.7)">
        <path d="M231.733,679.957L231.254,679.957L231.254,676.803L231.733,676.803L231.733,679.957ZM231.217,675.949C231.217,675.838 231.243,675.759 231.297,675.707C231.35,675.657 231.417,675.632 231.497,675.632C231.575,675.632 231.641,675.658 231.697,675.71C231.752,675.762 231.78,675.841 231.78,675.949C231.78,676.056 231.752,676.136 231.697,676.188C231.641,676.241 231.575,676.268 231.497,676.268C231.417,676.268 231.35,676.241 231.297,676.188C231.243,676.136 231.217,676.056 231.217,675.949" style="fill:rgb(118,120,123);fill-rule:nonzero;"/>
    </g>
    <g transform="matrix(15.8389,0,0,15.8389,446.315,1232.76)">
        <path d="M0,1.434C0,1.728 -0.111,1.953 -0.328,2.113C-0.547,2.271 -0.855,2.351 -1.25,2.351C-1.669,2.351 -1.995,2.285 -2.229,2.152L-2.229,1.71C-2.076,1.786 -1.915,1.846 -1.741,1.891C-1.566,1.935 -1.399,1.957 -1.239,1.957C-0.99,1.957 -0.798,1.917 -0.663,1.838C-0.528,1.759 -0.462,1.637 -0.462,1.474C-0.462,1.352 -0.516,1.247 -0.622,1.159C-0.729,1.072 -0.935,0.968 -1.245,0.849C-1.538,0.741 -1.747,0.644 -1.869,0.564C-1.994,0.482 -2.087,0.389 -2.146,0.286C-2.207,0.182 -2.236,0.059 -2.236,-0.086C-2.236,-0.342 -2.132,-0.545 -1.924,-0.694C-1.714,-0.843 -1.428,-0.917 -1.063,-0.917C-0.724,-0.917 -0.392,-0.849 -0.068,-0.71L-0.237,-0.322C-0.554,-0.452 -0.841,-0.518 -1.098,-0.518C-1.325,-0.518 -1.495,-0.482 -1.61,-0.411C-1.726,-0.34 -1.783,-0.242 -1.783,-0.118C-1.783,-0.033 -1.761,0.039 -1.718,0.098C-1.674,0.159 -1.604,0.214 -1.51,0.267C-1.414,0.322 -1.229,0.401 -0.957,0.5C-0.583,0.638 -0.331,0.775 -0.199,0.913C-0.068,1.051 0,1.224 0,1.434" style="fill:rgb(118,120,123);fill-rule:nonzero;"/>
    </g>
    <g transform="matrix(15.8389,0,0,15.8389,474.744,1213.8)">
        <path d="M0,3.154C0.084,3.154 0.165,3.148 0.243,3.135C0.322,3.123 0.385,3.111 0.432,3.096L0.432,3.463C0.379,3.487 0.303,3.509 0.203,3.524C0.102,3.541 0.011,3.548 -0.068,3.548C-0.681,3.548 -0.984,3.226 -0.984,2.585L-0.984,0.708L-1.436,0.708L-1.436,0.478L-0.984,0.28L-0.783,-0.394L-0.507,-0.394L-0.507,0.337L0.407,0.337L0.407,0.708L-0.507,0.708L-0.507,2.565C-0.507,2.754 -0.462,2.9 -0.372,3.001C-0.281,3.104 -0.158,3.154 0,3.154" style="fill:rgb(118,120,123);fill-rule:nonzero;"/>
    </g>
    <g transform="matrix(15.8389,0,0,15.8389,505.185,1206.94)">
        <path d="M0,3.587C0.297,3.587 0.529,3.505 0.7,3.343C0.87,3.18 0.955,2.952 0.955,2.658L0.955,2.373L0.478,2.393C0.098,2.406 -0.177,2.466 -0.345,2.57C-0.512,2.674 -0.597,2.837 -0.597,3.058C-0.597,3.231 -0.544,3.362 -0.439,3.452C-0.334,3.542 -0.189,3.587 0,3.587M0.707,0.347C0.626,0.347 0.545,0.329 0.466,0.294C0.388,0.258 0.309,0.22 0.235,0.175C0.158,0.133 0.086,0.093 0.016,0.057C-0.055,0.022 -0.122,0.004 -0.187,0.004C-0.282,0.004 -0.356,0.033 -0.404,0.091C-0.454,0.149 -0.491,0.236 -0.518,0.354L-0.8,0.354C-0.775,0.121 -0.709,-0.062 -0.598,-0.192C-0.486,-0.324 -0.345,-0.389 -0.17,-0.389C-0.083,-0.389 0.003,-0.372 0.086,-0.336C0.168,-0.301 0.247,-0.261 0.321,-0.218C0.396,-0.174 0.469,-0.136 0.538,-0.1C0.607,-0.064 0.672,-0.046 0.733,-0.046C0.828,-0.046 0.897,-0.076 0.944,-0.132C0.989,-0.189 1.026,-0.277 1.057,-0.394L1.34,-0.394C1.315,-0.163 1.249,0.019 1.141,0.15C1.032,0.281 0.889,0.347 0.707,0.347M1.078,3.924L0.984,3.476L0.961,3.476C0.803,3.672 0.646,3.806 0.489,3.877C0.335,3.947 0.14,3.981 -0.096,3.981C-0.407,3.981 -0.653,3.901 -0.83,3.74C-1.007,3.579 -1.098,3.349 -1.098,3.051C-1.098,2.416 -0.587,2.082 0.432,2.051L0.966,2.034L0.966,1.837C0.966,1.591 0.914,1.408 0.808,1.289C0.7,1.172 0.529,1.112 0.295,1.112C0.033,1.112 -0.264,1.192 -0.597,1.355L-0.742,0.989C-0.587,0.905 -0.417,0.838 -0.233,0.791C-0.048,0.743 0.14,0.718 0.324,0.718C0.7,0.718 0.979,0.801 1.161,0.969C1.342,1.136 1.433,1.403 1.433,1.772L1.433,3.924L1.078,3.924Z" style="fill:rgb(118,120,123);fill-rule:nonzero;"/>
    </g>
    <g transform="matrix(0,-15.8389,-15.8389,0,395.472,10)">
        <path d="M-24.337,-24.336C-37.777,-24.336 -48.673,-13.441 -48.673,0.001C-48.673,13.442 -37.777,24.337 -24.337,24.337C-10.896,24.337 0,13.442 0,0.001C0,-13.441 -10.896,-24.336 -24.337,-24.336" style="fill:rgb(0,90,170);"/>
    </g>
    <g transform="matrix(15.8389,0,0,15.8389,292.489,504.302)">
        <path d="M0,-10.472C3.487,-1.68 8.385,7.985 15.04,15.925C12.382,16.922 9.504,17.468 6.501,17.468C4.968,17.468 3.471,17.326 2.017,17.05C-0.793,12.402 -5.162,4.466 -8.252,-4.428C-10.764,-2.403 -13.352,-0.139 -16.011,2.392C-16.804,0.465 -17.358,-1.586 -17.633,-3.723C-15.802,-6.32 -13.449,-9.281 -10.524,-12.231C-11.335,-15.753 -11.846,-19.321 -11.894,-22.805C-10.13,-24.839 -8.034,-26.579 -5.687,-27.94C-5.008,-25.335 -4.117,-22.184 -2.975,-18.701C1.506,-21.931 6.815,-24.763 13.02,-26.594C14.832,-24.675 16.471,-22.22 17.394,-19.153C12.563,-17.527 6.669,-14.854 0,-10.472" style="fill:white;fill-rule:nonzero;"/>
    </g>
    <g transform="matrix(15.8389,0,0,15.8389,57.4883,551.09)">
        <path d="M0,-20.929L-0.15,-21.256C-0.407,-20.772 -0.649,-20.282 -0.872,-19.781L-0.57,-19.727L0,-20.929ZM-0.088,-10.847L0.762,-12.5L1.513,-13.514L1.176,-14.462L0.373,-12.983L-0.357,-12.549L0.099,-14.392L1.206,-15.628L2.406,-16.914L1.542,-18.118L0.661,-18.74L-0.071,-18.305L-1.254,-18.881L-1.267,-18.885L-1.279,-18.819L-1.578,-17.268L-1.383,-14.516L-2.055,-14.547L-2.353,-15.087L-2.424,-15.097C-2.801,-13.4 -2.998,-11.631 -2.998,-9.823C-2.998,-8.759 -2.934,-7.71 -2.796,-6.677C-1.97,-7.847 -1.033,-9.096 0.009,-10.379L-0.088,-10.847ZM-2.631,-5.609C-2.632,-5.619 -2.635,-5.629 -2.637,-5.637C-2.635,-5.629 -2.634,-5.619 -2.631,-5.609M43.238,-20.446L42.78,-20.866L43.126,-20.67C42.99,-20.95 42.848,-21.22 42.701,-21.491L42.684,-21.448L42.161,-21.442L41.572,-20.543L40.45,-20.211L39.489,-20.316L38.873,-20.025L38.656,-19.523L38.931,-18.929L38.837,-18.398L37.433,-18.531L37.132,-19.027L35.842,-19.001L35.248,-19.208L35.425,-19.901L35.034,-20.569L34.974,-21.123L34.866,-20.792L34.534,-21.066L34.285,-20.721L31.982,-19.99L31.277,-19.085L30.479,-19.133L30.112,-19.272L29.896,-19.391L29.73,-18.416L29.234,-17.965L28.964,-16.82L29.129,-15.983L28.393,-15.309L27.9,-14.534L27.479,-12.296L27.914,-11.113L28.268,-9.687L28.052,-9.017L28.513,-7.927L30.36,-6.199L30.954,-5.285L33.188,-4.001L34.455,-4.48L35.271,-4.231L37.389,-5.299L38.217,-4.852L38.718,-4.515L39.379,-4.992L40.335,-4.511L40.499,-2.884L41.753,-1.989L42.831,-1.106L43.078,-0.505L43.562,0.107C44.918,-2.928 45.675,-6.287 45.675,-9.823C45.675,-13.629 44.798,-17.236 43.238,-20.446M8.278,-1.196L7.37,-2.521L6.279,-2.161L4.813,-2.577L3.55,-2.4L2.783,-2.379L2.163,-1.009L0.812,-0.775L0.395,-1.961L0.343,-1.978C-0.016,-1.646 -0.378,-1.309 -0.74,-0.967L-0.035,-0.992L0.528,-0.322L1.91,0.148L2.558,-0.522L2.717,1.819L2.762,3.51L4.601,5.283L6.288,6.001L7.853,10.436C8.521,10.884 9.218,11.297 9.932,11.677L10.259,10.38L10.241,9.387L11.193,8.961L11.074,6.742L11.491,4.486L11.53,4.35C10.674,2.604 9.813,0.749 8.986,-1.193L8.278,-1.196ZM28.769,-20.171L29.212,-20.063L29.58,-20.171L29.828,-19.568L30.254,-19.909L30.884,-19.997L31.242,-20.596L31.379,-21.314L31.354,-21.804C30.495,-21.5 29.604,-21.162 28.687,-20.79L28.769,-20.171ZM31.605,-30.903L31.93,-30.5L32.262,-31.17L32.336,-31.541C32.118,-31.652 31.902,-31.759 31.681,-31.861L31.911,-31.568L31.756,-31.129L31.605,-30.903ZM27.994,-29.394L28.141,-30.039L27.4,-30.132L27.307,-29.964L27.211,-29.34C27.43,-29.407 27.638,-29.482 27.856,-29.548C27.903,-29.498 27.948,-29.444 27.994,-29.394M30.476,-28.094L30.037,-27.087L29.797,-27.155C30.602,-25.984 31.312,-24.671 31.859,-23.206L31.711,-23.72L31.92,-23.929L32.655,-23.897L32.811,-24.415L33.134,-24.877L33.905,-24.034L35.421,-23.206L35.982,-22.857L36.196,-22.116L36.378,-22.022L36.476,-22.847L36.067,-23.179L36.188,-23.556L36.542,-23.374L36.556,-23.583L35.599,-23.977L34.849,-24.292L34.574,-24.802L34.037,-25.081L33.824,-25.737L34.202,-25.892L34.716,-25.439L35.624,-24.854L36.489,-24.465L36.83,-23.614L37.805,-22.852L38.319,-22.236L38.736,-22.28L38.488,-22.962L38.811,-23.26L37.925,-23.933L37.64,-24.398L38.035,-24.185L38.234,-24.429L37.862,-24.736L38.377,-24.983L38.873,-25.514L39.161,-25.675L38.541,-25.958L38.333,-27.243C36.808,-28.733 35.092,-30.021 33.219,-31.067L32.806,-30.319L32.346,-30.544L31.897,-30.199L31.458,-30.598L31.548,-31.461L31.215,-32.074L31.185,-32.135L31.157,-32.1L30.874,-31.723L31.051,-30.846L31.508,-30L30.785,-29.374L30.476,-28.094ZM38.997,-24.327L39.821,-23.34L40.694,-23.322L40.694,-23.942L41.11,-24.008C40.633,-24.681 40.113,-25.333 39.56,-25.953L39.387,-25.847L39.205,-25.24L38.705,-24.952L38.997,-24.327ZM28.317,-29.978L28.876,-29.548L28.56,-28.762C28.852,-28.419 29.133,-28.058 29.408,-27.688L29.948,-27.877L30.049,-29.104L29.58,-29.13L28.831,-30.407L28.419,-31.032L28.733,-31.598L28.233,-31.789L28.441,-32.313L27.883,-31.909L28.008,-30.731L28.317,-29.978ZM30.55,-32.047L30.662,-32.313C30.417,-32.415 30.175,-32.512 29.926,-32.606L30.002,-32.361L30.55,-32.047Z" style="fill:rgb(141,216,248);fill-rule:nonzero;"/>
    </g>
</svg>
