<?xml version="1.0" encoding="UTF-8" standalone="no"?>
<!DOCTYPE svg PUBLIC "-//W3C//DTD SVG 1.1//EN" "http://www.w3.org/Graphics/SVG/1.1/DTD/svg11.dtd">
<svg width="100%" height="100%" viewBox="0 0 791 1280" version="1.1" xmlns="http://www.w3.org/2000/svg" xmlns:xlink="http://www.w3.org/1999/xlink" xml:space="preserve" xmlns:serif="http://www.serif.com/" style="fill-rule:evenodd;clip-rule:evenodd;stroke-linejoin:round;stroke-miterlimit:2;">
    <g transform="matrix(3.80121,0,0,3.80121,-1107.19,-3121.81)">
        <g transform="matrix(4.16667,0,0,4.16667,496.568,1061.46)">
            <path d="M0,7.69L0,10.604L-4.715,10.604C-5.14,10.603 -5.511,10.592 -5.824,10.57C-5.894,10.566 -5.949,10.561 -5.979,10.559C-6.23,10.538 -6.46,10.509 -6.665,10.469L-6.669,10.469L-6.671,10.468C-6.671,10.468 -6.672,10.467 -6.673,10.467L-6.677,10.467C-6.899,10.423 -7.116,10.367 -7.327,10.298C-7.541,10.23 -7.744,10.148 -7.935,10.057C-8.93,9.582 -9.679,8.798 -10.179,7.703L-10.18,7.703C-10.404,7.207 -10.572,6.651 -10.686,6.035C-10.795,5.426 -10.851,4.764 -10.851,4.049L-10.851,4.045C-10.85,3.181 -10.767,2.394 -10.597,1.686C-10.571,1.581 -10.541,1.471 -10.504,1.343C-10.337,0.763 -10.107,0.238 -9.818,-0.229L-9.818,-0.231L-9.816,-0.233C-9.747,-0.345 -9.673,-0.454 -9.596,-0.561C-9.516,-0.669 -9.436,-0.771 -9.354,-0.865L-9.352,-0.865C-8.916,-1.362 -8.391,-1.75 -7.775,-2.018L-7.775,-2.019L-7.772,-2.021L-7.771,-2.021C-7.652,-2.072 -7.53,-2.121 -7.402,-2.164C-7.267,-2.214 -7.136,-2.254 -7.007,-2.288C-6.315,-2.475 -5.503,-2.569 -4.571,-2.569L0,-2.569L0,0.343L-4.269,0.343C-5.354,0.343 -6.141,0.62 -6.626,1.178C-6.815,1.396 -6.963,1.714 -7.063,2.136C-7.173,2.584 -7.227,3.141 -7.227,3.802C-7.227,4.691 -7.142,5.421 -6.975,5.993C-6.815,6.53 -6.586,6.919 -6.285,7.165C-6.073,7.333 -5.799,7.462 -5.459,7.551C-5.097,7.644 -4.667,7.69 -4.169,7.69L0,7.69Z" style="fill:white;"/>
        </g>
        <g transform="matrix(4.16667,0,0,4.16667,418.96,1104.62)">
            <path d="M0,-12.927L0,-5.095C0,-4.805 0.012,-4.552 0.033,-4.338C0.039,-4.287 0.043,-4.255 0.047,-4.236C0.066,-4.073 0.094,-3.933 0.128,-3.814L0.131,-3.814L0.132,-3.812L0.132,-3.804L0.134,-3.804L0.132,-3.804L0.134,-3.802C0.141,-3.771 0.154,-3.734 0.171,-3.689C0.185,-3.651 0.199,-3.614 0.215,-3.582C0.295,-3.403 0.405,-3.246 0.542,-3.111C0.771,-2.889 1.044,-2.722 1.363,-2.612C1.691,-2.497 2.069,-2.44 2.497,-2.44L2.503,-2.44C2.779,-2.44 3.038,-2.463 3.272,-2.51C3.312,-2.516 3.349,-2.524 3.387,-2.533C3.576,-2.578 3.754,-2.636 3.915,-2.711L3.918,-2.712C4.107,-2.797 4.267,-2.897 4.395,-3.011C4.515,-3.119 4.607,-3.238 4.674,-3.373L4.674,-3.374C4.746,-3.516 4.802,-3.726 4.84,-4.003C4.882,-4.299 4.902,-4.666 4.902,-5.104L4.902,-12.927L8.247,-12.927L8.247,-5.232C8.247,-4.733 8.222,-4.275 8.168,-3.861C8.115,-3.441 8.035,-3.061 7.928,-2.72C7.9,-2.633 7.867,-2.54 7.829,-2.44C7.791,-2.345 7.753,-2.255 7.712,-2.173C7.502,-1.726 7.223,-1.348 6.879,-1.041L6.879,-1.04C6.351,-0.576 5.713,-0.228 4.964,0.003C4.23,0.231 3.393,0.344 2.451,0.344L2.447,0.344C1.453,0.344 0.586,0.233 -0.148,0.011C-0.261,-0.022 -0.381,-0.063 -0.504,-0.109C-1.102,-0.332 -1.605,-0.636 -2.011,-1.021L-2.013,-1.023C-2.262,-1.264 -2.475,-1.519 -2.649,-1.789C-2.826,-2.062 -2.964,-2.348 -3.062,-2.647C-3.158,-2.942 -3.229,-3.29 -3.275,-3.693C-3.322,-4.089 -3.345,-4.539 -3.345,-5.04L-3.345,-12.927L0,-12.927Z" style="fill:white;"/>
        </g>
        <g transform="matrix(4.16667,0,0,4.16667,399.746,1104.21)">
            <path d="M0,-12.829L0,-9.918L-3.809,-9.918C-4.685,-9.918 -5.312,-9.861 -5.692,-9.745L-5.693,-9.745L-5.697,-9.744L-5.697,-9.745C-5.738,-9.732 -5.785,-9.715 -5.832,-9.695C-5.881,-9.677 -5.925,-9.656 -5.965,-9.636C-6.185,-9.522 -6.379,-9.356 -6.545,-9.141L-6.544,-9.141C-6.624,-9.034 -6.691,-8.93 -6.742,-8.826C-6.795,-8.723 -6.834,-8.622 -6.86,-8.521L-6.86,-8.519C-6.893,-8.403 -6.921,-8.248 -6.947,-8.055C-6.96,-7.952 -6.976,-7.825 -6.99,-7.674L0,-7.674L0,-4.76L-6.983,-4.76C-6.981,-4.745 -6.979,-4.731 -6.976,-4.716C-6.957,-4.589 -6.932,-4.468 -6.904,-4.35C-6.766,-3.788 -6.537,-3.381 -6.212,-3.126C-5.983,-2.947 -5.668,-2.812 -5.264,-2.719C-4.835,-2.62 -4.31,-2.57 -3.691,-2.57L0,-2.57L0,0.344L-3.823,0.344C-4.308,0.343 -4.755,0.327 -5.164,0.299C-5.249,0.292 -5.319,0.286 -5.369,0.282C-5.695,0.255 -6.021,0.216 -6.345,0.163C-6.945,0.066 -7.486,-0.114 -7.968,-0.379C-8.453,-0.645 -8.877,-0.995 -9.234,-1.425L-9.234,-1.428C-9.739,-2.04 -10.114,-2.756 -10.365,-3.574C-10.609,-4.385 -10.732,-5.298 -10.732,-6.311C-10.732,-8.591 -10.027,-10.37 -8.613,-11.644L-8.612,-11.644L-8.611,-11.645L-8.612,-11.645C-8.557,-11.696 -8.487,-11.755 -8.403,-11.82C-8.326,-11.882 -8.256,-11.937 -8.191,-11.983L-8.19,-11.982C-7.82,-12.248 -7.431,-12.445 -7.025,-12.571C-6.745,-12.659 -6.418,-12.725 -6.05,-12.766C-5.687,-12.809 -5.281,-12.829 -4.835,-12.829L0,-12.829Z" style="fill:white;"/>
        </g>
        <g transform="matrix(4.16667,0,0,4.16667,313.572,1104.64)">
            <path d="M0,-12.693L2.791,-3.957L5.729,-12.698L5.808,-12.933L10.277,-12.933L10.277,0.24L7.054,0.24L7.054,-7.44L4.461,0.006L4.38,0.24L1.15,0.24L1.072,0.001L-1.335,-7.325L-1.335,0.24L-4.56,0.24L-4.56,-12.933L-0.076,-12.933L0,-12.693Z" style="fill:white;"/>
        </g>
        <g transform="matrix(4.16667,0,0,4.16667,302.374,1113.15)">
            <path d="M0,4.207L-1.429,0.478L-1.451,0.478C-1.425,0.774 -1.411,1.125 -1.411,1.532L-1.411,4.207L-1.862,4.207L-1.862,0L-1.126,0L0.206,3.47L0.23,3.47L1.573,0L2.305,0L2.305,4.207L1.815,4.207L1.815,1.498C1.815,1.186 1.828,0.847 1.855,0.484L1.833,0.484L0.394,4.207L0,4.207Z" style="fill:white;fill-rule:nonzero;"/>
        </g>
        <g transform="matrix(4.16667,0,0,4.16667,-1127.92,-1264.54)">
            <path d="M347.135,574.852L346.657,574.852L346.657,571.699L347.135,571.699L347.135,574.852ZM346.616,570.844C346.616,570.734 346.645,570.655 346.697,570.604C346.752,570.553 346.817,570.527 346.9,570.527C346.976,570.527 347.042,570.553 347.098,570.606C347.152,570.657 347.182,570.736 347.182,570.844C347.182,570.95 347.152,571.032 347.098,571.085C347.042,571.137 346.976,571.164 346.9,571.164C346.817,571.164 346.752,571.137 346.697,571.085C346.645,571.032 346.616,570.95 346.616,570.844" style="fill:white;fill-rule:nonzero;"/>
        </g>
        <g transform="matrix(4.16667,0,0,4.16667,331.171,1121.12)">
            <path d="M0,1.433C0,1.726 -0.109,1.954 -0.329,2.112C-0.547,2.271 -0.854,2.351 -1.25,2.351C-1.667,2.351 -1.993,2.286 -2.228,2.151L-2.228,1.709C-2.075,1.787 -1.913,1.846 -1.739,1.89C-1.567,1.934 -1.397,1.956 -1.237,1.956C-0.987,1.956 -0.796,1.917 -0.663,1.837C-0.526,1.758 -0.461,1.636 -0.461,1.474C-0.461,1.35 -0.514,1.245 -0.62,1.159C-0.727,1.071 -0.935,0.967 -1.244,0.849C-1.536,0.739 -1.746,0.644 -1.869,0.562C-1.993,0.481 -2.084,0.389 -2.145,0.284C-2.206,0.182 -2.236,0.058 -2.236,-0.087C-2.236,-0.343 -2.132,-0.546 -1.922,-0.694C-1.713,-0.844 -1.428,-0.918 -1.062,-0.918C-0.723,-0.918 -0.39,-0.849 -0.065,-0.71L-0.235,-0.322C-0.554,-0.453 -0.84,-0.518 -1.096,-0.518C-1.323,-0.518 -1.493,-0.483 -1.608,-0.412C-1.723,-0.341 -1.781,-0.243 -1.781,-0.119C-1.781,-0.034 -1.761,0.038 -1.718,0.099C-1.673,0.158 -1.604,0.214 -1.509,0.267C-1.412,0.322 -1.229,0.398 -0.956,0.5C-0.582,0.637 -0.329,0.774 -0.197,0.912C-0.065,1.05 0,1.223 0,1.433" style="fill:white;fill-rule:nonzero;"/>
        </g>
        <g transform="matrix(4.16667,0,0,4.16667,342.885,1121.12)">
            <path d="M0,1.433C0,1.726 -0.109,1.954 -0.329,2.112C-0.547,2.271 -0.855,2.351 -1.248,2.351C-1.668,2.351 -1.994,2.286 -2.228,2.151L-2.228,1.709C-2.076,1.787 -1.914,1.846 -1.739,1.89C-1.566,1.934 -1.399,1.956 -1.238,1.956C-0.988,1.956 -0.797,1.917 -0.663,1.837C-0.527,1.758 -0.461,1.636 -0.461,1.474C-0.461,1.35 -0.514,1.245 -0.621,1.159C-0.728,1.071 -0.934,0.967 -1.244,0.849C-1.537,0.739 -1.746,0.644 -1.87,0.562C-1.993,0.481 -2.085,0.389 -2.146,0.284C-2.206,0.182 -2.235,0.058 -2.235,-0.087C-2.235,-0.343 -2.133,-0.546 -1.923,-0.694C-1.713,-0.844 -1.428,-0.918 -1.062,-0.918C-0.724,-0.918 -0.391,-0.849 -0.066,-0.71L-0.236,-0.322C-0.553,-0.453 -0.84,-0.518 -1.097,-0.518C-1.324,-0.518 -1.494,-0.483 -1.609,-0.412C-1.724,-0.341 -1.782,-0.243 -1.782,-0.119C-1.782,-0.034 -1.76,0.038 -1.717,0.099C-1.675,0.158 -1.604,0.214 -1.509,0.267C-1.413,0.322 -1.229,0.398 -0.955,0.5C-0.583,0.637 -0.329,0.774 -0.198,0.912C-0.066,1.05 0,1.223 0,1.433" style="fill:white;fill-rule:nonzero;"/>
        </g>
        <g transform="matrix(4.16667,0,0,4.16667,349.701,1114.33)">
            <path d="M0,3.587C0.298,3.587 0.532,3.507 0.701,3.343C0.872,3.181 0.956,2.951 0.956,2.658L0.956,2.373L0.479,2.393C0.098,2.406 -0.176,2.465 -0.344,2.57C-0.512,2.675 -0.595,2.838 -0.595,3.058C-0.595,3.231 -0.543,3.363 -0.438,3.452C-0.334,3.543 -0.187,3.587 0,3.587M0.709,0.348C0.625,0.348 0.546,0.329 0.467,0.294C0.39,0.258 0.312,0.219 0.236,0.176C0.159,0.132 0.086,0.094 0.017,0.059C-0.054,0.023 -0.122,0.005 -0.187,0.005C-0.282,0.005 -0.354,0.034 -0.404,0.091C-0.452,0.148 -0.49,0.236 -0.516,0.353L-0.8,0.353C-0.774,0.121 -0.707,-0.061 -0.596,-0.191C-0.486,-0.323 -0.344,-0.389 -0.169,-0.389C-0.081,-0.389 0.005,-0.371 0.087,-0.335C0.169,-0.299 0.249,-0.262 0.323,-0.218C0.397,-0.174 0.47,-0.134 0.54,-0.101C0.607,-0.064 0.674,-0.048 0.735,-0.048C0.827,-0.048 0.898,-0.075 0.945,-0.132C0.99,-0.188 1.028,-0.276 1.057,-0.396L1.343,-0.396C1.317,-0.162 1.251,0.02 1.142,0.15C1.032,0.282 0.89,0.348 0.709,0.348M1.08,3.924L0.985,3.475L0.962,3.475C0.806,3.674 0.647,3.808 0.491,3.878C0.334,3.947 0.14,3.983 -0.094,3.983C-0.407,3.983 -0.652,3.901 -0.829,3.739C-1.007,3.579 -1.095,3.35 -1.095,3.053C-1.095,2.416 -0.586,2.082 0.432,2.05L0.968,2.034L0.968,1.838C0.968,1.59 0.914,1.408 0.808,1.289C0.701,1.173 0.53,1.113 0.297,1.113C0.034,1.113 -0.264,1.193 -0.595,1.355L-0.741,0.989C-0.586,0.905 -0.416,0.839 -0.23,0.791C-0.046,0.743 0.14,0.719 0.326,0.719C0.702,0.719 0.981,0.803 1.161,0.968C1.344,1.135 1.434,1.403 1.434,1.773L1.434,3.924L1.08,3.924Z" style="fill:white;fill-rule:nonzero;"/>
        </g>
        <g transform="matrix(4.16667,0,0,4.16667,361.106,1124.13)">
            <path d="M0,-0.007C0,0.396 0.08,0.702 0.243,0.914C0.403,1.124 0.641,1.231 0.952,1.231C1.266,1.231 1.503,1.125 1.664,0.915C1.828,0.704 1.908,0.397 1.908,-0.007C1.908,-0.408 1.828,-0.714 1.664,-0.922C1.503,-1.129 1.265,-1.232 0.947,-1.232C0.635,-1.232 0.397,-1.131 0.239,-0.924C0.079,-0.72 0,-0.414 0,-0.007M2.403,-0.007C2.403,0.508 2.273,0.909 2.015,1.197C1.755,1.486 1.398,1.631 0.94,1.631C0.66,1.631 0.41,1.565 0.19,1.43C-0.028,1.299 -0.196,1.109 -0.316,0.862C-0.435,0.615 -0.495,0.326 -0.495,-0.007C-0.495,-0.521 -0.367,-0.922 -0.108,-1.209C0.147,-1.495 0.506,-1.638 0.962,-1.638C1.401,-1.638 1.753,-1.493 2.013,-1.199C2.273,-0.905 2.403,-0.508 2.403,-0.007" style="fill:white;fill-rule:nonzero;"/>
        </g>
        <g transform="matrix(4.16667,0,0,4.16667,391.054,1113.15)">
            <path d="M0,4.207L-2.344,4.207L-2.344,0L0,0L0,0.436L-1.855,0.436L-1.855,1.791L-0.111,1.791L-0.111,2.223L-1.855,2.223L-1.855,3.77L0,3.77L0,4.207Z" style="fill:white;fill-rule:nonzero;"/>
        </g>
        <g transform="matrix(4.16667,0,0,4.16667,397.516,1117.54)">
            <path d="M0,3.153L-1.197,0L-0.684,0L-0.005,1.87C0.148,2.306 0.238,2.592 0.265,2.721L0.289,2.721C0.309,2.62 0.376,2.41 0.488,2.091C0.602,1.77 0.853,1.074 1.244,0L1.756,0L0.559,3.153L0,3.153Z" style="fill:white;fill-rule:nonzero;"/>
        </g>
        <g transform="matrix(4.16667,0,0,4.16667,410.529,1118.97)">
            <path d="M0,2.472C0.297,2.472 0.53,2.392 0.701,2.228C0.871,2.066 0.955,1.836 0.955,1.543L0.955,1.258L0.478,1.278C0.097,1.291 -0.176,1.35 -0.345,1.455C-0.512,1.56 -0.597,1.723 -0.597,1.943C-0.597,2.116 -0.545,2.248 -0.438,2.337C-0.335,2.428 -0.187,2.472 0,2.472M1.078,2.809L0.984,2.36L0.961,2.36C0.804,2.559 0.646,2.693 0.49,2.763C0.334,2.832 0.139,2.868 -0.096,2.868C-0.407,2.868 -0.652,2.786 -0.829,2.624C-1.008,2.464 -1.096,2.235 -1.096,1.938C-1.096,1.301 -0.588,0.967 0.431,0.935L0.967,0.919L0.967,0.723C0.967,0.475 0.914,0.293 0.808,0.174C0.701,0.058 0.53,-0.002 0.297,-0.002C0.033,-0.002 -0.264,0.078 -0.597,0.24L-0.742,-0.126C-0.588,-0.21 -0.418,-0.276 -0.231,-0.324C-0.046,-0.372 0.139,-0.396 0.325,-0.396C0.701,-0.396 0.979,-0.312 1.161,-0.147C1.342,0.02 1.432,0.288 1.432,0.658L1.432,2.809L1.078,2.809Z" style="fill:white;fill-rule:nonzero;"/>
        </g>
        <g transform="matrix(4.16667,0,0,4.16667,429.588,1117.3)">
            <path d="M0,3.21L0,1.17C0,0.914 -0.058,0.721 -0.176,0.595C-0.291,0.468 -0.475,0.406 -0.724,0.406C-1.055,0.406 -1.296,0.494 -1.449,0.672C-1.604,0.852 -1.68,1.145 -1.68,1.556L-1.68,3.21L-2.157,3.21L-2.157,0.057L-1.77,0.057L-1.691,0.489L-1.668,0.489C-1.57,0.333 -1.433,0.213 -1.258,0.127C-1.08,0.043 -0.884,0 -0.666,0C-0.287,0 -0.002,0.091 0.191,0.274C0.383,0.458 0.479,0.75 0.479,1.153L0.479,3.21L0,3.21Z" style="fill:white;fill-rule:nonzero;"/>
        </g>
        <g transform="matrix(4.16667,0,0,4.16667,437.026,1132.13)">
            <path d="M0,-2.493C0,-2.272 0.062,-2.105 0.187,-1.993C0.311,-1.879 0.485,-1.823 0.707,-1.823C1.173,-1.823 1.408,-2.049 1.408,-2.501C1.408,-2.974 1.171,-3.213 0.698,-3.213C0.475,-3.213 0.302,-3.152 0.183,-3.03C0.06,-2.91 0,-2.73 0,-2.493M-0.26,0.18C-0.26,0.352 -0.187,0.481 -0.043,0.569C0.1,0.657 0.308,0.701 0.575,0.701C0.976,0.701 1.273,0.641 1.465,0.522C1.658,0.401 1.755,0.238 1.755,0.034C1.755,-0.138 1.702,-0.256 1.597,-0.322C1.491,-0.388 1.293,-0.422 1.001,-0.422L0.429,-0.422C0.211,-0.422 0.043,-0.369 -0.079,-0.266C-0.199,-0.162 -0.26,-0.013 -0.26,0.18M2.255,-3.503L2.255,-3.201L1.672,-3.131C1.726,-3.064 1.772,-2.976 1.814,-2.869C1.857,-2.761 1.879,-2.637 1.879,-2.501C1.879,-2.192 1.772,-1.945 1.561,-1.761C1.351,-1.578 1.061,-1.485 0.693,-1.485C0.6,-1.485 0.512,-1.494 0.429,-1.509C0.226,-1.402 0.124,-1.266 0.124,-1.103C0.124,-1.017 0.159,-0.952 0.229,-0.911C0.3,-0.87 0.423,-0.85 0.596,-0.85L1.153,-0.85C1.495,-0.85 1.756,-0.778 1.939,-0.634C2.124,-0.491 2.216,-0.281 2.216,-0.007C2.216,0.343 2.076,0.609 1.795,0.792C1.516,0.975 1.106,1.067 0.57,1.067C0.157,1.067 -0.161,0.989 -0.385,0.837C-0.608,0.683 -0.721,0.467 -0.721,0.186C-0.721,-0.006 -0.658,-0.173 -0.535,-0.312C-0.413,-0.451 -0.24,-0.547 -0.018,-0.597C-0.099,-0.633 -0.167,-0.689 -0.221,-0.766C-0.275,-0.843 -0.303,-0.931 -0.303,-1.035C-0.303,-1.149 -0.272,-1.25 -0.21,-1.336C-0.15,-1.424 -0.053,-1.507 0.08,-1.587C-0.084,-1.654 -0.217,-1.768 -0.318,-1.929C-0.421,-2.09 -0.473,-2.275 -0.473,-2.481C-0.473,-2.827 -0.368,-3.093 -0.162,-3.279C0.045,-3.467 0.338,-3.56 0.72,-3.56C0.884,-3.56 1.032,-3.542 1.165,-3.503L2.255,-3.503Z" style="fill:white;fill-rule:nonzero;"/>
        </g>
        <g transform="matrix(4.16667,0,0,4.16667,452.655,1127.29)">
            <path d="M0,-2.83C0.093,-2.949 0.192,-3.091 0.299,-3.261C0.405,-3.43 0.488,-3.578 0.55,-3.702L1.131,-3.702L1.131,-3.641C1.047,-3.517 0.921,-3.363 0.755,-3.181C0.588,-2.998 0.442,-2.856 0.32,-2.758L0,-2.758L0,-2.83ZM0.354,-1.997C0.103,-1.997 -0.1,-1.915 -0.252,-1.75C-0.402,-1.585 -0.49,-1.358 -0.518,-1.066L1.131,-1.066C1.131,-1.366 1.065,-1.599 0.931,-1.758C0.796,-1.917 0.604,-1.997 0.354,-1.997M0.484,0.872C0.019,0.872 -0.351,0.729 -0.618,0.445C-0.889,0.161 -1.022,-0.233 -1.022,-0.738C-1.022,-1.246 -0.897,-1.65 -0.648,-1.948C-0.397,-2.249 -0.061,-2.397 0.36,-2.397C0.756,-2.397 1.068,-2.269 1.298,-2.008C1.528,-1.748 1.644,-1.406 1.644,-0.979L1.644,-0.677L-0.529,-0.677C-0.52,-0.306 -0.425,-0.026 -0.248,0.166C-0.071,0.358 0.179,0.453 0.501,0.453C0.841,0.453 1.178,0.381 1.509,0.24L1.509,0.667C1.34,0.74 1.181,0.793 1.029,0.823C0.879,0.855 0.696,0.872 0.484,0.872" style="fill:white;fill-rule:nonzero;"/>
        </g>
        <g transform="matrix(-4.16667,0,0,4.16667,2055.7,-1265.17)">
            <rect x="381.796" y="570.527" width="0.478" height="4.477" style="fill:white;"/>
        </g>
        <g transform="matrix(4.16667,0,0,4.16667,-1127.92,-1264.54)">
            <path d="M383.766,574.852L383.287,574.852L383.287,571.699L383.766,571.699L383.766,574.852ZM383.248,570.844C383.248,570.734 383.275,570.655 383.328,570.604C383.381,570.553 383.447,570.527 383.528,570.527C383.605,570.527 383.672,570.553 383.728,570.606C383.783,570.657 383.812,570.736 383.812,570.844C383.812,570.95 383.783,571.032 383.728,571.085C383.672,571.137 383.605,571.164 383.528,571.164C383.447,571.164 383.381,571.137 383.328,571.085C383.275,571.032 383.248,570.95 383.248,570.844" style="fill:white;fill-rule:nonzero;"/>
        </g>
        <g transform="matrix(4.16667,0,0,4.16667,480.573,1117.3)">
            <path d="M0,3.269C-0.457,3.269 -0.811,3.128 -1.062,2.847C-1.312,2.566 -1.437,2.168 -1.437,1.654C-1.437,1.127 -1.31,0.718 -1.055,0.431C-0.801,0.143 -0.438,0 0.031,0C0.184,0 0.335,0.017 0.485,0.048C0.637,0.081 0.757,0.12 0.842,0.164L0.696,0.569C0.591,0.527 0.476,0.491 0.35,0.463C0.225,0.435 0.116,0.422 0.02,0.422C-0.621,0.422 -0.941,0.831 -0.941,1.647C-0.941,2.035 -0.863,2.333 -0.707,2.54C-0.55,2.747 -0.318,2.851 -0.013,2.851C0.251,2.851 0.521,2.794 0.797,2.681L0.797,3.104C0.585,3.214 0.319,3.269 0,3.269" style="fill:white;fill-rule:nonzero;"/>
        </g>
        <g transform="matrix(4.16667,0,0,4.16667,490.591,1118.97)">
            <path d="M0,2.472C0.299,2.472 0.531,2.392 0.701,2.228C0.871,2.066 0.956,1.836 0.956,1.543L0.956,1.258L0.479,1.278C0.098,1.291 -0.175,1.35 -0.344,1.455C-0.512,1.56 -0.596,1.723 -0.596,1.943C-0.596,2.116 -0.543,2.248 -0.437,2.337C-0.334,2.428 -0.187,2.472 0,2.472M1.079,2.809L0.985,2.36L0.961,2.36C0.805,2.559 0.647,2.693 0.49,2.763C0.335,2.832 0.139,2.868 -0.095,2.868C-0.406,2.868 -0.652,2.786 -0.83,2.624C-1.006,2.464 -1.097,2.235 -1.097,1.938C-1.097,1.301 -0.586,0.967 0.433,0.935L0.967,0.919L0.967,0.723C0.967,0.475 0.915,0.293 0.809,0.174C0.701,0.058 0.531,-0.002 0.297,-0.002C0.033,-0.002 -0.263,0.078 -0.596,0.24L-0.742,-0.126C-0.586,-0.21 -0.417,-0.276 -0.23,-0.324C-0.045,-0.372 0.139,-0.396 0.325,-0.396C0.701,-0.396 0.98,-0.312 1.162,-0.147C1.343,0.02 1.435,0.288 1.435,0.658L1.435,2.809L1.079,2.809Z" style="fill:white;fill-rule:nonzero;"/>
        </g>
        <g transform="matrix(4.16667,0,0,4.16667,307.851,1155.37)">
            <path d="M0,-4.265L0,-1.543C0,-1.063 -0.146,-0.687 -0.436,-0.412C-0.724,-0.137 -1.123,0 -1.628,0C-2.136,0 -2.526,-0.138 -2.805,-0.414C-3.082,-0.691 -3.221,-1.07 -3.221,-1.555L-3.221,-4.265L-2.73,-4.265L-2.73,-1.519C-2.73,-1.168 -2.635,-0.899 -2.443,-0.711C-2.252,-0.524 -1.97,-0.429 -1.599,-0.429C-1.242,-0.429 -0.969,-0.524 -0.777,-0.712C-0.586,-0.902 -0.489,-1.172 -0.489,-1.525L-0.489,-4.265L0,-4.265Z" style="fill:white;fill-rule:nonzero;"/>
        </g>
        <g transform="matrix(4.16667,0,0,4.16667,321.181,1141.75)">
            <path d="M0,3.211L0,1.17C0,0.915 -0.06,0.722 -0.175,0.595C-0.292,0.468 -0.476,0.405 -0.725,0.405C-1.055,0.405 -1.297,0.495 -1.451,0.673C-1.604,0.851 -1.68,1.145 -1.68,1.557L-1.68,3.211L-2.157,3.211L-2.157,0.057L-1.77,0.057L-1.692,0.488L-1.67,0.488C-1.57,0.334 -1.435,0.212 -1.258,0.127C-1.081,0.042 -0.884,0 -0.668,0C-0.288,0 -0.002,0.09 0.189,0.274C0.383,0.458 0.478,0.751 0.478,1.154L0.478,3.211L0,3.211Z" style="fill:white;fill-rule:nonzero;"/>
        </g>
        <g transform="matrix(4.16667,0,0,4.16667,-1127.92,-1215.64)">
            <path d="M349.722,568.984L349.244,568.984L349.244,565.83L349.722,565.83L349.722,568.984ZM349.203,564.976C349.203,564.866 349.23,564.787 349.284,564.735C349.338,564.685 349.406,564.659 349.486,564.659C349.562,564.659 349.628,564.685 349.686,564.737C349.74,564.789 349.769,564.868 349.769,564.976C349.769,565.083 349.74,565.163 349.686,565.215C349.628,565.268 349.562,565.295 349.486,565.295C349.406,565.295 349.338,565.268 349.284,565.215C349.23,565.163 349.203,565.083 349.203,564.976" style="fill:white;fill-rule:nonzero;"/>
        </g>
        <g transform="matrix(4.16667,0,0,4.16667,337.054,1138.78)">
            <path d="M0,3.586C0.297,3.586 0.531,3.505 0.7,3.342C0.87,3.179 0.955,2.951 0.955,2.657L0.955,2.372L0.478,2.392C0.098,2.405 -0.176,2.466 -0.343,2.569C-0.511,2.673 -0.596,2.836 -0.596,3.057C-0.596,3.231 -0.543,3.361 -0.438,3.451C-0.334,3.54 -0.187,3.586 0,3.586M0.708,0.346C0.625,0.346 0.544,0.329 0.468,0.294C0.389,0.257 0.311,0.22 0.235,0.175C0.159,0.132 0.087,0.092 0.015,0.056C-0.054,0.021 -0.121,0.003 -0.187,0.003C-0.282,0.003 -0.355,0.032 -0.403,0.09C-0.453,0.148 -0.49,0.235 -0.518,0.353L-0.8,0.353C-0.774,0.12 -0.707,-0.062 -0.598,-0.193C-0.487,-0.325 -0.344,-0.39 -0.169,-0.39C-0.082,-0.39 0.004,-0.373 0.087,-0.337C0.169,-0.302 0.249,-0.263 0.322,-0.22C0.397,-0.176 0.47,-0.137 0.539,-0.101C0.608,-0.066 0.673,-0.047 0.734,-0.047C0.828,-0.047 0.898,-0.077 0.945,-0.133C0.99,-0.19 1.027,-0.278 1.058,-0.395L1.342,-0.395C1.316,-0.164 1.249,0.018 1.141,0.149C1.033,0.28 0.888,0.346 0.708,0.346M1.079,3.923L0.985,3.474L0.961,3.474C0.805,3.672 0.647,3.805 0.49,3.875C0.333,3.945 0.14,3.981 -0.095,3.981C-0.407,3.981 -0.651,3.9 -0.829,3.739C-1.008,3.579 -1.097,3.348 -1.097,3.05C-1.097,2.414 -0.586,2.08 0.432,2.05L0.968,2.033L0.968,1.836C0.968,1.589 0.915,1.407 0.807,1.289C0.7,1.171 0.531,1.111 0.297,1.111C0.034,1.111 -0.264,1.192 -0.596,1.353L-0.742,0.989C-0.586,0.904 -0.417,0.837 -0.231,0.79C-0.046,0.741 0.14,0.717 0.326,0.717C0.702,0.717 0.979,0.801 1.161,0.968C1.343,1.135 1.433,1.403 1.433,1.771L1.433,3.923L1.079,3.923Z" style="fill:white;fill-rule:nonzero;"/>
        </g>
        <g transform="matrix(4.16667,0,0,4.16667,348.46,1148.57)">
            <path d="M0,-0.007C0,0.396 0.08,0.702 0.242,0.914C0.402,1.125 0.64,1.23 0.951,1.23C1.266,1.23 1.502,1.125 1.663,0.916C1.826,0.706 1.907,0.398 1.907,-0.007C1.907,-0.408 1.826,-0.712 1.663,-0.92C1.502,-1.128 1.263,-1.233 0.946,-1.233C0.633,-1.233 0.398,-1.13 0.239,-0.924C0.08,-0.72 0,-0.413 0,-0.007M2.401,-0.007C2.401,0.507 2.273,0.909 2.013,1.197C1.756,1.486 1.397,1.631 0.939,1.631C0.659,1.631 0.408,1.564 0.19,1.432C-0.029,1.3 -0.198,1.11 -0.316,0.862C-0.437,0.616 -0.496,0.325 -0.496,-0.007C-0.496,-0.52 -0.366,-0.921 -0.109,-1.207C0.147,-1.495 0.505,-1.638 0.961,-1.638C1.402,-1.638 1.752,-1.491 2.012,-1.197C2.271,-0.904 2.401,-0.508 2.401,-0.007" style="fill:white;fill-rule:nonzero;"/>
        </g>
        <g transform="matrix(4.16667,0,0,4.16667,376.141,1153.55)">
            <path d="M0,-3.452C-0.463,-3.452 -0.828,-3.297 -1.095,-2.99C-1.362,-2.681 -1.497,-2.262 -1.497,-1.725C-1.497,-1.175 -1.368,-0.749 -1.109,-0.449C-0.851,-0.148 -0.483,0.003 -0.006,0.003C0.289,0.003 0.622,-0.052 0.998,-0.157L0.998,0.272C0.707,0.381 0.348,0.436 -0.08,0.436C-0.701,0.436 -1.178,0.247 -1.515,-0.128C-1.851,-0.504 -2.021,-1.036 -2.021,-1.732C-2.021,-2.165 -1.938,-2.544 -1.777,-2.87C-1.614,-3.196 -1.381,-3.447 -1.074,-3.624C-0.769,-3.8 -0.409,-3.888 0.005,-3.888C0.448,-3.888 0.832,-3.808 1.162,-3.646L0.955,-3.227C0.637,-3.377 0.318,-3.452 0,-3.452" style="fill:white;fill-rule:nonzero;"/>
        </g>
        <g transform="matrix(4.16667,0,0,4.16667,389.821,1155.13)">
            <path d="M0,-3.211C0.14,-3.211 0.267,-3.199 0.378,-3.177L0.311,-2.733C0.18,-2.762 0.064,-2.777 -0.034,-2.777C-0.289,-2.777 -0.508,-2.672 -0.689,-2.465C-0.87,-2.258 -0.96,-2.001 -0.96,-1.692L-0.96,0L-1.439,0L-1.439,-3.154L-1.044,-3.154L-0.99,-2.57L-0.967,-2.57C-0.851,-2.775 -0.709,-2.933 -0.544,-3.044C-0.378,-3.156 -0.198,-3.211 0,-3.211" style="fill:white;fill-rule:nonzero;"/>
        </g>
        <g transform="matrix(4.16667,0,0,4.16667,-1127.92,-1215.64)">
            <path d="M365.703,568.984L365.224,568.984L365.224,565.83L365.703,565.83L365.703,568.984ZM365.187,564.976C365.187,564.866 365.213,564.787 365.267,564.735C365.319,564.685 365.387,564.659 365.467,564.659C365.545,564.659 365.61,564.685 365.666,564.737C365.722,564.789 365.75,564.868 365.75,564.976C365.75,565.083 365.722,565.163 365.666,565.215C365.61,565.268 365.545,565.295 365.467,565.295C365.387,565.295 365.319,565.268 365.267,565.215C365.213,565.163 365.187,565.083 365.187,564.976" style="fill:white;fill-rule:nonzero;"/>
        </g>
        <g transform="matrix(4.16667,0,0,4.16667,408.543,1145.57)">
            <path d="M0,1.435C0,1.728 -0.111,1.954 -0.328,2.114C-0.547,2.272 -0.855,2.352 -1.25,2.352C-1.669,2.352 -1.995,2.285 -2.229,2.153L-2.229,1.71C-2.076,1.787 -1.915,1.847 -1.741,1.892C-1.566,1.936 -1.399,1.957 -1.239,1.957C-0.99,1.957 -0.798,1.918 -0.664,1.839C-0.528,1.759 -0.462,1.638 -0.462,1.475C-0.462,1.352 -0.516,1.247 -0.622,1.159C-0.729,1.072 -0.935,0.969 -1.244,0.85C-1.538,0.741 -1.746,0.644 -1.869,0.564C-1.994,0.483 -2.087,0.389 -2.146,0.286C-2.207,0.183 -2.236,0.059 -2.236,-0.085C-2.236,-0.342 -2.132,-0.544 -1.924,-0.694C-1.714,-0.843 -1.428,-0.917 -1.063,-0.917C-0.724,-0.917 -0.392,-0.849 -0.068,-0.709L-0.237,-0.321C-0.554,-0.451 -0.841,-0.517 -1.098,-0.517C-1.325,-0.517 -1.495,-0.482 -1.61,-0.41C-1.726,-0.339 -1.783,-0.241 -1.783,-0.117C-1.783,-0.033 -1.761,0.04 -1.718,0.098C-1.674,0.159 -1.604,0.215 -1.51,0.268C-1.414,0.322 -1.229,0.401 -0.957,0.501C-0.583,0.639 -0.331,0.776 -0.199,0.913C-0.068,1.052 0,1.225 0,1.435" style="fill:white;fill-rule:nonzero;"/>
        </g>
        <g transform="matrix(4.16667,0,0,4.16667,416.022,1140.59)">
            <path d="M0,3.152C0.084,3.152 0.165,3.146 0.243,3.132C0.322,3.12 0.385,3.108 0.432,3.094L0.432,3.461C0.379,3.485 0.303,3.507 0.203,3.521C0.102,3.539 0.011,3.547 -0.068,3.547C-0.681,3.547 -0.984,3.225 -0.984,2.583L-0.984,0.706L-1.436,0.706L-1.436,0.476L-0.984,0.278L-0.783,-0.395L-0.507,-0.395L-0.507,0.335L0.407,0.335L0.407,0.706L-0.507,0.706L-0.507,2.563C-0.507,2.753 -0.462,2.898 -0.372,3C-0.281,3.102 -0.158,3.152 0,3.152" style="fill:white;fill-rule:nonzero;"/>
        </g>
        <g transform="matrix(4.16667,0,0,4.16667,424.029,1138.78)">
            <path d="M0,3.586C0.297,3.586 0.529,3.505 0.7,3.342C0.87,3.179 0.955,2.951 0.955,2.657L0.955,2.372L0.478,2.392C0.098,2.405 -0.177,2.466 -0.345,2.569C-0.512,2.673 -0.597,2.836 -0.597,3.057C-0.597,3.231 -0.544,3.361 -0.439,3.451C-0.334,3.54 -0.189,3.586 0,3.586M0.707,0.346C0.626,0.346 0.545,0.329 0.466,0.294C0.388,0.257 0.309,0.22 0.234,0.175C0.158,0.132 0.086,0.092 0.016,0.056C-0.055,0.021 -0.122,0.003 -0.187,0.003C-0.282,0.003 -0.356,0.032 -0.404,0.09C-0.454,0.148 -0.491,0.235 -0.518,0.353L-0.8,0.353C-0.775,0.12 -0.709,-0.062 -0.598,-0.193C-0.486,-0.325 -0.345,-0.39 -0.17,-0.39C-0.082,-0.39 0.003,-0.373 0.086,-0.337C0.168,-0.302 0.247,-0.263 0.321,-0.22C0.396,-0.176 0.469,-0.137 0.538,-0.101C0.607,-0.066 0.672,-0.047 0.733,-0.047C0.828,-0.047 0.897,-0.077 0.944,-0.133C0.989,-0.19 1.026,-0.278 1.057,-0.395L1.34,-0.395C1.315,-0.164 1.249,0.018 1.141,0.149C1.032,0.28 0.889,0.346 0.707,0.346M1.078,3.923L0.984,3.474L0.961,3.474C0.803,3.672 0.646,3.805 0.49,3.875C0.335,3.945 0.14,3.981 -0.096,3.981C-0.408,3.981 -0.653,3.9 -0.83,3.739C-1.008,3.579 -1.098,3.348 -1.098,3.05C-1.098,2.414 -0.587,2.08 0.432,2.05L0.965,2.033L0.965,1.836C0.965,1.589 0.914,1.407 0.807,1.289C0.7,1.171 0.529,1.111 0.295,1.111C0.033,1.111 -0.264,1.192 -0.597,1.353L-0.742,0.989C-0.587,0.904 -0.418,0.837 -0.233,0.79C-0.047,0.741 0.14,0.717 0.324,0.717C0.7,0.717 0.979,0.801 1.161,0.968C1.342,1.135 1.432,1.403 1.432,1.771L1.432,3.923L1.078,3.923Z" style="fill:white;fill-rule:nonzero;"/>
        </g>
        <g transform="matrix(4.16667,0,0,4.16667,300.922,905.772)">
            <path d="M0,-4.297L-0.292,-2.756L-0.101,0L-0.775,-0.034L-1.068,-0.574L-1.136,-0.586C-0.865,-1.867 -0.483,-3.105 0,-4.297" style="fill:white;"/>
        </g>
        <g transform="matrix(4.16667,0,0,4.16667,324.213,879.012)">
            <path d="M0,5.747C-1.608,7.367 -3.036,8.998 -4.296,10.561L-4.397,10.089L-3.542,8.436L-2.8,7.423L-3.139,6.478L-3.937,7.952L-4.667,8.391L-4.206,6.545L-3.104,5.309L-1.9,4.027L-2.767,2.823L-3.644,2.193L-4.375,2.632L-5.566,2.059C-5.444,1.754 -5.319,1.451 -5.185,1.158L-4.882,1.215L-4.307,0.011L-4.465,-0.315C-3.599,-1.935 -2.563,-3.442 -1.372,-4.814C-1.316,-1.328 -0.81,2.227 0,5.747" style="fill:white;"/>
        </g>
        <g transform="matrix(4.16667,0,0,4.16667,332.461,980.564)">
            <path d="M0,2.564L1.563,6.996C-2.44,4.33 -5.612,0.506 -7.456,-4.004C-7.311,-4.139 -7.175,-4.274 -7.029,-4.397L-6.32,-4.432L-5.758,-3.756L-4.375,-3.284L-3.734,-3.959L-3.577,-1.62L-3.532,0.078L-1.687,1.845L0,2.564Z" style="fill:white;"/>
        </g>
        <g transform="matrix(4.16667,0,0,4.16667,333.681,963.037)">
            <path d="M0,-6.613C0.742,-4.488 1.552,-2.419 2.406,-0.427L1.697,-0.427L0.787,-1.755L-0.305,-1.395L-1.767,-1.811L-3.037,-1.631L-3.802,-1.608L-4.42,-0.236L-5.77,0L-6.187,-1.193L-6.242,-1.204C-4.105,-3.172 -2.024,-4.971 0,-6.613" style="fill:white;"/>
        </g>
        <g transform="matrix(4.16667,0,0,4.16667,347.642,994.433)">
            <path d="M0,4.916L0.326,3.611L0.305,2.622L1.26,2.194L1.137,-0.022L1.564,-2.283L1.599,-2.417C3.521,1.519 5.433,4.882 6.918,7.333C4.454,6.884 2.138,6.052 0,4.916" style="fill:white;"/>
        </g>
        <g transform="matrix(4.16667,0,0,4.16667,437.531,858.668)">
            <path d="M0,-4.183L-0.721,-3.553L-1.035,-2.271L-1.475,-1.27L-1.711,-1.337C-1.833,-1.517 -1.957,-1.697 -2.093,-1.866L-1.553,-2.057L-1.451,-3.284L-1.924,-3.306L-2.677,-4.587L-3.082,-5.218L-2.767,-5.78L-3.273,-5.971L-3.061,-6.488L-3.623,-6.095L-3.498,-4.913L-3.184,-4.16L-2.632,-3.733L-2.947,-2.957C-3.127,-3.17 -3.318,-3.373 -3.51,-3.576L-3.51,-3.587L-3.363,-4.217L-4.105,-4.318L-4.196,-4.149L-4.297,-3.519C-10.224,-1.697 -15.319,1.047 -19.638,4.162C-20.785,0.676 -21.674,-2.473 -22.359,-5.072C-18.783,-7.152 -14.621,-8.345 -10.168,-8.345C-7.143,-8.345 -4.241,-7.793 -1.575,-6.781L-1.507,-6.544L-0.957,-6.23L-0.844,-6.488C-0.676,-6.421 -0.507,-6.353 -0.35,-6.274L-0.631,-5.904L-0.45,-5.026L0,-4.183Z" style="fill:white;"/>
        </g>
        <g transform="matrix(4.16667,0,0,4.16667,444.651,836.277)">
            <path d="M0,0.122L-0.404,0.876L-0.865,0.652L-1.316,1L-1.754,0.595L-1.664,-0.271L-2.001,-0.878C-1.845,-0.812 -1.687,-0.743 -1.529,-0.664L-1.305,-0.372L-1.462,0.066L-1.608,0.291L-1.282,0.697L-0.956,0.021L-0.877,-0.338C-0.573,-0.192 -0.281,-0.035 0,0.122" style="fill:white;"/>
        </g>
        <g transform="matrix(4.16667,0,0,4.16667,487.766,906.374)">
            <path d="M0,14.477C-2.643,20.393 -7.592,25.06 -13.688,27.343C-20.335,19.403 -25.239,9.742 -28.726,0.946C-23.608,-2.417 -18.951,-4.768 -14.88,-6.42L-14.791,-5.802L-14.352,-5.69L-13.98,-5.802L-13.733,-5.195L-13.306,-5.544L-12.676,-5.622L-12.316,-6.23L-12.181,-6.95L-12.203,-7.433C-11.911,-7.545 -11.619,-7.635 -11.338,-7.736C-11.449,-8.107 -11.573,-8.479 -11.709,-8.839L-11.72,-8.861L-11.854,-9.345L-11.641,-9.559L-10.91,-9.525L-10.752,-10.043L-10.426,-10.503L-9.661,-9.659L-8.144,-8.839L-7.581,-8.49L-7.367,-7.748L-7.187,-7.658L-7.086,-8.479L-7.491,-8.805L-7.378,-9.187L-7.019,-9.007L-7.007,-9.21L-7.963,-9.604L-8.717,-9.919L-8.987,-10.436L-9.526,-10.706L-9.74,-11.37L-9.358,-11.527L-8.852,-11.065L-7.94,-10.481L-7.074,-10.099L-6.737,-9.244L-5.759,-8.479L-5.241,-7.86L-4.825,-7.905L-5.072,-8.592L-4.746,-8.895L-5.635,-9.559L-5.927,-10.031L-5.522,-9.817L-5.332,-10.065L-5.703,-10.369L-5.186,-10.616L-4.69,-11.145L-4.398,-11.301L-5.017,-11.583L-5.23,-12.866C-4.803,-12.46 -4.398,-12.033 -4.004,-11.583L-4.173,-11.481L-4.354,-10.874L-4.859,-10.582L-4.566,-9.953L-3.746,-8.974L-2.868,-8.951L-2.868,-9.569L-2.452,-9.638C-1.867,-8.839 -1.339,-7.996 -0.865,-7.118L-0.878,-7.073L-1.406,-7.073L-1.99,-6.173L-3.115,-5.836L-4.072,-5.948L-4.69,-5.656L-4.904,-5.149L-4.634,-4.565L-4.725,-4.025L-6.13,-4.16L-6.434,-4.655L-7.716,-4.632L-8.312,-4.835L-8.144,-5.532L-8.525,-6.195L-8.593,-6.758L-8.693,-6.42L-9.032,-6.69L-9.279,-6.354L-11.585,-5.622L-12.282,-4.711L-13.08,-4.768L-13.452,-4.902L-13.666,-5.026L-13.834,-4.048L-14.329,-3.598L-14.599,-2.451L-14.431,-1.618L-15.173,-0.943L-15.656,-0.168L-16.084,2.071L-15.646,3.252L-15.296,4.681L-15.51,5.355L-15.049,6.446L-13.205,8.167L-12.608,9.089L-10.37,10.371L-9.11,9.888L-8.289,10.135L-6.175,9.066L-5.343,9.517L-4.848,9.854L-4.184,9.382L-3.229,9.854L-3.06,11.485L-1.812,12.385L-0.731,13.262L-0.483,13.87L0,14.477Z" style="fill:white;"/>
        </g>
        <g transform="matrix(4.16667,0,0,4.16667,300.222,963.924)">
            <path d="M0,-0.708C0.078,-0.472 0.179,-0.236 0.281,-0.011L0.269,0C0.179,-0.236 0.078,-0.472 0,-0.708" style="fill:white;fill-rule:nonzero;"/>
        </g>
        <g transform="matrix(4.16667,0,0,4.16667,318.496,857.221)">
            <path d="M0,0.405C0.124,0.27 0.247,0.124 0.371,-0.011C0.247,0.135 0.124,0.27 0,0.416L0,0.405Z" style="fill:white;fill-rule:nonzero;"/>
        </g>
        <g transform="matrix(4.16667,0,0,4.16667,436.216,887.821)">
            <path d="M0,-13.316L-0.034,-13.283L-0.034,-13.271C-0.011,-13.271 0.011,-13.26 0.023,-13.249L0,-13.316ZM-32.46,-0.068L-32.471,0C-32.471,-0.023 -32.46,-0.045 -32.447,-0.056L-32.46,-0.068Z" style="fill:white;fill-rule:nonzero;"/>
        </g>
    </g>
</svg>
