<?xml version="1.0" encoding="UTF-8" standalone="no"?>
<!DOCTYPE svg PUBLIC "-//W3C//DTD SVG 1.1//EN" "http://www.w3.org/Graphics/SVG/1.1/DTD/svg11.dtd">
<svg width="100%" height="100%" viewBox="0 0 791 1500" version="1.1" xmlns="http://www.w3.org/2000/svg" xmlns:xlink="http://www.w3.org/1999/xlink" xml:space="preserve" xmlns:serif="http://www.serif.com/" style="fill-rule:evenodd;clip-rule:evenodd;stroke-linejoin:round;stroke-miterlimit:2;">
    <g transform="matrix(3.80121,0,0,3.80121,-1107.19,-3121.81)">
        <g transform="matrix(4.16667,0,0,4.16667,496.568,1061.46)">
            <path d="M0,7.69L0,10.604L-4.715,10.604C-5.14,10.603 -5.511,10.592 -5.824,10.57C-5.894,10.566 -5.949,10.561 -5.979,10.559C-6.23,10.538 -6.46,10.509 -6.665,10.469L-6.669,10.469L-6.671,10.468C-6.671,10.468 -6.672,10.467 -6.673,10.467L-6.677,10.467C-6.899,10.423 -7.116,10.367 -7.327,10.298C-7.541,10.23 -7.744,10.148 -7.935,10.057C-8.93,9.582 -9.679,8.798 -10.179,7.703L-10.18,7.703C-10.404,7.207 -10.572,6.651 -10.686,6.035C-10.795,5.426 -10.851,4.764 -10.851,4.049L-10.851,4.045C-10.85,3.181 -10.767,2.394 -10.597,1.686C-10.571,1.581 -10.541,1.471 -10.504,1.343C-10.337,0.763 -10.107,0.238 -9.818,-0.229L-9.818,-0.231L-9.816,-0.233C-9.747,-0.345 -9.673,-0.454 -9.596,-0.561C-9.516,-0.669 -9.436,-0.771 -9.354,-0.865L-9.352,-0.865C-8.916,-1.362 -8.391,-1.75 -7.775,-2.018L-7.775,-2.019L-7.772,-2.021L-7.771,-2.021C-7.652,-2.072 -7.53,-2.121 -7.402,-2.164C-7.267,-2.214 -7.136,-2.254 -7.007,-2.288C-6.315,-2.475 -5.503,-2.569 -4.571,-2.569L0,-2.569L0,0.343L-4.269,0.343C-5.354,0.343 -6.141,0.62 -6.626,1.178C-6.815,1.396 -6.963,1.714 -7.063,2.136C-7.173,2.584 -7.227,3.141 -7.227,3.802C-7.227,4.691 -7.142,5.421 -6.975,5.993C-6.815,6.53 -6.586,6.919 -6.285,7.165C-6.073,7.333 -5.799,7.462 -5.459,7.551C-5.097,7.644 -4.667,7.69 -4.169,7.69L0,7.69Z" style="fill:rgb(0,90,170);"/>
        </g>
        <g transform="matrix(4.16667,0,0,4.16667,418.96,1104.62)">
            <path d="M0,-12.927L0,-5.095C0,-4.805 0.012,-4.552 0.033,-4.338C0.039,-4.287 0.043,-4.255 0.047,-4.236C0.066,-4.073 0.094,-3.933 0.128,-3.814L0.131,-3.814L0.132,-3.812L0.132,-3.804L0.134,-3.804L0.132,-3.804L0.134,-3.802C0.141,-3.771 0.154,-3.734 0.171,-3.689C0.185,-3.651 0.199,-3.614 0.215,-3.582C0.295,-3.403 0.405,-3.246 0.542,-3.111C0.771,-2.889 1.044,-2.722 1.363,-2.612C1.691,-2.497 2.069,-2.44 2.497,-2.44L2.503,-2.44C2.779,-2.44 3.038,-2.463 3.272,-2.51C3.312,-2.516 3.349,-2.524 3.387,-2.533C3.576,-2.578 3.754,-2.636 3.915,-2.711L3.918,-2.712C4.107,-2.797 4.267,-2.897 4.395,-3.011C4.515,-3.119 4.607,-3.238 4.674,-3.373L4.674,-3.374C4.746,-3.516 4.802,-3.726 4.84,-4.003C4.882,-4.299 4.902,-4.666 4.902,-5.104L4.902,-12.927L8.247,-12.927L8.247,-5.232C8.247,-4.733 8.222,-4.275 8.168,-3.861C8.115,-3.441 8.035,-3.061 7.928,-2.72C7.9,-2.633 7.867,-2.54 7.829,-2.44C7.791,-2.345 7.753,-2.255 7.712,-2.173C7.502,-1.726 7.223,-1.348 6.879,-1.041L6.879,-1.04C6.351,-0.576 5.713,-0.228 4.964,0.003C4.23,0.231 3.393,0.344 2.451,0.344L2.447,0.344C1.453,0.344 0.586,0.233 -0.148,0.011C-0.261,-0.022 -0.381,-0.063 -0.504,-0.109C-1.102,-0.332 -1.605,-0.636 -2.011,-1.021L-2.013,-1.023C-2.262,-1.264 -2.475,-1.519 -2.649,-1.789C-2.826,-2.062 -2.964,-2.348 -3.062,-2.647C-3.158,-2.942 -3.229,-3.29 -3.275,-3.693C-3.322,-4.089 -3.345,-4.539 -3.345,-5.04L-3.345,-12.927L0,-12.927Z" style="fill:rgb(0,90,170);"/>
        </g>
        <g transform="matrix(4.16667,0,0,4.16667,399.746,1104.21)">
            <path d="M0,-12.829L0,-9.918L-3.809,-9.918C-4.685,-9.918 -5.312,-9.861 -5.692,-9.745L-5.693,-9.745L-5.697,-9.744L-5.697,-9.745C-5.738,-9.732 -5.785,-9.715 -5.832,-9.695C-5.881,-9.677 -5.925,-9.656 -5.965,-9.636C-6.185,-9.522 -6.379,-9.356 -6.545,-9.141L-6.544,-9.141C-6.624,-9.034 -6.691,-8.93 -6.742,-8.826C-6.795,-8.723 -6.834,-8.622 -6.86,-8.521L-6.86,-8.519C-6.893,-8.403 -6.921,-8.248 -6.947,-8.055C-6.96,-7.952 -6.976,-7.825 -6.99,-7.674L0,-7.674L0,-4.76L-6.983,-4.76C-6.981,-4.745 -6.979,-4.731 -6.976,-4.716C-6.957,-4.589 -6.932,-4.468 -6.904,-4.35C-6.766,-3.788 -6.537,-3.381 -6.212,-3.126C-5.983,-2.947 -5.668,-2.812 -5.264,-2.719C-4.835,-2.62 -4.31,-2.57 -3.691,-2.57L0,-2.57L0,0.344L-3.823,0.344C-4.308,0.343 -4.755,0.327 -5.164,0.299C-5.249,0.292 -5.319,0.286 -5.369,0.282C-5.695,0.255 -6.021,0.216 -6.345,0.163C-6.945,0.066 -7.486,-0.114 -7.968,-0.379C-8.453,-0.645 -8.877,-0.995 -9.234,-1.425L-9.234,-1.428C-9.739,-2.04 -10.114,-2.756 -10.365,-3.574C-10.609,-4.385 -10.732,-5.298 -10.732,-6.311C-10.732,-8.591 -10.027,-10.37 -8.613,-11.644L-8.612,-11.644L-8.611,-11.645L-8.612,-11.645C-8.557,-11.696 -8.487,-11.755 -8.403,-11.82C-8.326,-11.882 -8.256,-11.937 -8.191,-11.983L-8.19,-11.982C-7.82,-12.248 -7.431,-12.445 -7.025,-12.571C-6.745,-12.659 -6.418,-12.725 -6.05,-12.766C-5.687,-12.809 -5.281,-12.829 -4.835,-12.829L0,-12.829Z" style="fill:rgb(0,90,170);"/>
        </g>
        <g transform="matrix(4.16667,0,0,4.16667,313.572,1104.64)">
            <path d="M0,-12.693L2.791,-3.957L5.729,-12.698L5.808,-12.933L10.277,-12.933L10.277,0.24L7.054,0.24L7.054,-7.44L4.461,0.006L4.38,0.24L1.15,0.24L1.072,0.001L-1.335,-7.325L-1.335,0.24L-4.56,0.24L-4.56,-12.933L-0.076,-12.933L0,-12.693Z" style="fill:rgb(0,90,170);"/>
        </g>
        <g transform="matrix(4.16667,0,0,4.16667,300.922,905.772)">
            <path d="M0,-4.297L-0.292,-2.756L-0.101,0L-0.775,-0.034L-1.068,-0.574L-1.136,-0.586C-0.865,-1.867 -0.483,-3.105 0,-4.297" style="fill:rgb(0,90,170);"/>
        </g>
        <g transform="matrix(4.16667,0,0,4.16667,324.213,879.012)">
            <path d="M0,5.747C-1.608,7.367 -3.036,8.998 -4.296,10.561L-4.397,10.089L-3.542,8.436L-2.8,7.423L-3.139,6.478L-3.937,7.952L-4.667,8.391L-4.206,6.545L-3.104,5.309L-1.9,4.027L-2.767,2.823L-3.644,2.193L-4.375,2.632L-5.566,2.059C-5.444,1.754 -5.319,1.451 -5.185,1.158L-4.882,1.215L-4.307,0.011L-4.465,-0.315C-3.599,-1.935 -2.563,-3.442 -1.372,-4.814C-1.316,-1.328 -0.81,2.227 0,5.747" style="fill:rgb(0,90,170);"/>
        </g>
        <g transform="matrix(4.16667,0,0,4.16667,332.461,980.564)">
            <path d="M0,2.564L1.563,6.996C-2.44,4.33 -5.612,0.506 -7.456,-4.004C-7.311,-4.139 -7.175,-4.274 -7.029,-4.397L-6.32,-4.432L-5.758,-3.756L-4.375,-3.284L-3.734,-3.959L-3.577,-1.62L-3.532,0.078L-1.687,1.845L0,2.564Z" style="fill:rgb(0,90,170);"/>
        </g>
        <g transform="matrix(4.16667,0,0,4.16667,333.681,963.037)">
            <path d="M0,-6.613C0.742,-4.488 1.552,-2.419 2.406,-0.427L1.697,-0.427L0.787,-1.755L-0.305,-1.395L-1.767,-1.811L-3.037,-1.631L-3.802,-1.608L-4.42,-0.236L-5.77,0L-6.187,-1.193L-6.242,-1.204C-4.105,-3.172 -2.024,-4.971 0,-6.613" style="fill:rgb(0,90,170);"/>
        </g>
        <g transform="matrix(4.16667,0,0,4.16667,347.642,994.433)">
            <path d="M0,4.916L0.326,3.611L0.305,2.622L1.26,2.194L1.137,-0.022L1.564,-2.283L1.599,-2.417C3.521,1.519 5.433,4.882 6.918,7.333C4.454,6.884 2.138,6.052 0,4.916" style="fill:rgb(0,90,170);"/>
        </g>
        <g transform="matrix(4.16667,0,0,4.16667,437.531,858.668)">
            <path d="M0,-4.183L-0.721,-3.553L-1.035,-2.271L-1.475,-1.27L-1.711,-1.337C-1.833,-1.517 -1.957,-1.697 -2.093,-1.866L-1.553,-2.057L-1.451,-3.284L-1.924,-3.306L-2.677,-4.587L-3.082,-5.218L-2.767,-5.78L-3.273,-5.971L-3.061,-6.488L-3.623,-6.095L-3.498,-4.913L-3.184,-4.16L-2.632,-3.733L-2.947,-2.957C-3.127,-3.17 -3.318,-3.373 -3.51,-3.576L-3.51,-3.587L-3.363,-4.217L-4.105,-4.318L-4.196,-4.149L-4.297,-3.519C-10.224,-1.697 -15.319,1.047 -19.638,4.162C-20.785,0.676 -21.674,-2.473 -22.359,-5.072C-18.783,-7.152 -14.621,-8.345 -10.168,-8.345C-7.143,-8.345 -4.241,-7.793 -1.575,-6.781L-1.507,-6.544L-0.957,-6.23L-0.844,-6.488C-0.676,-6.421 -0.507,-6.353 -0.35,-6.274L-0.631,-5.904L-0.45,-5.026L0,-4.183Z" style="fill:rgb(0,90,170);"/>
        </g>
        <g transform="matrix(4.16667,0,0,4.16667,444.651,836.277)">
            <path d="M0,0.122L-0.404,0.876L-0.865,0.652L-1.316,1L-1.754,0.595L-1.664,-0.271L-2.001,-0.878C-1.845,-0.812 -1.687,-0.743 -1.529,-0.664L-1.305,-0.372L-1.462,0.066L-1.608,0.291L-1.282,0.697L-0.956,0.021L-0.877,-0.338C-0.573,-0.192 -0.281,-0.035 0,0.122" style="fill:rgb(0,90,170);"/>
        </g>
        <g transform="matrix(4.16667,0,0,4.16667,487.766,906.374)">
            <path d="M0,14.477C-2.643,20.393 -7.592,25.06 -13.688,27.343C-20.335,19.403 -25.239,9.742 -28.726,0.946C-23.608,-2.417 -18.951,-4.768 -14.88,-6.42L-14.791,-5.802L-14.352,-5.69L-13.98,-5.802L-13.733,-5.195L-13.306,-5.544L-12.676,-5.622L-12.316,-6.23L-12.181,-6.95L-12.203,-7.433C-11.911,-7.545 -11.619,-7.635 -11.338,-7.736C-11.449,-8.107 -11.573,-8.479 -11.709,-8.839L-11.72,-8.861L-11.854,-9.345L-11.641,-9.559L-10.91,-9.525L-10.752,-10.043L-10.426,-10.503L-9.661,-9.659L-8.144,-8.839L-7.581,-8.49L-7.367,-7.748L-7.187,-7.658L-7.086,-8.479L-7.491,-8.805L-7.378,-9.187L-7.019,-9.007L-7.007,-9.21L-7.963,-9.604L-8.717,-9.919L-8.987,-10.436L-9.526,-10.706L-9.74,-11.37L-9.358,-11.527L-8.852,-11.065L-7.94,-10.481L-7.074,-10.099L-6.737,-9.244L-5.759,-8.479L-5.241,-7.86L-4.825,-7.905L-5.072,-8.592L-4.746,-8.895L-5.635,-9.559L-5.927,-10.031L-5.522,-9.817L-5.332,-10.065L-5.703,-10.369L-5.186,-10.616L-4.69,-11.145L-4.398,-11.301L-5.017,-11.583L-5.23,-12.866C-4.803,-12.46 -4.398,-12.033 -4.004,-11.583L-4.173,-11.481L-4.354,-10.874L-4.859,-10.582L-4.566,-9.953L-3.746,-8.974L-2.868,-8.951L-2.868,-9.569L-2.452,-9.638C-1.867,-8.839 -1.339,-7.996 -0.865,-7.118L-0.878,-7.073L-1.406,-7.073L-1.99,-6.173L-3.115,-5.836L-4.072,-5.948L-4.69,-5.656L-4.904,-5.149L-4.634,-4.565L-4.725,-4.025L-6.13,-4.16L-6.434,-4.655L-7.716,-4.632L-8.312,-4.835L-8.144,-5.532L-8.525,-6.195L-8.593,-6.758L-8.693,-6.42L-9.032,-6.69L-9.279,-6.354L-11.585,-5.622L-12.282,-4.711L-13.08,-4.768L-13.452,-4.902L-13.666,-5.026L-13.834,-4.048L-14.329,-3.598L-14.599,-2.451L-14.431,-1.618L-15.173,-0.943L-15.656,-0.168L-16.084,2.071L-15.646,3.252L-15.296,4.681L-15.51,5.355L-15.049,6.446L-13.205,8.167L-12.608,9.089L-10.37,10.371L-9.11,9.888L-8.289,10.135L-6.175,9.066L-5.343,9.517L-4.848,9.854L-4.184,9.382L-3.229,9.854L-3.06,11.485L-1.812,12.385L-0.731,13.262L-0.483,13.87L0,14.477Z" style="fill:rgb(0,90,170);"/>
        </g>
        <g transform="matrix(4.16667,0,0,4.16667,300.222,963.924)">
            <path d="M0,-0.708C0.078,-0.472 0.179,-0.236 0.281,-0.011L0.269,0C0.179,-0.236 0.078,-0.472 0,-0.708" style="fill:rgb(0,90,170);fill-rule:nonzero;"/>
        </g>
        <g transform="matrix(4.16667,0,0,4.16667,318.496,857.221)">
            <path d="M0,0.405C0.124,0.27 0.247,0.124 0.371,-0.011C0.247,0.135 0.124,0.27 0,0.416L0,0.405Z" style="fill:rgb(0,90,170);fill-rule:nonzero;"/>
        </g>
        <g transform="matrix(4.16667,0,0,4.16667,436.216,887.821)">
            <path d="M0,-13.316L-0.034,-13.283L-0.034,-13.271C-0.011,-13.271 0.011,-13.26 0.023,-13.249L0,-13.316ZM-32.46,-0.068L-32.471,0C-32.471,-0.023 -32.46,-0.045 -32.447,-0.056L-32.46,-0.068Z" style="fill:rgb(0,90,170);fill-rule:nonzero;"/>
        </g>
        <g transform="matrix(3.5084,0,0,3.5084,-3082.22,237.472)">
            <rect x="963.007" y="251.374" width="17.443" height="0.674" style="fill:rgb(0,90,170);"/>
        </g>
        <g transform="matrix(2.6313,0,0,2.6313,-527.604,837.015)">
            <text x="311.875px" y="120.676px" style="font-family:'OpenSans-Bold', 'Open Sans', sans-serif;font-weight:700;font-size:9.998px;fill:rgb(0,90,170);">Nome da</text>
            <text x="311.875px" y="131.022px" style="font-family:'OpenSans-Bold', 'Open Sans', sans-serif;font-weight:700;font-size:9.998px;fill:rgb(0,90,170);">cidade em até</text>
            <text x="311.875px" y="141.367px" style="font-family:'OpenSans-Bold', 'Open Sans', sans-serif;font-weight:700;font-size:9.998px;fill:rgb(0,90,170);">três linhas</text>
        </g>
    </g>
</svg>
