<?xml version="1.0" encoding="UTF-8" standalone="no"?>
<!DOCTYPE svg PUBLIC "-//W3C//DTD SVG 1.1//EN" "http://www.w3.org/Graphics/SVG/1.1/DTD/svg11.dtd">
<svg width="100%" height="100%" viewBox="0 0 1200 500" version="1.1" xmlns="http://www.w3.org/2000/svg" xmlns:xlink="http://www.w3.org/1999/xlink" xml:space="preserve" xmlns:serif="http://www.serif.com/" style="fill-rule:evenodd;clip-rule:evenodd;stroke-linejoin:round;stroke-miterlimit:2;">
    <g transform="matrix(3.1344,0,0,3.1344,-329.605,-260.051)">
        <g transform="matrix(0,-1,-1,0,182.476,86.157)">
            <path d="M-74.129,-74.129C-115.069,-74.129 -148.258,-40.941 -148.258,-0C-148.258,40.94 -115.069,74.129 -74.129,74.129C-33.189,74.129 -0,40.94 -0,-0C-0,-40.941 -33.189,-74.129 -74.129,-74.129" style="fill:rgb(0,90,170);"/>
        </g>
        <g transform="matrix(1,0,0,1,484.814,126.79)">
            <path d="M0,34.081L0,46.991L-20.893,46.991C-22.775,46.988 -24.416,46.94 -25.809,46.843C-26.115,46.825 -26.367,46.804 -26.498,46.793C-27.609,46.701 -28.623,46.567 -29.533,46.393L-29.547,46.393C-29.551,46.393 -29.557,46.39 -29.559,46.39C-29.562,46.39 -29.562,46.387 -29.568,46.387L-29.576,46.387L-29.58,46.382C-30.572,46.19 -31.535,45.939 -32.471,45.636C-33.412,45.33 -34.309,44.976 -35.156,44.571C-39.568,42.462 -42.889,38.988 -45.102,34.142L-45.109,34.139C-46.1,31.938 -46.848,29.473 -47.344,26.745C-47.834,24.043 -48.082,21.111 -48.082,17.949L-48.082,17.929C-48.08,14.104 -47.703,10.616 -46.949,7.476C-46.842,7.02 -46.707,6.519 -46.543,5.952C-45.803,3.386 -44.785,1.061 -43.508,-1.013L-43.508,-1.014L-43.5,-1.026C-43.191,-1.524 -42.863,-2.006 -42.52,-2.473C-42.162,-2.959 -41.803,-3.409 -41.445,-3.823L-41.439,-3.823C-39.51,-6.035 -37.18,-7.745 -34.455,-8.937L-34.455,-8.942L-34.439,-8.948L-34.432,-8.948C-33.908,-9.177 -33.367,-9.392 -32.797,-9.588C-32.201,-9.799 -31.617,-9.981 -31.047,-10.134C-27.986,-10.964 -24.389,-11.381 -20.258,-11.381L0,-11.381L0,1.524L-18.916,1.524C-23.727,1.524 -27.203,2.76 -29.359,5.221C-30.203,6.187 -30.852,7.6 -31.303,9.469C-31.783,11.457 -32.02,13.921 -32.02,16.856C-32.02,20.793 -31.646,24.027 -30.902,26.559C-30.201,28.934 -29.184,30.669 -27.85,31.755C-26.918,32.504 -25.697,33.073 -24.187,33.464C-22.59,33.876 -20.684,34.081 -18.473,34.081L0,34.081Z" style="fill:rgb(0,90,170);"/>
        </g>
        <g transform="matrix(1,0,0,1,402.281,172.695)">
            <path d="M0,-57.285L0,-22.574C0,-21.287 0.051,-20.17 0.154,-19.223C0.176,-18.994 0.191,-18.856 0.205,-18.765C0.297,-18.049 0.42,-17.428 0.57,-16.901L0.574,-16.901L0.578,-16.89L0.584,-16.856L0.59,-16.852L0.588,-16.852L0.59,-16.845C0.627,-16.708 0.684,-16.537 0.756,-16.343C0.818,-16.178 0.885,-16.018 0.949,-15.87C1.307,-15.078 1.795,-14.381 2.404,-13.785C3.422,-12.804 4.631,-12.066 6.039,-11.574C7.492,-11.066 9.168,-10.814 11.068,-10.814L11.092,-10.814C12.318,-10.814 13.459,-10.914 14.504,-11.117C14.676,-11.151 14.844,-11.187 15.006,-11.225C15.848,-11.42 16.635,-11.685 17.352,-12.012L17.361,-12.016C18.199,-12.39 18.904,-12.833 19.473,-13.341C20.006,-13.818 20.42,-14.349 20.711,-14.94L20.715,-14.947C21.031,-15.58 21.279,-16.51 21.451,-17.739C21.635,-19.046 21.725,-20.674 21.725,-22.616L21.725,-57.285L36.543,-57.285L36.543,-23.183C36.543,-20.976 36.428,-18.948 36.195,-17.107C35.965,-15.248 35.607,-13.563 35.127,-12.058L35.129,-12.058L35.127,-12.05C35.004,-11.668 34.859,-11.257 34.688,-10.814C34.521,-10.392 34.354,-9.994 34.178,-9.629C33.244,-7.645 32.006,-5.973 30.48,-4.616L30.479,-4.608C28.139,-2.554 25.312,-1.011 21.996,0.016C18.742,1.024 15.033,1.527 10.861,1.527L10.844,1.527C6.437,1.527 2.602,1.035 -0.658,0.05C-1.16,-0.1 -1.687,-0.279 -2.232,-0.482C-4.883,-1.468 -7.107,-2.817 -8.906,-4.526L-8.912,-4.533C-10.023,-5.598 -10.967,-6.728 -11.738,-7.925C-12.523,-9.134 -13.133,-10.405 -13.566,-11.731C-13.992,-13.029 -14.309,-14.576 -14.514,-16.362C-14.719,-18.121 -14.816,-20.112 -14.816,-22.327L-14.816,-57.285L0,-57.285Z" style="fill:rgb(0,90,170);"/>
        </g>
        <g transform="matrix(1,0,0,1,381.852,172.254)">
            <path d="M0,-56.844L0,-43.94L-16.883,-43.94C-20.758,-43.94 -23.543,-43.683 -25.227,-43.173L-25.23,-43.173L-25.244,-43.171L-25.244,-43.173C-25.432,-43.115 -25.635,-43.041 -25.846,-42.954C-26.057,-42.87 -26.252,-42.777 -26.43,-42.688C-27.406,-42.184 -28.268,-41.45 -29,-40.497L-28.998,-40.495C-29.354,-40.024 -29.65,-39.559 -29.881,-39.1C-30.111,-38.648 -30.285,-38.197 -30.4,-37.749L-30.4,-37.738C-30.541,-37.231 -30.668,-36.546 -30.785,-35.686C-30.846,-35.226 -30.912,-34.663 -30.975,-33.996L0,-33.996L0,-21.088L-30.943,-21.088C-30.934,-21.021 -30.922,-20.952 -30.912,-20.89C-30.824,-20.331 -30.717,-19.789 -30.594,-19.27C-29.986,-16.776 -28.961,-14.973 -27.529,-13.846C-26.52,-13.054 -25.115,-12.449 -23.32,-12.039C-21.424,-11.603 -19.102,-11.382 -16.357,-11.382L0,-11.382L0,1.527L-16.943,1.527C-19.084,1.525 -21.066,1.459 -22.887,1.329C-23.264,1.301 -23.572,1.277 -23.789,1.261C-25.238,1.137 -26.682,0.963 -28.113,0.728C-30.777,0.298 -33.176,-0.501 -35.305,-1.668C-37.457,-2.853 -39.336,-4.4 -40.924,-6.31L-40.924,-6.325C-43.154,-9.033 -44.82,-12.202 -45.926,-15.834C-47.014,-19.421 -47.557,-23.464 -47.557,-27.957C-47.557,-38.064 -44.428,-45.94 -38.17,-51.584L-38.156,-51.587L-38.154,-51.59L-38.16,-51.596C-37.914,-51.817 -37.607,-52.076 -37.238,-52.372C-36.9,-52.644 -36.588,-52.885 -36.299,-53.093L-36.295,-53.088C-34.654,-54.268 -32.93,-55.139 -31.129,-55.694C-29.885,-56.083 -28.441,-56.374 -26.807,-56.565C-25.197,-56.754 -23.402,-56.844 -21.422,-56.844L0,-56.844Z" style="fill:rgb(0,90,170);"/>
        </g>
        <g transform="matrix(1,0,0,1,290.211,172.712)">
            <path d="M0,-56.234L12.361,-17.525L25.383,-56.259L25.734,-57.303L45.535,-57.303L45.535,1.069L31.248,1.069L31.248,-32.959L19.764,0.039L19.404,1.069L5.102,1.069L4.754,0.01L-5.918,-32.452L-5.918,1.069L-20.205,1.069L-20.205,-57.303L-0.344,-57.303L0,-56.234Z" style="fill:rgb(0,90,170);"/>
        </g>
        <g transform="matrix(1,0,0,1,162.675,181.214)">
            <path d="M0,-31.895C10.624,-5.115 25.538,24.322 45.812,48.511C37.712,51.548 28.952,53.208 19.802,53.208C15.132,53.208 10.569,52.775 6.142,51.938C-2.416,37.78 -15.725,13.605 -25.132,-13.484C-32.786,-7.316 -40.668,-0.418 -48.767,7.289C-51.183,1.418 -52.87,-4.832 -53.707,-11.338C-48.132,-19.248 -40.966,-28.264 -32.057,-37.253C-34.526,-47.984 -36.079,-58.849 -36.228,-69.459C-30.854,-75.654 -24.471,-80.959 -17.317,-85.103C-15.252,-77.166 -12.539,-67.569 -9.057,-56.96C4.589,-66.8 20.761,-75.425 39.657,-80.999C45.177,-75.154 50.171,-67.677 52.979,-58.336C38.267,-53.383 20.315,-45.244 0,-31.895" style="fill:white;fill-rule:nonzero;"/>
        </g>
        <g transform="matrix(1,0,0,1,117.484,190.217)">
            <path d="M0,-63.749L-0.458,-64.748C-1.241,-63.277 -1.982,-61.778 -2.658,-60.253L-1.74,-60.091L0,-63.749ZM-0.27,-33.042L2.322,-38.077L4.604,-41.167L3.578,-44.056L1.135,-39.548L-1.093,-38.226L0.298,-43.84L3.672,-47.606L7.33,-51.52L4.697,-55.191L2.012,-57.081L-0.215,-55.758L-3.819,-57.514L-3.859,-57.527L-3.899,-57.324L-4.805,-52.6L-4.211,-44.218L-6.262,-44.312L-7.166,-45.959L-7.383,-45.986C-8.529,-40.817 -9.137,-35.431 -9.137,-29.924C-9.137,-26.685 -8.936,-23.486 -8.517,-20.341C-6.003,-23.907 -3.146,-27.706 0.027,-31.618L-0.27,-33.042ZM-8.017,-17.088L-8.015,-17.089C-8.02,-17.118 -8.025,-17.147 -8.031,-17.177C-8.025,-17.147 -8.021,-17.118 -8.017,-17.088M131.699,-62.278L130.307,-63.561L131.361,-62.967C130.941,-63.817 130.51,-64.64 130.064,-65.463L130.012,-65.329L128.418,-65.315L126.623,-62.575L123.207,-61.563L120.279,-61.886L118.402,-60.996L117.74,-59.47L118.578,-57.662L118.295,-56.042L114.016,-56.447L113.098,-57.959L109.17,-57.878L107.361,-58.512L107.9,-60.618L106.713,-62.656L106.523,-64.343L106.201,-63.331L105.188,-64.167L104.432,-63.115L97.412,-60.888L95.268,-58.134L92.838,-58.283L91.717,-58.701L91.057,-59.065L90.557,-56.096L89.045,-54.719L88.223,-51.237L88.721,-48.686L86.48,-46.634L84.982,-44.272L83.699,-37.456L85.023,-33.852L86.102,-29.506L85.441,-27.467L86.846,-24.147L92.473,-18.883L94.281,-16.103L101.084,-12.188L104.945,-13.646L107.43,-12.89L113.881,-16.143L116.404,-14.78L117.93,-13.754L119.941,-15.211L122.857,-13.741L123.355,-8.787L127.176,-6.061L130.455,-3.374L131.211,-1.539L132.684,0.324C136.812,-8.922 139.121,-19.153 139.121,-29.924C139.121,-41.519 136.449,-52.506 131.699,-62.278M25.215,-3.645L22.447,-7.681L19.127,-6.587L14.66,-7.856L10.813,-7.316L8.478,-7.248L6.588,-3.078L2.471,-2.362L1.202,-5.979L1.046,-6.027C-0.049,-5.016 -1.148,-3.991 -2.252,-2.95L-0.107,-3.023L1.607,-0.985L5.818,0.445L7.789,-1.593L8.274,5.534L8.41,10.69L14.012,16.089L19.154,18.276L23.919,31.787C25.957,33.15 28.076,34.405 30.249,35.566L31.248,31.611L31.194,28.588L34.096,27.292L33.731,20.53L35,13.659L35.119,13.247C32.509,7.928 29.891,2.277 27.37,-3.638L25.215,-3.645ZM87.627,-61.441L88.977,-61.117L90.098,-61.441L90.854,-59.605L92.148,-60.645L94.066,-60.915L95.158,-62.737L95.578,-64.923L95.5,-66.417C92.887,-65.492 90.174,-64.462 87.375,-63.329L87.627,-61.441ZM96.266,-94.132L97.252,-92.904L98.264,-94.942L98.494,-96.076C97.832,-96.414 97.17,-96.738 96.496,-97.048L97.197,-96.157L96.725,-94.82L96.266,-94.132ZM85.268,-89.535L85.711,-91.5L83.457,-91.784L83.174,-91.27L82.881,-89.372C83.543,-89.576 84.18,-89.805 84.848,-90.002C84.988,-89.852 85.127,-89.687 85.268,-89.535M92.824,-85.575L91.488,-82.511L90.756,-82.713C93.211,-79.148 95.375,-75.147 97.039,-70.686L96.59,-72.253L97.225,-72.887L99.465,-72.792L99.938,-74.372L100.922,-75.775L103.271,-73.211L107.889,-70.687L109.602,-69.621L110.25,-67.367L110.803,-67.083L111.1,-69.593L109.859,-70.606L110.223,-71.753L111.303,-71.2L111.344,-71.834L108.428,-73.036L106.146,-73.994L105.309,-75.546L103.676,-76.396L103.027,-78.394L104.176,-78.867L105.742,-77.49L108.51,-75.708L111.141,-74.52L112.18,-71.929L115.15,-69.607L116.715,-67.731L117.984,-67.866L117.229,-69.945L118.213,-70.849L115.514,-72.901L114.65,-74.318L115.852,-73.67L116.459,-74.413L115.324,-75.344L116.891,-76.1L118.402,-77.719L119.279,-78.206L117.391,-79.069L116.756,-82.983C112.113,-87.519 106.889,-91.446 101.18,-94.632L99.924,-92.351L98.52,-93.039L97.156,-91.986L95.82,-93.201L96.09,-95.832L95.078,-97.696L94.984,-97.884L94.902,-97.777L94.039,-96.629L94.578,-93.957L95.969,-91.379L93.77,-89.476L92.824,-85.575ZM118.781,-74.102L121.291,-71.092L123.951,-71.038L123.951,-72.928L125.219,-73.13C123.762,-75.182 122.182,-77.166 120.494,-79.056L119.967,-78.731L119.414,-76.882L117.891,-76.005L118.781,-74.102ZM86.25,-91.311L87.951,-90.002L86.992,-87.606C87.879,-86.567 88.734,-85.468 89.572,-84.336L91.219,-84.914L91.527,-88.652L90.098,-88.733L87.816,-92.621L86.561,-94.524L87.52,-96.251L85.994,-96.832L86.629,-98.425L84.928,-97.196L85.307,-93.606L86.25,-91.311ZM93.053,-97.615L93.391,-98.425C92.648,-98.735 91.906,-99.032 91.15,-99.315L91.381,-98.573L93.053,-97.615Z" style="fill:rgb(141,216,248);fill-rule:nonzero;"/>
        </g>
        <g transform="matrix(2.24455,0,0,2.24455,-2318.53,-460.078)">
            <rect x="1153.25" y="288.374" width="28.958" height="1.136" style="fill:rgb(141,216,248);"/>
        </g>
        <g transform="matrix(1.68341,0,0,1.68341,-257.336,13.1631)">
            <text x="311.875px" y="120.676px" style="font-family:'OpenSans-Bold', 'Open Sans', sans-serif;font-weight:700;font-size:13.077px;fill:rgb(0,90,170);">Nome da cidade em</text>
            <text x="311.875px" y="134.322px" style="font-family:'OpenSans-Bold', 'Open Sans', sans-serif;font-weight:700;font-size:13.077px;fill:rgb(0,90,170);">até duas linhas</text>
        </g>
    </g>
</svg>
