<?xml version="1.0" encoding="UTF-8" standalone="no"?>
<!DOCTYPE svg PUBLIC "-//W3C//DTD SVG 1.1//EN" "http://www.w3.org/Graphics/SVG/1.1/DTD/svg11.dtd">
<svg width="100%" height="100%" viewBox="0 0 1200 485" version="1.1" xmlns="http://www.w3.org/2000/svg" xmlns:xlink="http://www.w3.org/1999/xlink" xml:space="preserve" xmlns:serif="http://www.serif.com/" style="fill-rule:evenodd;clip-rule:evenodd;stroke-linejoin:round;stroke-miterlimit:2;">
    <g transform="matrix(7.88527,0,0,7.88527,-2683.45,-4510.57)">
        <g transform="matrix(1,0,0,1,382.902,577.372)">
            <path d="M0,-0.792L-0.404,-1.536C-0.217,-1.455 -0.027,-1.369 0.162,-1.277C0.432,-1.153 0.695,-1.023 0.959,-0.89C1.32,-0.706 1.682,-0.512 2.031,-0.313L1.531,0.599L0.971,0.323L0.426,0.744L-0.107,0.259L0,-0.792Z" style="fill:rgb(0,90,170);"/>
        </g>
        <g transform="matrix(1,0,0,1,491.225,589.52)">
            <path d="M0,13.611L0,18.766L-8.344,18.766C-9.096,18.765 -9.752,18.745 -10.307,18.707C-10.43,18.7 -10.529,18.691 -10.582,18.687C-11.025,18.651 -11.432,18.597 -11.795,18.528L-11.801,18.528L-11.805,18.527C-11.807,18.527 -11.807,18.525 -11.809,18.525L-11.811,18.525L-11.813,18.523C-12.209,18.447 -12.594,18.346 -12.967,18.226C-13.344,18.103 -13.701,17.961 -14.039,17.8C-15.801,16.957 -17.127,15.571 -18.012,13.635L-18.014,13.634C-18.41,12.755 -18.709,11.771 -18.908,10.681C-19.104,9.602 -19.203,8.431 -19.203,7.168L-19.203,7.16C-19.201,5.633 -19.051,4.24 -18.748,2.986C-18.707,2.804 -18.652,2.604 -18.588,2.377C-18.291,1.353 -17.885,0.424 -17.375,-0.404L-17.373,-0.408L-17.373,-0.409C-17.25,-0.608 -17.117,-0.8 -16.98,-0.987C-16.838,-1.181 -16.695,-1.361 -16.551,-1.526L-16.549,-1.526C-15.777,-2.41 -14.848,-3.093 -13.76,-3.569L-13.76,-3.571L-13.754,-3.573L-13.75,-3.573C-13.541,-3.665 -13.324,-3.751 -13.098,-3.829C-12.859,-3.913 -12.627,-3.985 -12.398,-4.047C-11.178,-4.379 -9.74,-4.545 -8.09,-4.545L0,-4.545L0,0.609L-7.555,0.609C-9.475,0.609 -10.863,1.103 -11.725,2.085C-12.063,2.471 -12.32,3.035 -12.502,3.782C-12.693,4.575 -12.787,5.559 -12.787,6.732C-12.787,8.304 -12.639,9.596 -12.34,10.607C-12.061,11.555 -11.654,12.247 -11.121,12.681C-10.75,12.981 -10.264,13.208 -9.66,13.365C-9.021,13.529 -8.26,13.611 -7.377,13.611L0,13.611Z" style="fill:rgb(0,90,170);"/>
        </g>
        <g transform="matrix(1,0,0,1,458.264,607.852)">
            <path d="M0,-22.877L0,-9.015C0,-8.501 0.021,-8.055 0.062,-7.677C0.07,-7.585 0.076,-7.531 0.082,-7.494C0.119,-7.208 0.168,-6.96 0.229,-6.749L0.23,-6.749L0.23,-6.746L0.234,-6.732L0.236,-6.73L0.234,-6.73L0.236,-6.728C0.25,-6.673 0.273,-6.605 0.303,-6.528C0.328,-6.461 0.354,-6.397 0.379,-6.337C0.521,-6.022 0.717,-5.744 0.961,-5.505C1.367,-5.114 1.85,-4.819 2.412,-4.622C2.992,-4.419 3.662,-4.319 4.422,-4.319L4.432,-4.319C4.92,-4.319 5.375,-4.359 5.793,-4.44C5.861,-4.454 5.93,-4.468 5.994,-4.483C6.33,-4.561 6.645,-4.667 6.93,-4.797L6.936,-4.799C7.27,-4.949 7.551,-5.124 7.777,-5.328C7.99,-5.519 8.156,-5.731 8.271,-5.966L8.273,-5.969C8.4,-6.222 8.5,-6.593 8.566,-7.084C8.641,-7.606 8.676,-8.256 8.676,-9.032L8.676,-22.877L14.594,-22.877L14.594,-9.259C14.594,-8.377 14.549,-7.567 14.457,-6.831C14.363,-6.089 14.221,-5.416 14.029,-4.816L14.029,-4.813C13.98,-4.66 13.922,-4.496 13.854,-4.319C13.787,-4.151 13.721,-3.992 13.65,-3.846C13.277,-3.053 12.781,-2.385 12.174,-1.843L12.172,-1.84C11.238,-1.021 10.109,-0.404 8.785,0.005C7.486,0.409 6.006,0.61 4.338,0.61L4.332,0.61C2.572,0.61 1.039,0.413 -0.262,0.02C-0.463,-0.04 -0.674,-0.112 -0.891,-0.193C-1.949,-0.587 -2.838,-1.125 -3.557,-1.808L-3.559,-1.811C-4.002,-2.236 -4.379,-2.687 -4.687,-3.164C-5,-3.648 -5.244,-4.156 -5.416,-4.685C-5.586,-5.204 -5.713,-5.822 -5.795,-6.535C-5.877,-7.237 -5.916,-8.032 -5.916,-8.917L-5.916,-22.877L0,-22.877Z" style="fill:rgb(0,90,170);"/>
        </g>
        <g transform="matrix(1,0,0,1,450.105,607.675)">
            <path d="M0,-22.7L0,-17.547L-6.742,-17.547C-8.289,-17.547 -9.4,-17.444 -10.074,-17.24L-10.076,-17.24L-10.082,-17.239L-10.082,-17.24C-10.156,-17.218 -10.236,-17.189 -10.322,-17.153C-10.404,-17.119 -10.482,-17.083 -10.555,-17.047C-10.943,-16.846 -11.289,-16.553 -11.582,-16.172L-11.58,-16.171C-11.723,-15.984 -11.84,-15.797 -11.934,-15.614C-12.023,-15.433 -12.094,-15.254 -12.141,-15.074L-12.141,-15.07C-12.195,-14.867 -12.246,-14.594 -12.293,-14.251C-12.318,-14.067 -12.346,-13.842 -12.369,-13.576L0,-13.576L0,-8.421L-12.357,-8.421C-12.354,-8.394 -12.35,-8.366 -12.346,-8.342C-12.309,-8.118 -12.268,-7.902 -12.217,-7.694C-11.975,-6.699 -11.566,-5.979 -10.994,-5.528C-10.59,-5.212 -10.029,-4.971 -9.313,-4.808C-8.555,-4.633 -7.629,-4.545 -6.531,-4.545L0,-4.545L0,0.61L-6.766,0.61C-7.621,0.609 -8.412,0.583 -9.141,0.531C-9.289,0.519 -9.414,0.511 -9.5,0.505C-10.078,0.455 -10.654,0.385 -11.227,0.291C-12.291,0.12 -13.248,-0.199 -14.098,-0.666C-14.959,-1.139 -15.709,-1.757 -16.344,-2.52L-16.344,-2.526C-17.234,-3.607 -17.898,-4.872 -18.34,-6.323C-18.773,-7.755 -18.992,-9.369 -18.992,-11.163C-18.992,-15.2 -17.742,-18.346 -15.242,-20.6L-15.238,-20.601L-15.236,-20.603L-15.238,-20.605C-15.141,-20.693 -15.018,-20.796 -14.871,-20.914C-14.736,-21.023 -14.611,-21.119 -14.496,-21.202L-14.494,-21.2C-13.838,-21.672 -13.15,-22.02 -12.43,-22.241C-11.934,-22.397 -11.357,-22.513 -10.705,-22.589C-10.063,-22.664 -9.346,-22.7 -8.555,-22.7L0,-22.7Z" style="fill:rgb(0,90,170);"/>
        </g>
        <g transform="matrix(1,0,0,1,413.508,607.859)">
            <path d="M0,-22.457L4.937,-6.999L10.139,-22.468L10.277,-22.884L18.186,-22.884L18.186,0.427L12.48,0.427L12.48,-13.162L7.895,0.016L7.75,0.427L2.037,0.427L1.9,0.004L-2.363,-12.96L-2.363,0.427L-8.068,0.427L-8.068,-22.884L-0.137,-22.884L0,-22.457Z" style="fill:rgb(0,90,170);"/>
        </g>
        <g transform="matrix(1,0,0,1,408.752,611.476)">
            <path d="M0,7.443L-2.525,0.844L-2.564,0.844C-2.518,1.367 -2.494,1.988 -2.494,2.709L-2.494,7.443L-3.293,7.443L-3.293,0L-1.99,0L0.367,6.14L0.408,6.14L2.787,0L4.08,0L4.08,7.443L3.215,7.443L3.215,2.647C3.215,2.097 3.238,1.5 3.285,0.855L3.244,0.855L0.699,7.443L0,7.443Z" style="fill:rgb(0,90,170);fill-rule:nonzero;"/>
        </g>
        <g transform="matrix(1,0,0,1,0,388.296)">
            <path d="M415.592,230.623L414.746,230.623L414.746,225.043L415.592,225.043L415.592,230.623ZM414.676,223.532C414.676,223.338 414.723,223.196 414.818,223.106C414.912,223.016 415.031,222.971 415.174,222.971C415.311,222.971 415.428,223.017 415.525,223.108C415.623,223.199 415.674,223.341 415.674,223.532C415.674,223.721 415.623,223.863 415.525,223.956C415.428,224.049 415.311,224.096 415.174,224.096C415.031,224.096 414.912,224.049 414.818,223.956C414.723,223.863 414.676,223.721 414.676,223.532" style="fill:rgb(0,90,170);fill-rule:nonzero;"/>
        </g>
        <g transform="matrix(1,0,0,1,420.984,614.862)">
            <path d="M0,2.536C0,3.056 -0.193,3.456 -0.58,3.737C-0.969,4.018 -1.512,4.16 -2.211,4.16C-2.951,4.16 -3.527,4.043 -3.941,3.808L-3.941,3.024C-3.674,3.16 -3.387,3.266 -3.078,3.345C-2.771,3.423 -2.475,3.462 -2.189,3.462C-1.748,3.462 -1.41,3.391 -1.172,3.251C-0.934,3.11 -0.814,2.895 -0.814,2.606C-0.814,2.39 -0.91,2.204 -1.098,2.05C-1.287,1.895 -1.654,1.712 -2.199,1.502C-2.719,1.308 -3.088,1.14 -3.309,0.995C-3.527,0.85 -3.689,0.687 -3.797,0.504C-3.904,0.321 -3.957,0.101 -3.957,-0.153C-3.957,-0.608 -3.771,-0.967 -3.402,-1.23C-3.031,-1.493 -2.523,-1.624 -1.879,-1.624C-1.279,-1.624 -0.691,-1.502 -0.117,-1.258L-0.418,-0.57C-0.979,-0.802 -1.486,-0.917 -1.941,-0.917C-2.342,-0.917 -2.643,-0.854 -2.848,-0.728C-3.051,-0.603 -3.152,-0.429 -3.152,-0.209C-3.152,-0.06 -3.113,0.067 -3.037,0.173C-2.961,0.278 -2.838,0.378 -2.668,0.473C-2.498,0.568 -2.174,0.706 -1.691,0.886C-1.029,1.127 -0.582,1.37 -0.35,1.614C-0.117,1.858 0,2.165 0,2.536" style="fill:rgb(0,90,170);fill-rule:nonzero;"/>
        </g>
        <g transform="matrix(1,0,0,1,425.959,614.862)">
            <path d="M0,2.536C0,3.056 -0.193,3.456 -0.58,3.737C-0.969,4.018 -1.512,4.16 -2.211,4.16C-2.951,4.16 -3.527,4.043 -3.941,3.808L-3.941,3.024C-3.674,3.16 -3.387,3.266 -3.078,3.345C-2.771,3.423 -2.475,3.462 -2.189,3.462C-1.748,3.462 -1.41,3.391 -1.172,3.251C-0.934,3.11 -0.814,2.895 -0.814,2.606C-0.814,2.39 -0.91,2.204 -1.098,2.05C-1.287,1.895 -1.654,1.712 -2.199,1.502C-2.719,1.308 -3.088,1.14 -3.309,0.995C-3.527,0.85 -3.689,0.687 -3.797,0.504C-3.904,0.321 -3.957,0.101 -3.957,-0.153C-3.957,-0.608 -3.771,-0.967 -3.402,-1.23C-3.031,-1.493 -2.523,-1.624 -1.879,-1.624C-1.279,-1.624 -0.691,-1.502 -0.117,-1.258L-0.418,-0.57C-0.979,-0.802 -1.486,-0.917 -1.941,-0.917C-2.342,-0.917 -2.643,-0.854 -2.848,-0.728C-3.051,-0.603 -3.152,-0.429 -3.152,-0.209C-3.152,-0.06 -3.113,0.067 -3.037,0.173C-2.961,0.278 -2.838,0.378 -2.668,0.473C-2.498,0.568 -2.174,0.706 -1.691,0.886C-1.029,1.127 -0.582,1.37 -0.35,1.614C-0.117,1.858 0,2.165 0,2.536" style="fill:rgb(0,90,170);fill-rule:nonzero;"/>
        </g>
        <g transform="matrix(1,0,0,1,428.855,611.975)">
            <path d="M0,6.349C0.525,6.349 0.939,6.205 1.24,5.917C1.541,5.628 1.691,5.224 1.691,4.704L1.691,4.201L0.846,4.236C0.174,4.26 -0.311,4.365 -0.607,4.55C-0.906,4.735 -1.055,5.023 -1.055,5.412C-1.055,5.718 -0.961,5.951 -0.775,6.111C-0.592,6.27 -0.332,6.349 0,6.349M1.252,0.617C1.107,0.617 0.965,0.585 0.824,0.522C0.686,0.459 0.549,0.39 0.416,0.314C0.281,0.237 0.152,0.167 0.027,0.105C-0.096,0.041 -0.215,0.01 -0.33,0.01C-0.5,0.01 -0.629,0.061 -0.715,0.163C-0.803,0.265 -0.869,0.419 -0.916,0.626L-1.416,0.626C-1.371,0.216 -1.252,-0.106 -1.057,-0.338C-0.861,-0.571 -0.609,-0.688 -0.301,-0.688C-0.145,-0.688 0.008,-0.656 0.152,-0.593C0.299,-0.53 0.437,-0.462 0.57,-0.384C0.703,-0.308 0.83,-0.239 0.953,-0.176C1.074,-0.113 1.189,-0.082 1.299,-0.082C1.465,-0.082 1.588,-0.131 1.67,-0.231C1.752,-0.332 1.818,-0.487 1.869,-0.698L2.373,-0.698C2.328,-0.287 2.211,0.035 2.02,0.267C1.828,0.499 1.572,0.617 1.252,0.617M1.91,6.945L1.742,6.151L1.701,6.151C1.422,6.5 1.145,6.738 0.869,6.861C0.592,6.986 0.246,7.047 -0.168,7.047C-0.721,7.047 -1.154,6.905 -1.469,6.62C-1.783,6.334 -1.939,5.929 -1.939,5.402C-1.939,4.275 -1.039,3.685 0.764,3.63L1.711,3.6L1.711,3.253C1.711,2.816 1.617,2.493 1.428,2.284C1.24,2.076 0.939,1.97 0.525,1.97C0.059,1.97 -0.467,2.113 -1.055,2.398L-1.314,1.751C-1.039,1.603 -0.738,1.486 -0.41,1.4C-0.082,1.316 0.246,1.273 0.576,1.273C1.24,1.273 1.734,1.421 2.055,1.716C2.375,2.011 2.535,2.485 2.535,3.136L2.535,6.945L1.91,6.945Z" style="fill:rgb(0,90,170);fill-rule:nonzero;"/>
        </g>
        <g transform="matrix(1,0,0,1,433.697,616.134)">
            <path d="M0,-0.01C0,0.703 0.143,1.246 0.428,1.619C0.713,1.993 1.133,2.179 1.686,2.179C2.24,2.179 2.66,1.994 2.947,1.622C3.232,1.25 3.377,0.707 3.377,-0.01C3.377,-0.719 3.232,-1.258 2.947,-1.627C2.66,-1.994 2.236,-2.179 1.676,-2.179C1.123,-2.179 0.705,-1.997 0.424,-1.635C0.143,-1.272 0,-0.73 0,-0.01M4.252,-0.01C4.252,0.9 4.023,1.61 3.564,2.121C3.107,2.633 2.475,2.887 1.666,2.887C1.166,2.887 0.725,2.77 0.338,2.536C-0.051,2.302 -0.35,1.966 -0.559,1.527C-0.77,1.09 -0.875,0.578 -0.875,-0.01C-0.875,-0.92 -0.648,-1.628 -0.193,-2.136C0.262,-2.643 0.895,-2.897 1.701,-2.897C2.482,-2.897 3.104,-2.637 3.563,-2.117C4.023,-1.599 4.252,-0.896 4.252,-0.01" style="fill:rgb(0,90,170);fill-rule:nonzero;"/>
        </g>
        <g transform="matrix(1,0,0,1,446.418,611.476)">
            <path d="M0,7.443L-4.15,7.443L-4.15,0L0,0L0,0.768L-3.285,0.768L-3.285,3.166L-0.199,3.166L-0.199,3.93L-3.285,3.93L-3.285,6.67L0,6.67L0,7.443Z" style="fill:rgb(0,90,170);fill-rule:nonzero;"/>
        </g>
        <g transform="matrix(1,0,0,1,449.162,613.339)">
            <path d="M0,5.58L-2.117,0L-1.211,0L-0.01,3.309C0.262,4.084 0.422,4.586 0.469,4.816L0.51,4.816C0.547,4.637 0.664,4.264 0.863,3.699C1.062,3.134 1.508,1.9 2.199,0L3.107,0L0.988,5.58L0,5.58Z" style="fill:rgb(0,90,170);fill-rule:nonzero;"/>
        </g>
        <g transform="matrix(1,0,0,1,454.687,613.946)">
            <path d="M0,4.378C0.525,4.378 0.939,4.234 1.24,3.946C1.541,3.657 1.691,3.253 1.691,2.733L1.691,2.23L0.846,2.265C0.174,2.289 -0.311,2.394 -0.607,2.579C-0.906,2.764 -1.055,3.052 -1.055,3.441C-1.055,3.747 -0.961,3.98 -0.775,4.14C-0.592,4.299 -0.332,4.378 0,4.378M1.91,4.974L1.742,4.18L1.701,4.18C1.422,4.529 1.145,4.767 0.869,4.89C0.592,5.015 0.246,5.076 -0.168,5.076C-0.721,5.076 -1.154,4.934 -1.469,4.649C-1.783,4.363 -1.939,3.958 -1.939,3.431C-1.939,2.304 -1.039,1.714 0.764,1.659L1.711,1.629L1.711,1.282C1.711,0.845 1.617,0.522 1.428,0.313C1.24,0.105 0.939,-0.001 0.525,-0.001C0.059,-0.001 -0.467,0.142 -1.055,0.427L-1.314,-0.22C-1.039,-0.368 -0.738,-0.485 -0.41,-0.571C-0.082,-0.655 0.246,-0.698 0.576,-0.698C1.24,-0.698 1.734,-0.55 2.055,-0.255C2.375,0.04 2.535,0.514 2.535,1.165L2.535,4.974L1.91,4.974Z" style="fill:rgb(0,90,170);fill-rule:nonzero;"/>
        </g>
        <g transform="matrix(1,0,0,1,462.783,613.237)">
            <path d="M0,5.682L0,2.073C0,1.618 -0.104,1.278 -0.311,1.054C-0.518,0.83 -0.842,0.718 -1.283,0.718C-1.867,0.718 -2.295,0.875 -2.566,1.192C-2.838,1.507 -2.973,2.028 -2.973,2.754L-2.973,5.682L-3.818,5.682L-3.818,0.102L-3.131,0.102L-2.994,0.866L-2.953,0.866C-2.779,0.59 -2.537,0.377 -2.225,0.227C-1.912,0.076 -1.564,0 -1.18,0C-0.508,0 -0.002,0.162 0.336,0.487C0.676,0.811 0.846,1.328 0.846,2.041L0.846,5.682L0,5.682Z" style="fill:rgb(0,90,170);fill-rule:nonzero;"/>
        </g>
        <g transform="matrix(1,0,0,1,465.941,619.536)">
            <path d="M0,-4.41C0,-4.019 0.109,-3.724 0.33,-3.523C0.551,-3.324 0.857,-3.223 1.252,-3.223C2.076,-3.223 2.488,-3.624 2.488,-4.426C2.488,-5.264 2.072,-5.683 1.236,-5.683C0.84,-5.683 0.533,-5.576 0.32,-5.362C0.105,-5.148 0,-4.831 0,-4.41M-0.459,0.32C-0.459,0.622 -0.332,0.852 -0.076,1.008C0.178,1.164 0.543,1.242 1.018,1.242C1.727,1.242 2.252,1.136 2.594,0.924C2.936,0.711 3.105,0.424 3.105,0.061C3.105,-0.242 3.012,-0.451 2.826,-0.568C2.639,-0.685 2.287,-0.744 1.771,-0.744L0.758,-0.744C0.375,-0.744 0.076,-0.652 -0.139,-0.469C-0.352,-0.285 -0.459,-0.023 -0.459,0.32M3.992,-6.197L3.992,-5.662L2.957,-5.541C3.053,-5.422 3.137,-5.265 3.213,-5.074C3.287,-4.883 3.324,-4.666 3.324,-4.426C3.324,-3.879 3.137,-3.443 2.764,-3.117C2.391,-2.791 1.879,-2.628 1.227,-2.628C1.061,-2.628 0.904,-2.641 0.758,-2.668C0.398,-2.478 0.219,-2.239 0.219,-1.951C0.219,-1.798 0.281,-1.685 0.406,-1.612C0.533,-1.539 0.748,-1.502 1.053,-1.502L2.041,-1.502C2.645,-1.502 3.109,-1.375 3.434,-1.121C3.758,-0.866 3.92,-0.496 3.92,-0.011C3.92,0.608 3.672,1.078 3.176,1.402C2.682,1.727 1.957,1.889 1.008,1.889C0.277,1.889 -0.285,1.752 -0.68,1.481C-1.076,1.209 -1.273,0.826 -1.273,0.33C-1.273,-0.01 -1.164,-0.303 -0.947,-0.551C-0.73,-0.799 -0.426,-0.967 -0.031,-1.055C-0.174,-1.119 -0.293,-1.219 -0.391,-1.355C-0.486,-1.49 -0.535,-1.648 -0.535,-1.828C-0.535,-2.032 -0.48,-2.211 -0.373,-2.363C-0.264,-2.515 -0.092,-2.664 0.143,-2.806C-0.146,-2.925 -0.381,-3.127 -0.562,-3.412C-0.744,-3.697 -0.836,-4.023 -0.836,-4.389C-0.836,-5.001 -0.652,-5.472 -0.285,-5.803C0.08,-6.134 0.6,-6.299 1.271,-6.299C1.564,-6.299 1.828,-6.265 2.063,-6.197L3.992,-6.197Z" style="fill:rgb(0,90,170);fill-rule:nonzero;"/>
        </g>
        <g transform="matrix(1,0,0,1,472.58,617.479)">
            <path d="M0,-5.005C0.164,-5.216 0.34,-5.47 0.527,-5.769C0.715,-6.067 0.863,-6.327 0.973,-6.548L2.002,-6.548L2.002,-6.442C1.852,-6.221 1.629,-5.948 1.334,-5.626C1.039,-5.304 0.783,-5.055 0.566,-4.878L0,-4.878L0,-5.005ZM0.627,-3.534C0.178,-3.534 -0.18,-3.388 -0.445,-3.096C-0.711,-2.804 -0.869,-2.4 -0.916,-1.884L2.002,-1.884C2.002,-2.417 1.883,-2.825 1.645,-3.109C1.408,-3.392 1.068,-3.534 0.627,-3.534M0.855,1.543C0.031,1.543 -0.619,1.292 -1.098,0.789C-1.574,0.286 -1.812,-0.411 -1.812,-1.304C-1.812,-2.203 -1.592,-2.917 -1.148,-3.447C-0.705,-3.977 -0.109,-4.241 0.637,-4.241C1.336,-4.241 1.889,-4.012 2.297,-3.552C2.703,-3.092 2.908,-2.485 2.908,-1.732L2.908,-1.196L-0.937,-1.196C-0.92,-0.542 -0.754,-0.044 -0.439,0.296C-0.127,0.635 0.316,0.804 0.887,0.804C1.486,0.804 2.082,0.679 2.668,0.428L2.668,1.181C2.369,1.309 2.088,1.403 1.82,1.458C1.555,1.515 1.232,1.543 0.855,1.543" style="fill:rgb(0,90,170);fill-rule:nonzero;"/>
        </g>
        <g transform="matrix(-1,0,0,1,954.702,388.026)">
            <rect x="476.929" y="222.971" width="0.844" height="7.922" style="fill:rgb(0,90,170);"/>
        </g>
        <g transform="matrix(1,0,0,1,0,388.296)">
            <path d="M480.412,230.623L479.566,230.623L479.566,225.043L480.412,225.043L480.412,230.623ZM479.496,223.532C479.496,223.338 479.543,223.196 479.639,223.106C479.732,223.016 479.852,222.971 479.994,222.971C480.131,222.971 480.248,223.017 480.346,223.108C480.443,223.199 480.494,223.341 480.494,223.532C480.494,223.721 480.443,223.863 480.346,223.956C480.248,224.049 480.131,224.096 479.994,224.096C479.852,224.096 479.732,224.049 479.639,223.956C479.543,223.863 479.496,223.721 479.496,223.532" style="fill:rgb(0,90,170);fill-rule:nonzero;"/>
        </g>
        <g transform="matrix(1,0,0,1,484.434,613.238)">
            <path d="M0,5.784C-0.807,5.784 -1.432,5.535 -1.875,5.038C-2.318,4.541 -2.539,3.838 -2.539,2.928C-2.539,1.994 -2.314,1.272 -1.865,0.763C-1.416,0.254 -0.775,0 0.057,0C0.324,0 0.594,0.028 0.861,0.086C1.129,0.144 1.34,0.212 1.492,0.29L1.232,1.008C1.047,0.933 0.842,0.871 0.623,0.822C0.402,0.773 0.207,0.748 0.037,0.748C-1.098,0.748 -1.664,1.471 -1.664,2.918C-1.664,3.603 -1.525,4.129 -1.25,4.496C-0.973,4.862 -0.562,5.045 -0.02,5.045C0.445,5.045 0.922,4.945 1.412,4.745L1.412,5.494C1.037,5.687 0.568,5.784 0,5.784" style="fill:rgb(0,90,170);fill-rule:nonzero;"/>
        </g>
        <g transform="matrix(1,0,0,1,488.691,613.946)">
            <path d="M0,4.378C0.525,4.378 0.939,4.234 1.24,3.946C1.541,3.657 1.691,3.253 1.691,2.733L1.691,2.23L0.846,2.265C0.174,2.289 -0.311,2.394 -0.607,2.579C-0.906,2.764 -1.055,3.052 -1.055,3.441C-1.055,3.747 -0.961,3.98 -0.775,4.14C-0.592,4.299 -0.332,4.378 0,4.378M1.91,4.974L1.742,4.18L1.701,4.18C1.422,4.529 1.145,4.767 0.869,4.89C0.592,5.015 0.246,5.076 -0.168,5.076C-0.721,5.076 -1.154,4.934 -1.469,4.649C-1.783,4.363 -1.939,3.958 -1.939,3.431C-1.939,2.304 -1.039,1.714 0.764,1.659L1.711,1.629L1.711,1.282C1.711,0.845 1.617,0.522 1.428,0.313C1.24,0.105 0.939,-0.001 0.525,-0.001C0.059,-0.001 -0.467,0.142 -1.055,0.427L-1.314,-0.22C-1.039,-0.368 -0.738,-0.485 -0.41,-0.571C-0.082,-0.655 0.246,-0.698 0.576,-0.698C1.24,-0.698 1.734,-0.55 2.055,-0.255C2.375,0.04 2.535,0.514 2.535,1.165L2.535,4.974L1.91,4.974Z" style="fill:rgb(0,90,170);fill-rule:nonzero;"/>
        </g>
        <g transform="matrix(1,0,0,1,411.08,629.406)">
            <path d="M0,-7.547L0,-2.731C0,-1.881 -0.256,-1.215 -0.77,-0.729C-1.281,-0.243 -1.986,0 -2.883,0C-3.779,0 -4.473,-0.245 -4.963,-0.735C-5.453,-1.223 -5.697,-1.895 -5.697,-2.75L-5.697,-7.547L-4.832,-7.547L-4.832,-2.69C-4.832,-2.068 -4.662,-1.591 -4.322,-1.258C-3.984,-0.926 -3.484,-0.76 -2.826,-0.76C-2.197,-0.76 -1.715,-0.927 -1.375,-1.261C-1.035,-1.596 -0.865,-2.074 -0.865,-2.699L-0.865,-7.547L0,-7.547Z" style="fill:rgb(0,90,170);fill-rule:nonzero;"/>
        </g>
        <g transform="matrix(1,0,0,1,416.742,623.62)">
            <path d="M0,5.683L0,2.073C0,1.618 -0.104,1.279 -0.311,1.055C-0.518,0.83 -0.842,0.719 -1.283,0.719C-1.867,0.719 -2.295,0.876 -2.566,1.192C-2.838,1.508 -2.975,2.029 -2.975,2.755L-2.975,5.683L-3.818,5.683L-3.818,0.102L-3.131,0.102L-2.994,0.866L-2.953,0.866C-2.781,0.591 -2.537,0.378 -2.225,0.227C-1.914,0.077 -1.564,0 -1.182,0C-0.51,0 -0.004,0.162 0.336,0.487C0.676,0.811 0.846,1.329 0.846,2.042L0.846,5.683L0,5.683Z" style="fill:rgb(0,90,170);fill-rule:nonzero;"/>
        </g>
        <g transform="matrix(1,0,0,1,0,409.063)">
            <path d="M420.168,220.24L419.324,220.24L419.324,214.659L420.168,214.659L420.168,220.24ZM419.252,213.147C419.252,212.954 419.299,212.811 419.395,212.722C419.49,212.632 419.609,212.587 419.752,212.587C419.887,212.587 420.004,212.634 420.102,212.724C420.201,212.816 420.25,212.958 420.25,213.147C420.25,213.337 420.201,213.479 420.102,213.573C420.004,213.666 419.887,213.712 419.752,213.712C419.609,213.712 419.49,213.666 419.395,213.573C419.299,213.479 419.252,213.337 419.252,213.147" style="fill:rgb(0,90,170);fill-rule:nonzero;"/>
        </g>
        <g transform="matrix(1,0,0,1,423.484,622.358)">
            <path d="M0,6.349C0.525,6.349 0.939,6.205 1.238,5.916C1.539,5.627 1.689,5.223 1.689,4.704L1.689,4.2L0.844,4.236C0.172,4.26 -0.312,4.364 -0.609,4.549C-0.906,4.735 -1.055,5.022 -1.055,5.412C-1.055,5.717 -0.963,5.95 -0.777,6.11C-0.592,6.27 -0.334,6.349 0,6.349M1.252,0.616C1.105,0.616 0.963,0.584 0.824,0.522C0.686,0.459 0.549,0.389 0.414,0.313C0.279,0.237 0.15,0.166 0.027,0.104C-0.098,0.041 -0.217,0.01 -0.332,0.01C-0.502,0.01 -0.629,0.061 -0.717,0.162C-0.803,0.264 -0.869,0.418 -0.918,0.625L-1.416,0.625C-1.373,0.215 -1.252,-0.107 -1.057,-0.339C-0.861,-0.572 -0.609,-0.688 -0.301,-0.688C-0.145,-0.688 0.006,-0.656 0.152,-0.593C0.297,-0.531 0.437,-0.462 0.57,-0.384C0.701,-0.308 0.83,-0.239 0.951,-0.176C1.074,-0.113 1.189,-0.082 1.297,-0.082C1.463,-0.082 1.588,-0.132 1.67,-0.232C1.75,-0.332 1.816,-0.488 1.867,-0.698L2.371,-0.698C2.328,-0.287 2.209,0.035 2.018,0.267C1.826,0.499 1.57,0.616 1.252,0.616M1.908,6.945L1.74,6.151L1.699,6.151C1.422,6.5 1.145,6.737 0.867,6.861C0.59,6.985 0.246,7.047 -0.168,7.047C-0.723,7.047 -1.156,6.905 -1.471,6.62C-1.783,6.334 -1.941,5.928 -1.941,5.402C-1.941,4.275 -1.039,3.684 0.764,3.629L1.711,3.6L1.711,3.253C1.711,2.815 1.615,2.493 1.428,2.284C1.238,2.075 0.937,1.97 0.523,1.97C0.059,1.97 -0.467,2.113 -1.055,2.398L-1.314,1.75C-1.039,1.602 -0.738,1.485 -0.41,1.4C-0.084,1.315 0.246,1.272 0.574,1.272C1.24,1.272 1.732,1.42 2.055,1.715C2.375,2.01 2.535,2.485 2.535,3.136L2.535,6.945L1.908,6.945Z" style="fill:rgb(0,90,170);fill-rule:nonzero;"/>
        </g>
        <g transform="matrix(1,0,0,1,428.326,626.518)">
            <path d="M0,-0.011C0,0.702 0.143,1.245 0.428,1.619C0.713,1.993 1.133,2.178 1.686,2.178C2.238,2.178 2.658,1.993 2.945,1.622C3.232,1.25 3.375,0.706 3.375,-0.011C3.375,-0.72 3.232,-1.259 2.945,-1.627C2.658,-1.995 2.234,-2.179 1.676,-2.179C1.121,-2.179 0.705,-1.997 0.422,-1.635C0.141,-1.272 0,-0.73 0,-0.011M4.252,-0.011C4.252,0.899 4.021,1.61 3.564,2.12C3.105,2.632 2.473,2.887 1.664,2.887C1.166,2.887 0.723,2.77 0.336,2.536C-0.051,2.302 -0.35,1.966 -0.561,1.527C-0.771,1.089 -0.875,0.577 -0.875,-0.011C-0.875,-0.92 -0.648,-1.628 -0.193,-2.136C0.262,-2.644 0.893,-2.898 1.701,-2.898C2.48,-2.898 3.102,-2.638 3.563,-2.118C4.021,-1.599 4.252,-0.896 4.252,-0.011" style="fill:rgb(0,90,170);fill-rule:nonzero;"/>
        </g>
        <g transform="matrix(1,0,0,1,440.084,628.632)">
            <path d="M0,-6.106C-0.818,-6.106 -1.465,-5.834 -1.937,-5.289C-2.412,-4.744 -2.648,-3.998 -2.648,-3.05C-2.648,-2.077 -2.42,-1.324 -1.963,-0.793C-1.508,-0.261 -0.855,0.004 -0.01,0.004C0.508,0.004 1.102,-0.089 1.766,-0.276L1.766,0.483C1.25,0.676 0.613,0.774 -0.143,0.774C-1.24,0.774 -2.086,0.44 -2.682,-0.224C-3.277,-0.89 -3.574,-1.835 -3.574,-3.061C-3.574,-3.828 -3.432,-4.5 -3.145,-5.078C-2.857,-5.654 -2.443,-6.099 -1.902,-6.412C-1.361,-6.724 -0.723,-6.88 0.01,-6.88C0.791,-6.88 1.473,-6.738 2.057,-6.453L1.689,-5.709C1.127,-5.974 0.562,-6.106 0,-6.106" style="fill:rgb(0,90,170);fill-rule:nonzero;"/>
        </g>
        <g transform="matrix(1,0,0,1,445.893,629.303)">
            <path d="M0,-5.683C0.248,-5.683 0.471,-5.662 0.668,-5.622L0.551,-4.837C0.318,-4.888 0.115,-4.913 -0.061,-4.913C-0.512,-4.913 -0.898,-4.731 -1.219,-4.365C-1.541,-3.997 -1.701,-3.54 -1.701,-2.995L-1.701,0L-2.545,0L-2.545,-5.581L-1.848,-5.581L-1.752,-4.547L-1.711,-4.547C-1.504,-4.911 -1.254,-5.191 -0.963,-5.388C-0.67,-5.584 -0.35,-5.683 0,-5.683" style="fill:rgb(0,90,170);fill-rule:nonzero;"/>
        </g>
        <g transform="matrix(1,0,0,1,0,409.063)">
            <path d="M448.449,220.24L447.603,220.24L447.603,214.659L448.449,214.659L448.449,220.24ZM447.533,213.147C447.533,212.954 447.58,212.811 447.676,212.722C447.77,212.632 447.889,212.587 448.031,212.587C448.168,212.587 448.285,212.634 448.383,212.724C448.48,212.816 448.531,212.958 448.531,213.147C448.531,213.337 448.48,213.479 448.383,213.573C448.285,213.666 448.168,213.712 448.031,213.712C447.889,213.712 447.77,213.666 447.676,213.573C447.58,213.479 447.533,213.337 447.533,213.147" style="fill:rgb(0,90,170);fill-rule:nonzero;"/>
        </g>
        <g transform="matrix(1,0,0,1,453.842,625.246)">
            <path d="M0,2.535C0,3.055 -0.193,3.455 -0.58,3.736C-0.969,4.018 -1.512,4.16 -2.211,4.16C-2.951,4.16 -3.527,4.043 -3.941,3.808L-3.941,3.023C-3.674,3.16 -3.387,3.266 -3.078,3.345C-2.771,3.423 -2.475,3.462 -2.189,3.462C-1.748,3.462 -1.41,3.391 -1.172,3.25C-0.934,3.109 -0.814,2.894 -0.814,2.606C-0.814,2.389 -0.91,2.203 -1.098,2.049C-1.287,1.894 -1.654,1.712 -2.199,1.502C-2.719,1.308 -3.088,1.139 -3.309,0.995C-3.527,0.85 -3.689,0.687 -3.797,0.504C-3.904,0.32 -3.957,0.101 -3.957,-0.153C-3.957,-0.608 -3.771,-0.967 -3.402,-1.231C-3.031,-1.493 -2.523,-1.625 -1.879,-1.625C-1.279,-1.625 -0.691,-1.502 -0.117,-1.258L-0.418,-0.57C-0.979,-0.802 -1.486,-0.917 -1.941,-0.917C-2.342,-0.917 -2.643,-0.854 -2.848,-0.729C-3.051,-0.604 -3.152,-0.43 -3.152,-0.209C-3.152,-0.061 -3.113,0.067 -3.037,0.172C-2.961,0.277 -2.838,0.378 -2.668,0.472C-2.498,0.568 -2.174,0.705 -1.691,0.885C-1.029,1.127 -0.582,1.369 -0.35,1.613C-0.117,1.857 0,2.165 0,2.535" style="fill:rgb(0,90,170);fill-rule:nonzero;"/>
        </g>
        <g transform="matrix(1,0,0,1,457.018,623.127)">
            <path d="M0,5.58C0.15,5.58 0.295,5.569 0.434,5.547C0.572,5.524 0.684,5.502 0.766,5.477L0.766,6.125C0.674,6.169 0.539,6.206 0.359,6.234C0.182,6.263 0.021,6.278 -0.121,6.278C-1.201,6.278 -1.74,5.709 -1.74,4.571L-1.74,1.252L-2.539,1.252L-2.539,0.845L-1.74,0.493L-1.385,-0.698L-0.895,-0.698L-0.895,0.595L0.725,0.595L0.725,1.252L-0.895,1.252L-0.895,4.536C-0.895,4.872 -0.816,5.13 -0.656,5.309C-0.496,5.49 -0.277,5.58 0,5.58" style="fill:rgb(0,90,170);fill-rule:nonzero;"/>
        </g>
        <g transform="matrix(1,0,0,1,460.42,622.358)">
            <path d="M0,6.349C0.525,6.349 0.939,6.205 1.24,5.916C1.541,5.627 1.691,5.223 1.691,4.704L1.691,4.2L0.846,4.236C0.174,4.26 -0.311,4.364 -0.607,4.549C-0.906,4.735 -1.055,5.022 -1.055,5.412C-1.055,5.717 -0.961,5.95 -0.775,6.11C-0.592,6.27 -0.332,6.349 0,6.349M1.252,0.616C1.107,0.616 0.965,0.584 0.824,0.522C0.686,0.459 0.549,0.389 0.416,0.313C0.281,0.237 0.152,0.166 0.027,0.104C-0.096,0.041 -0.215,0.01 -0.33,0.01C-0.5,0.01 -0.629,0.061 -0.715,0.162C-0.803,0.264 -0.869,0.418 -0.916,0.625L-1.416,0.625C-1.371,0.215 -1.252,-0.107 -1.057,-0.339C-0.861,-0.572 -0.609,-0.688 -0.301,-0.688C-0.145,-0.688 0.008,-0.656 0.152,-0.593C0.299,-0.531 0.437,-0.462 0.57,-0.384C0.703,-0.308 0.83,-0.239 0.953,-0.176C1.074,-0.113 1.189,-0.082 1.299,-0.082C1.465,-0.082 1.588,-0.132 1.67,-0.232C1.752,-0.332 1.818,-0.488 1.869,-0.698L2.373,-0.698C2.328,-0.287 2.211,0.035 2.02,0.267C1.828,0.499 1.572,0.616 1.252,0.616M1.91,6.945L1.742,6.151L1.701,6.151C1.422,6.5 1.145,6.737 0.869,6.861C0.592,6.985 0.246,7.047 -0.168,7.047C-0.721,7.047 -1.154,6.905 -1.469,6.62C-1.783,6.334 -1.939,5.928 -1.939,5.402C-1.939,4.275 -1.039,3.684 0.764,3.629L1.711,3.6L1.711,3.253C1.711,2.815 1.617,2.493 1.428,2.284C1.24,2.075 0.939,1.97 0.525,1.97C0.059,1.97 -0.467,2.113 -1.055,2.398L-1.314,1.75C-1.039,1.602 -0.738,1.485 -0.41,1.4C-0.082,1.315 0.246,1.272 0.576,1.272C1.24,1.272 1.734,1.42 2.055,1.715C2.375,2.01 2.535,2.485 2.535,3.136L2.535,6.945L1.91,6.945Z" style="fill:rgb(0,90,170);fill-rule:nonzero;"/>
        </g>
        <g transform="matrix(-0.909326,0.416084,0.416084,0.909326,359.812,619.201)">
            <path d="M1.543,-7.089C1.607,-4.522 1.596,-2.034 1.535,0.33L1.543,0.337C1.606,-2.027 1.615,-4.52 1.549,-7.092L1.543,-7.089Z" style="fill:rgb(0,90,170);fill-rule:nonzero;"/>
        </g>
        <g transform="matrix(1,0,0,1,377.631,578.914)">
            <path d="M0,0.238C0.258,0.152 0.518,0.071 0.781,-0.005C0.518,0.071 0.264,0.163 0,0.243L0,0.238Z" style="fill:rgb(0,90,170);fill-rule:nonzero;"/>
        </g>
        <g transform="matrix(1,0,0,1,342.027,591.998)">
            <path d="M0,5.158L0.818,5.196L0.582,1.848L0.943,-0.038C0.361,1.417 -0.109,2.932 -0.447,4.49L-0.361,4.495L0,5.158Z" style="fill:rgb(0,90,170);fill-rule:nonzero;"/>
        </g>
        <g transform="matrix(1,0,0,1,345.332,593.684)">
            <path d="M0,-1.628L1.072,-0.873L2.123,0.593L0.662,2.156L-0.686,3.66L-1.24,5.902L-0.352,5.374L0.625,3.574L1.035,4.727L0.123,5.962L-0.912,7.973L-0.793,8.538C0.748,6.636 2.49,4.662 4.441,2.695C3.455,-1.59 2.834,-5.929 2.775,-10.166C1.326,-8.494 0.064,-6.657 -0.988,-4.69L-0.805,-4.29L-1.5,-2.829L-1.865,-2.895C-2.033,-2.533 -2.184,-2.172 -2.33,-1.8L-0.891,-1.1L0,-1.628Z" style="fill:rgb(0,90,170);fill-rule:nonzero;"/>
        </g>
        <g transform="matrix(1,0,0,1,377.631,582.651)">
            <path d="M0,-3.499L0.113,-4.248L0.227,-4.453L1.127,-4.339L0.949,-3.559C1.18,-3.311 1.412,-3.053 1.639,-2.788L2.021,-3.742L1.342,-4.266L0.965,-5.181L0.812,-6.614L1.492,-7.105L1.238,-6.47L1.848,-6.237L1.465,-5.548L1.967,-4.787L2.879,-3.235L3.449,-3.203L3.324,-1.71L2.672,-1.483C2.834,-1.273 2.986,-1.052 3.143,-0.831L3.434,-0.75L3.967,-1.975L4.344,-3.531L5.223,-4.291L4.668,-5.32L4.451,-6.389L4.797,-6.846C4.598,-6.938 4.398,-7.02 4.193,-7.105L4.059,-6.782L3.389,-7.164L3.299,-7.461C0.049,-8.685 -3.473,-9.358 -7.148,-9.358C-12.549,-9.358 -17.611,-7.908 -21.973,-5.381C-21.146,-2.211 -20.064,1.622 -18.674,5.859C-13.412,2.063 -7.213,-1.277 0,-3.499" style="fill:rgb(0,90,170);fill-rule:nonzero;"/>
        </g>
        <g transform="matrix(1,0,0,1,350.123,619.915)">
            <path d="M0,1.362L-2.236,-0.794L-2.291,-2.853L-2.484,-5.699L-3.271,-4.885L-4.953,-5.456L-5.639,-6.27L-6.496,-6.243C-6.668,-6.081 -6.846,-5.915 -7.023,-5.747C-4.766,-0.271 -0.916,4.386 3.957,7.632L2.053,2.235L0,1.362Z" style="fill:rgb(0,90,170);fill-rule:nonzero;"/>
        </g>
        <g transform="matrix(1,0,0,1,358.506,631.847)">
            <path d="M0,-11.546L-0.508,-8.797L-0.361,-6.096L-1.521,-5.578L-1.498,-4.371L-1.898,-2.792C0.699,-1.412 3.529,-0.403 6.521,0.151C4.721,-2.824 2.398,-6.916 0.043,-11.697L0,-11.546Z" style="fill:rgb(0,90,170);fill-rule:nonzero;"/>
        </g>
        <g transform="matrix(1,0,0,1,396.627,598.838)">
            <path d="M0,14.665L-1.311,13.594L-2.836,12.504L-3.037,10.526L-4.199,9.938L-5.004,10.52L-5.613,10.111L-6.621,9.566L-9.197,10.86L-10.189,10.564L-11.73,11.146L-14.447,9.583L-15.17,8.473L-17.418,6.37L-17.979,5.044L-17.715,4.23L-18.145,2.494L-18.674,1.056L-18.16,-1.667L-17.562,-2.61L-16.668,-3.43L-16.867,-4.448L-16.539,-5.839L-15.936,-6.389L-15.736,-7.574L-15.471,-7.429L-15.023,-7.262L-14.053,-7.203L-13.197,-8.302L-10.395,-9.192L-10.092,-9.611L-9.688,-9.277L-9.559,-9.683L-9.482,-9.009L-9.008,-8.194L-9.225,-7.354L-8.502,-7.1L-6.934,-7.132L-6.566,-6.529L-4.857,-6.367L-4.744,-7.015L-5.078,-7.736L-4.814,-8.345L-4.064,-8.701L-2.896,-8.572L-1.531,-8.976L-0.814,-10.07L-0.18,-10.076L-0.158,-10.13C-0.738,-11.191 -1.387,-12.215 -2.092,-13.191L-2.6,-13.109L-2.6,-12.356L-3.66,-12.377L-4.664,-13.579L-5.02,-14.339L-4.41,-14.689L-4.189,-15.429L-3.979,-15.559C-4.453,-16.098 -4.955,-16.625 -5.473,-17.126L-5.219,-15.563L-4.465,-15.218L-4.814,-15.024L-5.418,-14.377L-6.043,-14.075L-5.59,-13.703L-5.834,-13.407L-6.312,-13.665L-5.969,-13.1L-4.891,-12.28L-5.283,-11.92L-4.982,-11.089L-5.488,-11.035L-6.113,-11.784L-7.299,-12.711L-7.715,-13.746L-8.766,-14.221L-9.871,-14.933L-10.496,-15.481L-10.953,-15.294L-10.695,-14.496L-10.043,-14.156L-9.709,-13.536L-8.799,-13.153L-7.633,-12.674L-7.65,-12.42L-8.082,-12.642L-8.227,-12.184L-7.73,-11.779L-7.85,-10.776L-8.07,-10.89L-8.33,-11.79L-9.014,-12.215L-10.857,-13.224L-11.795,-14.248L-12.189,-13.688L-12.377,-13.057L-13.271,-13.095L-13.525,-12.841L-13.354,-12.242L-13.342,-12.215C-13.182,-11.779 -13.029,-11.337 -12.895,-10.879C-13.246,-10.761 -13.602,-10.642 -13.957,-10.512L-13.93,-9.913L-14.098,-9.041L-14.533,-8.313L-15.299,-8.205L-15.816,-7.79L-16.117,-8.522L-16.566,-8.394L-17.105,-8.522L-17.201,-9.277C-22.154,-7.278 -27.826,-4.41 -34.053,-0.318C-29.811,10.375 -23.854,22.132 -15.758,31.791C-8.34,29.01 -2.33,23.334 0.889,16.143L0.301,15.398L0,14.665Z" style="fill:rgb(0,90,170);fill-rule:nonzero;"/>
        </g>
        <g transform="matrix(1,0,0,1,343.627,612.442)">
            <path d="M0,1.229C0.443,0.814 0.885,0.404 1.322,0C0.885,0.394 0.443,0.809 0,1.229" style="fill:rgb(0,90,170);fill-rule:nonzero;"/>
        </g>
        <g transform="matrix(1,0,0,1,345.514,605.872)">
            <path d="M0,8.037L1.645,7.752L2.4,6.086L3.332,6.058L4.867,5.843L6.652,6.345L7.979,5.913L9.084,7.525L9.939,7.525C8.912,5.109 7.92,2.587 7.025,0C4.557,1.989 2.021,4.172 -0.564,6.57L-0.506,6.593L0,8.037Z" style="fill:rgb(0,90,170);fill-rule:nonzero;"/>
        </g>
    </g>
</svg>
