<?xml version="1.0" encoding="UTF-8" standalone="no"?>
<!DOCTYPE svg PUBLIC "-//W3C//DTD SVG 1.1//EN" "http://www.w3.org/Graphics/SVG/1.1/DTD/svg11.dtd">
<svg width="100%" height="100%" viewBox="0 0 336 144" version="1.1" xmlns="http://www.w3.org/2000/svg" xmlns:xlink="http://www.w3.org/1999/xlink" xml:space="preserve" xmlns:serif="http://www.serif.com/" style="fill-rule:evenodd;clip-rule:evenodd;stroke-linejoin:round;stroke-miterlimit:2;">
    <rect x="0" y="0" width="336" height="144" style="fill:rgb(0,90,170);"/>
    <g transform="matrix(4.22706,0,0,4.22706,-693.992,-217.394)">
        <g transform="matrix(12,0,0,12,166.701,71.5646)">
            <path d="M0.098,-0L0.098,-0.714L0.181,-0.714L0.181,-0.075L0.496,-0.075L0.496,-0L0.098,-0Z" style="fill:rgb(4,101,134);fill-rule:nonzero;"/>
        </g>
        <g transform="matrix(12,0,0,12,172.929,71.5646)">
            <path d="M0.548,-0.268C0.548,-0.181 0.526,-0.113 0.482,-0.064C0.438,-0.015 0.377,0.01 0.3,0.01C0.252,0.01 0.209,-0.001 0.172,-0.024C0.135,-0.046 0.107,-0.079 0.086,-0.121C0.066,-0.163 0.056,-0.212 0.056,-0.268C0.056,-0.355 0.078,-0.423 0.122,-0.472C0.165,-0.521 0.226,-0.545 0.303,-0.545C0.378,-0.545 0.438,-0.52 0.482,-0.47C0.526,-0.42 0.548,-0.353 0.548,-0.268ZM0.14,-0.268C0.14,-0.2 0.154,-0.148 0.181,-0.112C0.208,-0.076 0.249,-0.058 0.302,-0.058C0.355,-0.058 0.395,-0.076 0.423,-0.112C0.45,-0.147 0.464,-0.199 0.464,-0.268C0.464,-0.336 0.45,-0.388 0.423,-0.423C0.395,-0.458 0.354,-0.476 0.301,-0.476C0.248,-0.476 0.208,-0.459 0.181,-0.424C0.154,-0.389 0.14,-0.337 0.14,-0.268Z" style="fill:rgb(4,101,134);fill-rule:nonzero;"/>
        </g>
        <g transform="matrix(12,0,0,12,180.177,71.5646)">
            <path d="M0.33,-0.545C0.354,-0.545 0.375,-0.543 0.394,-0.539L0.383,-0.464C0.361,-0.469 0.341,-0.471 0.324,-0.471C0.281,-0.471 0.244,-0.454 0.213,-0.418C0.182,-0.383 0.167,-0.34 0.167,-0.287L0.167,-0L0.086,-0L0.086,-0.535L0.153,-0.535L0.162,-0.436L0.166,-0.436C0.186,-0.471 0.21,-0.498 0.238,-0.517C0.266,-0.535 0.297,-0.545 0.33,-0.545Z" style="fill:rgb(4,101,134);fill-rule:nonzero;"/>
        </g>
        <g transform="matrix(12,0,0,12,185.076,71.5646)">
            <path d="M0.312,0.01C0.233,0.01 0.17,-0.014 0.125,-0.063C0.079,-0.111 0.056,-0.178 0.056,-0.263C0.056,-0.349 0.077,-0.418 0.12,-0.469C0.162,-0.52 0.219,-0.545 0.291,-0.545C0.358,-0.545 0.411,-0.523 0.45,-0.479C0.489,-0.435 0.509,-0.376 0.509,-0.304L0.509,-0.253L0.14,-0.253C0.142,-0.19 0.158,-0.142 0.188,-0.11C0.218,-0.077 0.26,-0.061 0.315,-0.061C0.373,-0.061 0.43,-0.073 0.486,-0.097L0.486,-0.025C0.457,-0.013 0.43,-0.004 0.405,0.002C0.379,0.007 0.348,0.01 0.312,0.01ZM0.29,-0.477C0.247,-0.477 0.213,-0.463 0.187,-0.435C0.162,-0.407 0.147,-0.368 0.142,-0.319L0.422,-0.319C0.422,-0.37 0.41,-0.409 0.388,-0.436C0.365,-0.463 0.332,-0.477 0.29,-0.477Z" style="fill:rgb(4,101,134);fill-rule:nonzero;"/>
        </g>
        <g transform="matrix(12,0,0,12,191.808,71.5646)">
            <path d="M0.768,-0L0.768,-0.348C0.768,-0.391 0.759,-0.423 0.741,-0.444C0.722,-0.465 0.694,-0.476 0.656,-0.476C0.605,-0.476 0.568,-0.462 0.544,-0.433C0.52,-0.404 0.508,-0.359 0.508,-0.299L0.508,-0L0.427,-0L0.427,-0.348C0.427,-0.391 0.418,-0.423 0.399,-0.444C0.381,-0.465 0.353,-0.476 0.314,-0.476C0.263,-0.476 0.226,-0.461 0.202,-0.43C0.179,-0.4 0.167,-0.35 0.167,-0.281L0.167,-0L0.086,-0L0.086,-0.535L0.152,-0.535L0.165,-0.462L0.169,-0.462C0.184,-0.488 0.206,-0.508 0.234,-0.523C0.261,-0.538 0.293,-0.545 0.327,-0.545C0.411,-0.545 0.465,-0.515 0.491,-0.454L0.495,-0.454C0.511,-0.482 0.534,-0.504 0.564,-0.521C0.595,-0.537 0.629,-0.545 0.668,-0.545C0.729,-0.545 0.774,-0.529 0.804,-0.498C0.834,-0.467 0.849,-0.417 0.849,-0.349L0.849,-0L0.768,-0Z" style="fill:rgb(4,101,134);fill-rule:nonzero;"/>
        </g>
        <g transform="matrix(12,0,0,12,206.087,71.5646)">
            <rect x="0.098" y="-0.714" width="0.083" height="0.714" style="fill:rgb(4,101,134);fill-rule:nonzero;"/>
        </g>
        <g transform="matrix(12,0,0,12,209.433,71.5646)">
            <path d="M0.335,0.01C0.3,0.01 0.268,0.003 0.24,-0.01C0.211,-0.022 0.187,-0.042 0.167,-0.069L0.161,-0.069C0.165,-0.038 0.167,-0.008 0.167,0.02L0.167,0.24L0.086,0.24L0.086,-0.535L0.152,-0.535L0.163,-0.462L0.167,-0.462C0.188,-0.491 0.212,-0.512 0.24,-0.525C0.267,-0.538 0.299,-0.545 0.335,-0.545C0.406,-0.545 0.461,-0.521 0.499,-0.472C0.538,-0.424 0.557,-0.356 0.557,-0.268C0.557,-0.18 0.538,-0.112 0.498,-0.063C0.459,-0.015 0.405,0.01 0.335,0.01ZM0.323,-0.476C0.269,-0.476 0.229,-0.461 0.205,-0.431C0.18,-0.4 0.168,-0.352 0.167,-0.286L0.167,-0.268C0.167,-0.193 0.18,-0.139 0.205,-0.107C0.23,-0.074 0.27,-0.058 0.325,-0.058C0.371,-0.058 0.408,-0.077 0.434,-0.114C0.46,-0.152 0.473,-0.203 0.473,-0.269C0.473,-0.336 0.46,-0.387 0.434,-0.423C0.408,-0.458 0.371,-0.476 0.323,-0.476Z" style="fill:rgb(4,101,134);fill-rule:nonzero;"/>
        </g>
        <g transform="matrix(12,0,0,12,216.786,71.5646)">
            <path d="M0.431,-0.146C0.431,-0.096 0.413,-0.058 0.375,-0.031C0.338,-0.004 0.286,0.01 0.219,0.01C0.148,0.01 0.093,-0.001 0.053,-0.024L0.053,-0.099C0.079,-0.086 0.107,-0.076 0.136,-0.068C0.165,-0.061 0.194,-0.057 0.221,-0.057C0.264,-0.057 0.296,-0.064 0.319,-0.077C0.342,-0.091 0.353,-0.111 0.353,-0.139C0.353,-0.16 0.344,-0.178 0.326,-0.193C0.308,-0.207 0.273,-0.225 0.22,-0.245C0.17,-0.264 0.135,-0.28 0.114,-0.294C0.093,-0.308 0.077,-0.323 0.067,-0.341C0.057,-0.358 0.052,-0.379 0.052,-0.404C0.052,-0.447 0.069,-0.482 0.105,-0.507C0.14,-0.532 0.189,-0.545 0.251,-0.545C0.309,-0.545 0.365,-0.533 0.42,-0.51L0.391,-0.444C0.337,-0.466 0.289,-0.477 0.245,-0.477C0.207,-0.477 0.178,-0.471 0.158,-0.459C0.139,-0.447 0.129,-0.43 0.129,-0.409C0.129,-0.395 0.133,-0.383 0.14,-0.373C0.147,-0.362 0.159,-0.353 0.175,-0.344C0.192,-0.335 0.223,-0.321 0.269,-0.304C0.333,-0.281 0.375,-0.258 0.398,-0.234C0.42,-0.211 0.431,-0.181 0.431,-0.146Z" style="fill:rgb(4,101,134);fill-rule:nonzero;"/>
        </g>
        <g transform="matrix(12,0,0,12,222.511,71.5646)">
            <path d="M0.162,-0.535L0.162,-0.188C0.162,-0.144 0.172,-0.112 0.192,-0.09C0.212,-0.069 0.243,-0.058 0.285,-0.058C0.341,-0.058 0.382,-0.073 0.408,-0.104C0.434,-0.135 0.447,-0.185 0.447,-0.254L0.447,-0.535L0.528,-0.535L0.528,-0L0.461,-0L0.449,-0.072L0.445,-0.072C0.428,-0.045 0.405,-0.025 0.376,-0.011C0.346,0.003 0.313,0.01 0.275,0.01C0.21,0.01 0.161,-0.006 0.129,-0.037C0.096,-0.068 0.08,-0.117 0.08,-0.185L0.08,-0.535L0.162,-0.535Z" style="fill:rgb(4,101,134);fill-rule:nonzero;"/>
        </g>
        <g transform="matrix(12,0,0,12,229.876,71.5646)">
            <path d="M0.768,-0L0.768,-0.348C0.768,-0.391 0.759,-0.423 0.741,-0.444C0.722,-0.465 0.694,-0.476 0.656,-0.476C0.605,-0.476 0.568,-0.462 0.544,-0.433C0.52,-0.404 0.508,-0.359 0.508,-0.299L0.508,-0L0.427,-0L0.427,-0.348C0.427,-0.391 0.418,-0.423 0.399,-0.444C0.381,-0.465 0.353,-0.476 0.314,-0.476C0.263,-0.476 0.226,-0.461 0.202,-0.43C0.179,-0.4 0.167,-0.35 0.167,-0.281L0.167,-0L0.086,-0L0.086,-0.535L0.152,-0.535L0.165,-0.462L0.169,-0.462C0.184,-0.488 0.206,-0.508 0.234,-0.523C0.261,-0.538 0.293,-0.545 0.327,-0.545C0.411,-0.545 0.465,-0.515 0.491,-0.454L0.495,-0.454C0.511,-0.482 0.534,-0.504 0.564,-0.521C0.595,-0.537 0.629,-0.545 0.668,-0.545C0.729,-0.545 0.774,-0.529 0.804,-0.498C0.834,-0.467 0.849,-0.417 0.849,-0.349L0.849,-0L0.768,-0Z" style="fill:rgb(4,101,134);fill-rule:nonzero;"/>
        </g>
    </g>
</svg>
