<?xml version="1.0" encoding="UTF-8" standalone="no"?>
<!DOCTYPE svg PUBLIC "-//W3C//DTD SVG 1.1//EN" "http://www.w3.org/Graphics/SVG/1.1/DTD/svg11.dtd">
<svg width="100%" height="100%" viewBox="0 0 336 144" version="1.1" xmlns="http://www.w3.org/2000/svg" xmlns:xlink="http://www.w3.org/1999/xlink" xml:space="preserve" xmlns:serif="http://www.serif.com/" style="fill-rule:evenodd;clip-rule:evenodd;stroke-linejoin:round;stroke-miterlimit:2;">
    <g transform="matrix(51.7397,0,0,51.7397,5.3798,119.157)">
        <path d="M0.506,-0.089C0.506,-0.084 0.506,-0.08 0.505,-0.076C0.505,-0.072 0.504,-0.068 0.504,-0.065C0.503,-0.063 0.502,-0.06 0.5,-0.058C0.499,-0.055 0.497,-0.053 0.494,-0.049C0.49,-0.046 0.484,-0.041 0.473,-0.034C0.463,-0.028 0.45,-0.021 0.434,-0.015C0.419,-0.009 0.401,-0.003 0.381,0.001C0.361,0.006 0.339,0.008 0.315,0.008C0.274,0.008 0.237,0.001 0.204,-0.013C0.171,-0.026 0.143,-0.047 0.12,-0.073C0.097,-0.1 0.079,-0.133 0.066,-0.172C0.054,-0.211 0.047,-0.257 0.047,-0.308C0.047,-0.36 0.054,-0.407 0.068,-0.448C0.081,-0.489 0.1,-0.524 0.125,-0.552C0.149,-0.58 0.178,-0.602 0.212,-0.617C0.246,-0.632 0.284,-0.64 0.325,-0.64C0.343,-0.64 0.361,-0.638 0.378,-0.635C0.396,-0.631 0.412,-0.627 0.426,-0.622C0.441,-0.616 0.454,-0.61 0.465,-0.604C0.477,-0.597 0.485,-0.591 0.489,-0.587C0.493,-0.582 0.496,-0.579 0.498,-0.577C0.499,-0.574 0.5,-0.572 0.501,-0.569C0.502,-0.566 0.502,-0.562 0.503,-0.558C0.503,-0.553 0.503,-0.548 0.503,-0.542C0.503,-0.536 0.503,-0.53 0.502,-0.526C0.502,-0.521 0.501,-0.517 0.499,-0.514C0.498,-0.511 0.497,-0.509 0.495,-0.508C0.493,-0.506 0.491,-0.505 0.488,-0.505C0.484,-0.505 0.477,-0.509 0.469,-0.515C0.461,-0.521 0.45,-0.528 0.437,-0.536C0.424,-0.544 0.409,-0.551 0.39,-0.557C0.372,-0.563 0.35,-0.566 0.324,-0.566C0.296,-0.566 0.27,-0.561 0.247,-0.55C0.224,-0.538 0.204,-0.522 0.188,-0.5C0.171,-0.478 0.159,-0.452 0.15,-0.42C0.141,-0.389 0.136,-0.353 0.136,-0.313C0.136,-0.272 0.141,-0.237 0.149,-0.206C0.158,-0.176 0.17,-0.15 0.187,-0.129C0.203,-0.108 0.223,-0.093 0.246,-0.082C0.27,-0.072 0.296,-0.066 0.326,-0.066C0.351,-0.066 0.373,-0.069 0.392,-0.076C0.411,-0.082 0.427,-0.089 0.44,-0.096C0.454,-0.104 0.464,-0.111 0.473,-0.117C0.481,-0.123 0.488,-0.126 0.493,-0.126C0.495,-0.126 0.497,-0.126 0.499,-0.125C0.501,-0.124 0.502,-0.122 0.503,-0.119C0.504,-0.117 0.505,-0.113 0.505,-0.108C0.506,-0.103 0.506,-0.097 0.506,-0.089Z" style="fill:rgb(85,85,85);fill-rule:nonzero;"/>
    </g>
    <g transform="matrix(51.7397,0,0,51.7397,32.9676,119.157)">
        <path d="M0.406,-0.012C0.406,-0.008 0.404,-0.005 0.402,-0.003C0.399,-0.001 0.396,0 0.391,0.001C0.387,0.002 0.38,0.003 0.371,0.003C0.363,0.003 0.356,0.002 0.351,0.001C0.346,0 0.342,-0.001 0.34,-0.003C0.338,-0.005 0.336,-0.008 0.336,-0.012L0.336,-0.056C0.317,-0.035 0.296,-0.019 0.272,-0.008C0.249,0.004 0.224,0.009 0.197,0.009C0.174,0.009 0.153,0.006 0.135,0C0.116,-0.006 0.1,-0.014 0.087,-0.026C0.073,-0.037 0.063,-0.051 0.056,-0.068C0.049,-0.084 0.045,-0.103 0.045,-0.125C0.045,-0.149 0.05,-0.171 0.06,-0.189C0.07,-0.207 0.085,-0.222 0.104,-0.234C0.122,-0.246 0.146,-0.255 0.173,-0.261C0.2,-0.267 0.231,-0.271 0.265,-0.271L0.326,-0.271L0.326,-0.305C0.326,-0.322 0.324,-0.337 0.32,-0.35C0.317,-0.363 0.311,-0.373 0.303,-0.382C0.295,-0.391 0.285,-0.397 0.272,-0.402C0.259,-0.406 0.244,-0.408 0.225,-0.408C0.205,-0.408 0.187,-0.406 0.172,-0.401C0.156,-0.396 0.142,-0.391 0.13,-0.385C0.118,-0.38 0.108,-0.375 0.1,-0.37C0.092,-0.365 0.086,-0.363 0.083,-0.363C0.08,-0.363 0.078,-0.363 0.076,-0.365C0.074,-0.366 0.072,-0.368 0.071,-0.371C0.069,-0.373 0.068,-0.377 0.067,-0.381C0.067,-0.385 0.066,-0.389 0.066,-0.394C0.066,-0.402 0.067,-0.409 0.068,-0.413C0.069,-0.418 0.072,-0.423 0.076,-0.427C0.081,-0.431 0.088,-0.436 0.099,-0.442C0.11,-0.447 0.122,-0.453 0.136,-0.457C0.15,-0.462 0.166,-0.466 0.182,-0.469C0.199,-0.472 0.215,-0.474 0.232,-0.474C0.264,-0.474 0.291,-0.47 0.313,-0.463C0.335,-0.456 0.353,-0.445 0.367,-0.431C0.38,-0.418 0.39,-0.4 0.396,-0.38C0.403,-0.359 0.406,-0.335 0.406,-0.308L0.406,-0.012ZM0.326,-0.212L0.257,-0.212C0.235,-0.212 0.215,-0.211 0.199,-0.207C0.183,-0.203 0.169,-0.198 0.159,-0.19C0.148,-0.183 0.14,-0.174 0.135,-0.164C0.13,-0.154 0.127,-0.142 0.127,-0.128C0.127,-0.106 0.135,-0.087 0.149,-0.074C0.164,-0.06 0.184,-0.054 0.21,-0.054C0.231,-0.054 0.251,-0.059 0.269,-0.07C0.287,-0.081 0.306,-0.097 0.326,-0.119L0.326,-0.212Z" style="fill:rgb(85,85,85);fill-rule:nonzero;"/>
    </g>
    <g transform="matrix(51.7397,0,0,51.7397,57.7511,119.157)">
        <path d="M0.155,-0.012C0.155,-0.01 0.155,-0.007 0.153,-0.006C0.152,-0.004 0.15,-0.002 0.147,-0.001C0.144,0 0.14,0.001 0.135,0.002C0.13,0.003 0.123,0.003 0.115,0.003C0.107,0.003 0.1,0.003 0.095,0.002C0.09,0.001 0.086,0 0.083,-0.001C0.08,-0.002 0.078,-0.004 0.076,-0.006C0.075,-0.007 0.075,-0.01 0.075,-0.012L0.075,-0.665C0.075,-0.667 0.075,-0.669 0.076,-0.671C0.078,-0.673 0.08,-0.675 0.083,-0.676C0.086,-0.678 0.09,-0.679 0.095,-0.679C0.1,-0.68 0.107,-0.68 0.115,-0.68C0.123,-0.68 0.13,-0.68 0.135,-0.679C0.14,-0.679 0.144,-0.678 0.147,-0.676C0.15,-0.675 0.152,-0.673 0.153,-0.671C0.155,-0.669 0.155,-0.667 0.155,-0.665L0.155,-0.012Z" style="fill:rgb(85,85,85);fill-rule:nonzero;"/>
    </g>
    <g transform="matrix(51.7397,0,0,51.7397,69.625,119.157)">
        <path d="M0.155,-0.012C0.155,-0.01 0.155,-0.007 0.153,-0.006C0.152,-0.004 0.15,-0.002 0.147,-0.001C0.144,0 0.14,0.001 0.135,0.002C0.13,0.003 0.123,0.003 0.115,0.003C0.107,0.003 0.1,0.003 0.095,0.002C0.09,0.001 0.086,0 0.083,-0.001C0.08,-0.002 0.078,-0.004 0.076,-0.006C0.075,-0.007 0.075,-0.01 0.075,-0.012L0.075,-0.452C0.075,-0.454 0.075,-0.456 0.076,-0.458C0.078,-0.46 0.08,-0.462 0.083,-0.463C0.086,-0.464 0.09,-0.465 0.095,-0.466C0.1,-0.466 0.107,-0.467 0.115,-0.467C0.123,-0.467 0.13,-0.466 0.135,-0.466C0.14,-0.465 0.144,-0.464 0.147,-0.463C0.15,-0.462 0.152,-0.46 0.153,-0.458C0.155,-0.456 0.155,-0.454 0.155,-0.452L0.155,-0.012ZM0.165,-0.6C0.165,-0.581 0.161,-0.568 0.154,-0.562C0.147,-0.555 0.133,-0.551 0.114,-0.551C0.095,-0.551 0.082,-0.555 0.075,-0.561C0.068,-0.568 0.065,-0.581 0.065,-0.599C0.065,-0.618 0.069,-0.631 0.076,-0.638C0.083,-0.645 0.096,-0.648 0.115,-0.648C0.134,-0.648 0.147,-0.645 0.154,-0.638C0.161,-0.631 0.165,-0.619 0.165,-0.6Z" style="fill:rgb(85,85,85);fill-rule:nonzero;"/>
    </g>
    <g transform="matrix(51.7397,0,0,51.7397,81.4988,119.157)">
        <path d="M0.479,-0.238C0.479,-0.2 0.475,-0.165 0.467,-0.135C0.458,-0.105 0.446,-0.079 0.43,-0.057C0.414,-0.036 0.394,-0.019 0.371,-0.008C0.347,0.004 0.32,0.009 0.29,0.009C0.276,0.009 0.263,0.008 0.251,0.005C0.239,0.002 0.228,-0.002 0.216,-0.008C0.205,-0.014 0.194,-0.022 0.182,-0.032C0.171,-0.041 0.159,-0.053 0.146,-0.066L0.146,-0.012C0.146,-0.01 0.145,-0.007 0.144,-0.005C0.143,-0.003 0.141,-0.002 0.138,-0.001C0.135,0 0.131,0.001 0.127,0.002C0.122,0.003 0.117,0.003 0.11,0.003C0.103,0.003 0.098,0.003 0.093,0.002C0.089,0.001 0.085,0 0.082,-0.001C0.079,-0.002 0.077,-0.003 0.076,-0.005C0.075,-0.007 0.075,-0.01 0.075,-0.012L0.075,-0.665C0.075,-0.667 0.075,-0.669 0.076,-0.671C0.078,-0.673 0.08,-0.675 0.083,-0.676C0.086,-0.678 0.09,-0.679 0.095,-0.679C0.1,-0.68 0.107,-0.68 0.115,-0.68C0.123,-0.68 0.13,-0.68 0.135,-0.679C0.14,-0.679 0.144,-0.678 0.147,-0.676C0.15,-0.675 0.152,-0.673 0.153,-0.671C0.155,-0.669 0.155,-0.667 0.155,-0.665L0.155,-0.401C0.168,-0.415 0.181,-0.426 0.193,-0.435C0.205,-0.444 0.217,-0.452 0.229,-0.457C0.241,-0.463 0.252,-0.467 0.264,-0.47C0.276,-0.472 0.288,-0.474 0.301,-0.474C0.333,-0.474 0.36,-0.467 0.383,-0.455C0.406,-0.442 0.424,-0.425 0.438,-0.404C0.452,-0.382 0.463,-0.357 0.469,-0.329C0.476,-0.3 0.479,-0.27 0.479,-0.238ZM0.396,-0.229C0.396,-0.251 0.394,-0.273 0.39,-0.294C0.387,-0.315 0.381,-0.334 0.372,-0.35C0.364,-0.366 0.353,-0.379 0.339,-0.389C0.324,-0.399 0.307,-0.404 0.286,-0.404C0.275,-0.404 0.265,-0.403 0.255,-0.4C0.245,-0.397 0.235,-0.392 0.224,-0.385C0.214,-0.378 0.203,-0.37 0.191,-0.359C0.18,-0.348 0.168,-0.335 0.155,-0.318L0.155,-0.143C0.178,-0.116 0.199,-0.095 0.219,-0.081C0.239,-0.067 0.261,-0.06 0.283,-0.06C0.303,-0.06 0.32,-0.065 0.335,-0.075C0.349,-0.084 0.361,-0.097 0.37,-0.114C0.379,-0.13 0.385,-0.148 0.389,-0.168C0.393,-0.188 0.396,-0.208 0.396,-0.229Z" style="fill:rgb(85,85,85);fill-rule:nonzero;"/>
    </g>
    <g transform="matrix(51.7397,0,0,51.7397,108.682,119.157)">
        <path d="M0.332,-0.423C0.332,-0.416 0.331,-0.41 0.331,-0.405C0.331,-0.4 0.33,-0.396 0.329,-0.393C0.328,-0.391 0.327,-0.388 0.325,-0.387C0.324,-0.385 0.322,-0.385 0.319,-0.385C0.317,-0.385 0.314,-0.385 0.31,-0.387C0.306,-0.388 0.302,-0.39 0.297,-0.391C0.292,-0.393 0.287,-0.394 0.281,-0.396C0.275,-0.397 0.269,-0.397 0.262,-0.397C0.254,-0.397 0.246,-0.396 0.238,-0.393C0.23,-0.389 0.222,-0.384 0.214,-0.376C0.205,-0.369 0.196,-0.359 0.187,-0.347C0.177,-0.334 0.167,-0.319 0.155,-0.301L0.155,-0.012C0.155,-0.01 0.155,-0.007 0.153,-0.006C0.152,-0.004 0.15,-0.002 0.147,-0.001C0.144,0 0.14,0.001 0.135,0.002C0.13,0.003 0.123,0.003 0.115,0.003C0.107,0.003 0.1,0.003 0.095,0.002C0.09,0.001 0.086,0 0.083,-0.001C0.08,-0.002 0.078,-0.004 0.076,-0.006C0.075,-0.007 0.075,-0.01 0.075,-0.012L0.075,-0.452C0.075,-0.454 0.075,-0.456 0.076,-0.458C0.077,-0.46 0.079,-0.462 0.082,-0.463C0.085,-0.465 0.089,-0.466 0.093,-0.466C0.098,-0.467 0.104,-0.467 0.111,-0.467C0.118,-0.467 0.124,-0.467 0.129,-0.466C0.134,-0.466 0.138,-0.465 0.14,-0.463C0.143,-0.462 0.145,-0.46 0.146,-0.458C0.147,-0.456 0.147,-0.454 0.147,-0.452L0.147,-0.388C0.16,-0.405 0.171,-0.42 0.181,-0.431C0.192,-0.442 0.202,-0.45 0.211,-0.457C0.221,-0.463 0.23,-0.468 0.24,-0.47C0.249,-0.472 0.258,-0.474 0.268,-0.474C0.272,-0.474 0.277,-0.473 0.282,-0.473C0.287,-0.472 0.293,-0.472 0.299,-0.47C0.305,-0.469 0.31,-0.467 0.315,-0.466C0.319,-0.464 0.323,-0.463 0.325,-0.461C0.327,-0.459 0.328,-0.458 0.329,-0.456C0.329,-0.455 0.33,-0.453 0.33,-0.451C0.331,-0.448 0.331,-0.445 0.331,-0.441C0.331,-0.436 0.332,-0.43 0.332,-0.423Z" style="fill:rgb(85,85,85);fill-rule:nonzero;"/>
    </g>
    <g transform="matrix(51.7397,0,0,51.7397,126.721,119.157)">
        <path d="M0.155,-0.012C0.155,-0.01 0.155,-0.007 0.153,-0.006C0.152,-0.004 0.15,-0.002 0.147,-0.001C0.144,0 0.14,0.001 0.135,0.002C0.13,0.003 0.123,0.003 0.115,0.003C0.107,0.003 0.1,0.003 0.095,0.002C0.09,0.001 0.086,0 0.083,-0.001C0.08,-0.002 0.078,-0.004 0.076,-0.006C0.075,-0.007 0.075,-0.01 0.075,-0.012L0.075,-0.452C0.075,-0.454 0.075,-0.456 0.076,-0.458C0.078,-0.46 0.08,-0.462 0.083,-0.463C0.086,-0.464 0.09,-0.465 0.095,-0.466C0.1,-0.466 0.107,-0.467 0.115,-0.467C0.123,-0.467 0.13,-0.466 0.135,-0.466C0.14,-0.465 0.144,-0.464 0.147,-0.463C0.15,-0.462 0.152,-0.46 0.153,-0.458C0.155,-0.456 0.155,-0.454 0.155,-0.452L0.155,-0.012ZM0.165,-0.6C0.165,-0.581 0.161,-0.568 0.154,-0.562C0.147,-0.555 0.133,-0.551 0.114,-0.551C0.095,-0.551 0.082,-0.555 0.075,-0.561C0.068,-0.568 0.065,-0.581 0.065,-0.599C0.065,-0.618 0.069,-0.631 0.076,-0.638C0.083,-0.645 0.096,-0.648 0.115,-0.648C0.134,-0.648 0.147,-0.645 0.154,-0.638C0.161,-0.631 0.165,-0.619 0.165,-0.6Z" style="fill:rgb(85,85,85);fill-rule:nonzero;"/>
    </g>
    <g transform="matrix(69.3949,0,0,69.3949,4.20475,71.5974)">
        <path d="M0.506,-0.086C0.506,-0.082 0.506,-0.079 0.505,-0.076C0.505,-0.073 0.505,-0.071 0.504,-0.068C0.503,-0.066 0.502,-0.064 0.501,-0.062C0.5,-0.06 0.498,-0.058 0.495,-0.054C0.492,-0.051 0.485,-0.046 0.475,-0.039C0.464,-0.032 0.451,-0.025 0.435,-0.019C0.42,-0.012 0.401,-0.006 0.381,-0.001C0.36,0.004 0.338,0.006 0.313,0.006C0.273,0.006 0.237,-0.001 0.205,-0.014C0.173,-0.028 0.145,-0.049 0.123,-0.075C0.1,-0.102 0.083,-0.135 0.071,-0.174C0.058,-0.213 0.052,-0.257 0.052,-0.308C0.052,-0.359 0.059,-0.405 0.072,-0.446C0.085,-0.487 0.103,-0.522 0.127,-0.55C0.15,-0.579 0.179,-0.6 0.212,-0.615C0.245,-0.631 0.281,-0.638 0.321,-0.638C0.34,-0.638 0.358,-0.636 0.376,-0.633C0.394,-0.629 0.41,-0.625 0.425,-0.619C0.44,-0.614 0.454,-0.607 0.466,-0.6C0.477,-0.593 0.486,-0.587 0.49,-0.583C0.494,-0.578 0.497,-0.575 0.498,-0.573C0.499,-0.571 0.5,-0.569 0.501,-0.567C0.502,-0.564 0.502,-0.561 0.502,-0.558C0.503,-0.555 0.503,-0.552 0.503,-0.548C0.503,-0.543 0.503,-0.539 0.502,-0.536C0.502,-0.532 0.501,-0.53 0.5,-0.527C0.499,-0.525 0.497,-0.523 0.496,-0.521C0.494,-0.52 0.492,-0.52 0.49,-0.52C0.485,-0.52 0.479,-0.523 0.47,-0.53C0.462,-0.536 0.451,-0.544 0.438,-0.552C0.424,-0.56 0.408,-0.567 0.388,-0.574C0.369,-0.581 0.345,-0.584 0.318,-0.584C0.289,-0.584 0.262,-0.578 0.237,-0.566C0.212,-0.554 0.191,-0.537 0.173,-0.514C0.155,-0.491 0.142,-0.462 0.132,-0.428C0.122,-0.394 0.117,-0.355 0.117,-0.312C0.117,-0.27 0.121,-0.232 0.13,-0.2C0.139,-0.167 0.153,-0.14 0.17,-0.117C0.187,-0.095 0.208,-0.078 0.234,-0.066C0.259,-0.055 0.288,-0.049 0.32,-0.049C0.347,-0.049 0.37,-0.052 0.389,-0.059C0.409,-0.066 0.426,-0.073 0.44,-0.081C0.454,-0.089 0.465,-0.097 0.474,-0.103C0.483,-0.11 0.49,-0.113 0.495,-0.113C0.497,-0.113 0.499,-0.113 0.5,-0.112C0.501,-0.111 0.502,-0.11 0.503,-0.108C0.504,-0.106 0.505,-0.103 0.505,-0.099C0.506,-0.096 0.506,-0.091 0.506,-0.086Z" style="fill:rgb(0,90,170);fill-rule:nonzero;"/>
    </g>
    <g transform="matrix(69.3949,0,0,69.3949,41.3419,71.5974)">
        <path d="M0.391,-0.01C0.391,-0.007 0.39,-0.004 0.388,-0.002C0.386,-0 0.383,0.001 0.38,0.002C0.376,0.003 0.372,0.003 0.366,0.003C0.36,0.003 0.355,0.003 0.352,0.002C0.348,0.001 0.345,-0 0.343,-0.002C0.34,-0.004 0.339,-0.007 0.339,-0.01L0.339,-0.059C0.319,-0.038 0.298,-0.021 0.274,-0.009C0.25,0.002 0.225,0.008 0.199,0.008C0.176,0.008 0.155,0.005 0.137,-0.001C0.119,-0.007 0.103,-0.015 0.09,-0.027C0.078,-0.038 0.068,-0.051 0.061,-0.067C0.054,-0.083 0.051,-0.101 0.051,-0.121C0.051,-0.146 0.056,-0.167 0.066,-0.185C0.076,-0.203 0.09,-0.218 0.109,-0.23C0.127,-0.242 0.15,-0.251 0.176,-0.257C0.202,-0.263 0.231,-0.266 0.263,-0.266L0.333,-0.266L0.333,-0.304C0.333,-0.323 0.331,-0.34 0.327,-0.354C0.323,-0.369 0.317,-0.381 0.308,-0.391C0.299,-0.4 0.288,-0.408 0.274,-0.413C0.26,-0.417 0.243,-0.42 0.223,-0.42C0.203,-0.42 0.186,-0.418 0.17,-0.413C0.154,-0.408 0.141,-0.403 0.129,-0.397C0.117,-0.391 0.108,-0.386 0.1,-0.381C0.092,-0.376 0.087,-0.374 0.083,-0.374C0.082,-0.374 0.08,-0.374 0.078,-0.375C0.076,-0.376 0.075,-0.377 0.074,-0.379C0.073,-0.38 0.072,-0.383 0.072,-0.385C0.071,-0.388 0.071,-0.392 0.071,-0.396C0.071,-0.402 0.071,-0.408 0.072,-0.412C0.073,-0.416 0.076,-0.42 0.08,-0.424C0.084,-0.428 0.091,-0.433 0.102,-0.438C0.112,-0.444 0.124,-0.449 0.137,-0.454C0.151,-0.459 0.166,-0.462 0.181,-0.465C0.197,-0.468 0.212,-0.47 0.228,-0.47C0.258,-0.47 0.284,-0.466 0.305,-0.459C0.326,-0.451 0.342,-0.441 0.355,-0.427C0.368,-0.414 0.377,-0.397 0.383,-0.377C0.388,-0.357 0.391,-0.334 0.391,-0.309L0.391,-0.01ZM0.333,-0.218L0.252,-0.218C0.229,-0.218 0.208,-0.216 0.191,-0.212C0.173,-0.208 0.159,-0.201 0.147,-0.193C0.135,-0.185 0.127,-0.175 0.121,-0.164C0.115,-0.153 0.112,-0.14 0.112,-0.125C0.112,-0.1 0.12,-0.079 0.136,-0.064C0.153,-0.049 0.175,-0.042 0.205,-0.042C0.228,-0.042 0.249,-0.047 0.269,-0.059C0.289,-0.071 0.311,-0.09 0.333,-0.114L0.333,-0.218Z" style="fill:rgb(0,90,170);fill-rule:nonzero;"/>
    </g>
    <g transform="matrix(69.3949,0,0,69.3949,74.0063,71.5974)">
        <path d="M0.14,-0.01C0.14,-0.008 0.139,-0.006 0.138,-0.004C0.137,-0.003 0.136,-0.001 0.134,-0C0.131,0 0.128,0.001 0.125,0.002C0.121,0.003 0.116,0.003 0.11,0.003C0.105,0.003 0.1,0.003 0.096,0.002C0.093,0.001 0.09,0 0.087,-0C0.085,-0.001 0.084,-0.003 0.083,-0.004C0.082,-0.006 0.082,-0.008 0.082,-0.01L0.082,-0.668C0.082,-0.67 0.082,-0.672 0.083,-0.673C0.084,-0.675 0.085,-0.676 0.087,-0.677C0.09,-0.679 0.093,-0.679 0.096,-0.68C0.1,-0.68 0.105,-0.681 0.11,-0.681C0.116,-0.681 0.121,-0.68 0.125,-0.68C0.128,-0.679 0.131,-0.679 0.134,-0.677C0.136,-0.676 0.137,-0.675 0.138,-0.673C0.139,-0.672 0.14,-0.67 0.14,-0.668L0.14,-0.01Z" style="fill:rgb(0,90,170);fill-rule:nonzero;"/>
    </g>
    <g transform="matrix(69.3949,0,0,69.3949,89.322,71.5974)">
        <path d="M0.14,-0.01C0.14,-0.008 0.139,-0.006 0.138,-0.004C0.137,-0.003 0.136,-0.001 0.134,-0C0.131,0 0.128,0.001 0.125,0.002C0.121,0.003 0.116,0.003 0.11,0.003C0.105,0.003 0.1,0.003 0.096,0.002C0.093,0.001 0.09,0 0.087,-0C0.085,-0.001 0.084,-0.003 0.083,-0.004C0.082,-0.006 0.082,-0.008 0.082,-0.01L0.082,-0.452C0.082,-0.454 0.082,-0.455 0.083,-0.457C0.084,-0.459 0.085,-0.46 0.087,-0.461C0.09,-0.462 0.093,-0.463 0.096,-0.464C0.1,-0.464 0.105,-0.464 0.11,-0.464C0.116,-0.464 0.121,-0.464 0.125,-0.464C0.128,-0.463 0.131,-0.462 0.134,-0.461C0.136,-0.46 0.137,-0.459 0.138,-0.457C0.139,-0.455 0.14,-0.454 0.14,-0.452L0.14,-0.01ZM0.148,-0.601C0.148,-0.585 0.146,-0.574 0.14,-0.569C0.135,-0.563 0.125,-0.561 0.11,-0.561C0.096,-0.561 0.086,-0.563 0.08,-0.569C0.075,-0.574 0.072,-0.584 0.072,-0.6C0.072,-0.616 0.075,-0.626 0.081,-0.632C0.086,-0.637 0.096,-0.64 0.111,-0.64C0.125,-0.64 0.135,-0.637 0.14,-0.632C0.146,-0.627 0.148,-0.616 0.148,-0.601Z" style="fill:rgb(0,90,170);fill-rule:nonzero;"/>
    </g>
    <g transform="matrix(69.3949,0,0,69.3949,104.638,71.5974)">
        <path d="M0.467,-0.236C0.467,-0.199 0.463,-0.165 0.455,-0.135C0.447,-0.104 0.435,-0.079 0.419,-0.058C0.403,-0.036 0.383,-0.02 0.359,-0.009C0.336,0.003 0.308,0.008 0.278,0.008C0.264,0.008 0.252,0.007 0.24,0.004C0.228,0.001 0.217,-0.003 0.206,-0.009C0.195,-0.015 0.184,-0.023 0.172,-0.033C0.161,-0.042 0.148,-0.054 0.135,-0.067L0.135,-0.01C0.135,-0.007 0.134,-0.006 0.133,-0.004C0.132,-0.002 0.131,-0.001 0.128,-0C0.126,0.001 0.123,0.002 0.12,0.002C0.117,0.003 0.113,0.003 0.108,0.003C0.103,0.003 0.099,0.003 0.095,0.002C0.092,0.002 0.089,0.001 0.087,-0C0.085,-0.001 0.084,-0.002 0.083,-0.004C0.082,-0.006 0.082,-0.007 0.082,-0.01L0.082,-0.668C0.082,-0.67 0.082,-0.672 0.083,-0.673C0.084,-0.675 0.085,-0.676 0.087,-0.677C0.09,-0.679 0.093,-0.679 0.096,-0.68C0.1,-0.68 0.105,-0.681 0.11,-0.681C0.116,-0.681 0.121,-0.68 0.125,-0.68C0.128,-0.679 0.131,-0.679 0.134,-0.677C0.136,-0.676 0.137,-0.675 0.138,-0.673C0.139,-0.672 0.14,-0.67 0.14,-0.668L0.14,-0.392C0.154,-0.407 0.167,-0.419 0.18,-0.429C0.192,-0.439 0.205,-0.447 0.217,-0.453C0.229,-0.459 0.241,-0.463 0.253,-0.466C0.265,-0.468 0.277,-0.47 0.29,-0.47C0.321,-0.47 0.349,-0.464 0.371,-0.451C0.394,-0.439 0.412,-0.422 0.427,-0.401C0.441,-0.38 0.451,-0.355 0.458,-0.327C0.464,-0.298 0.467,-0.268 0.467,-0.236ZM0.406,-0.227C0.406,-0.252 0.404,-0.276 0.4,-0.299C0.396,-0.322 0.39,-0.342 0.38,-0.36C0.371,-0.378 0.358,-0.393 0.343,-0.404C0.327,-0.414 0.308,-0.42 0.284,-0.42C0.273,-0.42 0.261,-0.418 0.25,-0.415C0.239,-0.412 0.228,-0.406 0.216,-0.399C0.204,-0.391 0.192,-0.382 0.179,-0.37C0.167,-0.358 0.154,-0.343 0.14,-0.326L0.14,-0.133C0.164,-0.104 0.188,-0.081 0.21,-0.065C0.233,-0.049 0.256,-0.042 0.281,-0.042C0.303,-0.042 0.322,-0.047 0.338,-0.058C0.354,-0.069 0.367,-0.083 0.377,-0.101C0.388,-0.118 0.395,-0.138 0.399,-0.16C0.404,-0.182 0.406,-0.205 0.406,-0.227Z" style="fill:rgb(0,90,170);fill-rule:nonzero;"/>
    </g>
    <g transform="matrix(69.3949,0,0,69.3949,140.69,71.5974)">
        <path d="M0.327,-0.429C0.327,-0.424 0.326,-0.42 0.326,-0.417C0.326,-0.413 0.325,-0.411 0.324,-0.408C0.324,-0.406 0.323,-0.405 0.322,-0.404C0.32,-0.402 0.319,-0.402 0.317,-0.402C0.314,-0.402 0.311,-0.403 0.307,-0.404C0.303,-0.406 0.298,-0.407 0.293,-0.409C0.288,-0.41 0.282,-0.412 0.276,-0.413C0.27,-0.415 0.263,-0.416 0.255,-0.416C0.247,-0.416 0.238,-0.414 0.229,-0.41C0.221,-0.406 0.212,-0.4 0.203,-0.392C0.194,-0.384 0.184,-0.373 0.174,-0.359C0.163,-0.345 0.152,-0.328 0.14,-0.309L0.14,-0.01C0.14,-0.008 0.139,-0.006 0.138,-0.004C0.137,-0.003 0.136,-0.001 0.134,-0C0.131,0 0.128,0.001 0.125,0.002C0.121,0.003 0.116,0.003 0.11,0.003C0.105,0.003 0.1,0.003 0.096,0.002C0.093,0.001 0.09,0 0.087,-0C0.085,-0.001 0.084,-0.003 0.083,-0.004C0.082,-0.006 0.082,-0.008 0.082,-0.01L0.082,-0.452C0.082,-0.454 0.082,-0.455 0.083,-0.457C0.084,-0.459 0.085,-0.46 0.087,-0.461C0.09,-0.462 0.093,-0.463 0.096,-0.464C0.099,-0.464 0.104,-0.464 0.109,-0.464C0.115,-0.464 0.119,-0.464 0.123,-0.464C0.127,-0.463 0.129,-0.462 0.131,-0.461C0.133,-0.46 0.135,-0.459 0.135,-0.457C0.136,-0.455 0.137,-0.454 0.137,-0.452L0.137,-0.382C0.149,-0.4 0.161,-0.415 0.172,-0.427C0.183,-0.438 0.193,-0.447 0.203,-0.453C0.212,-0.46 0.222,-0.464 0.231,-0.466C0.24,-0.469 0.25,-0.47 0.26,-0.47C0.264,-0.47 0.269,-0.469 0.274,-0.469C0.28,-0.469 0.286,-0.468 0.292,-0.466C0.299,-0.465 0.304,-0.463 0.309,-0.462C0.314,-0.46 0.318,-0.458 0.32,-0.457C0.322,-0.455 0.323,-0.454 0.324,-0.453C0.324,-0.452 0.325,-0.45 0.325,-0.448C0.326,-0.447 0.326,-0.444 0.326,-0.441C0.327,-0.438 0.327,-0.434 0.327,-0.429Z" style="fill:rgb(0,90,170);fill-rule:nonzero;"/>
    </g>
    <g transform="matrix(69.3949,0,0,69.3949,164.613,71.5974)">
        <path d="M0.14,-0.01C0.14,-0.008 0.139,-0.006 0.138,-0.004C0.137,-0.003 0.136,-0.001 0.134,-0C0.131,0 0.128,0.001 0.125,0.002C0.121,0.003 0.116,0.003 0.11,0.003C0.105,0.003 0.1,0.003 0.096,0.002C0.093,0.001 0.09,0 0.087,-0C0.085,-0.001 0.084,-0.003 0.083,-0.004C0.082,-0.006 0.082,-0.008 0.082,-0.01L0.082,-0.452C0.082,-0.454 0.082,-0.455 0.083,-0.457C0.084,-0.459 0.085,-0.46 0.087,-0.461C0.09,-0.462 0.093,-0.463 0.096,-0.464C0.1,-0.464 0.105,-0.464 0.11,-0.464C0.116,-0.464 0.121,-0.464 0.125,-0.464C0.128,-0.463 0.131,-0.462 0.134,-0.461C0.136,-0.46 0.137,-0.459 0.138,-0.457C0.139,-0.455 0.14,-0.454 0.14,-0.452L0.14,-0.01ZM0.148,-0.601C0.148,-0.585 0.146,-0.574 0.14,-0.569C0.135,-0.563 0.125,-0.561 0.11,-0.561C0.096,-0.561 0.086,-0.563 0.08,-0.569C0.075,-0.574 0.072,-0.584 0.072,-0.6C0.072,-0.616 0.075,-0.626 0.081,-0.632C0.086,-0.637 0.096,-0.64 0.111,-0.64C0.125,-0.64 0.135,-0.637 0.14,-0.632C0.146,-0.627 0.148,-0.616 0.148,-0.601Z" style="fill:rgb(0,90,170);fill-rule:nonzero;"/>
    </g>
    <g transform="matrix(69.3949,0,0,69.3949,195.617,71.5974)">
        <path d="M0.409,-0.027C0.409,-0.023 0.409,-0.019 0.408,-0.016C0.408,-0.012 0.407,-0.01 0.405,-0.007C0.404,-0.005 0.402,-0.003 0.4,-0.002C0.398,-0.001 0.396,-0 0.394,-0L0.12,-0C0.114,-0 0.108,-0.002 0.102,-0.007C0.095,-0.011 0.092,-0.019 0.092,-0.031L0.092,-0.622C0.092,-0.624 0.093,-0.626 0.094,-0.627C0.095,-0.629 0.096,-0.63 0.099,-0.631C0.101,-0.632 0.104,-0.633 0.108,-0.634C0.112,-0.634 0.117,-0.635 0.122,-0.635C0.128,-0.635 0.133,-0.634 0.136,-0.634C0.14,-0.633 0.143,-0.632 0.146,-0.631C0.148,-0.63 0.149,-0.629 0.15,-0.627C0.151,-0.626 0.152,-0.624 0.152,-0.622L0.152,-0.054L0.394,-0.054C0.396,-0.054 0.398,-0.054 0.4,-0.052C0.402,-0.051 0.404,-0.05 0.405,-0.048C0.407,-0.045 0.408,-0.043 0.408,-0.039C0.409,-0.036 0.409,-0.032 0.409,-0.027Z" style="fill:rgb(0,90,170);fill-rule:nonzero;"/>
    </g>
    <g transform="matrix(69.3949,0,0,69.3949,224.689,71.5974)">
        <path d="M0.14,-0.01C0.14,-0.008 0.139,-0.006 0.138,-0.004C0.137,-0.003 0.136,-0.001 0.134,-0C0.131,0 0.128,0.001 0.125,0.002C0.121,0.003 0.116,0.003 0.11,0.003C0.105,0.003 0.1,0.003 0.096,0.002C0.093,0.001 0.09,0 0.087,-0C0.085,-0.001 0.084,-0.003 0.083,-0.004C0.082,-0.006 0.082,-0.008 0.082,-0.01L0.082,-0.452C0.082,-0.454 0.082,-0.455 0.083,-0.457C0.084,-0.459 0.085,-0.46 0.087,-0.461C0.09,-0.462 0.093,-0.463 0.096,-0.464C0.1,-0.464 0.105,-0.464 0.11,-0.464C0.116,-0.464 0.121,-0.464 0.125,-0.464C0.128,-0.463 0.131,-0.462 0.134,-0.461C0.136,-0.46 0.137,-0.459 0.138,-0.457C0.139,-0.455 0.14,-0.454 0.14,-0.452L0.14,-0.01ZM0.148,-0.601C0.148,-0.585 0.146,-0.574 0.14,-0.569C0.135,-0.563 0.125,-0.561 0.11,-0.561C0.096,-0.561 0.086,-0.563 0.08,-0.569C0.075,-0.574 0.072,-0.584 0.072,-0.6C0.072,-0.616 0.075,-0.626 0.081,-0.632C0.086,-0.637 0.096,-0.64 0.111,-0.64C0.125,-0.64 0.135,-0.637 0.14,-0.632C0.146,-0.627 0.148,-0.616 0.148,-0.601Z" style="fill:rgb(0,90,170);fill-rule:nonzero;"/>
    </g>
    <g transform="matrix(69.3949,0,0,69.3949,240.005,71.5974)">
        <path d="M0.436,-0.437C0.436,-0.428 0.434,-0.422 0.431,-0.418C0.428,-0.414 0.424,-0.413 0.42,-0.413L0.35,-0.413C0.364,-0.399 0.373,-0.383 0.379,-0.367C0.384,-0.351 0.387,-0.333 0.387,-0.315C0.387,-0.29 0.383,-0.268 0.375,-0.248C0.367,-0.229 0.355,-0.212 0.341,-0.198C0.326,-0.185 0.309,-0.175 0.289,-0.167C0.268,-0.16 0.246,-0.157 0.222,-0.157C0.202,-0.157 0.183,-0.16 0.165,-0.165C0.147,-0.171 0.133,-0.177 0.123,-0.186C0.117,-0.179 0.111,-0.172 0.107,-0.163C0.103,-0.155 0.101,-0.145 0.101,-0.134C0.101,-0.121 0.107,-0.111 0.118,-0.103C0.13,-0.094 0.146,-0.09 0.165,-0.089L0.284,-0.084C0.304,-0.083 0.323,-0.081 0.341,-0.076C0.359,-0.071 0.374,-0.064 0.388,-0.054C0.401,-0.044 0.412,-0.033 0.419,-0.019C0.427,-0.005 0.431,0.012 0.431,0.031C0.431,0.05 0.427,0.069 0.419,0.087C0.411,0.105 0.399,0.121 0.382,0.134C0.365,0.148 0.344,0.158 0.318,0.166C0.292,0.174 0.261,0.178 0.225,0.178C0.19,0.178 0.161,0.175 0.136,0.169C0.112,0.163 0.092,0.155 0.077,0.144C0.061,0.134 0.05,0.121 0.043,0.107C0.036,0.093 0.033,0.077 0.033,0.061C0.033,0.049 0.034,0.038 0.037,0.028C0.039,0.018 0.043,0.009 0.049,-0C0.054,-0.01 0.061,-0.018 0.069,-0.027C0.077,-0.035 0.086,-0.044 0.096,-0.053C0.08,-0.061 0.067,-0.071 0.06,-0.083C0.052,-0.096 0.048,-0.108 0.048,-0.122C0.048,-0.142 0.052,-0.16 0.06,-0.176C0.067,-0.191 0.077,-0.205 0.088,-0.217C0.078,-0.23 0.071,-0.243 0.066,-0.258C0.061,-0.272 0.058,-0.29 0.058,-0.311C0.058,-0.335 0.062,-0.358 0.07,-0.377C0.078,-0.397 0.09,-0.414 0.104,-0.427C0.119,-0.441 0.136,-0.451 0.156,-0.459C0.176,-0.466 0.199,-0.47 0.223,-0.47C0.235,-0.47 0.247,-0.469 0.259,-0.468C0.27,-0.466 0.28,-0.464 0.29,-0.462L0.42,-0.462C0.425,-0.462 0.429,-0.46 0.432,-0.456C0.434,-0.451 0.436,-0.445 0.436,-0.437ZM0.327,-0.314C0.327,-0.347 0.317,-0.374 0.299,-0.393C0.281,-0.411 0.255,-0.421 0.221,-0.421C0.203,-0.421 0.188,-0.418 0.175,-0.412C0.162,-0.406 0.152,-0.398 0.143,-0.388C0.135,-0.378 0.128,-0.366 0.124,-0.353C0.12,-0.34 0.118,-0.326 0.118,-0.311C0.118,-0.278 0.127,-0.252 0.145,-0.234C0.164,-0.215 0.189,-0.206 0.223,-0.206C0.24,-0.206 0.256,-0.208 0.269,-0.214C0.282,-0.22 0.293,-0.228 0.301,-0.238C0.31,-0.248 0.316,-0.26 0.32,-0.273C0.325,-0.286 0.327,-0.3 0.327,-0.314ZM0.373,0.034C0.373,0.013 0.364,-0.004 0.347,-0.015C0.33,-0.027 0.306,-0.033 0.277,-0.034L0.148,-0.038C0.137,-0.029 0.127,-0.02 0.12,-0.012C0.112,-0.004 0.106,0.004 0.102,0.011C0.097,0.019 0.094,0.027 0.093,0.034C0.091,0.041 0.09,0.049 0.09,0.056C0.09,0.08 0.102,0.098 0.127,0.111C0.151,0.123 0.185,0.129 0.228,0.129C0.255,0.129 0.278,0.127 0.297,0.121C0.315,0.116 0.33,0.109 0.341,0.1C0.353,0.091 0.361,0.081 0.366,0.07C0.371,0.058 0.373,0.047 0.373,0.034Z" style="fill:rgb(0,90,170);fill-rule:nonzero;"/>
    </g>
    <g transform="matrix(69.3949,0,0,69.3949,272.534,71.5974)">
        <path d="M0.44,-0.01C0.44,-0.008 0.439,-0.006 0.438,-0.004C0.438,-0.003 0.436,-0.001 0.434,-0C0.432,0 0.429,0.001 0.425,0.002C0.421,0.003 0.417,0.003 0.411,0.003C0.405,0.003 0.4,0.003 0.397,0.002C0.393,0.001 0.39,0 0.388,-0C0.386,-0.001 0.384,-0.003 0.383,-0.004C0.382,-0.006 0.382,-0.008 0.382,-0.01L0.382,-0.272C0.382,-0.299 0.38,-0.322 0.375,-0.339C0.371,-0.356 0.365,-0.37 0.356,-0.383C0.348,-0.395 0.337,-0.404 0.324,-0.411C0.311,-0.418 0.295,-0.421 0.278,-0.421C0.255,-0.421 0.233,-0.413 0.21,-0.397C0.188,-0.381 0.164,-0.358 0.14,-0.327L0.14,-0.01C0.14,-0.008 0.139,-0.006 0.138,-0.004C0.137,-0.003 0.136,-0.001 0.134,-0C0.131,0 0.128,0.001 0.125,0.002C0.121,0.003 0.116,0.003 0.11,0.003C0.105,0.003 0.1,0.003 0.096,0.002C0.093,0.001 0.09,0 0.087,-0C0.085,-0.001 0.084,-0.003 0.083,-0.004C0.082,-0.006 0.082,-0.008 0.082,-0.01L0.082,-0.668C0.082,-0.67 0.082,-0.672 0.083,-0.673C0.084,-0.675 0.085,-0.676 0.087,-0.677C0.09,-0.679 0.093,-0.679 0.096,-0.68C0.1,-0.68 0.105,-0.681 0.11,-0.681C0.116,-0.681 0.121,-0.68 0.125,-0.68C0.128,-0.679 0.131,-0.679 0.134,-0.677C0.136,-0.676 0.137,-0.675 0.138,-0.673C0.139,-0.672 0.14,-0.67 0.14,-0.668L0.14,-0.392C0.164,-0.419 0.188,-0.438 0.212,-0.451C0.236,-0.463 0.26,-0.47 0.284,-0.47C0.313,-0.47 0.338,-0.465 0.357,-0.455C0.377,-0.445 0.393,-0.432 0.406,-0.416C0.418,-0.399 0.427,-0.38 0.432,-0.357C0.437,-0.335 0.44,-0.309 0.44,-0.277L0.44,-0.01Z" style="fill:rgb(0,90,170);fill-rule:nonzero;"/>
    </g>
    <g transform="matrix(69.3949,0,0,69.3949,307.909,71.5974)">
        <path d="M0.294,-0.036C0.294,-0.029 0.294,-0.024 0.293,-0.02C0.292,-0.015 0.29,-0.012 0.287,-0.01C0.285,-0.007 0.281,-0.005 0.277,-0.003C0.272,-0.001 0.266,0.001 0.26,0.003C0.254,0.004 0.248,0.005 0.241,0.006C0.234,0.007 0.227,0.007 0.221,0.007C0.199,0.007 0.18,0.004 0.165,-0.001C0.15,-0.007 0.137,-0.016 0.127,-0.028C0.118,-0.04 0.111,-0.055 0.106,-0.073C0.102,-0.091 0.1,-0.113 0.1,-0.138L0.1,-0.413L0.034,-0.413C0.029,-0.413 0.026,-0.415 0.023,-0.419C0.02,-0.423 0.019,-0.429 0.019,-0.437C0.019,-0.441 0.019,-0.445 0.02,-0.448C0.021,-0.451 0.022,-0.454 0.023,-0.456C0.024,-0.458 0.026,-0.459 0.028,-0.46C0.029,-0.461 0.031,-0.462 0.034,-0.462L0.1,-0.462L0.1,-0.57C0.1,-0.572 0.1,-0.574 0.101,-0.576C0.102,-0.577 0.103,-0.579 0.105,-0.58C0.108,-0.581 0.111,-0.582 0.115,-0.582C0.118,-0.583 0.123,-0.583 0.128,-0.583C0.134,-0.583 0.139,-0.583 0.143,-0.582C0.147,-0.582 0.149,-0.581 0.152,-0.58C0.154,-0.579 0.155,-0.577 0.156,-0.576C0.157,-0.574 0.158,-0.572 0.158,-0.57L0.158,-0.462L0.28,-0.462C0.282,-0.462 0.284,-0.461 0.286,-0.46C0.288,-0.459 0.289,-0.458 0.291,-0.456C0.292,-0.454 0.293,-0.451 0.293,-0.448C0.294,-0.445 0.294,-0.441 0.294,-0.437C0.294,-0.429 0.293,-0.423 0.29,-0.419C0.288,-0.415 0.284,-0.413 0.28,-0.413L0.158,-0.413L0.158,-0.146C0.158,-0.112 0.163,-0.086 0.172,-0.069C0.182,-0.051 0.199,-0.042 0.225,-0.042C0.232,-0.042 0.24,-0.043 0.246,-0.045C0.252,-0.047 0.258,-0.048 0.263,-0.05C0.268,-0.052 0.272,-0.054 0.275,-0.056C0.279,-0.057 0.282,-0.058 0.284,-0.058C0.286,-0.058 0.287,-0.058 0.289,-0.057C0.29,-0.056 0.291,-0.055 0.292,-0.053C0.293,-0.052 0.293,-0.049 0.294,-0.047C0.294,-0.044 0.294,-0.04 0.294,-0.036Z" style="fill:rgb(0,90,170);fill-rule:nonzero;"/>
    </g>
</svg>
