<?xml version="1.0" encoding="UTF-8" standalone="no"?>
<!DOCTYPE svg PUBLIC "-//W3C//DTD SVG 1.1//EN" "http://www.w3.org/Graphics/SVG/1.1/DTD/svg11.dtd">
<svg width="100%" height="100%" viewBox="0 0 336 144" version="1.1" xmlns="http://www.w3.org/2000/svg" xmlns:xlink="http://www.w3.org/1999/xlink" xml:space="preserve" xmlns:serif="http://www.serif.com/" style="fill-rule:evenodd;clip-rule:evenodd;stroke-linejoin:round;stroke-miterlimit:2;">
    <g transform="matrix(0.965147,0,0,0.965147,-69.5436,6.30695)">
        <g transform="matrix(32,0,0,32,78.2459,90.5034)">
            <path d="M0.098,-0L0.098,-0.714L0.181,-0.714L0.181,-0.075L0.496,-0.075L0.496,-0L0.098,-0Z" style="fill:rgb(85,85,85);fill-rule:nonzero;"/>
        </g>
        <g transform="matrix(32,0,0,32,94.8553,90.5034)">
            <path d="M0.548,-0.268C0.548,-0.181 0.526,-0.113 0.482,-0.064C0.438,-0.015 0.377,0.01 0.3,0.01C0.252,0.01 0.209,-0.001 0.172,-0.024C0.135,-0.046 0.107,-0.079 0.086,-0.121C0.066,-0.163 0.056,-0.212 0.056,-0.268C0.056,-0.355 0.078,-0.423 0.122,-0.472C0.165,-0.521 0.226,-0.545 0.303,-0.545C0.378,-0.545 0.438,-0.52 0.482,-0.47C0.526,-0.42 0.548,-0.353 0.548,-0.268ZM0.14,-0.268C0.14,-0.2 0.154,-0.148 0.181,-0.112C0.208,-0.076 0.249,-0.058 0.302,-0.058C0.355,-0.058 0.395,-0.076 0.423,-0.112C0.45,-0.147 0.464,-0.199 0.464,-0.268C0.464,-0.336 0.45,-0.388 0.423,-0.423C0.395,-0.458 0.354,-0.476 0.301,-0.476C0.248,-0.476 0.208,-0.459 0.181,-0.424C0.154,-0.389 0.14,-0.337 0.14,-0.268Z" style="fill:rgb(85,85,85);fill-rule:nonzero;"/>
        </g>
        <g transform="matrix(32,0,0,32,114.183,90.5034)">
            <path d="M0.33,-0.545C0.354,-0.545 0.375,-0.543 0.394,-0.539L0.383,-0.464C0.361,-0.469 0.341,-0.471 0.324,-0.471C0.281,-0.471 0.244,-0.454 0.213,-0.418C0.182,-0.383 0.167,-0.34 0.167,-0.287L0.167,-0L0.086,-0L0.086,-0.535L0.153,-0.535L0.162,-0.436L0.166,-0.436C0.186,-0.471 0.21,-0.498 0.238,-0.517C0.266,-0.535 0.297,-0.545 0.33,-0.545Z" style="fill:rgb(85,85,85);fill-rule:nonzero;"/>
        </g>
        <g transform="matrix(32,0,0,32,127.246,90.5034)">
            <path d="M0.312,0.01C0.233,0.01 0.17,-0.014 0.125,-0.063C0.079,-0.111 0.056,-0.178 0.056,-0.263C0.056,-0.349 0.077,-0.418 0.12,-0.469C0.162,-0.52 0.219,-0.545 0.291,-0.545C0.358,-0.545 0.411,-0.523 0.45,-0.479C0.489,-0.435 0.509,-0.376 0.509,-0.304L0.509,-0.253L0.14,-0.253C0.142,-0.19 0.158,-0.142 0.188,-0.11C0.218,-0.077 0.26,-0.061 0.315,-0.061C0.373,-0.061 0.43,-0.073 0.486,-0.097L0.486,-0.025C0.457,-0.013 0.43,-0.004 0.405,0.002C0.379,0.007 0.348,0.01 0.312,0.01ZM0.29,-0.477C0.247,-0.477 0.213,-0.463 0.187,-0.435C0.162,-0.407 0.147,-0.368 0.142,-0.319L0.422,-0.319C0.422,-0.37 0.41,-0.409 0.388,-0.436C0.365,-0.463 0.332,-0.477 0.29,-0.477Z" style="fill:rgb(85,85,85);fill-rule:nonzero;"/>
        </g>
        <g transform="matrix(32,0,0,32,145.199,90.5034)">
            <path d="M0.768,-0L0.768,-0.348C0.768,-0.391 0.759,-0.423 0.741,-0.444C0.722,-0.465 0.694,-0.476 0.656,-0.476C0.605,-0.476 0.568,-0.462 0.544,-0.433C0.52,-0.404 0.508,-0.359 0.508,-0.299L0.508,-0L0.427,-0L0.427,-0.348C0.427,-0.391 0.418,-0.423 0.399,-0.444C0.381,-0.465 0.353,-0.476 0.314,-0.476C0.263,-0.476 0.226,-0.461 0.202,-0.43C0.179,-0.4 0.167,-0.35 0.167,-0.281L0.167,-0L0.086,-0L0.086,-0.535L0.152,-0.535L0.165,-0.462L0.169,-0.462C0.184,-0.488 0.206,-0.508 0.234,-0.523C0.261,-0.538 0.293,-0.545 0.327,-0.545C0.411,-0.545 0.465,-0.515 0.491,-0.454L0.495,-0.454C0.511,-0.482 0.534,-0.504 0.564,-0.521C0.595,-0.537 0.629,-0.545 0.668,-0.545C0.729,-0.545 0.774,-0.529 0.804,-0.498C0.834,-0.467 0.849,-0.417 0.849,-0.349L0.849,-0L0.768,-0Z" style="fill:rgb(85,85,85);fill-rule:nonzero;"/>
        </g>
        <g transform="matrix(32,0,0,32,183.277,90.5034)">
            <path d="M0.167,-0L0.086,-0L0.086,-0.535L0.167,-0.535L0.167,-0ZM0.079,-0.68C0.079,-0.699 0.084,-0.712 0.093,-0.721C0.102,-0.73 0.113,-0.734 0.127,-0.734C0.14,-0.734 0.151,-0.729 0.161,-0.721C0.17,-0.712 0.175,-0.698 0.175,-0.68C0.175,-0.662 0.17,-0.648 0.161,-0.639C0.151,-0.63 0.14,-0.626 0.127,-0.626C0.113,-0.626 0.102,-0.63 0.093,-0.639C0.084,-0.648 0.079,-0.662 0.079,-0.68Z" style="fill:rgb(85,85,85);fill-rule:nonzero;"/>
        </g>
        <g transform="matrix(32,0,0,32,191.371,90.5034)">
            <path d="M0.335,0.01C0.3,0.01 0.268,0.003 0.24,-0.01C0.211,-0.022 0.187,-0.042 0.167,-0.069L0.161,-0.069C0.165,-0.038 0.167,-0.008 0.167,0.02L0.167,0.24L0.086,0.24L0.086,-0.535L0.152,-0.535L0.163,-0.462L0.167,-0.462C0.188,-0.491 0.212,-0.512 0.24,-0.525C0.267,-0.538 0.299,-0.545 0.335,-0.545C0.406,-0.545 0.461,-0.521 0.499,-0.472C0.538,-0.424 0.557,-0.356 0.557,-0.268C0.557,-0.18 0.538,-0.112 0.498,-0.063C0.459,-0.015 0.405,0.01 0.335,0.01ZM0.323,-0.476C0.269,-0.476 0.229,-0.461 0.205,-0.431C0.18,-0.4 0.168,-0.352 0.167,-0.286L0.167,-0.268C0.167,-0.193 0.18,-0.139 0.205,-0.107C0.23,-0.074 0.27,-0.058 0.325,-0.058C0.371,-0.058 0.408,-0.077 0.434,-0.114C0.46,-0.152 0.473,-0.203 0.473,-0.269C0.473,-0.336 0.46,-0.387 0.434,-0.423C0.408,-0.458 0.371,-0.476 0.323,-0.476Z" style="fill:rgb(85,85,85);fill-rule:nonzero;"/>
        </g>
        <g transform="matrix(32,0,0,32,210.98,90.5034)">
            <path d="M0.431,-0.146C0.431,-0.096 0.413,-0.058 0.375,-0.031C0.338,-0.004 0.286,0.01 0.219,0.01C0.148,0.01 0.093,-0.001 0.053,-0.024L0.053,-0.099C0.079,-0.086 0.107,-0.076 0.136,-0.068C0.165,-0.061 0.194,-0.057 0.221,-0.057C0.264,-0.057 0.296,-0.064 0.319,-0.077C0.342,-0.091 0.353,-0.111 0.353,-0.139C0.353,-0.16 0.344,-0.178 0.326,-0.193C0.308,-0.207 0.273,-0.225 0.22,-0.245C0.17,-0.264 0.135,-0.28 0.114,-0.294C0.093,-0.308 0.077,-0.323 0.067,-0.341C0.057,-0.358 0.052,-0.379 0.052,-0.404C0.052,-0.447 0.069,-0.482 0.105,-0.507C0.14,-0.532 0.189,-0.545 0.251,-0.545C0.309,-0.545 0.365,-0.533 0.42,-0.51L0.391,-0.444C0.337,-0.466 0.289,-0.477 0.245,-0.477C0.207,-0.477 0.178,-0.471 0.158,-0.459C0.139,-0.447 0.129,-0.43 0.129,-0.409C0.129,-0.395 0.133,-0.383 0.14,-0.373C0.147,-0.362 0.159,-0.353 0.175,-0.344C0.192,-0.335 0.223,-0.321 0.269,-0.304C0.333,-0.281 0.375,-0.258 0.398,-0.234C0.42,-0.211 0.431,-0.181 0.431,-0.146Z" style="fill:rgb(85,85,85);fill-rule:nonzero;"/>
        </g>
        <g transform="matrix(32,0,0,32,226.246,90.5034)">
            <path d="M0.162,-0.535L0.162,-0.188C0.162,-0.144 0.172,-0.112 0.192,-0.09C0.212,-0.069 0.243,-0.058 0.285,-0.058C0.341,-0.058 0.382,-0.073 0.408,-0.104C0.434,-0.135 0.447,-0.185 0.447,-0.254L0.447,-0.535L0.528,-0.535L0.528,-0L0.461,-0L0.449,-0.072L0.445,-0.072C0.428,-0.045 0.405,-0.025 0.376,-0.011C0.346,0.003 0.313,0.01 0.275,0.01C0.21,0.01 0.161,-0.006 0.129,-0.037C0.096,-0.068 0.08,-0.117 0.08,-0.185L0.08,-0.535L0.162,-0.535Z" style="fill:rgb(85,85,85);fill-rule:nonzero;"/>
        </g>
        <g transform="matrix(32,0,0,32,245.887,90.5034)">
            <path d="M0.768,-0L0.768,-0.348C0.768,-0.391 0.759,-0.423 0.741,-0.444C0.722,-0.465 0.694,-0.476 0.656,-0.476C0.605,-0.476 0.568,-0.462 0.544,-0.433C0.52,-0.404 0.508,-0.359 0.508,-0.299L0.508,-0L0.427,-0L0.427,-0.348C0.427,-0.391 0.418,-0.423 0.399,-0.444C0.381,-0.465 0.353,-0.476 0.314,-0.476C0.263,-0.476 0.226,-0.461 0.202,-0.43C0.179,-0.4 0.167,-0.35 0.167,-0.281L0.167,-0L0.086,-0L0.086,-0.535L0.152,-0.535L0.165,-0.462L0.169,-0.462C0.184,-0.488 0.206,-0.508 0.234,-0.523C0.261,-0.538 0.293,-0.545 0.327,-0.545C0.411,-0.545 0.465,-0.515 0.491,-0.454L0.495,-0.454C0.511,-0.482 0.534,-0.504 0.564,-0.521C0.595,-0.537 0.629,-0.545 0.668,-0.545C0.729,-0.545 0.774,-0.529 0.804,-0.498C0.834,-0.467 0.849,-0.417 0.849,-0.349L0.849,-0L0.768,-0Z" style="fill:rgb(85,85,85);fill-rule:nonzero;"/>
        </g>
        <g transform="matrix(32,0,0,32,283.965,90.5034)">
            <path d="M0.45,-0.072L0.446,-0.072C0.408,-0.017 0.352,0.01 0.278,0.01C0.208,0.01 0.153,-0.014 0.115,-0.062C0.076,-0.11 0.056,-0.178 0.056,-0.266C0.056,-0.354 0.076,-0.423 0.115,-0.472C0.154,-0.521 0.208,-0.545 0.278,-0.545C0.35,-0.545 0.406,-0.519 0.445,-0.466L0.451,-0.466L0.448,-0.504L0.446,-0.542L0.446,-0.76L0.527,-0.76L0.527,-0L0.461,-0L0.45,-0.072ZM0.288,-0.058C0.343,-0.058 0.384,-0.073 0.408,-0.103C0.433,-0.133 0.446,-0.182 0.446,-0.249L0.446,-0.266C0.446,-0.342 0.433,-0.396 0.408,-0.428C0.383,-0.461 0.342,-0.477 0.287,-0.477C0.24,-0.477 0.203,-0.459 0.178,-0.422C0.153,-0.385 0.14,-0.333 0.14,-0.265C0.14,-0.197 0.153,-0.145 0.178,-0.11C0.203,-0.076 0.24,-0.058 0.288,-0.058Z" style="fill:rgb(85,85,85);fill-rule:nonzero;"/>
        </g>
        <g transform="matrix(32,0,0,32,303.574,90.5034)">
            <path d="M0.548,-0.268C0.548,-0.181 0.526,-0.113 0.482,-0.064C0.438,-0.015 0.377,0.01 0.3,0.01C0.252,0.01 0.209,-0.001 0.172,-0.024C0.135,-0.046 0.107,-0.079 0.086,-0.121C0.066,-0.163 0.056,-0.212 0.056,-0.268C0.056,-0.355 0.078,-0.423 0.122,-0.472C0.165,-0.521 0.226,-0.545 0.303,-0.545C0.378,-0.545 0.438,-0.52 0.482,-0.47C0.526,-0.42 0.548,-0.353 0.548,-0.268ZM0.14,-0.268C0.14,-0.2 0.154,-0.148 0.181,-0.112C0.208,-0.076 0.249,-0.058 0.302,-0.058C0.355,-0.058 0.395,-0.076 0.423,-0.112C0.45,-0.147 0.464,-0.199 0.464,-0.268C0.464,-0.336 0.45,-0.388 0.423,-0.423C0.395,-0.458 0.354,-0.476 0.301,-0.476C0.248,-0.476 0.208,-0.459 0.181,-0.424C0.154,-0.389 0.14,-0.337 0.14,-0.268Z" style="fill:rgb(85,85,85);fill-rule:nonzero;"/>
        </g>
        <g transform="matrix(32,0,0,32,322.902,90.5034)">
            <rect x="0.086" y="-0.76" width="0.081" height="0.76" style="fill:rgb(85,85,85);fill-rule:nonzero;"/>
        </g>
        <g transform="matrix(32,0,0,32,330.996,90.5034)">
            <path d="M0.548,-0.268C0.548,-0.181 0.526,-0.113 0.482,-0.064C0.438,-0.015 0.377,0.01 0.3,0.01C0.252,0.01 0.209,-0.001 0.172,-0.024C0.135,-0.046 0.107,-0.079 0.086,-0.121C0.066,-0.163 0.056,-0.212 0.056,-0.268C0.056,-0.355 0.078,-0.423 0.122,-0.472C0.165,-0.521 0.226,-0.545 0.303,-0.545C0.378,-0.545 0.438,-0.52 0.482,-0.47C0.526,-0.42 0.548,-0.353 0.548,-0.268ZM0.14,-0.268C0.14,-0.2 0.154,-0.148 0.181,-0.112C0.208,-0.076 0.249,-0.058 0.302,-0.058C0.355,-0.058 0.395,-0.076 0.423,-0.112C0.45,-0.147 0.464,-0.199 0.464,-0.268C0.464,-0.336 0.45,-0.388 0.423,-0.423C0.395,-0.458 0.354,-0.476 0.301,-0.476C0.248,-0.476 0.208,-0.459 0.181,-0.424C0.154,-0.389 0.14,-0.337 0.14,-0.268Z" style="fill:rgb(85,85,85);fill-rule:nonzero;"/>
        </g>
        <g transform="matrix(32,0,0,32,350.324,90.5034)">
            <path d="M0.33,-0.545C0.354,-0.545 0.375,-0.543 0.394,-0.539L0.383,-0.464C0.361,-0.469 0.341,-0.471 0.324,-0.471C0.281,-0.471 0.244,-0.454 0.213,-0.418C0.182,-0.383 0.167,-0.34 0.167,-0.287L0.167,-0L0.086,-0L0.086,-0.535L0.153,-0.535L0.162,-0.436L0.166,-0.436C0.186,-0.471 0.21,-0.498 0.238,-0.517C0.266,-0.535 0.297,-0.545 0.33,-0.545Z" style="fill:rgb(85,85,85);fill-rule:nonzero;"/>
        </g>
        <g transform="matrix(32,0,0,32,371.699,90.5034)">
            <path d="M0.431,-0.146C0.431,-0.096 0.413,-0.058 0.375,-0.031C0.338,-0.004 0.286,0.01 0.219,0.01C0.148,0.01 0.093,-0.001 0.053,-0.024L0.053,-0.099C0.079,-0.086 0.107,-0.076 0.136,-0.068C0.165,-0.061 0.194,-0.057 0.221,-0.057C0.264,-0.057 0.296,-0.064 0.319,-0.077C0.342,-0.091 0.353,-0.111 0.353,-0.139C0.353,-0.16 0.344,-0.178 0.326,-0.193C0.308,-0.207 0.273,-0.225 0.22,-0.245C0.17,-0.264 0.135,-0.28 0.114,-0.294C0.093,-0.308 0.077,-0.323 0.067,-0.341C0.057,-0.358 0.052,-0.379 0.052,-0.404C0.052,-0.447 0.069,-0.482 0.105,-0.507C0.14,-0.532 0.189,-0.545 0.251,-0.545C0.309,-0.545 0.365,-0.533 0.42,-0.51L0.391,-0.444C0.337,-0.466 0.289,-0.477 0.245,-0.477C0.207,-0.477 0.178,-0.471 0.158,-0.459C0.139,-0.447 0.129,-0.43 0.129,-0.409C0.129,-0.395 0.133,-0.383 0.14,-0.373C0.147,-0.362 0.159,-0.353 0.175,-0.344C0.192,-0.335 0.223,-0.321 0.269,-0.304C0.333,-0.281 0.375,-0.258 0.398,-0.234C0.42,-0.211 0.431,-0.181 0.431,-0.146Z" style="fill:rgb(85,85,85);fill-rule:nonzero;"/>
        </g>
        <g transform="matrix(32,0,0,32,386.965,90.5034)">
            <path d="M0.167,-0L0.086,-0L0.086,-0.535L0.167,-0.535L0.167,-0ZM0.079,-0.68C0.079,-0.699 0.084,-0.712 0.093,-0.721C0.102,-0.73 0.113,-0.734 0.127,-0.734C0.14,-0.734 0.151,-0.729 0.161,-0.721C0.17,-0.712 0.175,-0.698 0.175,-0.68C0.175,-0.662 0.17,-0.648 0.161,-0.639C0.151,-0.63 0.14,-0.626 0.127,-0.626C0.113,-0.626 0.102,-0.63 0.093,-0.639C0.084,-0.648 0.079,-0.662 0.079,-0.68Z" style="fill:rgb(85,85,85);fill-rule:nonzero;"/>
        </g>
        <g transform="matrix(32,0,0,32,395.058,90.5034)">
            <path d="M0.259,-0.057C0.273,-0.057 0.287,-0.058 0.3,-0.06C0.314,-0.062 0.324,-0.065 0.332,-0.067L0.332,-0.005C0.323,-0.001 0.31,0.003 0.293,0.006C0.276,0.008 0.261,0.01 0.247,0.01C0.144,0.01 0.092,-0.045 0.092,-0.154L0.092,-0.472L0.015,-0.472L0.015,-0.511L0.092,-0.545L0.126,-0.659L0.173,-0.659L0.173,-0.535L0.328,-0.535L0.328,-0.472L0.173,-0.472L0.173,-0.157C0.173,-0.125 0.181,-0.1 0.196,-0.083C0.211,-0.066 0.232,-0.057 0.259,-0.057Z" style="fill:rgb(85,85,85);fill-rule:nonzero;"/>
        </g>
        <g transform="matrix(32,0,0,32,78.2459,122.503)">
            <path d="M0.3,0.01C0.222,0.01 0.162,-0.014 0.12,-0.062C0.077,-0.109 0.056,-0.177 0.056,-0.264C0.056,-0.354 0.078,-0.423 0.121,-0.472C0.164,-0.521 0.225,-0.545 0.305,-0.545C0.331,-0.545 0.357,-0.542 0.382,-0.537C0.408,-0.531 0.428,-0.525 0.443,-0.517L0.418,-0.448C0.4,-0.455 0.381,-0.461 0.359,-0.466C0.338,-0.471 0.319,-0.473 0.303,-0.473C0.194,-0.473 0.14,-0.404 0.14,-0.265C0.14,-0.199 0.153,-0.149 0.18,-0.114C0.206,-0.079 0.246,-0.061 0.298,-0.061C0.342,-0.061 0.388,-0.071 0.435,-0.09L0.435,-0.018C0.399,0 0.354,0.01 0.3,0.01Z" style="fill:rgb(85,85,85);fill-rule:nonzero;"/>
        </g>
        <g transform="matrix(32,0,0,32,93.4803,122.503)">
            <path d="M0.548,-0.268C0.548,-0.181 0.526,-0.113 0.482,-0.064C0.438,-0.015 0.377,0.01 0.3,0.01C0.252,0.01 0.209,-0.001 0.172,-0.024C0.135,-0.046 0.107,-0.079 0.086,-0.121C0.066,-0.163 0.056,-0.212 0.056,-0.268C0.056,-0.355 0.078,-0.423 0.122,-0.472C0.165,-0.521 0.226,-0.545 0.303,-0.545C0.378,-0.545 0.438,-0.52 0.482,-0.47C0.526,-0.42 0.548,-0.353 0.548,-0.268ZM0.14,-0.268C0.14,-0.2 0.154,-0.148 0.181,-0.112C0.208,-0.076 0.249,-0.058 0.302,-0.058C0.355,-0.058 0.395,-0.076 0.423,-0.112C0.45,-0.147 0.464,-0.199 0.464,-0.268C0.464,-0.336 0.45,-0.388 0.423,-0.423C0.395,-0.458 0.354,-0.476 0.301,-0.476C0.248,-0.476 0.208,-0.459 0.181,-0.424C0.154,-0.389 0.14,-0.337 0.14,-0.268Z" style="fill:rgb(85,85,85);fill-rule:nonzero;"/>
        </g>
        <g transform="matrix(32,0,0,32,112.808,122.503)">
            <path d="M0.452,-0L0.452,-0.346C0.452,-0.39 0.442,-0.422 0.422,-0.444C0.403,-0.465 0.371,-0.476 0.329,-0.476C0.273,-0.476 0.232,-0.461 0.206,-0.431C0.18,-0.4 0.167,-0.35 0.167,-0.281L0.167,-0L0.086,-0L0.086,-0.535L0.152,-0.535L0.165,-0.462L0.169,-0.462C0.186,-0.488 0.209,-0.509 0.239,-0.523C0.269,-0.538 0.302,-0.545 0.339,-0.545C0.403,-0.545 0.452,-0.529 0.484,-0.498C0.517,-0.467 0.533,-0.417 0.533,-0.349L0.533,-0L0.452,-0Z" style="fill:rgb(85,85,85);fill-rule:nonzero;"/>
        </g>
        <g transform="matrix(32,0,0,32,132.449,122.503)">
            <path d="M0.431,-0.146C0.431,-0.096 0.413,-0.058 0.375,-0.031C0.338,-0.004 0.286,0.01 0.219,0.01C0.148,0.01 0.093,-0.001 0.053,-0.024L0.053,-0.099C0.079,-0.086 0.107,-0.076 0.136,-0.068C0.165,-0.061 0.194,-0.057 0.221,-0.057C0.264,-0.057 0.296,-0.064 0.319,-0.077C0.342,-0.091 0.353,-0.111 0.353,-0.139C0.353,-0.16 0.344,-0.178 0.326,-0.193C0.308,-0.207 0.273,-0.225 0.22,-0.245C0.17,-0.264 0.135,-0.28 0.114,-0.294C0.093,-0.308 0.077,-0.323 0.067,-0.341C0.057,-0.358 0.052,-0.379 0.052,-0.404C0.052,-0.447 0.069,-0.482 0.105,-0.507C0.14,-0.532 0.189,-0.545 0.251,-0.545C0.309,-0.545 0.365,-0.533 0.42,-0.51L0.391,-0.444C0.337,-0.466 0.289,-0.477 0.245,-0.477C0.207,-0.477 0.178,-0.471 0.158,-0.459C0.139,-0.447 0.129,-0.43 0.129,-0.409C0.129,-0.395 0.133,-0.383 0.14,-0.373C0.147,-0.362 0.159,-0.353 0.175,-0.344C0.192,-0.335 0.223,-0.321 0.269,-0.304C0.333,-0.281 0.375,-0.258 0.398,-0.234C0.42,-0.211 0.431,-0.181 0.431,-0.146Z" style="fill:rgb(85,85,85);fill-rule:nonzero;"/>
        </g>
        <g transform="matrix(32,0,0,32,147.715,122.503)">
            <path d="M0.312,0.01C0.233,0.01 0.17,-0.014 0.125,-0.063C0.079,-0.111 0.056,-0.178 0.056,-0.263C0.056,-0.349 0.077,-0.418 0.12,-0.469C0.162,-0.52 0.219,-0.545 0.291,-0.545C0.358,-0.545 0.411,-0.523 0.45,-0.479C0.489,-0.435 0.509,-0.376 0.509,-0.304L0.509,-0.253L0.14,-0.253C0.142,-0.19 0.158,-0.142 0.188,-0.11C0.218,-0.077 0.26,-0.061 0.315,-0.061C0.373,-0.061 0.43,-0.073 0.486,-0.097L0.486,-0.025C0.457,-0.013 0.43,-0.004 0.405,0.002C0.379,0.007 0.348,0.01 0.312,0.01ZM0.29,-0.477C0.247,-0.477 0.213,-0.463 0.187,-0.435C0.162,-0.407 0.147,-0.368 0.142,-0.319L0.422,-0.319C0.422,-0.37 0.41,-0.409 0.388,-0.436C0.365,-0.463 0.332,-0.477 0.29,-0.477Z" style="fill:rgb(85,85,85);fill-rule:nonzero;"/>
        </g>
        <g transform="matrix(32,0,0,32,165.668,122.503)">
            <path d="M0.3,0.01C0.222,0.01 0.162,-0.014 0.12,-0.062C0.077,-0.109 0.056,-0.177 0.056,-0.264C0.056,-0.354 0.078,-0.423 0.121,-0.472C0.164,-0.521 0.225,-0.545 0.305,-0.545C0.331,-0.545 0.357,-0.542 0.382,-0.537C0.408,-0.531 0.428,-0.525 0.443,-0.517L0.418,-0.448C0.4,-0.455 0.381,-0.461 0.359,-0.466C0.338,-0.471 0.319,-0.473 0.303,-0.473C0.194,-0.473 0.14,-0.404 0.14,-0.265C0.14,-0.199 0.153,-0.149 0.18,-0.114C0.206,-0.079 0.246,-0.061 0.298,-0.061C0.342,-0.061 0.388,-0.071 0.435,-0.09L0.435,-0.018C0.399,0 0.354,0.01 0.3,0.01Z" style="fill:rgb(85,85,85);fill-rule:nonzero;"/>
        </g>
        <g transform="matrix(32,0,0,32,180.902,122.503)">
            <path d="M0.259,-0.057C0.273,-0.057 0.287,-0.058 0.3,-0.06C0.314,-0.062 0.324,-0.065 0.332,-0.067L0.332,-0.005C0.323,-0.001 0.31,0.003 0.293,0.006C0.276,0.008 0.261,0.01 0.247,0.01C0.144,0.01 0.092,-0.045 0.092,-0.154L0.092,-0.472L0.015,-0.472L0.015,-0.511L0.092,-0.545L0.126,-0.659L0.173,-0.659L0.173,-0.535L0.328,-0.535L0.328,-0.472L0.173,-0.472L0.173,-0.157C0.173,-0.125 0.181,-0.1 0.196,-0.083C0.211,-0.066 0.232,-0.057 0.259,-0.057Z" style="fill:rgb(85,85,85);fill-rule:nonzero;"/>
        </g>
        <g transform="matrix(32,0,0,32,192.199,122.503)">
            <path d="M0.312,0.01C0.233,0.01 0.17,-0.014 0.125,-0.063C0.079,-0.111 0.056,-0.178 0.056,-0.263C0.056,-0.349 0.077,-0.418 0.12,-0.469C0.162,-0.52 0.219,-0.545 0.291,-0.545C0.358,-0.545 0.411,-0.523 0.45,-0.479C0.489,-0.435 0.509,-0.376 0.509,-0.304L0.509,-0.253L0.14,-0.253C0.142,-0.19 0.158,-0.142 0.188,-0.11C0.218,-0.077 0.26,-0.061 0.315,-0.061C0.373,-0.061 0.43,-0.073 0.486,-0.097L0.486,-0.025C0.457,-0.013 0.43,-0.004 0.405,0.002C0.379,0.007 0.348,0.01 0.312,0.01ZM0.29,-0.477C0.247,-0.477 0.213,-0.463 0.187,-0.435C0.162,-0.407 0.147,-0.368 0.142,-0.319L0.422,-0.319C0.422,-0.37 0.41,-0.409 0.388,-0.436C0.365,-0.463 0.332,-0.477 0.29,-0.477Z" style="fill:rgb(85,85,85);fill-rule:nonzero;"/>
        </g>
        <g transform="matrix(32,0,0,32,210.152,122.503)">
            <path d="M0.259,-0.057C0.273,-0.057 0.287,-0.058 0.3,-0.06C0.314,-0.062 0.324,-0.065 0.332,-0.067L0.332,-0.005C0.323,-0.001 0.31,0.003 0.293,0.006C0.276,0.008 0.261,0.01 0.247,0.01C0.144,0.01 0.092,-0.045 0.092,-0.154L0.092,-0.472L0.015,-0.472L0.015,-0.511L0.092,-0.545L0.126,-0.659L0.173,-0.659L0.173,-0.535L0.328,-0.535L0.328,-0.472L0.173,-0.472L0.173,-0.157C0.173,-0.125 0.181,-0.1 0.196,-0.083C0.211,-0.066 0.232,-0.057 0.259,-0.057Z" style="fill:rgb(85,85,85);fill-rule:nonzero;"/>
        </g>
        <g transform="matrix(32,0,0,32,221.449,122.503)">
            <path d="M0.162,-0.535L0.162,-0.188C0.162,-0.144 0.172,-0.112 0.192,-0.09C0.212,-0.069 0.243,-0.058 0.285,-0.058C0.341,-0.058 0.382,-0.073 0.408,-0.104C0.434,-0.135 0.447,-0.185 0.447,-0.254L0.447,-0.535L0.528,-0.535L0.528,-0L0.461,-0L0.449,-0.072L0.445,-0.072C0.428,-0.045 0.405,-0.025 0.376,-0.011C0.346,0.003 0.313,0.01 0.275,0.01C0.21,0.01 0.161,-0.006 0.129,-0.037C0.096,-0.068 0.08,-0.117 0.08,-0.185L0.08,-0.535L0.162,-0.535Z" style="fill:rgb(85,85,85);fill-rule:nonzero;"/>
        </g>
        <g transform="matrix(32,0,0,32,241.09,122.503)">
            <path d="M0.33,-0.545C0.354,-0.545 0.375,-0.543 0.394,-0.539L0.383,-0.464C0.361,-0.469 0.341,-0.471 0.324,-0.471C0.281,-0.471 0.244,-0.454 0.213,-0.418C0.182,-0.383 0.167,-0.34 0.167,-0.287L0.167,-0L0.086,-0L0.086,-0.535L0.153,-0.535L0.162,-0.436L0.166,-0.436C0.186,-0.471 0.21,-0.498 0.238,-0.517C0.266,-0.535 0.297,-0.545 0.33,-0.545Z" style="fill:rgb(85,85,85);fill-rule:nonzero;"/>
        </g>
        <g transform="matrix(32,0,0,32,262.465,122.503)">
            <path d="M0.415,-0L0.399,-0.076L0.395,-0.076C0.368,-0.043 0.342,-0.02 0.315,-0.008C0.289,0.004 0.256,0.01 0.216,0.01C0.163,0.01 0.121,-0.004 0.091,-0.031C0.061,-0.059 0.046,-0.097 0.046,-0.148C0.046,-0.256 0.132,-0.313 0.305,-0.318L0.396,-0.321L0.396,-0.354C0.396,-0.396 0.387,-0.427 0.369,-0.447C0.351,-0.467 0.322,-0.477 0.282,-0.477C0.238,-0.477 0.187,-0.463 0.131,-0.436L0.106,-0.498C0.132,-0.512 0.161,-0.524 0.193,-0.532C0.224,-0.54 0.256,-0.544 0.287,-0.544C0.351,-0.544 0.398,-0.53 0.429,-0.501C0.46,-0.473 0.475,-0.428 0.475,-0.365L0.475,-0L0.415,-0ZM0.232,-0.057C0.282,-0.057 0.322,-0.071 0.351,-0.099C0.38,-0.126 0.394,-0.165 0.394,-0.215L0.394,-0.263L0.313,-0.26C0.249,-0.257 0.202,-0.247 0.174,-0.23C0.145,-0.212 0.131,-0.184 0.131,-0.147C0.131,-0.118 0.14,-0.095 0.157,-0.08C0.175,-0.065 0.2,-0.057 0.232,-0.057Z" style="fill:rgb(85,85,85);fill-rule:nonzero;"/>
        </g>
        <g transform="matrix(32,0,0,32,280.262,122.503)">
            <path d="M0.45,-0.072L0.446,-0.072C0.408,-0.017 0.352,0.01 0.278,0.01C0.208,0.01 0.153,-0.014 0.115,-0.062C0.076,-0.11 0.056,-0.178 0.056,-0.266C0.056,-0.354 0.076,-0.423 0.115,-0.472C0.154,-0.521 0.208,-0.545 0.278,-0.545C0.35,-0.545 0.406,-0.519 0.445,-0.466L0.451,-0.466L0.448,-0.504L0.446,-0.542L0.446,-0.76L0.527,-0.76L0.527,-0L0.461,-0L0.45,-0.072ZM0.288,-0.058C0.343,-0.058 0.384,-0.073 0.408,-0.103C0.433,-0.133 0.446,-0.182 0.446,-0.249L0.446,-0.266C0.446,-0.342 0.433,-0.396 0.408,-0.428C0.383,-0.461 0.342,-0.477 0.287,-0.477C0.24,-0.477 0.203,-0.459 0.178,-0.422C0.153,-0.385 0.14,-0.333 0.14,-0.265C0.14,-0.197 0.153,-0.145 0.178,-0.11C0.203,-0.076 0.24,-0.058 0.288,-0.058Z" style="fill:rgb(85,85,85);fill-rule:nonzero;"/>
        </g>
        <g transform="matrix(32,0,0,32,299.871,122.503)">
            <path d="M0.167,-0L0.086,-0L0.086,-0.535L0.167,-0.535L0.167,-0ZM0.079,-0.68C0.079,-0.699 0.084,-0.712 0.093,-0.721C0.102,-0.73 0.113,-0.734 0.127,-0.734C0.14,-0.734 0.151,-0.729 0.161,-0.721C0.17,-0.712 0.175,-0.698 0.175,-0.68C0.175,-0.662 0.17,-0.648 0.161,-0.639C0.151,-0.63 0.14,-0.626 0.127,-0.626C0.113,-0.626 0.102,-0.63 0.093,-0.639C0.084,-0.648 0.079,-0.662 0.079,-0.68Z" style="fill:rgb(85,85,85);fill-rule:nonzero;"/>
        </g>
        <g transform="matrix(32,0,0,32,307.965,122.503)">
            <path d="M0.335,0.01C0.3,0.01 0.268,0.003 0.24,-0.01C0.211,-0.022 0.187,-0.042 0.167,-0.069L0.161,-0.069C0.165,-0.038 0.167,-0.008 0.167,0.02L0.167,0.24L0.086,0.24L0.086,-0.535L0.152,-0.535L0.163,-0.462L0.167,-0.462C0.188,-0.491 0.212,-0.512 0.24,-0.525C0.267,-0.538 0.299,-0.545 0.335,-0.545C0.406,-0.545 0.461,-0.521 0.499,-0.472C0.538,-0.424 0.557,-0.356 0.557,-0.268C0.557,-0.18 0.538,-0.112 0.498,-0.063C0.459,-0.015 0.405,0.01 0.335,0.01ZM0.323,-0.476C0.269,-0.476 0.229,-0.461 0.205,-0.431C0.18,-0.4 0.168,-0.352 0.167,-0.286L0.167,-0.268C0.167,-0.193 0.18,-0.139 0.205,-0.107C0.23,-0.074 0.27,-0.058 0.325,-0.058C0.371,-0.058 0.408,-0.077 0.434,-0.114C0.46,-0.152 0.473,-0.203 0.473,-0.269C0.473,-0.336 0.46,-0.387 0.434,-0.423C0.408,-0.458 0.371,-0.476 0.323,-0.476Z" style="fill:rgb(85,85,85);fill-rule:nonzero;"/>
        </g>
        <g transform="matrix(32,0,0,32,327.574,122.503)">
            <path d="M0.167,-0L0.086,-0L0.086,-0.535L0.167,-0.535L0.167,-0ZM0.079,-0.68C0.079,-0.699 0.084,-0.712 0.093,-0.721C0.102,-0.73 0.113,-0.734 0.127,-0.734C0.14,-0.734 0.151,-0.729 0.161,-0.721C0.17,-0.712 0.175,-0.698 0.175,-0.68C0.175,-0.662 0.17,-0.648 0.161,-0.639C0.151,-0.63 0.14,-0.626 0.127,-0.626C0.113,-0.626 0.102,-0.63 0.093,-0.639C0.084,-0.648 0.079,-0.662 0.079,-0.68Z" style="fill:rgb(85,85,85);fill-rule:nonzero;"/>
        </g>
        <g transform="matrix(32,0,0,32,335.668,122.503)">
            <path d="M0.431,-0.146C0.431,-0.096 0.413,-0.058 0.375,-0.031C0.338,-0.004 0.286,0.01 0.219,0.01C0.148,0.01 0.093,-0.001 0.053,-0.024L0.053,-0.099C0.079,-0.086 0.107,-0.076 0.136,-0.068C0.165,-0.061 0.194,-0.057 0.221,-0.057C0.264,-0.057 0.296,-0.064 0.319,-0.077C0.342,-0.091 0.353,-0.111 0.353,-0.139C0.353,-0.16 0.344,-0.178 0.326,-0.193C0.308,-0.207 0.273,-0.225 0.22,-0.245C0.17,-0.264 0.135,-0.28 0.114,-0.294C0.093,-0.308 0.077,-0.323 0.067,-0.341C0.057,-0.358 0.052,-0.379 0.052,-0.404C0.052,-0.447 0.069,-0.482 0.105,-0.507C0.14,-0.532 0.189,-0.545 0.251,-0.545C0.309,-0.545 0.365,-0.533 0.42,-0.51L0.391,-0.444C0.337,-0.466 0.289,-0.477 0.245,-0.477C0.207,-0.477 0.178,-0.471 0.158,-0.459C0.139,-0.447 0.129,-0.43 0.129,-0.409C0.129,-0.395 0.133,-0.383 0.14,-0.373C0.147,-0.362 0.159,-0.353 0.175,-0.344C0.192,-0.335 0.223,-0.321 0.269,-0.304C0.333,-0.281 0.375,-0.258 0.398,-0.234C0.42,-0.211 0.431,-0.181 0.431,-0.146Z" style="fill:rgb(85,85,85);fill-rule:nonzero;"/>
        </g>
        <g transform="matrix(32,0,0,32,350.933,122.503)">
            <path d="M0.3,0.01C0.222,0.01 0.162,-0.014 0.12,-0.062C0.077,-0.109 0.056,-0.177 0.056,-0.264C0.056,-0.354 0.078,-0.423 0.121,-0.472C0.164,-0.521 0.225,-0.545 0.305,-0.545C0.331,-0.545 0.357,-0.542 0.382,-0.537C0.408,-0.531 0.428,-0.525 0.443,-0.517L0.418,-0.448C0.4,-0.455 0.381,-0.461 0.359,-0.466C0.338,-0.471 0.319,-0.473 0.303,-0.473C0.194,-0.473 0.14,-0.404 0.14,-0.265C0.14,-0.199 0.153,-0.149 0.18,-0.114C0.206,-0.079 0.246,-0.061 0.298,-0.061C0.342,-0.061 0.388,-0.071 0.435,-0.09L0.435,-0.018C0.399,0 0.354,0.01 0.3,0.01Z" style="fill:rgb(85,85,85);fill-rule:nonzero;"/>
        </g>
        <g transform="matrix(32,0,0,32,366.168,122.503)">
            <path d="M0.167,-0L0.086,-0L0.086,-0.535L0.167,-0.535L0.167,-0ZM0.079,-0.68C0.079,-0.699 0.084,-0.712 0.093,-0.721C0.102,-0.73 0.113,-0.734 0.127,-0.734C0.14,-0.734 0.151,-0.729 0.161,-0.721C0.17,-0.712 0.175,-0.698 0.175,-0.68C0.175,-0.662 0.17,-0.648 0.161,-0.639C0.151,-0.63 0.14,-0.626 0.127,-0.626C0.113,-0.626 0.102,-0.63 0.093,-0.639C0.084,-0.648 0.079,-0.662 0.079,-0.68Z" style="fill:rgb(85,85,85);fill-rule:nonzero;"/>
        </g>
        <g transform="matrix(32,0,0,32,374.262,122.503)">
            <path d="M0.452,-0L0.452,-0.346C0.452,-0.39 0.442,-0.422 0.422,-0.444C0.403,-0.465 0.371,-0.476 0.329,-0.476C0.273,-0.476 0.232,-0.461 0.206,-0.431C0.18,-0.4 0.167,-0.35 0.167,-0.281L0.167,-0L0.086,-0L0.086,-0.535L0.152,-0.535L0.165,-0.462L0.169,-0.462C0.186,-0.488 0.209,-0.509 0.239,-0.523C0.269,-0.538 0.302,-0.545 0.339,-0.545C0.403,-0.545 0.452,-0.529 0.484,-0.498C0.517,-0.467 0.533,-0.417 0.533,-0.349L0.533,-0L0.452,-0Z" style="fill:rgb(85,85,85);fill-rule:nonzero;"/>
        </g>
        <g transform="matrix(32,0,0,32,393.902,122.503)">
            <path d="M0.524,-0.535L0.524,-0.484L0.425,-0.472C0.434,-0.461 0.442,-0.446 0.449,-0.427C0.456,-0.409 0.46,-0.388 0.46,-0.365C0.46,-0.313 0.442,-0.271 0.406,-0.24C0.37,-0.208 0.321,-0.193 0.259,-0.193C0.243,-0.193 0.228,-0.194 0.214,-0.197C0.179,-0.179 0.162,-0.156 0.162,-0.128C0.162,-0.113 0.168,-0.102 0.18,-0.095C0.192,-0.088 0.213,-0.085 0.242,-0.085L0.337,-0.085C0.395,-0.085 0.439,-0.073 0.47,-0.048C0.502,-0.024 0.517,0.012 0.517,0.058C0.517,0.117 0.493,0.163 0.446,0.194C0.398,0.225 0.329,0.24 0.238,0.24C0.168,0.24 0.114,0.227 0.076,0.201C0.038,0.175 0.019,0.138 0.019,0.091C0.019,0.058 0.029,0.03 0.05,0.006C0.071,-0.017 0.1,-0.034 0.138,-0.042C0.125,-0.048 0.113,-0.058 0.104,-0.071C0.094,-0.084 0.09,-0.099 0.09,-0.116C0.09,-0.136 0.095,-0.153 0.105,-0.167C0.116,-0.182 0.132,-0.196 0.155,-0.21C0.127,-0.221 0.105,-0.241 0.087,-0.268C0.07,-0.295 0.061,-0.327 0.061,-0.362C0.061,-0.42 0.079,-0.466 0.114,-0.497C0.149,-0.529 0.199,-0.545 0.263,-0.545C0.291,-0.545 0.316,-0.542 0.339,-0.535L0.524,-0.535ZM0.097,0.09C0.097,0.119 0.109,0.141 0.134,0.156C0.158,0.171 0.193,0.178 0.239,0.178C0.307,0.178 0.357,0.168 0.39,0.148C0.423,0.127 0.439,0.1 0.439,0.065C0.439,0.036 0.43,0.016 0.412,0.005C0.394,-0.007 0.361,-0.012 0.311,-0.012L0.214,-0.012C0.177,-0.012 0.148,-0.003 0.128,0.014C0.107,0.032 0.097,0.057 0.097,0.09ZM0.141,-0.364C0.141,-0.326 0.152,-0.298 0.173,-0.279C0.194,-0.26 0.223,-0.25 0.261,-0.25C0.34,-0.25 0.38,-0.288 0.38,-0.365C0.38,-0.446 0.34,-0.486 0.26,-0.486C0.222,-0.486 0.192,-0.476 0.172,-0.455C0.151,-0.435 0.141,-0.404 0.141,-0.364Z" style="fill:rgb(85,85,85);fill-rule:nonzero;"/>
        </g>
    </g>
    <g transform="matrix(3.84966,0,0,3.84966,-232.302,-148.769)">
        <g transform="matrix(12,0,0,12,62.0792,52.8367)">
            <path d="M0.685,-0.134C0.685,-0.107 0.674,-0.084 0.654,-0.065C0.634,-0.047 0.604,-0.033 0.564,-0.024C0.541,-0.019 0.509,-0.014 0.467,-0.011C0.426,-0.007 0.375,-0.005 0.316,-0.003C0.262,-0.002 0.217,0 0.182,0.003C0.148,0.006 0.123,0.011 0.108,0.017L0.137,-0.397L0.069,-0.403L0.074,-0.486L0.144,-0.489L0.15,-0.581L0.077,-0.586L0.082,-0.668L0.156,-0.666L0.162,-0.762L0.086,-0.771L0.087,-0.846L0.366,-0.826L0.228,-0.095L0.248,-0.096C0.261,-0.096 0.277,-0.096 0.295,-0.094C0.314,-0.093 0.335,-0.091 0.359,-0.089C0.385,-0.087 0.407,-0.085 0.425,-0.084C0.443,-0.083 0.458,-0.083 0.469,-0.083C0.521,-0.083 0.559,-0.09 0.585,-0.104C0.611,-0.119 0.624,-0.141 0.624,-0.17C0.624,-0.18 0.622,-0.19 0.62,-0.202C0.617,-0.213 0.613,-0.225 0.608,-0.238L0.645,-0.258C0.658,-0.234 0.668,-0.212 0.675,-0.191C0.681,-0.171 0.685,-0.152 0.685,-0.134ZM0.519,-0.333C0.519,-0.317 0.513,-0.302 0.501,-0.29C0.489,-0.278 0.474,-0.272 0.458,-0.272C0.441,-0.272 0.426,-0.278 0.414,-0.29C0.402,-0.302 0.396,-0.317 0.396,-0.333C0.396,-0.349 0.402,-0.363 0.415,-0.375C0.427,-0.387 0.441,-0.393 0.458,-0.393C0.474,-0.393 0.488,-0.387 0.5,-0.375C0.513,-0.363 0.519,-0.349 0.519,-0.333Z" style="fill:rgb(0,90,170);fill-rule:nonzero;"/>
        </g>
        <g transform="matrix(12,0,0,12,70.2882,52.8367)">
            <path d="M0.59,-0.262L0.528,-0.245C0.529,-0.239 0.53,-0.233 0.531,-0.226C0.531,-0.219 0.532,-0.211 0.532,-0.203C0.532,-0.192 0.531,-0.18 0.529,-0.169C0.528,-0.157 0.525,-0.146 0.522,-0.135L0.571,-0.112L0.546,-0.069L0.507,-0.096C0.495,-0.07 0.479,-0.048 0.46,-0.029C0.44,-0.011 0.417,0.003 0.39,0.014L0.404,0.073L0.359,0.084L0.35,0.026C0.34,0.028 0.332,0.029 0.325,0.03C0.317,0.031 0.311,0.031 0.306,0.031C0.286,0.031 0.267,0.029 0.248,0.024C0.23,0.019 0.212,0.011 0.194,0.001L0.158,0.057L0.12,0.035L0.161,-0.024C0.148,-0.035 0.136,-0.047 0.126,-0.06C0.116,-0.073 0.108,-0.088 0.101,-0.104L0.04,-0.085L0.031,-0.126L0.087,-0.138C0.084,-0.15 0.082,-0.162 0.081,-0.173C0.079,-0.184 0.079,-0.194 0.079,-0.203C0.079,-0.213 0.079,-0.223 0.08,-0.233C0.081,-0.243 0.083,-0.252 0.086,-0.26L0.031,-0.278L0.043,-0.32L0.099,-0.297C0.107,-0.316 0.117,-0.335 0.129,-0.351C0.142,-0.367 0.156,-0.381 0.173,-0.394L0.141,-0.445L0.178,-0.471L0.211,-0.416C0.226,-0.423 0.241,-0.429 0.257,-0.432C0.273,-0.436 0.289,-0.438 0.306,-0.438C0.323,-0.438 0.339,-0.436 0.354,-0.432C0.369,-0.429 0.384,-0.424 0.398,-0.417L0.423,-0.464L0.461,-0.443L0.435,-0.395C0.454,-0.381 0.471,-0.365 0.484,-0.347C0.498,-0.329 0.51,-0.308 0.519,-0.285L0.578,-0.312L0.59,-0.262ZM0.395,-0.203C0.395,-0.224 0.393,-0.243 0.389,-0.26C0.385,-0.277 0.379,-0.293 0.37,-0.307C0.36,-0.324 0.347,-0.337 0.333,-0.346C0.319,-0.355 0.302,-0.359 0.283,-0.359C0.264,-0.359 0.248,-0.355 0.233,-0.346C0.218,-0.337 0.206,-0.324 0.196,-0.307C0.187,-0.292 0.181,-0.277 0.177,-0.259C0.173,-0.242 0.171,-0.223 0.171,-0.203C0.171,-0.182 0.173,-0.163 0.177,-0.145C0.181,-0.128 0.187,-0.112 0.195,-0.098C0.205,-0.081 0.218,-0.068 0.233,-0.059C0.247,-0.051 0.264,-0.046 0.283,-0.046C0.302,-0.046 0.32,-0.051 0.334,-0.059C0.349,-0.068 0.361,-0.081 0.371,-0.098C0.378,-0.112 0.384,-0.128 0.389,-0.145C0.393,-0.163 0.395,-0.182 0.395,-0.203Z" style="fill:rgb(0,90,170);fill-rule:nonzero;"/>
        </g>
        <g transform="matrix(12,0,0,12,77.7355,52.8367)">
            <path d="M0.517,-0.378L0.47,-0.361L0.471,-0.337C0.471,-0.328 0.47,-0.32 0.468,-0.313C0.466,-0.306 0.464,-0.299 0.46,-0.293L0.502,-0.263L0.476,-0.237L0.439,-0.267C0.433,-0.262 0.427,-0.257 0.421,-0.253C0.414,-0.249 0.407,-0.245 0.398,-0.24L0.374,-0.275C0.379,-0.281 0.383,-0.288 0.385,-0.294C0.387,-0.301 0.389,-0.307 0.389,-0.314C0.389,-0.327 0.384,-0.337 0.375,-0.344C0.366,-0.351 0.352,-0.354 0.334,-0.354C0.314,-0.354 0.292,-0.343 0.27,-0.322C0.247,-0.3 0.223,-0.268 0.197,-0.225L0.205,0.044L0.037,0.019L0.113,-0.441L0.19,-0.457L0.194,-0.313C0.205,-0.327 0.215,-0.34 0.225,-0.352C0.234,-0.363 0.244,-0.373 0.253,-0.381L0.232,-0.429L0.265,-0.446L0.283,-0.405C0.294,-0.412 0.306,-0.418 0.318,-0.423C0.33,-0.427 0.342,-0.431 0.354,-0.433L0.355,-0.481L0.391,-0.478L0.384,-0.434C0.402,-0.433 0.418,-0.428 0.431,-0.421C0.443,-0.414 0.453,-0.404 0.46,-0.39L0.505,-0.414L0.517,-0.378ZM0.167,-0.178C0.167,-0.189 0.164,-0.196 0.159,-0.202C0.154,-0.207 0.146,-0.21 0.135,-0.21C0.124,-0.21 0.117,-0.207 0.112,-0.202C0.106,-0.196 0.104,-0.189 0.104,-0.178C0.104,-0.168 0.106,-0.16 0.112,-0.155C0.117,-0.15 0.124,-0.148 0.135,-0.148C0.146,-0.148 0.154,-0.15 0.159,-0.155C0.164,-0.16 0.167,-0.168 0.167,-0.178ZM0.164,-0.059C0.164,-0.07 0.16,-0.08 0.153,-0.088C0.145,-0.096 0.136,-0.1 0.125,-0.1C0.114,-0.1 0.105,-0.096 0.097,-0.088C0.089,-0.08 0.085,-0.07 0.085,-0.059C0.085,-0.045 0.088,-0.036 0.095,-0.029C0.101,-0.023 0.111,-0.019 0.125,-0.019C0.138,-0.019 0.148,-0.023 0.155,-0.029C0.161,-0.036 0.164,-0.045 0.164,-0.059Z" style="fill:rgb(0,90,170);fill-rule:nonzero;"/>
        </g>
        <g transform="matrix(12,0,0,12,83.9406,52.8367)">
            <path d="M0.566,-0.037C0.558,-0.029 0.55,-0.022 0.544,-0.015C0.537,-0.009 0.532,-0.004 0.527,0L0.563,0.055L0.529,0.075L0.492,0.029C0.479,0.037 0.465,0.043 0.451,0.049C0.436,0.054 0.42,0.058 0.404,0.06L0.403,0.117L0.359,0.114L0.363,0.061C0.348,0.061 0.332,0.059 0.315,0.056C0.298,0.053 0.28,0.049 0.262,0.042L0.234,0.101L0.19,0.077L0.22,0.022C0.204,0.014 0.19,0.003 0.177,-0.008C0.163,-0.02 0.152,-0.033 0.142,-0.047L0.089,-0.014L0.067,-0.049L0.125,-0.079C0.117,-0.094 0.111,-0.11 0.107,-0.127C0.103,-0.143 0.1,-0.16 0.099,-0.177L0.046,-0.164L0.031,-0.207L0.099,-0.222C0.1,-0.24 0.103,-0.257 0.107,-0.271C0.111,-0.286 0.116,-0.299 0.122,-0.311L0.075,-0.339L0.097,-0.376L0.144,-0.344C0.152,-0.354 0.161,-0.363 0.17,-0.371C0.18,-0.379 0.19,-0.386 0.201,-0.393L0.161,-0.451L0.205,-0.472L0.237,-0.41C0.247,-0.413 0.257,-0.416 0.265,-0.418C0.274,-0.42 0.281,-0.421 0.288,-0.422L0.301,-0.486L0.335,-0.476L0.327,-0.425C0.34,-0.425 0.352,-0.423 0.364,-0.42C0.375,-0.417 0.387,-0.412 0.397,-0.405L0.446,-0.453L0.473,-0.43L0.427,-0.38C0.434,-0.373 0.441,-0.365 0.447,-0.356C0.453,-0.346 0.459,-0.335 0.464,-0.324L0.521,-0.343L0.531,-0.306L0.476,-0.287C0.478,-0.28 0.48,-0.272 0.482,-0.264C0.484,-0.255 0.486,-0.246 0.487,-0.237L0.26,-0.197L0.26,-0.192C0.26,-0.168 0.263,-0.146 0.268,-0.125C0.273,-0.104 0.281,-0.084 0.291,-0.065C0.303,-0.042 0.318,-0.026 0.335,-0.014C0.353,-0.003 0.372,0.002 0.393,0.002C0.416,0.002 0.439,-0.003 0.463,-0.015C0.488,-0.027 0.513,-0.045 0.541,-0.069L0.566,-0.037ZM0.366,-0.277C0.365,-0.291 0.36,-0.302 0.35,-0.309C0.341,-0.316 0.328,-0.32 0.311,-0.32C0.289,-0.32 0.27,-0.313 0.251,-0.301C0.233,-0.288 0.221,-0.272 0.214,-0.252L0.366,-0.277Z" style="fill:rgb(0,90,170);fill-rule:nonzero;"/>
        </g>
        <g transform="matrix(12,0,0,12,91.1007,52.8367)">
            <path d="M0.761,-0.002L0.562,0.02L0.566,-0.226C0.567,-0.26 0.563,-0.287 0.555,-0.304C0.548,-0.322 0.536,-0.331 0.521,-0.331C0.512,-0.331 0.502,-0.325 0.492,-0.313C0.483,-0.302 0.473,-0.284 0.462,-0.261C0.455,-0.246 0.449,-0.23 0.444,-0.214C0.439,-0.198 0.434,-0.182 0.43,-0.166L0.42,-0.248C0.417,-0.265 0.414,-0.28 0.409,-0.293C0.405,-0.306 0.399,-0.317 0.393,-0.326C0.385,-0.337 0.375,-0.346 0.363,-0.352C0.352,-0.357 0.338,-0.36 0.322,-0.36C0.3,-0.36 0.28,-0.352 0.262,-0.334C0.244,-0.317 0.228,-0.291 0.215,-0.257L0.22,0.002L0.044,-0.01L0.104,-0.482L0.206,-0.466L0.21,-0.366C0.23,-0.391 0.251,-0.41 0.272,-0.422C0.294,-0.435 0.317,-0.441 0.34,-0.441C0.363,-0.441 0.383,-0.437 0.401,-0.428C0.418,-0.419 0.433,-0.406 0.446,-0.388C0.464,-0.408 0.482,-0.422 0.501,-0.432C0.52,-0.442 0.538,-0.447 0.557,-0.447C0.577,-0.447 0.597,-0.442 0.614,-0.43C0.632,-0.419 0.648,-0.403 0.663,-0.38C0.674,-0.364 0.683,-0.345 0.691,-0.325C0.699,-0.304 0.706,-0.282 0.711,-0.258L0.649,-0.24L0.657,-0.202L0.72,-0.215L0.725,-0.173L0.663,-0.163L0.672,-0.121L0.737,-0.132L0.745,-0.089L0.675,-0.086L0.682,-0.042L0.751,-0.049L0.761,-0.002ZM0.491,-0.074C0.491,-0.057 0.485,-0.041 0.473,-0.029C0.461,-0.017 0.446,-0.01 0.427,-0.01C0.41,-0.01 0.394,-0.017 0.382,-0.029C0.369,-0.041 0.363,-0.057 0.363,-0.074C0.363,-0.092 0.369,-0.108 0.382,-0.12C0.394,-0.132 0.41,-0.138 0.427,-0.138C0.446,-0.138 0.461,-0.132 0.473,-0.12C0.485,-0.108 0.491,-0.092 0.491,-0.074Z" style="fill:rgb(0,90,170);fill-rule:nonzero;"/>
        </g>
        <g transform="matrix(12,0,0,12,103.675,52.8367)">
            <path d="M0.328,-0.782C0.306,-0.697 0.287,-0.623 0.272,-0.56C0.257,-0.497 0.245,-0.446 0.238,-0.406C0.226,-0.343 0.217,-0.279 0.211,-0.214C0.204,-0.149 0.201,-0.084 0.2,-0.019L0.083,-0.006C0.081,-0.038 0.078,-0.072 0.077,-0.106C0.075,-0.14 0.075,-0.175 0.075,-0.211C0.075,-0.301 0.079,-0.397 0.088,-0.498C0.097,-0.599 0.111,-0.705 0.129,-0.816L0.328,-0.782ZM0.252,-0.676L0.234,-0.698C0.212,-0.662 0.191,-0.622 0.173,-0.578C0.154,-0.535 0.138,-0.488 0.124,-0.438L0.168,-0.419C0.176,-0.464 0.187,-0.508 0.201,-0.551C0.215,-0.594 0.232,-0.635 0.252,-0.676Z" style="fill:rgb(0,90,170);fill-rule:nonzero;"/>
        </g>
        <g transform="matrix(12,0,0,12,107.612,52.8367)">
            <path d="M0.567,-0.223C0.567,-0.193 0.562,-0.164 0.553,-0.139C0.545,-0.113 0.531,-0.09 0.514,-0.068C0.495,-0.046 0.473,-0.028 0.449,-0.017C0.425,-0.006 0.398,-0 0.368,-0C0.343,-0 0.32,-0.003 0.3,-0.009C0.28,-0.015 0.262,-0.024 0.247,-0.037C0.231,-0.05 0.219,-0.066 0.21,-0.084C0.202,-0.103 0.198,-0.125 0.198,-0.15C0.198,-0.194 0.21,-0.23 0.234,-0.258C0.258,-0.285 0.292,-0.299 0.335,-0.299C0.363,-0.299 0.386,-0.291 0.404,-0.273C0.422,-0.256 0.431,-0.233 0.431,-0.206C0.431,-0.195 0.43,-0.186 0.427,-0.177C0.425,-0.169 0.421,-0.161 0.416,-0.154C0.41,-0.145 0.404,-0.139 0.396,-0.135C0.388,-0.132 0.379,-0.13 0.369,-0.13C0.362,-0.13 0.355,-0.131 0.348,-0.133C0.342,-0.135 0.335,-0.138 0.329,-0.142C0.342,-0.143 0.353,-0.148 0.362,-0.157C0.371,-0.167 0.375,-0.178 0.375,-0.19C0.375,-0.205 0.371,-0.217 0.364,-0.224C0.356,-0.232 0.344,-0.235 0.329,-0.235C0.319,-0.235 0.31,-0.233 0.302,-0.228C0.294,-0.223 0.287,-0.216 0.281,-0.206C0.277,-0.198 0.273,-0.19 0.271,-0.18C0.268,-0.17 0.267,-0.16 0.267,-0.15C0.267,-0.123 0.276,-0.1 0.294,-0.082C0.313,-0.064 0.335,-0.055 0.363,-0.055C0.381,-0.055 0.397,-0.059 0.411,-0.066C0.425,-0.074 0.438,-0.086 0.448,-0.102C0.458,-0.116 0.465,-0.131 0.47,-0.147C0.475,-0.163 0.477,-0.181 0.477,-0.2C0.477,-0.244 0.464,-0.28 0.437,-0.307C0.411,-0.334 0.375,-0.348 0.331,-0.348C0.304,-0.348 0.28,-0.342 0.26,-0.331C0.239,-0.32 0.222,-0.304 0.208,-0.282C0.195,-0.264 0.186,-0.243 0.18,-0.219C0.174,-0.195 0.171,-0.169 0.171,-0.14C0.171,-0.138 0.172,-0.12 0.173,-0.086C0.174,-0.052 0.176,-0.002 0.177,0.064L0.125,0.072L0.124,0.102L0.178,0.099L0.178,0.135L0.122,0.141L0.125,0.177L0.178,0.169L0.18,0.202L0.122,0.211L0.121,0.247L0.18,0.236L0.181,0.275L0.012,0.319L0.096,-0.452L0.171,-0.441L0.18,-0.322C0.199,-0.357 0.226,-0.384 0.262,-0.404C0.297,-0.424 0.335,-0.434 0.375,-0.434C0.405,-0.434 0.432,-0.428 0.456,-0.418C0.479,-0.408 0.5,-0.393 0.517,-0.373C0.534,-0.353 0.546,-0.331 0.554,-0.306C0.563,-0.281 0.567,-0.254 0.567,-0.223Z" style="fill:rgb(0,90,170);fill-rule:nonzero;"/>
        </g>
        <g transform="matrix(12,0,0,12,114.943,52.8367)">
            <path d="M0.396,-0.375C0.396,-0.348 0.39,-0.328 0.378,-0.315C0.367,-0.302 0.349,-0.295 0.326,-0.295C0.305,-0.295 0.289,-0.299 0.278,-0.307C0.268,-0.315 0.262,-0.327 0.262,-0.343C0.262,-0.351 0.264,-0.358 0.269,-0.365C0.273,-0.371 0.279,-0.376 0.288,-0.381L0.302,-0.37C0.299,-0.368 0.298,-0.365 0.296,-0.363C0.295,-0.36 0.294,-0.358 0.294,-0.356C0.294,-0.349 0.296,-0.345 0.3,-0.342C0.304,-0.338 0.31,-0.337 0.317,-0.337C0.328,-0.337 0.335,-0.339 0.34,-0.344C0.345,-0.349 0.348,-0.357 0.348,-0.368C0.348,-0.376 0.345,-0.384 0.341,-0.391C0.337,-0.398 0.33,-0.403 0.321,-0.408C0.315,-0.412 0.307,-0.415 0.299,-0.417C0.29,-0.419 0.281,-0.42 0.272,-0.42C0.259,-0.42 0.248,-0.418 0.238,-0.415C0.228,-0.412 0.219,-0.408 0.21,-0.401C0.201,-0.395 0.194,-0.387 0.189,-0.377C0.184,-0.368 0.182,-0.357 0.182,-0.345C0.182,-0.334 0.187,-0.323 0.195,-0.312C0.204,-0.301 0.217,-0.29 0.234,-0.28C0.264,-0.26 0.288,-0.245 0.304,-0.235C0.32,-0.225 0.329,-0.219 0.33,-0.219C0.347,-0.204 0.36,-0.188 0.369,-0.171C0.377,-0.154 0.381,-0.135 0.381,-0.115C0.381,-0.087 0.376,-0.062 0.366,-0.04C0.356,-0.018 0.34,0.001 0.319,0.018C0.3,0.033 0.278,0.044 0.254,0.052C0.23,0.06 0.204,0.063 0.176,0.063C0.157,0.063 0.14,0.061 0.123,0.057C0.106,0.053 0.089,0.046 0.073,0.037C0.057,0.028 0.043,0.018 0.031,0.005C0.018,-0.008 0.008,-0.022 0,-0.038L0.036,-0.072C0.051,-0.044 0.07,-0.023 0.091,-0.01C0.113,0.004 0.138,0.011 0.167,0.011C0.192,0.011 0.213,0.003 0.23,-0.012C0.246,-0.027 0.254,-0.047 0.254,-0.073C0.254,-0.089 0.251,-0.105 0.243,-0.12C0.236,-0.136 0.225,-0.151 0.21,-0.165C0.196,-0.177 0.182,-0.189 0.168,-0.201C0.154,-0.213 0.14,-0.226 0.126,-0.238C0.112,-0.253 0.101,-0.268 0.093,-0.284C0.086,-0.301 0.082,-0.318 0.082,-0.336C0.082,-0.357 0.087,-0.377 0.096,-0.394C0.106,-0.411 0.12,-0.427 0.138,-0.44C0.154,-0.451 0.172,-0.459 0.191,-0.464C0.211,-0.47 0.232,-0.472 0.256,-0.472C0.275,-0.472 0.292,-0.47 0.308,-0.467C0.323,-0.464 0.337,-0.459 0.349,-0.452C0.365,-0.444 0.377,-0.433 0.385,-0.42C0.392,-0.407 0.396,-0.392 0.396,-0.375ZM0.135,-0.154C0.135,-0.137 0.129,-0.123 0.117,-0.111C0.105,-0.1 0.091,-0.094 0.075,-0.094C0.059,-0.094 0.045,-0.1 0.033,-0.112C0.021,-0.123 0.015,-0.137 0.015,-0.154C0.015,-0.17 0.021,-0.184 0.033,-0.196C0.045,-0.207 0.059,-0.213 0.075,-0.213C0.091,-0.213 0.105,-0.207 0.117,-0.196C0.129,-0.184 0.135,-0.17 0.135,-0.154Z" style="fill:rgb(0,90,170);fill-rule:nonzero;"/>
        </g>
        <g transform="matrix(12,0,0,12,120.222,52.8367)">
            <path d="M0.371,-0.386C0.353,-0.349 0.338,-0.311 0.325,-0.272C0.313,-0.234 0.303,-0.195 0.297,-0.156L0.257,-0.173C0.27,-0.218 0.285,-0.26 0.302,-0.3C0.318,-0.339 0.337,-0.375 0.357,-0.408L0.371,-0.386ZM0.548,0.031L0.386,0.01L0.4,-0.105C0.375,-0.068 0.349,-0.041 0.321,-0.023C0.293,-0.006 0.264,0.003 0.232,0.003C0.193,0.003 0.161,-0.011 0.136,-0.04C0.111,-0.069 0.092,-0.113 0.081,-0.171L0.12,-0.181L0.117,-0.215L0.075,-0.203L0.066,-0.248L0.109,-0.26L0.107,-0.292L0.06,-0.282L0.05,-0.33L0.1,-0.341L0.095,-0.375L0.044,-0.365L0.037,-0.403L0.223,-0.435C0.222,-0.355 0.22,-0.294 0.219,-0.252C0.219,-0.211 0.218,-0.189 0.218,-0.188C0.218,-0.149 0.223,-0.12 0.233,-0.101C0.243,-0.082 0.257,-0.072 0.277,-0.072C0.298,-0.072 0.319,-0.082 0.342,-0.103C0.364,-0.123 0.387,-0.153 0.411,-0.193L0.438,-0.421L0.527,-0.426L0.548,0.031Z" style="fill:rgb(0,90,170);fill-rule:nonzero;"/>
        </g>
        <g transform="matrix(12,0,0,12,127.769,52.8367)">
            <path d="M0.761,-0.002L0.562,0.02L0.566,-0.226C0.567,-0.26 0.563,-0.287 0.555,-0.304C0.548,-0.322 0.536,-0.331 0.521,-0.331C0.512,-0.331 0.502,-0.325 0.492,-0.313C0.483,-0.302 0.473,-0.284 0.462,-0.261C0.455,-0.246 0.449,-0.23 0.444,-0.214C0.439,-0.198 0.434,-0.182 0.43,-0.166L0.42,-0.248C0.417,-0.265 0.414,-0.28 0.409,-0.293C0.405,-0.306 0.399,-0.317 0.393,-0.326C0.385,-0.337 0.375,-0.346 0.363,-0.352C0.352,-0.357 0.338,-0.36 0.322,-0.36C0.3,-0.36 0.28,-0.352 0.262,-0.334C0.244,-0.317 0.228,-0.291 0.215,-0.257L0.22,0.002L0.044,-0.01L0.104,-0.482L0.206,-0.466L0.21,-0.366C0.23,-0.391 0.251,-0.41 0.272,-0.422C0.294,-0.435 0.317,-0.441 0.34,-0.441C0.363,-0.441 0.383,-0.437 0.401,-0.428C0.418,-0.419 0.433,-0.406 0.446,-0.388C0.464,-0.408 0.482,-0.422 0.501,-0.432C0.52,-0.442 0.538,-0.447 0.557,-0.447C0.577,-0.447 0.597,-0.442 0.614,-0.43C0.632,-0.419 0.648,-0.403 0.663,-0.38C0.674,-0.364 0.683,-0.345 0.691,-0.325C0.699,-0.304 0.706,-0.282 0.711,-0.258L0.649,-0.24L0.657,-0.202L0.72,-0.215L0.725,-0.173L0.663,-0.163L0.672,-0.121L0.737,-0.132L0.745,-0.089L0.675,-0.086L0.682,-0.042L0.751,-0.049L0.761,-0.002ZM0.491,-0.074C0.491,-0.057 0.485,-0.041 0.473,-0.029C0.461,-0.017 0.446,-0.01 0.427,-0.01C0.41,-0.01 0.394,-0.017 0.382,-0.029C0.369,-0.041 0.363,-0.057 0.363,-0.074C0.363,-0.092 0.369,-0.108 0.382,-0.12C0.394,-0.132 0.41,-0.138 0.427,-0.138C0.446,-0.138 0.461,-0.132 0.473,-0.12C0.485,-0.108 0.491,-0.092 0.491,-0.074Z" style="fill:rgb(0,90,170);fill-rule:nonzero;"/>
        </g>
    </g>
</svg>
