<?xml version="1.0" encoding="UTF-8" standalone="no"?>
<!DOCTYPE svg PUBLIC "-//W3C//DTD SVG 1.1//EN" "http://www.w3.org/Graphics/SVG/1.1/DTD/svg11.dtd">
<svg width="100%" height="100%" viewBox="0 0 336 144" version="1.1" xmlns="http://www.w3.org/2000/svg" xmlns:xlink="http://www.w3.org/1999/xlink" xml:space="preserve" xmlns:serif="http://www.serif.com/" style="fill-rule:evenodd;clip-rule:evenodd;stroke-linejoin:round;stroke-miterlimit:2;">
    <g transform="matrix(0.965147,0,0,0.965147,-69.5436,2.30695)">
        <g transform="matrix(32,0,0,32,78.2459,90.5034)">
            <path d="M0.098,-0L0.098,-0.714L0.181,-0.714L0.181,-0.075L0.496,-0.075L0.496,-0L0.098,-0Z" style="fill:rgb(85,85,85);fill-rule:nonzero;"/>
        </g>
        <g transform="matrix(32,0,0,32,94.8553,90.5034)">
            <path d="M0.548,-0.268C0.548,-0.181 0.526,-0.113 0.482,-0.064C0.438,-0.015 0.377,0.01 0.3,0.01C0.252,0.01 0.209,-0.001 0.172,-0.024C0.135,-0.046 0.107,-0.079 0.086,-0.121C0.066,-0.163 0.056,-0.212 0.056,-0.268C0.056,-0.355 0.078,-0.423 0.122,-0.472C0.165,-0.521 0.226,-0.545 0.303,-0.545C0.378,-0.545 0.438,-0.52 0.482,-0.47C0.526,-0.42 0.548,-0.353 0.548,-0.268ZM0.14,-0.268C0.14,-0.2 0.154,-0.148 0.181,-0.112C0.208,-0.076 0.249,-0.058 0.302,-0.058C0.355,-0.058 0.395,-0.076 0.423,-0.112C0.45,-0.147 0.464,-0.199 0.464,-0.268C0.464,-0.336 0.45,-0.388 0.423,-0.423C0.395,-0.458 0.354,-0.476 0.301,-0.476C0.248,-0.476 0.208,-0.459 0.181,-0.424C0.154,-0.389 0.14,-0.337 0.14,-0.268Z" style="fill:rgb(85,85,85);fill-rule:nonzero;"/>
        </g>
        <g transform="matrix(32,0,0,32,114.183,90.5034)">
            <path d="M0.33,-0.545C0.354,-0.545 0.375,-0.543 0.394,-0.539L0.383,-0.464C0.361,-0.469 0.341,-0.471 0.324,-0.471C0.281,-0.471 0.244,-0.454 0.213,-0.418C0.182,-0.383 0.167,-0.34 0.167,-0.287L0.167,-0L0.086,-0L0.086,-0.535L0.153,-0.535L0.162,-0.436L0.166,-0.436C0.186,-0.471 0.21,-0.498 0.238,-0.517C0.266,-0.535 0.297,-0.545 0.33,-0.545Z" style="fill:rgb(85,85,85);fill-rule:nonzero;"/>
        </g>
        <g transform="matrix(32,0,0,32,127.246,90.5034)">
            <path d="M0.312,0.01C0.233,0.01 0.17,-0.014 0.125,-0.063C0.079,-0.111 0.056,-0.178 0.056,-0.263C0.056,-0.349 0.077,-0.418 0.12,-0.469C0.162,-0.52 0.219,-0.545 0.291,-0.545C0.358,-0.545 0.411,-0.523 0.45,-0.479C0.489,-0.435 0.509,-0.376 0.509,-0.304L0.509,-0.253L0.14,-0.253C0.142,-0.19 0.158,-0.142 0.188,-0.11C0.218,-0.077 0.26,-0.061 0.315,-0.061C0.373,-0.061 0.43,-0.073 0.486,-0.097L0.486,-0.025C0.457,-0.013 0.43,-0.004 0.405,0.002C0.379,0.007 0.348,0.01 0.312,0.01ZM0.29,-0.477C0.247,-0.477 0.213,-0.463 0.187,-0.435C0.162,-0.407 0.147,-0.368 0.142,-0.319L0.422,-0.319C0.422,-0.37 0.41,-0.409 0.388,-0.436C0.365,-0.463 0.332,-0.477 0.29,-0.477Z" style="fill:rgb(85,85,85);fill-rule:nonzero;"/>
        </g>
        <g transform="matrix(32,0,0,32,145.199,90.5034)">
            <path d="M0.768,-0L0.768,-0.348C0.768,-0.391 0.759,-0.423 0.741,-0.444C0.722,-0.465 0.694,-0.476 0.656,-0.476C0.605,-0.476 0.568,-0.462 0.544,-0.433C0.52,-0.404 0.508,-0.359 0.508,-0.299L0.508,-0L0.427,-0L0.427,-0.348C0.427,-0.391 0.418,-0.423 0.399,-0.444C0.381,-0.465 0.353,-0.476 0.314,-0.476C0.263,-0.476 0.226,-0.461 0.202,-0.43C0.179,-0.4 0.167,-0.35 0.167,-0.281L0.167,-0L0.086,-0L0.086,-0.535L0.152,-0.535L0.165,-0.462L0.169,-0.462C0.184,-0.488 0.206,-0.508 0.234,-0.523C0.261,-0.538 0.293,-0.545 0.327,-0.545C0.411,-0.545 0.465,-0.515 0.491,-0.454L0.495,-0.454C0.511,-0.482 0.534,-0.504 0.564,-0.521C0.595,-0.537 0.629,-0.545 0.668,-0.545C0.729,-0.545 0.774,-0.529 0.804,-0.498C0.834,-0.467 0.849,-0.417 0.849,-0.349L0.849,-0L0.768,-0Z" style="fill:rgb(85,85,85);fill-rule:nonzero;"/>
        </g>
        <g transform="matrix(32,0,0,32,183.277,90.5034)">
            <path d="M0.167,-0L0.086,-0L0.086,-0.535L0.167,-0.535L0.167,-0ZM0.079,-0.68C0.079,-0.699 0.084,-0.712 0.093,-0.721C0.102,-0.73 0.113,-0.734 0.127,-0.734C0.14,-0.734 0.151,-0.729 0.161,-0.721C0.17,-0.712 0.175,-0.698 0.175,-0.68C0.175,-0.662 0.17,-0.648 0.161,-0.639C0.151,-0.63 0.14,-0.626 0.127,-0.626C0.113,-0.626 0.102,-0.63 0.093,-0.639C0.084,-0.648 0.079,-0.662 0.079,-0.68Z" style="fill:rgb(85,85,85);fill-rule:nonzero;"/>
        </g>
        <g transform="matrix(32,0,0,32,191.371,90.5034)">
            <path d="M0.335,0.01C0.3,0.01 0.268,0.003 0.24,-0.01C0.211,-0.022 0.187,-0.042 0.167,-0.069L0.161,-0.069C0.165,-0.038 0.167,-0.008 0.167,0.02L0.167,0.24L0.086,0.24L0.086,-0.535L0.152,-0.535L0.163,-0.462L0.167,-0.462C0.188,-0.491 0.212,-0.512 0.24,-0.525C0.267,-0.538 0.299,-0.545 0.335,-0.545C0.406,-0.545 0.461,-0.521 0.499,-0.472C0.538,-0.424 0.557,-0.356 0.557,-0.268C0.557,-0.18 0.538,-0.112 0.498,-0.063C0.459,-0.015 0.405,0.01 0.335,0.01ZM0.323,-0.476C0.269,-0.476 0.229,-0.461 0.205,-0.431C0.18,-0.4 0.168,-0.352 0.167,-0.286L0.167,-0.268C0.167,-0.193 0.18,-0.139 0.205,-0.107C0.23,-0.074 0.27,-0.058 0.325,-0.058C0.371,-0.058 0.408,-0.077 0.434,-0.114C0.46,-0.152 0.473,-0.203 0.473,-0.269C0.473,-0.336 0.46,-0.387 0.434,-0.423C0.408,-0.458 0.371,-0.476 0.323,-0.476Z" style="fill:rgb(85,85,85);fill-rule:nonzero;"/>
        </g>
        <g transform="matrix(32,0,0,32,210.98,90.5034)">
            <path d="M0.431,-0.146C0.431,-0.096 0.413,-0.058 0.375,-0.031C0.338,-0.004 0.286,0.01 0.219,0.01C0.148,0.01 0.093,-0.001 0.053,-0.024L0.053,-0.099C0.079,-0.086 0.107,-0.076 0.136,-0.068C0.165,-0.061 0.194,-0.057 0.221,-0.057C0.264,-0.057 0.296,-0.064 0.319,-0.077C0.342,-0.091 0.353,-0.111 0.353,-0.139C0.353,-0.16 0.344,-0.178 0.326,-0.193C0.308,-0.207 0.273,-0.225 0.22,-0.245C0.17,-0.264 0.135,-0.28 0.114,-0.294C0.093,-0.308 0.077,-0.323 0.067,-0.341C0.057,-0.358 0.052,-0.379 0.052,-0.404C0.052,-0.447 0.069,-0.482 0.105,-0.507C0.14,-0.532 0.189,-0.545 0.251,-0.545C0.309,-0.545 0.365,-0.533 0.42,-0.51L0.391,-0.444C0.337,-0.466 0.289,-0.477 0.245,-0.477C0.207,-0.477 0.178,-0.471 0.158,-0.459C0.139,-0.447 0.129,-0.43 0.129,-0.409C0.129,-0.395 0.133,-0.383 0.14,-0.373C0.147,-0.362 0.159,-0.353 0.175,-0.344C0.192,-0.335 0.223,-0.321 0.269,-0.304C0.333,-0.281 0.375,-0.258 0.398,-0.234C0.42,-0.211 0.431,-0.181 0.431,-0.146Z" style="fill:rgb(85,85,85);fill-rule:nonzero;"/>
        </g>
        <g transform="matrix(32,0,0,32,226.246,90.5034)">
            <path d="M0.162,-0.535L0.162,-0.188C0.162,-0.144 0.172,-0.112 0.192,-0.09C0.212,-0.069 0.243,-0.058 0.285,-0.058C0.341,-0.058 0.382,-0.073 0.408,-0.104C0.434,-0.135 0.447,-0.185 0.447,-0.254L0.447,-0.535L0.528,-0.535L0.528,-0L0.461,-0L0.449,-0.072L0.445,-0.072C0.428,-0.045 0.405,-0.025 0.376,-0.011C0.346,0.003 0.313,0.01 0.275,0.01C0.21,0.01 0.161,-0.006 0.129,-0.037C0.096,-0.068 0.08,-0.117 0.08,-0.185L0.08,-0.535L0.162,-0.535Z" style="fill:rgb(85,85,85);fill-rule:nonzero;"/>
        </g>
        <g transform="matrix(32,0,0,32,245.887,90.5034)">
            <path d="M0.768,-0L0.768,-0.348C0.768,-0.391 0.759,-0.423 0.741,-0.444C0.722,-0.465 0.694,-0.476 0.656,-0.476C0.605,-0.476 0.568,-0.462 0.544,-0.433C0.52,-0.404 0.508,-0.359 0.508,-0.299L0.508,-0L0.427,-0L0.427,-0.348C0.427,-0.391 0.418,-0.423 0.399,-0.444C0.381,-0.465 0.353,-0.476 0.314,-0.476C0.263,-0.476 0.226,-0.461 0.202,-0.43C0.179,-0.4 0.167,-0.35 0.167,-0.281L0.167,-0L0.086,-0L0.086,-0.535L0.152,-0.535L0.165,-0.462L0.169,-0.462C0.184,-0.488 0.206,-0.508 0.234,-0.523C0.261,-0.538 0.293,-0.545 0.327,-0.545C0.411,-0.545 0.465,-0.515 0.491,-0.454L0.495,-0.454C0.511,-0.482 0.534,-0.504 0.564,-0.521C0.595,-0.537 0.629,-0.545 0.668,-0.545C0.729,-0.545 0.774,-0.529 0.804,-0.498C0.834,-0.467 0.849,-0.417 0.849,-0.349L0.849,-0L0.768,-0Z" style="fill:rgb(85,85,85);fill-rule:nonzero;"/>
        </g>
        <g transform="matrix(32,0,0,32,283.965,90.5034)">
            <path d="M0.45,-0.072L0.446,-0.072C0.408,-0.017 0.352,0.01 0.278,0.01C0.208,0.01 0.153,-0.014 0.115,-0.062C0.076,-0.11 0.056,-0.178 0.056,-0.266C0.056,-0.354 0.076,-0.423 0.115,-0.472C0.154,-0.521 0.208,-0.545 0.278,-0.545C0.35,-0.545 0.406,-0.519 0.445,-0.466L0.451,-0.466L0.448,-0.504L0.446,-0.542L0.446,-0.76L0.527,-0.76L0.527,-0L0.461,-0L0.45,-0.072ZM0.288,-0.058C0.343,-0.058 0.384,-0.073 0.408,-0.103C0.433,-0.133 0.446,-0.182 0.446,-0.249L0.446,-0.266C0.446,-0.342 0.433,-0.396 0.408,-0.428C0.383,-0.461 0.342,-0.477 0.287,-0.477C0.24,-0.477 0.203,-0.459 0.178,-0.422C0.153,-0.385 0.14,-0.333 0.14,-0.265C0.14,-0.197 0.153,-0.145 0.178,-0.11C0.203,-0.076 0.24,-0.058 0.288,-0.058Z" style="fill:rgb(85,85,85);fill-rule:nonzero;"/>
        </g>
        <g transform="matrix(32,0,0,32,303.574,90.5034)">
            <path d="M0.548,-0.268C0.548,-0.181 0.526,-0.113 0.482,-0.064C0.438,-0.015 0.377,0.01 0.3,0.01C0.252,0.01 0.209,-0.001 0.172,-0.024C0.135,-0.046 0.107,-0.079 0.086,-0.121C0.066,-0.163 0.056,-0.212 0.056,-0.268C0.056,-0.355 0.078,-0.423 0.122,-0.472C0.165,-0.521 0.226,-0.545 0.303,-0.545C0.378,-0.545 0.438,-0.52 0.482,-0.47C0.526,-0.42 0.548,-0.353 0.548,-0.268ZM0.14,-0.268C0.14,-0.2 0.154,-0.148 0.181,-0.112C0.208,-0.076 0.249,-0.058 0.302,-0.058C0.355,-0.058 0.395,-0.076 0.423,-0.112C0.45,-0.147 0.464,-0.199 0.464,-0.268C0.464,-0.336 0.45,-0.388 0.423,-0.423C0.395,-0.458 0.354,-0.476 0.301,-0.476C0.248,-0.476 0.208,-0.459 0.181,-0.424C0.154,-0.389 0.14,-0.337 0.14,-0.268Z" style="fill:rgb(85,85,85);fill-rule:nonzero;"/>
        </g>
        <g transform="matrix(32,0,0,32,322.902,90.5034)">
            <rect x="0.086" y="-0.76" width="0.081" height="0.76" style="fill:rgb(85,85,85);fill-rule:nonzero;"/>
        </g>
        <g transform="matrix(32,0,0,32,330.996,90.5034)">
            <path d="M0.548,-0.268C0.548,-0.181 0.526,-0.113 0.482,-0.064C0.438,-0.015 0.377,0.01 0.3,0.01C0.252,0.01 0.209,-0.001 0.172,-0.024C0.135,-0.046 0.107,-0.079 0.086,-0.121C0.066,-0.163 0.056,-0.212 0.056,-0.268C0.056,-0.355 0.078,-0.423 0.122,-0.472C0.165,-0.521 0.226,-0.545 0.303,-0.545C0.378,-0.545 0.438,-0.52 0.482,-0.47C0.526,-0.42 0.548,-0.353 0.548,-0.268ZM0.14,-0.268C0.14,-0.2 0.154,-0.148 0.181,-0.112C0.208,-0.076 0.249,-0.058 0.302,-0.058C0.355,-0.058 0.395,-0.076 0.423,-0.112C0.45,-0.147 0.464,-0.199 0.464,-0.268C0.464,-0.336 0.45,-0.388 0.423,-0.423C0.395,-0.458 0.354,-0.476 0.301,-0.476C0.248,-0.476 0.208,-0.459 0.181,-0.424C0.154,-0.389 0.14,-0.337 0.14,-0.268Z" style="fill:rgb(85,85,85);fill-rule:nonzero;"/>
        </g>
        <g transform="matrix(32,0,0,32,350.324,90.5034)">
            <path d="M0.33,-0.545C0.354,-0.545 0.375,-0.543 0.394,-0.539L0.383,-0.464C0.361,-0.469 0.341,-0.471 0.324,-0.471C0.281,-0.471 0.244,-0.454 0.213,-0.418C0.182,-0.383 0.167,-0.34 0.167,-0.287L0.167,-0L0.086,-0L0.086,-0.535L0.153,-0.535L0.162,-0.436L0.166,-0.436C0.186,-0.471 0.21,-0.498 0.238,-0.517C0.266,-0.535 0.297,-0.545 0.33,-0.545Z" style="fill:rgb(85,85,85);fill-rule:nonzero;"/>
        </g>
        <g transform="matrix(32,0,0,32,371.699,90.5034)">
            <path d="M0.431,-0.146C0.431,-0.096 0.413,-0.058 0.375,-0.031C0.338,-0.004 0.286,0.01 0.219,0.01C0.148,0.01 0.093,-0.001 0.053,-0.024L0.053,-0.099C0.079,-0.086 0.107,-0.076 0.136,-0.068C0.165,-0.061 0.194,-0.057 0.221,-0.057C0.264,-0.057 0.296,-0.064 0.319,-0.077C0.342,-0.091 0.353,-0.111 0.353,-0.139C0.353,-0.16 0.344,-0.178 0.326,-0.193C0.308,-0.207 0.273,-0.225 0.22,-0.245C0.17,-0.264 0.135,-0.28 0.114,-0.294C0.093,-0.308 0.077,-0.323 0.067,-0.341C0.057,-0.358 0.052,-0.379 0.052,-0.404C0.052,-0.447 0.069,-0.482 0.105,-0.507C0.14,-0.532 0.189,-0.545 0.251,-0.545C0.309,-0.545 0.365,-0.533 0.42,-0.51L0.391,-0.444C0.337,-0.466 0.289,-0.477 0.245,-0.477C0.207,-0.477 0.178,-0.471 0.158,-0.459C0.139,-0.447 0.129,-0.43 0.129,-0.409C0.129,-0.395 0.133,-0.383 0.14,-0.373C0.147,-0.362 0.159,-0.353 0.175,-0.344C0.192,-0.335 0.223,-0.321 0.269,-0.304C0.333,-0.281 0.375,-0.258 0.398,-0.234C0.42,-0.211 0.431,-0.181 0.431,-0.146Z" style="fill:rgb(85,85,85);fill-rule:nonzero;"/>
        </g>
        <g transform="matrix(32,0,0,32,386.965,90.5034)">
            <path d="M0.167,-0L0.086,-0L0.086,-0.535L0.167,-0.535L0.167,-0ZM0.079,-0.68C0.079,-0.699 0.084,-0.712 0.093,-0.721C0.102,-0.73 0.113,-0.734 0.127,-0.734C0.14,-0.734 0.151,-0.729 0.161,-0.721C0.17,-0.712 0.175,-0.698 0.175,-0.68C0.175,-0.662 0.17,-0.648 0.161,-0.639C0.151,-0.63 0.14,-0.626 0.127,-0.626C0.113,-0.626 0.102,-0.63 0.093,-0.639C0.084,-0.648 0.079,-0.662 0.079,-0.68Z" style="fill:rgb(85,85,85);fill-rule:nonzero;"/>
        </g>
        <g transform="matrix(32,0,0,32,395.058,90.5034)">
            <path d="M0.259,-0.057C0.273,-0.057 0.287,-0.058 0.3,-0.06C0.314,-0.062 0.324,-0.065 0.332,-0.067L0.332,-0.005C0.323,-0.001 0.31,0.003 0.293,0.006C0.276,0.008 0.261,0.01 0.247,0.01C0.144,0.01 0.092,-0.045 0.092,-0.154L0.092,-0.472L0.015,-0.472L0.015,-0.511L0.092,-0.545L0.126,-0.659L0.173,-0.659L0.173,-0.535L0.328,-0.535L0.328,-0.472L0.173,-0.472L0.173,-0.157C0.173,-0.125 0.181,-0.1 0.196,-0.083C0.211,-0.066 0.232,-0.057 0.259,-0.057Z" style="fill:rgb(85,85,85);fill-rule:nonzero;"/>
        </g>
        <g transform="matrix(32,0,0,32,78.2459,122.503)">
            <path d="M0.3,0.01C0.222,0.01 0.162,-0.014 0.12,-0.062C0.077,-0.109 0.056,-0.177 0.056,-0.264C0.056,-0.354 0.078,-0.423 0.121,-0.472C0.164,-0.521 0.225,-0.545 0.305,-0.545C0.331,-0.545 0.357,-0.542 0.382,-0.537C0.408,-0.531 0.428,-0.525 0.443,-0.517L0.418,-0.448C0.4,-0.455 0.381,-0.461 0.359,-0.466C0.338,-0.471 0.319,-0.473 0.303,-0.473C0.194,-0.473 0.14,-0.404 0.14,-0.265C0.14,-0.199 0.153,-0.149 0.18,-0.114C0.206,-0.079 0.246,-0.061 0.298,-0.061C0.342,-0.061 0.388,-0.071 0.435,-0.09L0.435,-0.018C0.399,0 0.354,0.01 0.3,0.01Z" style="fill:rgb(85,85,85);fill-rule:nonzero;"/>
        </g>
        <g transform="matrix(32,0,0,32,93.4803,122.503)">
            <path d="M0.548,-0.268C0.548,-0.181 0.526,-0.113 0.482,-0.064C0.438,-0.015 0.377,0.01 0.3,0.01C0.252,0.01 0.209,-0.001 0.172,-0.024C0.135,-0.046 0.107,-0.079 0.086,-0.121C0.066,-0.163 0.056,-0.212 0.056,-0.268C0.056,-0.355 0.078,-0.423 0.122,-0.472C0.165,-0.521 0.226,-0.545 0.303,-0.545C0.378,-0.545 0.438,-0.52 0.482,-0.47C0.526,-0.42 0.548,-0.353 0.548,-0.268ZM0.14,-0.268C0.14,-0.2 0.154,-0.148 0.181,-0.112C0.208,-0.076 0.249,-0.058 0.302,-0.058C0.355,-0.058 0.395,-0.076 0.423,-0.112C0.45,-0.147 0.464,-0.199 0.464,-0.268C0.464,-0.336 0.45,-0.388 0.423,-0.423C0.395,-0.458 0.354,-0.476 0.301,-0.476C0.248,-0.476 0.208,-0.459 0.181,-0.424C0.154,-0.389 0.14,-0.337 0.14,-0.268Z" style="fill:rgb(85,85,85);fill-rule:nonzero;"/>
        </g>
        <g transform="matrix(32,0,0,32,112.808,122.503)">
            <path d="M0.452,-0L0.452,-0.346C0.452,-0.39 0.442,-0.422 0.422,-0.444C0.403,-0.465 0.371,-0.476 0.329,-0.476C0.273,-0.476 0.232,-0.461 0.206,-0.431C0.18,-0.4 0.167,-0.35 0.167,-0.281L0.167,-0L0.086,-0L0.086,-0.535L0.152,-0.535L0.165,-0.462L0.169,-0.462C0.186,-0.488 0.209,-0.509 0.239,-0.523C0.269,-0.538 0.302,-0.545 0.339,-0.545C0.403,-0.545 0.452,-0.529 0.484,-0.498C0.517,-0.467 0.533,-0.417 0.533,-0.349L0.533,-0L0.452,-0Z" style="fill:rgb(85,85,85);fill-rule:nonzero;"/>
        </g>
        <g transform="matrix(32,0,0,32,132.449,122.503)">
            <path d="M0.431,-0.146C0.431,-0.096 0.413,-0.058 0.375,-0.031C0.338,-0.004 0.286,0.01 0.219,0.01C0.148,0.01 0.093,-0.001 0.053,-0.024L0.053,-0.099C0.079,-0.086 0.107,-0.076 0.136,-0.068C0.165,-0.061 0.194,-0.057 0.221,-0.057C0.264,-0.057 0.296,-0.064 0.319,-0.077C0.342,-0.091 0.353,-0.111 0.353,-0.139C0.353,-0.16 0.344,-0.178 0.326,-0.193C0.308,-0.207 0.273,-0.225 0.22,-0.245C0.17,-0.264 0.135,-0.28 0.114,-0.294C0.093,-0.308 0.077,-0.323 0.067,-0.341C0.057,-0.358 0.052,-0.379 0.052,-0.404C0.052,-0.447 0.069,-0.482 0.105,-0.507C0.14,-0.532 0.189,-0.545 0.251,-0.545C0.309,-0.545 0.365,-0.533 0.42,-0.51L0.391,-0.444C0.337,-0.466 0.289,-0.477 0.245,-0.477C0.207,-0.477 0.178,-0.471 0.158,-0.459C0.139,-0.447 0.129,-0.43 0.129,-0.409C0.129,-0.395 0.133,-0.383 0.14,-0.373C0.147,-0.362 0.159,-0.353 0.175,-0.344C0.192,-0.335 0.223,-0.321 0.269,-0.304C0.333,-0.281 0.375,-0.258 0.398,-0.234C0.42,-0.211 0.431,-0.181 0.431,-0.146Z" style="fill:rgb(85,85,85);fill-rule:nonzero;"/>
        </g>
        <g transform="matrix(32,0,0,32,147.715,122.503)">
            <path d="M0.312,0.01C0.233,0.01 0.17,-0.014 0.125,-0.063C0.079,-0.111 0.056,-0.178 0.056,-0.263C0.056,-0.349 0.077,-0.418 0.12,-0.469C0.162,-0.52 0.219,-0.545 0.291,-0.545C0.358,-0.545 0.411,-0.523 0.45,-0.479C0.489,-0.435 0.509,-0.376 0.509,-0.304L0.509,-0.253L0.14,-0.253C0.142,-0.19 0.158,-0.142 0.188,-0.11C0.218,-0.077 0.26,-0.061 0.315,-0.061C0.373,-0.061 0.43,-0.073 0.486,-0.097L0.486,-0.025C0.457,-0.013 0.43,-0.004 0.405,0.002C0.379,0.007 0.348,0.01 0.312,0.01ZM0.29,-0.477C0.247,-0.477 0.213,-0.463 0.187,-0.435C0.162,-0.407 0.147,-0.368 0.142,-0.319L0.422,-0.319C0.422,-0.37 0.41,-0.409 0.388,-0.436C0.365,-0.463 0.332,-0.477 0.29,-0.477Z" style="fill:rgb(85,85,85);fill-rule:nonzero;"/>
        </g>
        <g transform="matrix(32,0,0,32,165.668,122.503)">
            <path d="M0.3,0.01C0.222,0.01 0.162,-0.014 0.12,-0.062C0.077,-0.109 0.056,-0.177 0.056,-0.264C0.056,-0.354 0.078,-0.423 0.121,-0.472C0.164,-0.521 0.225,-0.545 0.305,-0.545C0.331,-0.545 0.357,-0.542 0.382,-0.537C0.408,-0.531 0.428,-0.525 0.443,-0.517L0.418,-0.448C0.4,-0.455 0.381,-0.461 0.359,-0.466C0.338,-0.471 0.319,-0.473 0.303,-0.473C0.194,-0.473 0.14,-0.404 0.14,-0.265C0.14,-0.199 0.153,-0.149 0.18,-0.114C0.206,-0.079 0.246,-0.061 0.298,-0.061C0.342,-0.061 0.388,-0.071 0.435,-0.09L0.435,-0.018C0.399,0 0.354,0.01 0.3,0.01Z" style="fill:rgb(85,85,85);fill-rule:nonzero;"/>
        </g>
        <g transform="matrix(32,0,0,32,180.902,122.503)">
            <path d="M0.259,-0.057C0.273,-0.057 0.287,-0.058 0.3,-0.06C0.314,-0.062 0.324,-0.065 0.332,-0.067L0.332,-0.005C0.323,-0.001 0.31,0.003 0.293,0.006C0.276,0.008 0.261,0.01 0.247,0.01C0.144,0.01 0.092,-0.045 0.092,-0.154L0.092,-0.472L0.015,-0.472L0.015,-0.511L0.092,-0.545L0.126,-0.659L0.173,-0.659L0.173,-0.535L0.328,-0.535L0.328,-0.472L0.173,-0.472L0.173,-0.157C0.173,-0.125 0.181,-0.1 0.196,-0.083C0.211,-0.066 0.232,-0.057 0.259,-0.057Z" style="fill:rgb(85,85,85);fill-rule:nonzero;"/>
        </g>
        <g transform="matrix(32,0,0,32,192.199,122.503)">
            <path d="M0.312,0.01C0.233,0.01 0.17,-0.014 0.125,-0.063C0.079,-0.111 0.056,-0.178 0.056,-0.263C0.056,-0.349 0.077,-0.418 0.12,-0.469C0.162,-0.52 0.219,-0.545 0.291,-0.545C0.358,-0.545 0.411,-0.523 0.45,-0.479C0.489,-0.435 0.509,-0.376 0.509,-0.304L0.509,-0.253L0.14,-0.253C0.142,-0.19 0.158,-0.142 0.188,-0.11C0.218,-0.077 0.26,-0.061 0.315,-0.061C0.373,-0.061 0.43,-0.073 0.486,-0.097L0.486,-0.025C0.457,-0.013 0.43,-0.004 0.405,0.002C0.379,0.007 0.348,0.01 0.312,0.01ZM0.29,-0.477C0.247,-0.477 0.213,-0.463 0.187,-0.435C0.162,-0.407 0.147,-0.368 0.142,-0.319L0.422,-0.319C0.422,-0.37 0.41,-0.409 0.388,-0.436C0.365,-0.463 0.332,-0.477 0.29,-0.477Z" style="fill:rgb(85,85,85);fill-rule:nonzero;"/>
        </g>
        <g transform="matrix(32,0,0,32,210.152,122.503)">
            <path d="M0.259,-0.057C0.273,-0.057 0.287,-0.058 0.3,-0.06C0.314,-0.062 0.324,-0.065 0.332,-0.067L0.332,-0.005C0.323,-0.001 0.31,0.003 0.293,0.006C0.276,0.008 0.261,0.01 0.247,0.01C0.144,0.01 0.092,-0.045 0.092,-0.154L0.092,-0.472L0.015,-0.472L0.015,-0.511L0.092,-0.545L0.126,-0.659L0.173,-0.659L0.173,-0.535L0.328,-0.535L0.328,-0.472L0.173,-0.472L0.173,-0.157C0.173,-0.125 0.181,-0.1 0.196,-0.083C0.211,-0.066 0.232,-0.057 0.259,-0.057Z" style="fill:rgb(85,85,85);fill-rule:nonzero;"/>
        </g>
        <g transform="matrix(32,0,0,32,221.449,122.503)">
            <path d="M0.162,-0.535L0.162,-0.188C0.162,-0.144 0.172,-0.112 0.192,-0.09C0.212,-0.069 0.243,-0.058 0.285,-0.058C0.341,-0.058 0.382,-0.073 0.408,-0.104C0.434,-0.135 0.447,-0.185 0.447,-0.254L0.447,-0.535L0.528,-0.535L0.528,-0L0.461,-0L0.449,-0.072L0.445,-0.072C0.428,-0.045 0.405,-0.025 0.376,-0.011C0.346,0.003 0.313,0.01 0.275,0.01C0.21,0.01 0.161,-0.006 0.129,-0.037C0.096,-0.068 0.08,-0.117 0.08,-0.185L0.08,-0.535L0.162,-0.535Z" style="fill:rgb(85,85,85);fill-rule:nonzero;"/>
        </g>
        <g transform="matrix(32,0,0,32,241.09,122.503)">
            <path d="M0.33,-0.545C0.354,-0.545 0.375,-0.543 0.394,-0.539L0.383,-0.464C0.361,-0.469 0.341,-0.471 0.324,-0.471C0.281,-0.471 0.244,-0.454 0.213,-0.418C0.182,-0.383 0.167,-0.34 0.167,-0.287L0.167,-0L0.086,-0L0.086,-0.535L0.153,-0.535L0.162,-0.436L0.166,-0.436C0.186,-0.471 0.21,-0.498 0.238,-0.517C0.266,-0.535 0.297,-0.545 0.33,-0.545Z" style="fill:rgb(85,85,85);fill-rule:nonzero;"/>
        </g>
        <g transform="matrix(32,0,0,32,262.465,122.503)">
            <path d="M0.415,-0L0.399,-0.076L0.395,-0.076C0.368,-0.043 0.342,-0.02 0.315,-0.008C0.289,0.004 0.256,0.01 0.216,0.01C0.163,0.01 0.121,-0.004 0.091,-0.031C0.061,-0.059 0.046,-0.097 0.046,-0.148C0.046,-0.256 0.132,-0.313 0.305,-0.318L0.396,-0.321L0.396,-0.354C0.396,-0.396 0.387,-0.427 0.369,-0.447C0.351,-0.467 0.322,-0.477 0.282,-0.477C0.238,-0.477 0.187,-0.463 0.131,-0.436L0.106,-0.498C0.132,-0.512 0.161,-0.524 0.193,-0.532C0.224,-0.54 0.256,-0.544 0.287,-0.544C0.351,-0.544 0.398,-0.53 0.429,-0.501C0.46,-0.473 0.475,-0.428 0.475,-0.365L0.475,-0L0.415,-0ZM0.232,-0.057C0.282,-0.057 0.322,-0.071 0.351,-0.099C0.38,-0.126 0.394,-0.165 0.394,-0.215L0.394,-0.263L0.313,-0.26C0.249,-0.257 0.202,-0.247 0.174,-0.23C0.145,-0.212 0.131,-0.184 0.131,-0.147C0.131,-0.118 0.14,-0.095 0.157,-0.08C0.175,-0.065 0.2,-0.057 0.232,-0.057Z" style="fill:rgb(85,85,85);fill-rule:nonzero;"/>
        </g>
        <g transform="matrix(32,0,0,32,280.262,122.503)">
            <path d="M0.45,-0.072L0.446,-0.072C0.408,-0.017 0.352,0.01 0.278,0.01C0.208,0.01 0.153,-0.014 0.115,-0.062C0.076,-0.11 0.056,-0.178 0.056,-0.266C0.056,-0.354 0.076,-0.423 0.115,-0.472C0.154,-0.521 0.208,-0.545 0.278,-0.545C0.35,-0.545 0.406,-0.519 0.445,-0.466L0.451,-0.466L0.448,-0.504L0.446,-0.542L0.446,-0.76L0.527,-0.76L0.527,-0L0.461,-0L0.45,-0.072ZM0.288,-0.058C0.343,-0.058 0.384,-0.073 0.408,-0.103C0.433,-0.133 0.446,-0.182 0.446,-0.249L0.446,-0.266C0.446,-0.342 0.433,-0.396 0.408,-0.428C0.383,-0.461 0.342,-0.477 0.287,-0.477C0.24,-0.477 0.203,-0.459 0.178,-0.422C0.153,-0.385 0.14,-0.333 0.14,-0.265C0.14,-0.197 0.153,-0.145 0.178,-0.11C0.203,-0.076 0.24,-0.058 0.288,-0.058Z" style="fill:rgb(85,85,85);fill-rule:nonzero;"/>
        </g>
        <g transform="matrix(32,0,0,32,299.871,122.503)">
            <path d="M0.167,-0L0.086,-0L0.086,-0.535L0.167,-0.535L0.167,-0ZM0.079,-0.68C0.079,-0.699 0.084,-0.712 0.093,-0.721C0.102,-0.73 0.113,-0.734 0.127,-0.734C0.14,-0.734 0.151,-0.729 0.161,-0.721C0.17,-0.712 0.175,-0.698 0.175,-0.68C0.175,-0.662 0.17,-0.648 0.161,-0.639C0.151,-0.63 0.14,-0.626 0.127,-0.626C0.113,-0.626 0.102,-0.63 0.093,-0.639C0.084,-0.648 0.079,-0.662 0.079,-0.68Z" style="fill:rgb(85,85,85);fill-rule:nonzero;"/>
        </g>
        <g transform="matrix(32,0,0,32,307.965,122.503)">
            <path d="M0.335,0.01C0.3,0.01 0.268,0.003 0.24,-0.01C0.211,-0.022 0.187,-0.042 0.167,-0.069L0.161,-0.069C0.165,-0.038 0.167,-0.008 0.167,0.02L0.167,0.24L0.086,0.24L0.086,-0.535L0.152,-0.535L0.163,-0.462L0.167,-0.462C0.188,-0.491 0.212,-0.512 0.24,-0.525C0.267,-0.538 0.299,-0.545 0.335,-0.545C0.406,-0.545 0.461,-0.521 0.499,-0.472C0.538,-0.424 0.557,-0.356 0.557,-0.268C0.557,-0.18 0.538,-0.112 0.498,-0.063C0.459,-0.015 0.405,0.01 0.335,0.01ZM0.323,-0.476C0.269,-0.476 0.229,-0.461 0.205,-0.431C0.18,-0.4 0.168,-0.352 0.167,-0.286L0.167,-0.268C0.167,-0.193 0.18,-0.139 0.205,-0.107C0.23,-0.074 0.27,-0.058 0.325,-0.058C0.371,-0.058 0.408,-0.077 0.434,-0.114C0.46,-0.152 0.473,-0.203 0.473,-0.269C0.473,-0.336 0.46,-0.387 0.434,-0.423C0.408,-0.458 0.371,-0.476 0.323,-0.476Z" style="fill:rgb(85,85,85);fill-rule:nonzero;"/>
        </g>
        <g transform="matrix(32,0,0,32,327.574,122.503)">
            <path d="M0.167,-0L0.086,-0L0.086,-0.535L0.167,-0.535L0.167,-0ZM0.079,-0.68C0.079,-0.699 0.084,-0.712 0.093,-0.721C0.102,-0.73 0.113,-0.734 0.127,-0.734C0.14,-0.734 0.151,-0.729 0.161,-0.721C0.17,-0.712 0.175,-0.698 0.175,-0.68C0.175,-0.662 0.17,-0.648 0.161,-0.639C0.151,-0.63 0.14,-0.626 0.127,-0.626C0.113,-0.626 0.102,-0.63 0.093,-0.639C0.084,-0.648 0.079,-0.662 0.079,-0.68Z" style="fill:rgb(85,85,85);fill-rule:nonzero;"/>
        </g>
        <g transform="matrix(32,0,0,32,335.668,122.503)">
            <path d="M0.431,-0.146C0.431,-0.096 0.413,-0.058 0.375,-0.031C0.338,-0.004 0.286,0.01 0.219,0.01C0.148,0.01 0.093,-0.001 0.053,-0.024L0.053,-0.099C0.079,-0.086 0.107,-0.076 0.136,-0.068C0.165,-0.061 0.194,-0.057 0.221,-0.057C0.264,-0.057 0.296,-0.064 0.319,-0.077C0.342,-0.091 0.353,-0.111 0.353,-0.139C0.353,-0.16 0.344,-0.178 0.326,-0.193C0.308,-0.207 0.273,-0.225 0.22,-0.245C0.17,-0.264 0.135,-0.28 0.114,-0.294C0.093,-0.308 0.077,-0.323 0.067,-0.341C0.057,-0.358 0.052,-0.379 0.052,-0.404C0.052,-0.447 0.069,-0.482 0.105,-0.507C0.14,-0.532 0.189,-0.545 0.251,-0.545C0.309,-0.545 0.365,-0.533 0.42,-0.51L0.391,-0.444C0.337,-0.466 0.289,-0.477 0.245,-0.477C0.207,-0.477 0.178,-0.471 0.158,-0.459C0.139,-0.447 0.129,-0.43 0.129,-0.409C0.129,-0.395 0.133,-0.383 0.14,-0.373C0.147,-0.362 0.159,-0.353 0.175,-0.344C0.192,-0.335 0.223,-0.321 0.269,-0.304C0.333,-0.281 0.375,-0.258 0.398,-0.234C0.42,-0.211 0.431,-0.181 0.431,-0.146Z" style="fill:rgb(85,85,85);fill-rule:nonzero;"/>
        </g>
        <g transform="matrix(32,0,0,32,350.933,122.503)">
            <path d="M0.3,0.01C0.222,0.01 0.162,-0.014 0.12,-0.062C0.077,-0.109 0.056,-0.177 0.056,-0.264C0.056,-0.354 0.078,-0.423 0.121,-0.472C0.164,-0.521 0.225,-0.545 0.305,-0.545C0.331,-0.545 0.357,-0.542 0.382,-0.537C0.408,-0.531 0.428,-0.525 0.443,-0.517L0.418,-0.448C0.4,-0.455 0.381,-0.461 0.359,-0.466C0.338,-0.471 0.319,-0.473 0.303,-0.473C0.194,-0.473 0.14,-0.404 0.14,-0.265C0.14,-0.199 0.153,-0.149 0.18,-0.114C0.206,-0.079 0.246,-0.061 0.298,-0.061C0.342,-0.061 0.388,-0.071 0.435,-0.09L0.435,-0.018C0.399,0 0.354,0.01 0.3,0.01Z" style="fill:rgb(85,85,85);fill-rule:nonzero;"/>
        </g>
        <g transform="matrix(32,0,0,32,366.168,122.503)">
            <path d="M0.167,-0L0.086,-0L0.086,-0.535L0.167,-0.535L0.167,-0ZM0.079,-0.68C0.079,-0.699 0.084,-0.712 0.093,-0.721C0.102,-0.73 0.113,-0.734 0.127,-0.734C0.14,-0.734 0.151,-0.729 0.161,-0.721C0.17,-0.712 0.175,-0.698 0.175,-0.68C0.175,-0.662 0.17,-0.648 0.161,-0.639C0.151,-0.63 0.14,-0.626 0.127,-0.626C0.113,-0.626 0.102,-0.63 0.093,-0.639C0.084,-0.648 0.079,-0.662 0.079,-0.68Z" style="fill:rgb(85,85,85);fill-rule:nonzero;"/>
        </g>
        <g transform="matrix(32,0,0,32,374.262,122.503)">
            <path d="M0.452,-0L0.452,-0.346C0.452,-0.39 0.442,-0.422 0.422,-0.444C0.403,-0.465 0.371,-0.476 0.329,-0.476C0.273,-0.476 0.232,-0.461 0.206,-0.431C0.18,-0.4 0.167,-0.35 0.167,-0.281L0.167,-0L0.086,-0L0.086,-0.535L0.152,-0.535L0.165,-0.462L0.169,-0.462C0.186,-0.488 0.209,-0.509 0.239,-0.523C0.269,-0.538 0.302,-0.545 0.339,-0.545C0.403,-0.545 0.452,-0.529 0.484,-0.498C0.517,-0.467 0.533,-0.417 0.533,-0.349L0.533,-0L0.452,-0Z" style="fill:rgb(85,85,85);fill-rule:nonzero;"/>
        </g>
        <g transform="matrix(32,0,0,32,393.902,122.503)">
            <path d="M0.524,-0.535L0.524,-0.484L0.425,-0.472C0.434,-0.461 0.442,-0.446 0.449,-0.427C0.456,-0.409 0.46,-0.388 0.46,-0.365C0.46,-0.313 0.442,-0.271 0.406,-0.24C0.37,-0.208 0.321,-0.193 0.259,-0.193C0.243,-0.193 0.228,-0.194 0.214,-0.197C0.179,-0.179 0.162,-0.156 0.162,-0.128C0.162,-0.113 0.168,-0.102 0.18,-0.095C0.192,-0.088 0.213,-0.085 0.242,-0.085L0.337,-0.085C0.395,-0.085 0.439,-0.073 0.47,-0.048C0.502,-0.024 0.517,0.012 0.517,0.058C0.517,0.117 0.493,0.163 0.446,0.194C0.398,0.225 0.329,0.24 0.238,0.24C0.168,0.24 0.114,0.227 0.076,0.201C0.038,0.175 0.019,0.138 0.019,0.091C0.019,0.058 0.029,0.03 0.05,0.006C0.071,-0.017 0.1,-0.034 0.138,-0.042C0.125,-0.048 0.113,-0.058 0.104,-0.071C0.094,-0.084 0.09,-0.099 0.09,-0.116C0.09,-0.136 0.095,-0.153 0.105,-0.167C0.116,-0.182 0.132,-0.196 0.155,-0.21C0.127,-0.221 0.105,-0.241 0.087,-0.268C0.07,-0.295 0.061,-0.327 0.061,-0.362C0.061,-0.42 0.079,-0.466 0.114,-0.497C0.149,-0.529 0.199,-0.545 0.263,-0.545C0.291,-0.545 0.316,-0.542 0.339,-0.535L0.524,-0.535ZM0.097,0.09C0.097,0.119 0.109,0.141 0.134,0.156C0.158,0.171 0.193,0.178 0.239,0.178C0.307,0.178 0.357,0.168 0.39,0.148C0.423,0.127 0.439,0.1 0.439,0.065C0.439,0.036 0.43,0.016 0.412,0.005C0.394,-0.007 0.361,-0.012 0.311,-0.012L0.214,-0.012C0.177,-0.012 0.148,-0.003 0.128,0.014C0.107,0.032 0.097,0.057 0.097,0.09ZM0.141,-0.364C0.141,-0.326 0.152,-0.298 0.173,-0.279C0.194,-0.26 0.223,-0.25 0.261,-0.25C0.34,-0.25 0.38,-0.288 0.38,-0.365C0.38,-0.446 0.34,-0.486 0.26,-0.486C0.222,-0.486 0.192,-0.476 0.172,-0.455C0.151,-0.435 0.141,-0.404 0.141,-0.364Z" style="fill:rgb(85,85,85);fill-rule:nonzero;"/>
        </g>
    </g>
    <g transform="matrix(0.930197,0,0,0.930197,-52.5038,38.2479)">
        <g transform="matrix(51.784,0,0,51.784,60.0792,14.8367)">
            <path d="M0.09,-0L0.09,-0.714L0.241,-0.714L0.241,-0.125L0.531,-0.125L0.531,-0L0.09,-0Z" style="fill:rgb(0,90,170);fill-rule:nonzero;"/>
        </g>
        <g transform="matrix(51.784,0,0,51.784,89.3342,14.8367)">
            <path d="M0.197,-0.274C0.197,-0.22 0.206,-0.179 0.223,-0.151C0.241,-0.124 0.27,-0.11 0.31,-0.11C0.35,-0.11 0.378,-0.124 0.396,-0.151C0.413,-0.179 0.422,-0.22 0.422,-0.274C0.422,-0.328 0.413,-0.368 0.396,-0.396C0.378,-0.423 0.349,-0.436 0.309,-0.436C0.269,-0.436 0.241,-0.423 0.223,-0.396C0.206,-0.369 0.197,-0.328 0.197,-0.274ZM0.574,-0.274C0.574,-0.185 0.551,-0.116 0.504,-0.065C0.457,-0.015 0.392,0.01 0.308,0.01C0.256,0.01 0.209,-0.002 0.169,-0.025C0.129,-0.048 0.099,-0.081 0.077,-0.124C0.056,-0.167 0.045,-0.217 0.045,-0.274C0.045,-0.363 0.068,-0.432 0.115,-0.482C0.161,-0.531 0.227,-0.556 0.311,-0.556C0.363,-0.556 0.41,-0.545 0.45,-0.522C0.49,-0.499 0.521,-0.466 0.542,-0.424C0.563,-0.381 0.574,-0.331 0.574,-0.274Z" style="fill:rgb(0,90,170);fill-rule:nonzero;"/>
        </g>
        <g transform="matrix(51.784,0,0,51.784,121.396,14.8367)">
            <path d="M0.383,-0.556C0.403,-0.556 0.42,-0.555 0.433,-0.552L0.422,-0.412C0.41,-0.415 0.395,-0.417 0.378,-0.417C0.33,-0.417 0.293,-0.405 0.267,-0.38C0.24,-0.356 0.227,-0.322 0.227,-0.278L0.227,-0L0.078,-0L0.078,-0.546L0.191,-0.546L0.213,-0.454L0.22,-0.454C0.237,-0.485 0.26,-0.509 0.289,-0.528C0.318,-0.547 0.349,-0.556 0.383,-0.556Z" style="fill:rgb(0,90,170);fill-rule:nonzero;"/>
        </g>
        <g transform="matrix(51.784,0,0,51.784,144.911,14.8367)">
            <path d="M0.304,-0.45C0.273,-0.45 0.248,-0.44 0.23,-0.42C0.212,-0.4 0.202,-0.372 0.199,-0.335L0.408,-0.335C0.408,-0.372 0.398,-0.4 0.379,-0.42C0.361,-0.44 0.336,-0.45 0.304,-0.45ZM0.325,0.01C0.237,0.01 0.169,-0.014 0.119,-0.063C0.07,-0.111 0.045,-0.18 0.045,-0.269C0.045,-0.361 0.068,-0.431 0.114,-0.481C0.159,-0.531 0.222,-0.556 0.303,-0.556C0.38,-0.556 0.44,-0.534 0.483,-0.49C0.526,-0.446 0.548,-0.386 0.548,-0.308L0.548,-0.236L0.196,-0.236C0.197,-0.194 0.21,-0.16 0.233,-0.137C0.257,-0.113 0.29,-0.101 0.332,-0.101C0.365,-0.101 0.396,-0.104 0.425,-0.111C0.455,-0.118 0.485,-0.129 0.517,-0.144L0.517,-0.029C0.491,-0.016 0.463,-0.006 0.434,0C0.404,0.007 0.368,0.01 0.325,0.01Z" style="fill:rgb(0,90,170);fill-rule:nonzero;"/>
        </g>
        <g transform="matrix(51.784,0,0,51.784,175.506,14.8367)">
            <path d="M0.567,-0L0.418,-0L0.418,-0.319C0.418,-0.358 0.411,-0.388 0.398,-0.407C0.385,-0.427 0.364,-0.437 0.336,-0.437C0.298,-0.437 0.27,-0.423 0.253,-0.395C0.236,-0.367 0.227,-0.321 0.227,-0.257L0.227,-0L0.078,-0L0.078,-0.546L0.192,-0.546L0.212,-0.476L0.22,-0.476C0.235,-0.501 0.256,-0.521 0.284,-0.535C0.311,-0.549 0.343,-0.556 0.379,-0.556C0.461,-0.556 0.516,-0.529 0.545,-0.476L0.558,-0.476C0.573,-0.501 0.594,-0.521 0.623,-0.535C0.651,-0.549 0.683,-0.556 0.719,-0.556C0.781,-0.556 0.828,-0.54 0.86,-0.509C0.891,-0.477 0.907,-0.426 0.907,-0.356L0.907,-0L0.758,-0L0.758,-0.319C0.758,-0.358 0.751,-0.388 0.738,-0.407C0.725,-0.427 0.704,-0.437 0.676,-0.437C0.639,-0.437 0.612,-0.424 0.594,-0.398C0.576,-0.372 0.567,-0.331 0.567,-0.274L0.567,-0Z" style="fill:rgb(0,90,170);fill-rule:nonzero;"/>
        </g>
        <g transform="matrix(51.784,0,0,51.784,239.806,14.8367)">
            <rect x="0.09" y="-0.714" width="0.151" height="0.714" style="fill:rgb(0,90,170);fill-rule:nonzero;"/>
        </g>
        <g transform="matrix(51.784,0,0,51.784,256.95,14.8367)">
            <path d="M0.378,0.01C0.314,0.01 0.264,-0.014 0.227,-0.06L0.219,-0.06C0.224,-0.014 0.227,0.012 0.227,0.019L0.227,0.24L0.078,0.24L0.078,-0.546L0.199,-0.546L0.22,-0.475L0.227,-0.475C0.262,-0.529 0.313,-0.556 0.382,-0.556C0.446,-0.556 0.497,-0.531 0.533,-0.481C0.57,-0.432 0.588,-0.362 0.588,-0.274C0.588,-0.216 0.579,-0.165 0.562,-0.122C0.545,-0.079 0.521,-0.046 0.489,-0.024C0.458,-0.001 0.421,0.01 0.378,0.01ZM0.334,-0.437C0.297,-0.437 0.27,-0.426 0.253,-0.403C0.236,-0.38 0.228,-0.343 0.227,-0.291L0.227,-0.275C0.227,-0.216 0.236,-0.174 0.253,-0.149C0.271,-0.124 0.298,-0.111 0.336,-0.111C0.403,-0.111 0.436,-0.166 0.436,-0.276C0.436,-0.33 0.428,-0.37 0.411,-0.397C0.395,-0.424 0.369,-0.437 0.334,-0.437Z" style="fill:rgb(0,90,170);fill-rule:nonzero;"/>
        </g>
        <g transform="matrix(51.784,0,0,51.784,289.719,14.8367)">
            <path d="M0.459,-0.162C0.459,-0.106 0.44,-0.063 0.401,-0.034C0.362,-0.005 0.304,0.01 0.226,0.01C0.186,0.01 0.153,0.007 0.125,0.002C0.097,-0.004 0.07,-0.012 0.046,-0.022L0.046,-0.145C0.074,-0.132 0.105,-0.121 0.139,-0.112C0.174,-0.104 0.205,-0.099 0.231,-0.099C0.285,-0.099 0.312,-0.115 0.312,-0.146C0.312,-0.158 0.308,-0.167 0.301,-0.175C0.294,-0.182 0.282,-0.19 0.264,-0.199C0.247,-0.209 0.223,-0.22 0.194,-0.232C0.152,-0.25 0.121,-0.266 0.101,-0.281C0.082,-0.296 0.067,-0.313 0.058,-0.332C0.049,-0.352 0.045,-0.375 0.045,-0.404C0.045,-0.452 0.064,-0.49 0.101,-0.516C0.139,-0.543 0.192,-0.556 0.261,-0.556C0.327,-0.556 0.391,-0.542 0.453,-0.513L0.408,-0.406C0.381,-0.417 0.355,-0.427 0.332,-0.435C0.308,-0.442 0.284,-0.446 0.259,-0.446C0.215,-0.446 0.193,-0.434 0.193,-0.41C0.193,-0.397 0.2,-0.385 0.214,-0.375C0.228,-0.366 0.259,-0.351 0.307,-0.332C0.35,-0.315 0.381,-0.299 0.401,-0.284C0.421,-0.269 0.435,-0.251 0.445,-0.232C0.454,-0.212 0.459,-0.189 0.459,-0.162Z" style="fill:rgb(0,90,170);fill-rule:nonzero;"/>
        </g>
        <g transform="matrix(51.784,0,0,51.784,315.459,14.8367)">
            <path d="M0.465,-0L0.445,-0.07L0.437,-0.07C0.421,-0.044 0.398,-0.025 0.369,-0.011C0.34,0.003 0.306,0.01 0.269,0.01C0.205,0.01 0.157,-0.007 0.124,-0.042C0.091,-0.076 0.075,-0.125 0.075,-0.19L0.075,-0.546L0.224,-0.546L0.224,-0.227C0.224,-0.188 0.231,-0.158 0.245,-0.138C0.259,-0.119 0.281,-0.109 0.312,-0.109C0.354,-0.109 0.384,-0.123 0.402,-0.151C0.421,-0.178 0.43,-0.225 0.43,-0.289L0.43,-0.546L0.579,-0.546L0.579,-0L0.465,-0Z" style="fill:rgb(0,90,170);fill-rule:nonzero;"/>
        </g>
        <g transform="matrix(51.784,0,0,51.784,349.493,14.8367)">
            <path d="M0.567,-0L0.418,-0L0.418,-0.319C0.418,-0.358 0.411,-0.388 0.398,-0.407C0.385,-0.427 0.364,-0.437 0.336,-0.437C0.298,-0.437 0.27,-0.423 0.253,-0.395C0.236,-0.367 0.227,-0.321 0.227,-0.257L0.227,-0L0.078,-0L0.078,-0.546L0.192,-0.546L0.212,-0.476L0.22,-0.476C0.235,-0.501 0.256,-0.521 0.284,-0.535C0.311,-0.549 0.343,-0.556 0.379,-0.556C0.461,-0.556 0.516,-0.529 0.545,-0.476L0.558,-0.476C0.573,-0.501 0.594,-0.521 0.623,-0.535C0.651,-0.549 0.683,-0.556 0.719,-0.556C0.781,-0.556 0.828,-0.54 0.86,-0.509C0.891,-0.477 0.907,-0.426 0.907,-0.356L0.907,-0L0.758,-0L0.758,-0.319C0.758,-0.358 0.751,-0.388 0.738,-0.407C0.725,-0.427 0.704,-0.437 0.676,-0.437C0.639,-0.437 0.612,-0.424 0.594,-0.398C0.576,-0.372 0.567,-0.331 0.567,-0.274L0.567,-0Z" style="fill:rgb(0,90,170);fill-rule:nonzero;"/>
        </g>
    </g>
</svg>
