<?xml version="1.0" encoding="UTF-8" standalone="no"?>
<!DOCTYPE svg PUBLIC "-//W3C//DTD SVG 1.1//EN" "http://www.w3.org/Graphics/SVG/1.1/DTD/svg11.dtd">
<svg width="100%" height="100%" viewBox="0 0 168 72" version="1.1" xmlns="http://www.w3.org/2000/svg" xmlns:xlink="http://www.w3.org/1999/xlink" xml:space="preserve" xmlns:serif="http://www.serif.com/" style="fill-rule:evenodd;clip-rule:evenodd;stroke-linejoin:round;stroke-miterlimit:2;">
    <g transform="matrix(1.2146,0,0,1.2146,-19.8418,-7.72555)">
        <g transform="matrix(0,-0.223789,-0.362088,0,44.1789,14.6612)">
            <path d="M-74.129,-74.129C-115.069,-74.129 -148.258,-40.941 -148.258,-0C-148.258,40.94 -115.069,74.129 -74.129,74.129C-33.189,74.129 -0,40.94 -0,-0C-0,-40.941 -33.189,-74.129 -74.129,-74.129" style="fill:rgb(0,90,170);"/>
        </g>
        <g transform="matrix(0.362088,0,0,0.223789,153.652,23.7545)">
            <path d="M0,34.081L0,46.991L-20.893,46.991C-22.775,46.988 -24.416,46.94 -25.809,46.843C-26.115,46.825 -26.367,46.804 -26.498,46.793C-27.609,46.701 -28.623,46.567 -29.533,46.393L-29.547,46.393C-29.551,46.393 -29.557,46.39 -29.559,46.39C-29.562,46.39 -29.562,46.387 -29.568,46.387L-29.576,46.387L-29.58,46.382C-30.572,46.19 -31.535,45.939 -32.471,45.636C-33.412,45.33 -34.309,44.976 -35.156,44.571C-39.568,42.462 -42.889,38.988 -45.102,34.142L-45.109,34.139C-46.1,31.938 -46.848,29.473 -47.344,26.745C-47.834,24.043 -48.082,21.111 -48.082,17.949L-48.082,17.929C-48.08,14.104 -47.703,10.616 -46.949,7.476C-46.842,7.02 -46.707,6.519 -46.543,5.952C-45.803,3.386 -44.785,1.061 -43.508,-1.013L-43.508,-1.014L-43.5,-1.026C-43.191,-1.524 -42.863,-2.006 -42.52,-2.473C-42.162,-2.959 -41.803,-3.409 -41.445,-3.823L-41.439,-3.823C-39.51,-6.035 -37.18,-7.745 -34.455,-8.937L-34.455,-8.942L-34.439,-8.948L-34.432,-8.948C-33.908,-9.177 -33.367,-9.392 -32.797,-9.588C-32.201,-9.799 -31.617,-9.981 -31.047,-10.134C-27.986,-10.964 -24.389,-11.381 -20.258,-11.381L0,-11.381L0,1.524L-18.916,1.524C-23.727,1.524 -27.203,2.76 -29.359,5.221C-30.203,6.187 -30.852,7.6 -31.303,9.469C-31.783,11.457 -32.02,13.921 -32.02,16.856C-32.02,20.793 -31.646,24.027 -30.902,26.559C-30.201,28.934 -29.184,30.669 -27.85,31.755C-26.918,32.504 -25.697,33.073 -24.187,33.464C-22.59,33.876 -20.684,34.081 -18.473,34.081L0,34.081Z" style="fill:rgb(0,90,170);"/>
        </g>
        <g transform="matrix(0.362088,0,0,0.223789,123.767,34.0274)">
            <path d="M0,-57.285L0,-22.574C0,-21.287 0.051,-20.17 0.154,-19.223C0.176,-18.994 0.191,-18.856 0.205,-18.765C0.297,-18.049 0.42,-17.428 0.57,-16.901L0.574,-16.901L0.578,-16.89L0.584,-16.856L0.59,-16.852L0.588,-16.852L0.59,-16.845C0.627,-16.708 0.684,-16.537 0.756,-16.343C0.818,-16.178 0.885,-16.018 0.949,-15.87C1.307,-15.078 1.795,-14.381 2.404,-13.785C3.422,-12.804 4.631,-12.066 6.039,-11.574C7.492,-11.066 9.168,-10.814 11.068,-10.814L11.092,-10.814C12.318,-10.814 13.459,-10.914 14.504,-11.117C14.676,-11.151 14.844,-11.187 15.006,-11.225C15.848,-11.42 16.635,-11.685 17.352,-12.012L17.361,-12.016C18.199,-12.39 18.904,-12.833 19.473,-13.341C20.006,-13.818 20.42,-14.349 20.711,-14.94L20.715,-14.947C21.031,-15.58 21.279,-16.51 21.451,-17.739C21.635,-19.046 21.725,-20.674 21.725,-22.616L21.725,-57.285L36.543,-57.285L36.543,-23.183C36.543,-20.976 36.428,-18.948 36.195,-17.107C35.965,-15.248 35.607,-13.563 35.127,-12.058L35.129,-12.058L35.127,-12.05C35.004,-11.668 34.859,-11.257 34.688,-10.814C34.521,-10.392 34.354,-9.994 34.178,-9.629C33.244,-7.645 32.006,-5.973 30.48,-4.616L30.479,-4.608C28.139,-2.554 25.312,-1.011 21.996,0.016C18.742,1.024 15.033,1.527 10.861,1.527L10.844,1.527C6.437,1.527 2.602,1.035 -0.658,0.05C-1.16,-0.1 -1.687,-0.279 -2.232,-0.482C-4.883,-1.468 -7.107,-2.817 -8.906,-4.526L-8.912,-4.533C-10.023,-5.598 -10.967,-6.728 -11.738,-7.925C-12.523,-9.134 -13.133,-10.405 -13.566,-11.731C-13.992,-13.029 -14.309,-14.576 -14.514,-16.362C-14.719,-18.121 -14.816,-20.112 -14.816,-22.327L-14.816,-57.285L0,-57.285Z" style="fill:rgb(0,90,170);"/>
        </g>
        <g transform="matrix(0.362088,0,0,0.223789,116.37,33.9287)">
            <path d="M0,-56.844L0,-43.94L-16.883,-43.94C-20.758,-43.94 -23.543,-43.683 -25.227,-43.173L-25.23,-43.173L-25.244,-43.171L-25.244,-43.173C-25.432,-43.115 -25.635,-43.041 -25.846,-42.954C-26.057,-42.87 -26.252,-42.777 -26.43,-42.688C-27.406,-42.184 -28.268,-41.45 -29,-40.497L-28.998,-40.495C-29.354,-40.024 -29.65,-39.559 -29.881,-39.1C-30.111,-38.648 -30.285,-38.197 -30.4,-37.749L-30.4,-37.738C-30.541,-37.231 -30.668,-36.546 -30.785,-35.686C-30.846,-35.226 -30.912,-34.663 -30.975,-33.996L0,-33.996L0,-21.088L-30.943,-21.088C-30.934,-21.021 -30.922,-20.952 -30.912,-20.89C-30.824,-20.331 -30.717,-19.789 -30.594,-19.27C-29.986,-16.776 -28.961,-14.973 -27.529,-13.846C-26.52,-13.054 -25.115,-12.449 -23.32,-12.039C-21.424,-11.603 -19.102,-11.382 -16.357,-11.382L0,-11.382L0,1.527L-16.943,1.527C-19.084,1.525 -21.066,1.459 -22.887,1.329C-23.264,1.301 -23.572,1.277 -23.789,1.261C-25.238,1.137 -26.682,0.963 -28.113,0.728C-30.777,0.298 -33.176,-0.501 -35.305,-1.668C-37.457,-2.853 -39.336,-4.4 -40.924,-6.31L-40.924,-6.325C-43.154,-9.033 -44.82,-12.202 -45.926,-15.834C-47.014,-19.421 -47.557,-23.464 -47.557,-27.957C-47.557,-38.064 -44.428,-45.94 -38.17,-51.584L-38.156,-51.587L-38.154,-51.59L-38.16,-51.596C-37.914,-51.817 -37.607,-52.076 -37.238,-52.372C-36.9,-52.644 -36.588,-52.885 -36.299,-53.093L-36.295,-53.088C-34.654,-54.268 -32.93,-55.139 -31.129,-55.694C-29.885,-56.083 -28.441,-56.374 -26.807,-56.565C-25.197,-56.754 -23.402,-56.844 -21.422,-56.844L0,-56.844Z" style="fill:rgb(0,90,170);"/>
        </g>
        <g transform="matrix(0.362088,0,0,0.223789,83.1882,34.0313)">
            <path d="M0,-56.234L12.361,-17.525L25.383,-56.259L25.734,-57.303L45.535,-57.303L45.535,1.069L31.248,1.069L31.248,-32.959L19.764,0.039L19.404,1.069L5.102,1.069L4.754,0.01L-5.918,-32.452L-5.918,1.069L-20.205,1.069L-20.205,-57.303L-0.344,-57.303L0,-56.234Z" style="fill:rgb(0,90,170);"/>
        </g>
        <g transform="matrix(0.362088,0,0,0.223789,78.875,36.058)">
            <path d="M0,18.641L-6.324,2.117L-6.427,2.117C-6.308,3.426 -6.248,4.981 -6.248,6.784L-6.248,18.641L-8.25,18.641L-8.25,0L-4.985,0L0.918,15.377L1.02,15.377L6.974,0L10.213,0L10.213,18.641L8.045,18.641L8.045,6.63C8.045,5.253 8.104,3.757 8.224,2.142L8.121,2.142L1.746,18.641L0,18.641Z" style="fill:rgb(118,120,123);fill-rule:nonzero;"/>
        </g>
        <g transform="matrix(0.362088,0,0,0.223789,-21.8936,-107.615)">
            <path d="M295.422,660.644L293.306,660.644L293.306,646.67L295.422,646.67L295.422,660.644ZM293.127,642.883C293.127,642.398 293.246,642.043 293.484,641.818C293.722,641.593 294.02,641.48 294.377,641.48C294.717,641.48 295.01,641.595 295.256,641.824C295.503,642.054 295.626,642.407 295.626,642.883C295.626,643.359 295.503,643.713 295.256,643.947C295.01,644.181 294.717,644.298 294.377,644.298C294.02,644.298 293.722,644.181 293.484,643.947C293.246,643.713 293.127,643.359 293.127,642.883" style="fill:rgb(118,120,123);fill-rule:nonzero;"/>
        </g>
        <g transform="matrix(0.362088,0,0,0.223789,89.9643,37.9553)">
            <path d="M0,6.35C0,7.651 -0.485,8.654 -1.454,9.359C-2.423,10.065 -3.783,10.417 -5.534,10.417C-7.387,10.417 -8.832,10.124 -9.869,9.538L-9.869,7.574C-9.197,7.914 -8.478,8.182 -7.708,8.377C-6.938,8.573 -6.197,8.671 -5.483,8.671C-4.378,8.671 -3.528,8.495 -2.933,8.142C-2.338,7.789 -2.04,7.251 -2.04,6.529C-2.04,5.985 -2.276,5.519 -2.748,5.133C-3.22,4.746 -4.14,4.289 -5.509,3.762C-6.809,3.277 -7.733,2.855 -8.281,2.494C-8.83,2.132 -9.238,1.722 -9.506,1.263C-9.773,0.804 -9.907,0.256 -9.907,-0.382C-9.907,-1.521 -9.444,-2.42 -8.518,-3.079C-7.591,-3.737 -6.32,-4.067 -4.705,-4.067C-3.201,-4.067 -1.73,-3.761 -0.294,-3.149L-1.046,-1.427C-2.448,-2.005 -3.72,-2.295 -4.858,-2.295C-5.861,-2.295 -6.618,-2.137 -7.128,-1.822C-7.638,-1.508 -7.893,-1.074 -7.893,-0.522C-7.893,-0.148 -7.797,0.171 -7.605,0.434C-7.415,0.698 -7.106,0.949 -6.682,1.186C-6.257,1.425 -5.44,1.769 -4.233,2.219C-2.576,2.823 -1.456,3.431 -0.874,4.042C-0.292,4.655 0,5.424 0,6.35" style="fill:rgb(118,120,123);fill-rule:nonzero;"/>
        </g>
        <g transform="matrix(0.362088,0,0,0.223789,94.4748,37.9553)">
            <path d="M0,6.35C0,7.651 -0.485,8.654 -1.454,9.359C-2.423,10.065 -3.783,10.417 -5.534,10.417C-7.387,10.417 -8.832,10.124 -9.869,9.538L-9.869,7.574C-9.197,7.914 -8.478,8.182 -7.708,8.377C-6.938,8.573 -6.197,8.671 -5.483,8.671C-4.378,8.671 -3.528,8.495 -2.933,8.142C-2.338,7.789 -2.04,7.251 -2.04,6.529C-2.04,5.985 -2.276,5.519 -2.748,5.133C-3.22,4.746 -4.14,4.289 -5.509,3.762C-6.809,3.277 -7.733,2.855 -8.281,2.494C-8.83,2.132 -9.238,1.722 -9.506,1.263C-9.773,0.804 -9.907,0.256 -9.907,-0.382C-9.907,-1.521 -9.444,-2.42 -8.518,-3.079C-7.591,-3.737 -6.32,-4.067 -4.705,-4.067C-3.201,-4.067 -1.73,-3.761 -0.294,-3.149L-1.046,-1.427C-2.448,-2.005 -3.72,-2.295 -4.858,-2.295C-5.861,-2.295 -6.618,-2.137 -7.128,-1.822C-7.638,-1.508 -7.893,-1.074 -7.893,-0.522C-7.893,-0.148 -7.797,0.171 -7.605,0.434C-7.415,0.698 -7.106,0.949 -6.682,1.186C-6.257,1.425 -5.44,1.769 -4.233,2.219C-2.576,2.823 -1.456,3.431 -0.874,4.042C-0.292,4.655 0,5.424 0,6.35" style="fill:rgb(118,120,123);fill-rule:nonzero;"/>
        </g>
        <g transform="matrix(0.362088,0,0,0.223789,97.1013,36.3378)">
            <path d="M0,15.899C1.317,15.899 2.352,15.538 3.104,14.815C3.856,14.093 4.232,13.081 4.232,11.781L4.232,10.519L2.116,10.607C0.434,10.667 -0.78,10.929 -1.524,11.392C-2.268,11.855 -2.64,12.576 -2.64,13.553C-2.64,14.318 -2.408,14.9 -1.944,15.3C-1.481,15.699 -0.833,15.899 0,15.899M3.136,1.543C2.771,1.543 2.414,1.464 2.065,1.306C1.717,1.149 1.374,0.975 1.039,0.784C0.703,0.592 0.38,0.419 0.069,0.261C-0.24,0.104 -0.54,0.025 -0.829,0.025C-1.254,0.025 -1.575,0.152 -1.792,0.408C-2.009,0.663 -2.177,1.049 -2.295,1.568L-3.545,1.568C-3.435,0.54 -3.135,-0.266 -2.646,-0.849C-2.157,-1.431 -1.526,-1.722 -0.753,-1.722C-0.361,-1.722 0.017,-1.643 0.382,-1.486C0.747,-1.329 1.096,-1.154 1.428,-0.963C1.759,-0.772 2.078,-0.598 2.384,-0.44C2.689,-0.283 2.979,-0.205 3.251,-0.205C3.667,-0.205 3.978,-0.33 4.182,-0.58C4.386,-0.831 4.552,-1.22 4.679,-1.747L5.941,-1.747C5.831,-0.719 5.535,0.087 5.055,0.669C4.575,1.251 3.935,1.543 3.136,1.543M4.781,17.391L4.36,15.401L4.258,15.401C3.562,16.277 2.866,16.87 2.174,17.18C1.48,17.49 0.616,17.646 -0.421,17.646C-1.807,17.646 -2.893,17.289 -3.679,16.575C-4.465,15.861 -4.858,14.845 -4.858,13.527C-4.858,10.706 -2.602,9.227 1.912,9.09L4.283,9.014L4.283,8.147C4.283,7.05 4.048,6.241 3.576,5.718C3.104,5.195 2.35,4.934 1.312,4.934C0.148,4.934 -1.169,5.291 -2.64,6.005L-3.29,4.386C-2.602,4.012 -1.847,3.718 -1.026,3.506C-0.206,3.294 0.616,3.187 1.44,3.187C3.106,3.187 4.341,3.557 5.145,4.296C5.947,5.036 6.35,6.222 6.35,7.854L6.35,17.391L4.781,17.391Z" style="fill:rgb(118,120,123);fill-rule:nonzero;"/>
        </g>
        <g transform="matrix(0.362088,0,0,0.223789,101.492,38.6689)">
            <path d="M0,-0.026C0,1.759 0.357,3.12 1.071,4.054C1.785,4.989 2.835,5.457 4.221,5.457C5.605,5.457 6.657,4.992 7.376,4.06C8.094,3.13 8.453,1.768 8.453,-0.026C8.453,-1.802 8.094,-3.151 7.376,-4.074C6.657,-4.996 5.598,-5.457 4.195,-5.457C2.81,-5.457 1.764,-5.003 1.059,-4.093C0.353,-3.183 0,-1.828 0,-0.026M10.646,-0.026C10.646,2.252 10.072,4.031 8.925,5.31C7.777,6.59 6.192,7.229 4.169,7.229C2.92,7.229 1.811,6.936 0.842,6.349C-0.127,5.763 -0.875,4.921 -1.402,3.825C-1.93,2.728 -2.193,1.445 -2.193,-0.026C-2.193,-2.304 -1.624,-4.078 -0.484,-5.349C0.654,-6.62 2.235,-7.255 4.259,-7.255C6.214,-7.255 7.767,-6.605 8.919,-5.304C10.07,-4.004 10.646,-2.244 10.646,-0.026" style="fill:rgb(118,120,123);fill-rule:nonzero;"/>
        </g>
        <g transform="matrix(0.362088,0,0,0.223789,113.024,36.058)">
            <path d="M0,18.641L-10.392,18.641L-10.392,0L0,0L0,1.926L-8.224,1.926L-8.224,7.931L-0.497,7.931L-0.497,9.844L-8.224,9.844L-8.224,16.703L0,16.703L0,18.641Z" style="fill:rgb(118,120,123);fill-rule:nonzero;"/>
        </g>
        <g transform="matrix(0.362088,0,0,0.223789,115.512,37.1024)">
            <path d="M0,13.974L-5.304,0L-3.034,0L-0.025,8.287C0.654,10.225 1.055,11.484 1.173,12.061L1.275,12.061C1.369,11.611 1.664,10.678 2.161,9.263C2.659,7.848 3.774,4.76 5.509,0L7.778,0L2.474,13.974L0,13.974Z" style="fill:rgb(118,120,123);fill-rule:nonzero;"/>
        </g>
        <g transform="matrix(0.362088,0,0,0.223789,120.522,37.4419)">
            <path d="M0,10.965C1.317,10.965 2.352,10.604 3.104,9.881C3.856,9.159 4.232,8.147 4.232,6.847L4.232,5.585L2.116,5.673C0.434,5.733 -0.78,5.995 -1.524,6.458C-2.268,6.921 -2.64,7.642 -2.64,8.619C-2.64,9.384 -2.408,9.966 -1.944,10.366C-1.481,10.765 -0.833,10.965 0,10.965M4.781,12.457L4.36,10.467L4.258,10.467C3.562,11.343 2.866,11.936 2.174,12.246C1.48,12.556 0.616,12.712 -0.421,12.712C-1.807,12.712 -2.893,12.355 -3.679,11.641C-4.465,10.927 -4.858,9.911 -4.858,8.593C-4.858,5.772 -2.602,4.293 1.912,4.156L4.283,4.08L4.283,3.213C4.283,2.116 4.048,1.307 3.576,0.784C3.104,0.261 2.35,-0 1.312,-0C0.148,-0 -1.169,0.357 -2.64,1.071L-3.29,-0.548C-2.602,-0.922 -1.847,-1.216 -1.026,-1.428C-0.206,-1.64 0.616,-1.747 1.44,-1.747C3.106,-1.747 4.341,-1.377 5.145,-0.638C5.947,0.102 6.35,1.288 6.35,2.92L6.35,12.457L4.781,12.457Z" style="fill:rgb(118,120,123);fill-rule:nonzero;"/>
        </g>
        <g transform="matrix(0.362088,0,0,0.223789,127.862,37.0453)">
            <path d="M0,14.229L0,5.189C0,4.05 -0.26,3.2 -0.777,2.639C-1.296,2.078 -2.108,1.798 -3.213,1.798C-4.675,1.798 -5.746,2.193 -6.426,2.983C-7.106,3.774 -7.446,5.079 -7.446,6.897L-7.446,14.229L-9.563,14.229L-9.563,0.255L-7.842,0.255L-7.497,2.167L-7.396,2.167C-6.962,1.479 -6.354,0.946 -5.572,0.567C-4.79,0.189 -3.919,0 -2.958,0C-1.275,0 -0.009,0.406 0.842,1.217C1.691,2.029 2.116,3.328 2.116,5.113L2.116,14.229L0,14.229Z" style="fill:rgb(118,120,123);fill-rule:nonzero;"/>
        </g>
        <g transform="matrix(0.362088,0,0,0.223789,130.724,40.5749)">
            <path d="M0,-11.042C0,-10.064 0.276,-9.325 0.829,-8.823C1.382,-8.322 2.15,-8.071 3.137,-8.071C5.202,-8.071 6.235,-9.074 6.235,-11.08C6.235,-13.179 5.189,-14.23 3.099,-14.23C2.104,-14.23 1.339,-13.961 0.804,-13.426C0.268,-12.891 0,-12.096 0,-11.042M-1.147,0.803C-1.147,1.56 -0.828,2.133 -0.191,2.524C0.446,2.915 1.36,3.111 2.55,3.111C4.327,3.111 5.643,2.845 6.496,2.314C7.351,1.783 7.777,1.062 7.777,0.153C7.777,-0.604 7.544,-1.128 7.076,-1.422C6.609,-1.715 5.729,-1.862 4.437,-1.862L1.9,-1.862C0.939,-1.862 0.191,-1.632 -0.344,-1.173C-0.88,-0.714 -1.147,-0.056 -1.147,0.803M9.996,-15.517L9.996,-14.178L7.408,-13.872C7.646,-13.575 7.858,-13.186 8.046,-12.706C8.232,-12.226 8.326,-11.684 8.326,-11.08C8.326,-9.711 7.858,-8.619 6.924,-7.803C5.988,-6.987 4.705,-6.579 3.073,-6.579C2.656,-6.579 2.266,-6.613 1.9,-6.681C0.999,-6.205 0.549,-5.606 0.549,-4.883C0.549,-4.501 0.706,-4.218 1.021,-4.036C1.335,-3.853 1.874,-3.762 2.64,-3.762L5.113,-3.762C6.626,-3.762 7.788,-3.443 8.601,-2.805C9.412,-2.167 9.817,-1.241 9.817,-0.026C9.817,1.521 9.197,2.701 7.956,3.512C6.715,4.324 4.904,4.73 2.524,4.73C0.697,4.73 -0.712,4.39 -1.702,3.71C-2.692,3.03 -3.188,2.069 -3.188,0.829C-3.188,-0.021 -2.915,-0.757 -2.371,-1.377C-1.827,-1.998 -1.062,-2.418 -0.076,-2.64C-0.434,-2.801 -0.733,-3.052 -0.976,-3.392C-1.218,-3.731 -1.339,-4.127 -1.339,-4.578C-1.339,-5.087 -1.203,-5.534 -0.931,-5.916C-0.658,-6.299 -0.229,-6.668 0.357,-7.025C-0.365,-7.323 -0.954,-7.829 -1.408,-8.543C-1.863,-9.257 -2.091,-10.073 -2.091,-10.991C-2.091,-12.521 -1.632,-13.7 -0.714,-14.529C0.204,-15.358 1.505,-15.772 3.188,-15.772C3.919,-15.772 4.577,-15.687 5.164,-15.517L9.996,-15.517Z" style="fill:rgb(118,120,123);fill-rule:nonzero;"/>
        </g>
        <g transform="matrix(0.362088,0,0,0.223789,136.744,39.422)">
            <path d="M0,-12.533C0.408,-13.06 0.849,-13.698 1.32,-14.446C1.792,-15.194 2.163,-15.844 2.436,-16.396L5.011,-16.396L5.011,-16.129C4.637,-15.576 4.08,-14.896 3.341,-14.089C2.602,-13.281 1.96,-12.656 1.416,-12.214L0,-12.214L0,-12.533ZM1.568,-8.848C0.446,-8.848 -0.448,-8.483 -1.115,-7.752C-1.782,-7.021 -2.176,-6.009 -2.295,-4.717L5.011,-4.717C5.011,-6.052 4.714,-7.074 4.119,-7.783C3.523,-8.493 2.674,-8.848 1.568,-8.848M2.143,3.863C0.077,3.863 -1.553,3.235 -2.747,1.977C-3.941,0.719 -4.539,-1.028 -4.539,-3.263C-4.539,-5.516 -3.984,-7.305 -2.875,-8.632C-1.766,-9.957 -0.276,-10.62 1.594,-10.62C3.345,-10.62 4.73,-10.045 5.751,-8.893C6.771,-7.741 7.28,-6.222 7.28,-4.335L7.28,-2.996L-2.346,-2.996C-2.303,-1.355 -1.889,-0.11 -1.103,0.74C-0.316,1.59 0.791,2.015 2.219,2.015C3.724,2.015 5.211,1.7 6.682,1.071L6.682,2.958C5.934,3.281 5.226,3.513 4.559,3.653C3.892,3.794 3.086,3.863 2.143,3.863" style="fill:rgb(118,120,123);fill-rule:nonzero;"/>
        </g>
        <g transform="matrix(-0.362088,0,0,0.223789,304.035,-107.766)">
            <rect x="449.01" y="641.48" width="2.116" height="19.839" style="fill:rgb(118,120,123);"/>
        </g>
        <g transform="matrix(0.362088,0,0,0.223789,-21.8936,-107.615)">
            <path d="M457.73,660.644L455.614,660.644L455.614,646.67L457.73,646.67L457.73,660.644ZM455.436,642.883C455.436,642.398 455.555,642.043 455.793,641.818C456.03,641.593 456.328,641.48 456.686,641.48C457.025,641.48 457.318,641.595 457.564,641.824C457.812,642.054 457.935,642.407 457.935,642.883C457.935,643.359 457.812,643.713 457.564,643.947C457.318,644.181 457.025,644.298 456.686,644.298C456.328,644.298 456.03,644.181 455.793,643.947C455.555,643.713 455.436,643.359 455.436,642.883" style="fill:rgb(118,120,123);fill-rule:nonzero;"/>
        </g>
        <g transform="matrix(0.362088,0,0,0.223789,147.492,37.0453)">
            <path d="M0,14.484C-2.022,14.484 -3.589,13.861 -4.698,12.616C-5.808,11.371 -6.362,9.609 -6.362,7.331C-6.362,4.994 -5.799,3.188 -4.673,1.913C-3.546,0.637 -1.942,0 0.141,0C0.812,0 1.483,0.072 2.155,0.217C2.826,0.361 3.354,0.531 3.736,0.727L3.086,2.525C2.618,2.338 2.108,2.182 1.556,2.059C1.003,1.936 0.515,1.874 0.09,1.874C-2.749,1.874 -4.169,3.685 -4.169,7.306C-4.169,9.023 -3.822,10.34 -3.13,11.258C-2.438,12.176 -1.41,12.635 -0.051,12.635C1.114,12.635 2.309,12.385 3.532,11.883L3.532,13.757C2.597,14.242 1.42,14.484 0,14.484" style="fill:rgb(118,120,123);fill-rule:nonzero;"/>
        </g>
        <g transform="matrix(0.362088,0,0,0.223789,151.352,37.4419)">
            <path d="M0,10.965C1.317,10.965 2.352,10.604 3.104,9.881C3.856,9.159 4.232,8.147 4.232,6.847L4.232,5.585L2.116,5.673C0.434,5.733 -0.78,5.995 -1.524,6.458C-2.268,6.921 -2.64,7.642 -2.64,8.619C-2.64,9.384 -2.408,9.966 -1.944,10.366C-1.481,10.765 -0.833,10.965 0,10.965M4.781,12.457L4.36,10.467L4.258,10.467C3.562,11.343 2.866,11.936 2.174,12.246C1.48,12.556 0.616,12.712 -0.421,12.712C-1.807,12.712 -2.893,12.355 -3.679,11.641C-4.465,10.927 -4.858,9.911 -4.858,8.593C-4.858,5.772 -2.602,4.293 1.912,4.156L4.283,4.08L4.283,3.213C4.283,2.116 4.048,1.307 3.576,0.784C3.104,0.261 2.35,-0 1.312,-0C0.148,-0 -1.169,0.357 -2.64,1.071L-3.29,-0.548C-2.602,-0.922 -1.847,-1.216 -1.026,-1.428C-0.206,-1.64 0.616,-1.747 1.44,-1.747C3.106,-1.747 4.341,-1.377 5.145,-0.638C5.947,0.102 6.35,1.288 6.35,2.92L6.35,12.457L4.781,12.457Z" style="fill:rgb(118,120,123);fill-rule:nonzero;"/>
        </g>
        <g transform="matrix(0.362088,0,0,0.223789,80.9846,46.1053)">
            <path d="M0,-18.896L0,-6.834C0,-4.709 -0.642,-3.039 -1.925,-1.824C-3.209,-0.608 -4.973,0 -7.217,0C-9.46,0 -11.196,-0.612 -12.425,-1.836C-13.653,-3.061 -14.268,-4.743 -14.268,-6.885L-14.268,-18.896L-12.1,-18.896L-12.1,-6.732C-12.1,-5.177 -11.675,-3.982 -10.824,-3.149C-9.975,-2.316 -8.726,-1.9 -7.076,-1.9C-5.504,-1.9 -4.292,-2.319 -3.442,-3.156C-2.593,-3.993 -2.167,-5.194 -2.167,-6.758L-2.167,-18.896L0,-18.896Z" style="fill:rgb(118,120,123);fill-rule:nonzero;"/>
        </g>
        <g transform="matrix(0.362088,0,0,0.223789,86.1185,42.8638)">
            <path d="M0,14.229L0,5.189C0,4.05 -0.26,3.2 -0.777,2.639C-1.296,2.078 -2.108,1.798 -3.213,1.798C-4.675,1.798 -5.746,2.193 -6.426,2.983C-7.106,3.774 -7.446,5.079 -7.446,6.897L-7.446,14.229L-9.563,14.229L-9.563,0.255L-7.842,0.255L-7.497,2.167L-7.396,2.167C-6.962,1.479 -6.354,0.946 -5.572,0.567C-4.79,0.189 -3.919,0 -2.958,0C-1.275,0 -0.009,0.406 0.842,1.217C1.691,2.029 2.116,3.328 2.116,5.113L2.116,14.229L0,14.229Z" style="fill:rgb(118,120,123);fill-rule:nonzero;"/>
        </g>
        <g transform="matrix(0.362088,0,0,0.223789,-21.8936,-95.9779)">
            <path d="M306.884,634.644L304.768,634.644L304.768,620.67L306.884,620.67L306.884,634.644ZM304.589,616.883C304.589,616.398 304.708,616.043 304.946,615.818C305.184,615.593 305.481,615.48 305.839,615.48C306.179,615.48 306.472,615.595 306.718,615.824C306.965,616.054 307.088,616.407 307.088,616.883C307.088,617.359 306.965,617.713 306.718,617.947C306.472,618.181 306.179,618.298 305.839,618.298C305.481,618.298 305.184,618.181 304.946,617.947C304.708,617.713 304.589,617.359 304.589,616.883" style="fill:rgb(118,120,123);fill-rule:nonzero;"/>
        </g>
        <g transform="matrix(0.362088,0,0,0.223789,92.2309,42.1563)">
            <path d="M0,15.899C1.317,15.899 2.352,15.538 3.104,14.815C3.856,14.093 4.232,13.081 4.232,11.781L4.232,10.519L2.116,10.607C0.434,10.667 -0.78,10.929 -1.524,11.392C-2.268,11.855 -2.64,12.576 -2.64,13.553C-2.64,14.318 -2.408,14.9 -1.944,15.3C-1.481,15.699 -0.833,15.899 0,15.899M3.136,1.543C2.771,1.543 2.414,1.464 2.065,1.306C1.717,1.149 1.374,0.975 1.039,0.784C0.703,0.592 0.38,0.419 0.069,0.261C-0.24,0.104 -0.54,0.025 -0.829,0.025C-1.254,0.025 -1.575,0.152 -1.792,0.408C-2.009,0.663 -2.177,1.049 -2.295,1.568L-3.545,1.568C-3.435,0.54 -3.135,-0.266 -2.646,-0.849C-2.157,-1.431 -1.526,-1.722 -0.753,-1.722C-0.361,-1.722 0.017,-1.643 0.382,-1.486C0.747,-1.329 1.096,-1.154 1.428,-0.963C1.759,-0.772 2.078,-0.598 2.384,-0.44C2.689,-0.283 2.979,-0.205 3.251,-0.205C3.667,-0.205 3.978,-0.33 4.182,-0.58C4.386,-0.831 4.552,-1.22 4.679,-1.747L5.941,-1.747C5.831,-0.719 5.535,0.087 5.055,0.669C4.575,1.251 3.935,1.543 3.136,1.543M4.781,17.391L4.36,15.401L4.258,15.401C3.562,16.277 2.866,16.87 2.174,17.18C1.48,17.49 0.616,17.646 -0.421,17.646C-1.807,17.646 -2.893,17.289 -3.679,16.575C-4.465,15.861 -4.858,14.845 -4.858,13.527C-4.858,10.706 -2.602,9.227 1.912,9.09L4.283,9.014L4.283,8.147C4.283,7.05 4.048,6.241 3.576,5.718C3.104,5.195 2.35,4.934 1.312,4.934C0.148,4.934 -1.169,5.291 -2.64,6.005L-3.29,4.386C-2.602,4.012 -1.847,3.718 -1.026,3.506C-0.206,3.294 0.616,3.187 1.44,3.187C3.106,3.187 4.341,3.557 5.145,4.296C5.947,5.036 6.35,6.222 6.35,7.854L6.35,17.391L4.781,17.391Z" style="fill:rgb(118,120,123);fill-rule:nonzero;"/>
        </g>
        <g transform="matrix(0.362088,0,0,0.223789,96.6212,44.4874)">
            <path d="M0,-0.026C0,1.759 0.357,3.12 1.071,4.054C1.785,4.989 2.835,5.457 4.221,5.457C5.605,5.457 6.657,4.992 7.376,4.06C8.094,3.13 8.453,1.768 8.453,-0.026C8.453,-1.802 8.094,-3.151 7.376,-4.074C6.657,-4.996 5.598,-5.457 4.195,-5.457C2.81,-5.457 1.764,-5.003 1.059,-4.093C0.353,-3.183 0,-1.828 0,-0.026M10.646,-0.026C10.646,2.252 10.072,4.031 8.925,5.31C7.777,6.59 6.192,7.229 4.169,7.229C2.92,7.229 1.811,6.936 0.842,6.349C-0.127,5.763 -0.875,4.921 -1.402,3.825C-1.93,2.728 -2.193,1.445 -2.193,-0.026C-2.193,-2.304 -1.624,-4.078 -0.484,-5.349C0.654,-6.62 2.235,-7.255 4.259,-7.255C6.214,-7.255 7.767,-6.605 8.919,-5.304C10.07,-4.004 10.646,-2.244 10.646,-0.026" style="fill:rgb(118,120,123);fill-rule:nonzero;"/>
        </g>
        <g transform="matrix(0.362088,0,0,0.223789,107.281,45.6714)">
            <path d="M0,-15.287C-2.048,-15.287 -3.665,-14.605 -4.851,-13.241C-6.037,-11.876 -6.63,-10.009 -6.63,-7.637C-6.63,-5.198 -6.058,-3.312 -4.915,-1.982C-3.771,-0.652 -2.142,0.013 -0.025,0.013C1.275,0.013 2.759,-0.221 4.425,-0.688L4.425,1.212C3.133,1.696 1.539,1.938 -0.356,1.938C-3.103,1.938 -5.221,1.105 -6.713,-0.561C-8.204,-2.226 -8.95,-4.594 -8.95,-7.662C-8.95,-9.583 -8.591,-11.266 -7.873,-12.712C-7.154,-14.157 -6.117,-15.27 -4.762,-16.052C-3.406,-16.834 -1.811,-17.225 0.026,-17.225C1.98,-17.225 3.689,-16.868 5.151,-16.154L4.233,-14.293C2.822,-14.955 1.411,-15.287 0,-15.287" style="fill:rgb(118,120,123);fill-rule:nonzero;"/>
        </g>
        <g transform="matrix(0.362088,0,0,0.223789,112.549,46.0481)">
            <path d="M0,-14.229C0.62,-14.229 1.177,-14.178 1.67,-14.076L1.377,-12.113C0.799,-12.24 0.289,-12.304 -0.153,-12.304C-1.283,-12.304 -2.25,-11.845 -3.054,-10.927C-3.857,-10.009 -4.259,-8.866 -4.259,-7.497L-4.259,0L-6.375,0L-6.375,-13.974L-4.628,-13.974L-4.386,-11.386L-4.284,-11.386C-3.766,-12.295 -3.141,-12.997 -2.41,-13.49C-1.679,-13.982 -0.876,-14.229 0,-14.229" style="fill:rgb(118,120,123);fill-rule:nonzero;"/>
        </g>
        <g transform="matrix(0.362088,0,0,0.223789,-21.8936,-95.9779)">
            <path d="M377.698,634.644L375.582,634.644L375.582,620.67L377.698,620.67L377.698,634.644ZM375.403,616.883C375.403,616.398 375.522,616.043 375.761,615.818C375.998,615.593 376.296,615.48 376.653,615.48C376.993,615.48 377.286,615.595 377.532,615.824C377.779,616.054 377.902,616.407 377.902,616.883C377.902,617.359 377.779,617.713 377.532,617.947C377.286,618.181 376.993,618.298 376.653,618.298C376.296,618.298 375.998,618.181 375.761,617.947C375.522,617.713 375.403,617.359 375.403,616.883" style="fill:rgb(118,120,123);fill-rule:nonzero;"/>
        </g>
        <g transform="matrix(0.362088,0,0,0.223789,119.756,43.7738)">
            <path d="M0,6.35C0,7.651 -0.485,8.654 -1.454,9.359C-2.423,10.065 -3.783,10.417 -5.534,10.417C-7.387,10.417 -8.832,10.124 -9.869,9.538L-9.869,7.574C-9.197,7.914 -8.478,8.182 -7.708,8.377C-6.938,8.573 -6.197,8.671 -5.483,8.671C-4.378,8.671 -3.528,8.495 -2.933,8.142C-2.338,7.789 -2.04,7.251 -2.04,6.529C-2.04,5.985 -2.276,5.519 -2.748,5.133C-3.22,4.746 -4.14,4.289 -5.509,3.762C-6.809,3.277 -7.733,2.855 -8.281,2.494C-8.83,2.132 -9.238,1.722 -9.506,1.263C-9.773,0.804 -9.907,0.256 -9.907,-0.382C-9.907,-1.521 -9.444,-2.42 -8.518,-3.079C-7.591,-3.737 -6.32,-4.067 -4.705,-4.067C-3.201,-4.067 -1.73,-3.761 -0.294,-3.149L-1.046,-1.427C-2.448,-2.005 -3.72,-2.295 -4.858,-2.295C-5.861,-2.295 -6.618,-2.137 -7.128,-1.822C-7.638,-1.508 -7.893,-1.074 -7.893,-0.522C-7.893,-0.148 -7.797,0.171 -7.605,0.434C-7.415,0.698 -7.106,0.949 -6.682,1.186C-6.257,1.425 -5.44,1.769 -4.233,2.219C-2.576,2.823 -1.456,3.431 -0.874,4.042C-0.292,4.655 0,5.424 0,6.35" style="fill:rgb(118,120,123);fill-rule:nonzero;"/>
        </g>
        <g transform="matrix(0.362088,0,0,0.223789,122.636,42.5871)">
            <path d="M0,13.974C0.374,13.974 0.734,13.947 1.084,13.891C1.432,13.836 1.708,13.779 1.912,13.719L1.912,15.338C1.683,15.449 1.345,15.54 0.898,15.612C0.452,15.684 0.051,15.721 -0.307,15.721C-3.01,15.721 -4.36,14.297 -4.36,11.45L-4.36,3.137L-6.362,3.137L-6.362,2.117L-4.36,1.237L-3.469,-1.747L-2.244,-1.747L-2.244,1.492L1.811,1.492L1.811,3.137L-2.244,3.137L-2.244,11.36C-2.244,12.202 -2.045,12.848 -1.646,13.298C-1.245,13.749 -0.697,13.974 0,13.974" style="fill:rgb(118,120,123);fill-rule:nonzero;"/>
        </g>
        <g transform="matrix(0.362088,0,0,0.223789,125.72,42.1563)">
            <path d="M0,15.899C1.317,15.899 2.352,15.538 3.104,14.815C3.856,14.093 4.232,13.081 4.232,11.781L4.232,10.519L2.116,10.607C0.434,10.667 -0.78,10.929 -1.524,11.392C-2.268,11.855 -2.64,12.576 -2.64,13.553C-2.64,14.318 -2.408,14.9 -1.944,15.3C-1.481,15.699 -0.833,15.899 0,15.899M3.136,1.543C2.771,1.543 2.414,1.464 2.065,1.306C1.717,1.149 1.374,0.975 1.039,0.784C0.703,0.592 0.38,0.419 0.069,0.261C-0.24,0.104 -0.54,0.025 -0.829,0.025C-1.254,0.025 -1.575,0.152 -1.792,0.408C-2.009,0.663 -2.177,1.049 -2.295,1.568L-3.545,1.568C-3.435,0.54 -3.135,-0.266 -2.646,-0.849C-2.157,-1.431 -1.526,-1.722 -0.753,-1.722C-0.361,-1.722 0.017,-1.643 0.382,-1.486C0.747,-1.329 1.096,-1.154 1.428,-0.963C1.759,-0.772 2.078,-0.598 2.384,-0.44C2.689,-0.283 2.979,-0.205 3.251,-0.205C3.667,-0.205 3.978,-0.33 4.182,-0.58C4.386,-0.831 4.552,-1.22 4.679,-1.747L5.941,-1.747C5.831,-0.719 5.535,0.087 5.055,0.669C4.575,1.251 3.935,1.543 3.136,1.543M4.781,17.391L4.36,15.401L4.258,15.401C3.562,16.277 2.866,16.87 2.174,17.18C1.48,17.49 0.616,17.646 -0.421,17.646C-1.807,17.646 -2.893,17.289 -3.679,16.575C-4.465,15.861 -4.858,14.845 -4.858,13.527C-4.858,10.706 -2.602,9.227 1.912,9.09L4.283,9.014L4.283,8.147C4.283,7.05 4.048,6.241 3.576,5.718C3.104,5.195 2.35,4.934 1.312,4.934C0.148,4.934 -1.169,5.291 -2.64,6.005L-3.29,4.386C-2.602,4.012 -1.847,3.718 -1.026,3.506C-0.206,3.294 0.616,3.187 1.44,3.187C3.106,3.187 4.341,3.557 5.145,4.296C5.947,5.036 6.35,6.222 6.35,7.854L6.35,17.391L4.781,17.391Z" style="fill:rgb(118,120,123);fill-rule:nonzero;"/>
        </g>
        <g transform="matrix(0.362088,0,0,0.223789,37.009,35.9338)">
            <path d="M0,-31.895C10.624,-5.115 25.538,24.322 45.812,48.511C37.712,51.548 28.952,53.208 19.802,53.208C15.132,53.208 10.569,52.775 6.142,51.938C-2.416,37.78 -15.725,13.605 -25.132,-13.484C-32.786,-7.316 -40.668,-0.418 -48.767,7.289C-51.183,1.418 -52.87,-4.832 -53.707,-11.338C-48.132,-19.248 -40.966,-28.264 -32.057,-37.253C-34.526,-47.984 -36.079,-58.849 -36.228,-69.459C-30.854,-75.654 -24.471,-80.959 -17.317,-85.103C-15.252,-77.166 -12.539,-67.569 -9.057,-56.96C4.589,-66.8 20.761,-75.425 39.657,-80.999C45.177,-75.154 50.171,-67.677 52.979,-58.336C38.267,-53.383 20.315,-45.244 0,-31.895" style="fill:white;fill-rule:nonzero;"/>
        </g>
        <g transform="matrix(0.362088,0,0,0.223789,20.6461,37.9485)">
            <path d="M0,-63.749L-0.458,-64.748C-1.241,-63.277 -1.982,-61.778 -2.658,-60.253L-1.74,-60.091L0,-63.749ZM-0.27,-33.042L2.322,-38.077L4.604,-41.167L3.578,-44.056L1.135,-39.548L-1.093,-38.226L0.298,-43.84L3.672,-47.606L7.33,-51.52L4.697,-55.191L2.012,-57.081L-0.215,-55.758L-3.819,-57.514L-3.859,-57.527L-3.899,-57.324L-4.805,-52.6L-4.211,-44.218L-6.262,-44.312L-7.166,-45.959L-7.383,-45.986C-8.529,-40.817 -9.137,-35.431 -9.137,-29.924C-9.137,-26.685 -8.936,-23.486 -8.517,-20.341C-6.003,-23.907 -3.146,-27.706 0.027,-31.618L-0.27,-33.042ZM-8.017,-17.088L-8.015,-17.089C-8.02,-17.118 -8.025,-17.147 -8.031,-17.177C-8.025,-17.147 -8.021,-17.118 -8.017,-17.088M131.699,-62.278L130.307,-63.561L131.361,-62.967C130.941,-63.817 130.51,-64.64 130.064,-65.463L130.012,-65.329L128.418,-65.315L126.623,-62.575L123.207,-61.563L120.279,-61.886L118.402,-60.996L117.74,-59.47L118.578,-57.662L118.295,-56.042L114.016,-56.447L113.098,-57.959L109.17,-57.878L107.361,-58.512L107.9,-60.618L106.713,-62.656L106.523,-64.343L106.201,-63.331L105.188,-64.167L104.432,-63.115L97.412,-60.888L95.268,-58.134L92.838,-58.283L91.717,-58.701L91.057,-59.065L90.557,-56.096L89.045,-54.719L88.223,-51.237L88.721,-48.686L86.48,-46.634L84.982,-44.272L83.699,-37.456L85.023,-33.852L86.102,-29.506L85.441,-27.467L86.846,-24.147L92.473,-18.883L94.281,-16.103L101.084,-12.188L104.945,-13.646L107.43,-12.89L113.881,-16.143L116.404,-14.78L117.93,-13.754L119.941,-15.211L122.857,-13.741L123.355,-8.787L127.176,-6.061L130.455,-3.374L131.211,-1.539L132.684,0.324C136.812,-8.922 139.121,-19.153 139.121,-29.924C139.121,-41.519 136.449,-52.506 131.699,-62.278M25.215,-3.645L22.447,-7.681L19.127,-6.587L14.66,-7.856L10.813,-7.316L8.478,-7.248L6.588,-3.078L2.471,-2.362L1.202,-5.979L1.046,-6.027C-0.049,-5.016 -1.148,-3.991 -2.252,-2.95L-0.107,-3.023L1.607,-0.985L5.818,0.445L7.789,-1.593L8.274,5.534L8.41,10.69L14.012,16.089L19.154,18.276L23.919,31.787C25.957,33.15 28.076,34.405 30.249,35.566L31.248,31.611L31.194,28.588L34.096,27.292L33.731,20.53L35,13.659L35.119,13.247C32.509,7.928 29.891,2.277 27.37,-3.638L25.215,-3.645ZM87.627,-61.441L88.977,-61.117L90.098,-61.441L90.854,-59.605L92.148,-60.645L94.066,-60.915L95.158,-62.737L95.578,-64.923L95.5,-66.417C92.887,-65.492 90.174,-64.462 87.375,-63.329L87.627,-61.441ZM96.266,-94.132L97.252,-92.904L98.264,-94.942L98.494,-96.076C97.832,-96.414 97.17,-96.738 96.496,-97.048L97.197,-96.157L96.725,-94.82L96.266,-94.132ZM85.268,-89.535L85.711,-91.5L83.457,-91.784L83.174,-91.27L82.881,-89.372C83.543,-89.576 84.18,-89.805 84.848,-90.002C84.988,-89.852 85.127,-89.687 85.268,-89.535M92.824,-85.575L91.488,-82.511L90.756,-82.713C93.211,-79.148 95.375,-75.147 97.039,-70.686L96.59,-72.253L97.225,-72.887L99.465,-72.792L99.938,-74.372L100.922,-75.775L103.271,-73.211L107.889,-70.687L109.602,-69.621L110.25,-67.367L110.803,-67.083L111.1,-69.593L109.859,-70.606L110.223,-71.753L111.303,-71.2L111.344,-71.834L108.428,-73.036L106.146,-73.994L105.309,-75.546L103.676,-76.396L103.027,-78.394L104.176,-78.867L105.742,-77.49L108.51,-75.708L111.141,-74.52L112.18,-71.929L115.15,-69.607L116.715,-67.731L117.984,-67.866L117.229,-69.945L118.213,-70.849L115.514,-72.901L114.65,-74.318L115.852,-73.67L116.459,-74.413L115.324,-75.344L116.891,-76.1L118.402,-77.719L119.279,-78.206L117.391,-79.069L116.756,-82.983C112.113,-87.519 106.889,-91.446 101.18,-94.632L99.924,-92.351L98.52,-93.039L97.156,-91.986L95.82,-93.201L96.09,-95.832L95.078,-97.696L94.984,-97.884L94.902,-97.777L94.039,-96.629L94.578,-93.957L95.969,-91.379L93.77,-89.476L92.824,-85.575ZM118.781,-74.102L121.291,-71.092L123.951,-71.038L123.951,-72.928L125.219,-73.13C123.762,-75.182 122.182,-77.166 120.494,-79.056L119.967,-78.731L119.414,-76.882L117.891,-76.005L118.781,-74.102ZM86.25,-91.311L87.951,-90.002L86.992,-87.606C87.879,-86.567 88.734,-85.468 89.572,-84.336L91.219,-84.914L91.527,-88.652L90.098,-88.733L87.816,-92.621L86.561,-94.524L87.52,-96.251L85.994,-96.832L86.629,-98.425L84.928,-97.196L85.307,-93.606L86.25,-91.311ZM93.053,-97.615L93.391,-98.425C92.648,-98.735 91.906,-99.032 91.15,-99.315L91.381,-98.573L93.053,-97.615Z" style="fill:rgb(141,216,248);fill-rule:nonzero;"/>
        </g>
        <g transform="matrix(0.517692,0,0,0.527686,-843.092,-87.5982)">
            <path d="M1666.04,271.903L1666.04,274.665L1661.7,270.415L1666.04,266.165L1666.04,268.928L1921.37,268.928L1921.37,266.165L1925.7,270.415L1921.37,274.665L1921.37,271.903L1666.04,271.903Z" style="fill:rgb(85,85,85);"/>
        </g>
    </g>
</svg>
