<?xml version="1.0" encoding="UTF-8" standalone="no"?>
<!DOCTYPE svg PUBLIC "-//W3C//DTD SVG 1.1//EN" "http://www.w3.org/Graphics/SVG/1.1/DTD/svg11.dtd">
<svg width="100%" height="100%" viewBox="0 0 168 72" version="1.1" xmlns="http://www.w3.org/2000/svg" xmlns:xlink="http://www.w3.org/1999/xlink" xml:space="preserve" xmlns:serif="http://www.serif.com/" style="fill-rule:evenodd;clip-rule:evenodd;stroke-linejoin:round;stroke-miterlimit:2;">
    <g transform="matrix(0.760128,0,0,0.760128,20.1493,8.63541)">
        <g transform="matrix(0,-0.580089,-0.580089,0,17.8093,-7.00335)">
            <path d="M-74.129,-74.129C-115.069,-74.129 -148.258,-40.941 -148.258,-0C-148.258,40.94 -115.069,74.129 -74.129,74.129C-33.189,74.129 -0,40.94 -0,-0C-0,-40.941 -33.189,-74.129 -74.129,-74.129" style="fill:rgb(0,90,170);"/>
        </g>
        <g transform="matrix(0.580089,0,0,0.580089,193.192,16.5676)">
            <path d="M0,34.081L0,46.991L-20.893,46.991C-22.775,46.988 -24.416,46.94 -25.809,46.843C-26.115,46.825 -26.367,46.804 -26.498,46.793C-27.609,46.701 -28.623,46.567 -29.533,46.393L-29.547,46.393C-29.551,46.393 -29.557,46.39 -29.559,46.39C-29.562,46.39 -29.562,46.387 -29.568,46.387L-29.576,46.387L-29.58,46.382C-30.572,46.19 -31.535,45.939 -32.471,45.636C-33.412,45.33 -34.309,44.976 -35.156,44.571C-39.568,42.462 -42.889,38.988 -45.102,34.142L-45.109,34.139C-46.1,31.938 -46.848,29.473 -47.344,26.745C-47.834,24.043 -48.082,21.111 -48.082,17.949L-48.082,17.929C-48.08,14.104 -47.703,10.616 -46.949,7.476C-46.842,7.02 -46.707,6.519 -46.543,5.952C-45.803,3.386 -44.785,1.061 -43.508,-1.013L-43.508,-1.014L-43.5,-1.026C-43.191,-1.524 -42.863,-2.006 -42.52,-2.473C-42.162,-2.959 -41.803,-3.409 -41.445,-3.823L-41.439,-3.823C-39.51,-6.035 -37.18,-7.745 -34.455,-8.937L-34.455,-8.942L-34.439,-8.948L-34.432,-8.948C-33.908,-9.177 -33.367,-9.392 -32.797,-9.588C-32.201,-9.799 -31.617,-9.981 -31.047,-10.134C-27.986,-10.964 -24.389,-11.381 -20.258,-11.381L0,-11.381L0,1.524L-18.916,1.524C-23.727,1.524 -27.203,2.76 -29.359,5.221C-30.203,6.187 -30.852,7.6 -31.303,9.469C-31.783,11.457 -32.02,13.921 -32.02,16.856C-32.02,20.793 -31.646,24.027 -30.902,26.559C-30.201,28.934 -29.184,30.669 -27.85,31.755C-26.918,32.504 -25.697,33.073 -24.187,33.464C-22.59,33.876 -20.684,34.081 -18.473,34.081L0,34.081Z" style="fill:rgb(0,90,170);"/>
        </g>
        <g transform="matrix(0.580089,0,0,0.580089,145.316,43.1963)">
            <path d="M0,-57.285L0,-22.574C0,-21.287 0.051,-20.17 0.154,-19.223C0.176,-18.994 0.191,-18.856 0.205,-18.765C0.297,-18.049 0.42,-17.428 0.57,-16.901L0.574,-16.901L0.578,-16.89L0.584,-16.856L0.59,-16.852L0.588,-16.852L0.59,-16.845C0.627,-16.708 0.684,-16.537 0.756,-16.343C0.818,-16.178 0.885,-16.018 0.949,-15.87C1.307,-15.078 1.795,-14.381 2.404,-13.785C3.422,-12.804 4.631,-12.066 6.039,-11.574C7.492,-11.066 9.168,-10.814 11.068,-10.814L11.092,-10.814C12.318,-10.814 13.459,-10.914 14.504,-11.117C14.676,-11.151 14.844,-11.187 15.006,-11.225C15.848,-11.42 16.635,-11.685 17.352,-12.012L17.361,-12.016C18.199,-12.39 18.904,-12.833 19.473,-13.341C20.006,-13.818 20.42,-14.349 20.711,-14.94L20.715,-14.947C21.031,-15.58 21.279,-16.51 21.451,-17.739C21.635,-19.046 21.725,-20.674 21.725,-22.616L21.725,-57.285L36.543,-57.285L36.543,-23.183C36.543,-20.976 36.428,-18.948 36.195,-17.107C35.965,-15.248 35.607,-13.563 35.127,-12.058L35.129,-12.058L35.127,-12.05C35.004,-11.668 34.859,-11.257 34.688,-10.814C34.521,-10.392 34.354,-9.994 34.178,-9.629C33.244,-7.645 32.006,-5.973 30.48,-4.616L30.479,-4.608C28.139,-2.554 25.312,-1.011 21.996,0.016C18.742,1.024 15.033,1.527 10.861,1.527L10.844,1.527C6.437,1.527 2.602,1.035 -0.658,0.05C-1.16,-0.1 -1.687,-0.279 -2.232,-0.482C-4.883,-1.468 -7.107,-2.817 -8.906,-4.526L-8.912,-4.533C-10.023,-5.598 -10.967,-6.728 -11.738,-7.925C-12.523,-9.134 -13.133,-10.405 -13.566,-11.731C-13.992,-13.029 -14.309,-14.576 -14.514,-16.362C-14.719,-18.121 -14.816,-20.112 -14.816,-22.327L-14.816,-57.285L0,-57.285Z" style="fill:rgb(0,90,170);"/>
        </g>
        <g transform="matrix(0.580089,0,0,0.580089,133.465,42.9405)">
            <path d="M0,-56.844L0,-43.94L-16.883,-43.94C-20.758,-43.94 -23.543,-43.683 -25.227,-43.173L-25.23,-43.173L-25.244,-43.171L-25.244,-43.173C-25.432,-43.115 -25.635,-43.041 -25.846,-42.954C-26.057,-42.87 -26.252,-42.777 -26.43,-42.688C-27.406,-42.184 -28.268,-41.45 -29,-40.497L-28.998,-40.495C-29.354,-40.024 -29.65,-39.559 -29.881,-39.1C-30.111,-38.648 -30.285,-38.197 -30.4,-37.749L-30.4,-37.738C-30.541,-37.231 -30.668,-36.546 -30.785,-35.686C-30.846,-35.226 -30.912,-34.663 -30.975,-33.996L0,-33.996L0,-21.088L-30.943,-21.088C-30.934,-21.021 -30.922,-20.952 -30.912,-20.89C-30.824,-20.331 -30.717,-19.789 -30.594,-19.27C-29.986,-16.776 -28.961,-14.973 -27.529,-13.846C-26.52,-13.054 -25.115,-12.449 -23.32,-12.039C-21.424,-11.603 -19.102,-11.382 -16.357,-11.382L0,-11.382L0,1.527L-16.943,1.527C-19.084,1.525 -21.066,1.459 -22.887,1.329C-23.264,1.301 -23.572,1.277 -23.789,1.261C-25.238,1.137 -26.682,0.963 -28.113,0.728C-30.777,0.298 -33.176,-0.501 -35.305,-1.668C-37.457,-2.853 -39.336,-4.4 -40.924,-6.31L-40.924,-6.325C-43.154,-9.033 -44.82,-12.202 -45.926,-15.834C-47.014,-19.421 -47.557,-23.464 -47.557,-27.957C-47.557,-38.064 -44.428,-45.94 -38.17,-51.584L-38.156,-51.587L-38.154,-51.59L-38.16,-51.596C-37.914,-51.817 -37.607,-52.076 -37.238,-52.372C-36.9,-52.644 -36.588,-52.885 -36.299,-53.093L-36.295,-53.088C-34.654,-54.268 -32.93,-55.139 -31.129,-55.694C-29.885,-56.083 -28.441,-56.374 -26.807,-56.565C-25.197,-56.754 -23.402,-56.844 -21.422,-56.844L0,-56.844Z" style="fill:rgb(0,90,170);"/>
        </g>
        <g transform="matrix(0.580089,0,0,0.580089,80.3048,43.2065)">
            <path d="M0,-56.234L12.361,-17.525L25.383,-56.259L25.734,-57.303L45.535,-57.303L45.535,1.069L31.248,1.069L31.248,-32.959L19.764,0.039L19.404,1.069L5.102,1.069L4.754,0.01L-5.918,-32.452L-5.918,1.069L-20.205,1.069L-20.205,-57.303L-0.344,-57.303L0,-56.234Z" style="fill:rgb(0,90,170);"/>
        </g>
        <g transform="matrix(0.580089,0,0,0.580089,6.32253,48.138)">
            <path d="M0,-31.895C10.624,-5.115 25.538,24.322 45.812,48.511C37.712,51.548 28.952,53.208 19.802,53.208C15.132,53.208 10.569,52.775 6.142,51.938C-2.416,37.78 -15.725,13.605 -25.132,-13.484C-32.786,-7.316 -40.668,-0.418 -48.767,7.289C-51.183,1.418 -52.87,-4.832 -53.707,-11.338C-48.132,-19.248 -40.966,-28.264 -32.057,-37.253C-34.526,-47.984 -36.079,-58.849 -36.228,-69.459C-30.854,-75.654 -24.471,-80.959 -17.317,-85.103C-15.252,-77.166 -12.539,-67.569 -9.057,-56.96C4.589,-66.8 20.761,-75.425 39.657,-80.999C45.177,-75.154 50.171,-67.677 52.979,-58.336C38.267,-53.383 20.315,-45.244 0,-31.895" style="fill:white;fill-rule:nonzero;"/>
        </g>
        <g transform="matrix(0.580089,0,0,0.580089,-19.8919,53.3605)">
            <path d="M0,-63.749L-0.458,-64.748C-1.241,-63.277 -1.982,-61.778 -2.658,-60.253L-1.74,-60.091L0,-63.749ZM-0.27,-33.042L2.322,-38.077L4.604,-41.167L3.578,-44.056L1.135,-39.548L-1.093,-38.226L0.298,-43.84L3.672,-47.606L7.33,-51.52L4.697,-55.191L2.012,-57.081L-0.215,-55.758L-3.819,-57.514L-3.859,-57.527L-3.899,-57.324L-4.805,-52.6L-4.211,-44.218L-6.262,-44.312L-7.166,-45.959L-7.383,-45.986C-8.529,-40.817 -9.137,-35.431 -9.137,-29.924C-9.137,-26.685 -8.936,-23.486 -8.517,-20.341C-6.003,-23.907 -3.146,-27.706 0.027,-31.618L-0.27,-33.042ZM-8.017,-17.088L-8.015,-17.089C-8.02,-17.118 -8.025,-17.147 -8.031,-17.177C-8.025,-17.147 -8.021,-17.118 -8.017,-17.088M131.699,-62.278L130.307,-63.561L131.361,-62.967C130.941,-63.817 130.51,-64.64 130.064,-65.463L130.012,-65.329L128.418,-65.315L126.623,-62.575L123.207,-61.563L120.279,-61.886L118.402,-60.996L117.74,-59.47L118.578,-57.662L118.295,-56.042L114.016,-56.447L113.098,-57.959L109.17,-57.878L107.361,-58.512L107.9,-60.618L106.713,-62.656L106.523,-64.343L106.201,-63.331L105.188,-64.167L104.432,-63.115L97.412,-60.888L95.268,-58.134L92.838,-58.283L91.717,-58.701L91.057,-59.065L90.557,-56.096L89.045,-54.719L88.223,-51.237L88.721,-48.686L86.48,-46.634L84.982,-44.272L83.699,-37.456L85.023,-33.852L86.102,-29.506L85.441,-27.467L86.846,-24.147L92.473,-18.883L94.281,-16.103L101.084,-12.188L104.945,-13.646L107.43,-12.89L113.881,-16.143L116.404,-14.78L117.93,-13.754L119.941,-15.211L122.857,-13.741L123.355,-8.787L127.176,-6.061L130.455,-3.374L131.211,-1.539L132.684,0.324C136.812,-8.922 139.121,-19.153 139.121,-29.924C139.121,-41.519 136.449,-52.506 131.699,-62.278M25.215,-3.645L22.447,-7.681L19.127,-6.587L14.66,-7.856L10.813,-7.316L8.478,-7.248L6.588,-3.078L2.471,-2.362L1.202,-5.979L1.046,-6.027C-0.049,-5.016 -1.148,-3.991 -2.252,-2.95L-0.107,-3.023L1.607,-0.985L5.818,0.445L7.789,-1.593L8.274,5.534L8.41,10.69L14.012,16.089L19.154,18.276L23.919,31.787C25.957,33.15 28.076,34.405 30.249,35.566L31.248,31.611L31.194,28.588L34.096,27.292L33.731,20.53L35,13.659L35.119,13.247C32.509,7.928 29.891,2.277 27.37,-3.638L25.215,-3.645ZM87.627,-61.441L88.977,-61.117L90.098,-61.441L90.854,-59.605L92.148,-60.645L94.066,-60.915L95.158,-62.737L95.578,-64.923L95.5,-66.417C92.887,-65.492 90.174,-64.462 87.375,-63.329L87.627,-61.441ZM96.266,-94.132L97.252,-92.904L98.264,-94.942L98.494,-96.076C97.832,-96.414 97.17,-96.738 96.496,-97.048L97.197,-96.157L96.725,-94.82L96.266,-94.132ZM85.268,-89.535L85.711,-91.5L83.457,-91.784L83.174,-91.27L82.881,-89.372C83.543,-89.576 84.18,-89.805 84.848,-90.002C84.988,-89.852 85.127,-89.687 85.268,-89.535M92.824,-85.575L91.488,-82.511L90.756,-82.713C93.211,-79.148 95.375,-75.147 97.039,-70.686L96.59,-72.253L97.225,-72.887L99.465,-72.792L99.938,-74.372L100.922,-75.775L103.271,-73.211L107.889,-70.687L109.602,-69.621L110.25,-67.367L110.803,-67.083L111.1,-69.593L109.859,-70.606L110.223,-71.753L111.303,-71.2L111.344,-71.834L108.428,-73.036L106.146,-73.994L105.309,-75.546L103.676,-76.396L103.027,-78.394L104.176,-78.867L105.742,-77.49L108.51,-75.708L111.141,-74.52L112.18,-71.929L115.15,-69.607L116.715,-67.731L117.984,-67.866L117.229,-69.945L118.213,-70.849L115.514,-72.901L114.65,-74.318L115.852,-73.67L116.459,-74.413L115.324,-75.344L116.891,-76.1L118.402,-77.719L119.279,-78.206L117.391,-79.069L116.756,-82.983C112.113,-87.519 106.889,-91.446 101.18,-94.632L99.924,-92.351L98.52,-93.039L97.156,-91.986L95.82,-93.201L96.09,-95.832L95.078,-97.696L94.984,-97.884L94.902,-97.777L94.039,-96.629L94.578,-93.957L95.969,-91.379L93.77,-89.476L92.824,-85.575ZM118.781,-74.102L121.291,-71.092L123.951,-71.038L123.951,-72.928L125.219,-73.13C123.762,-75.182 122.182,-77.166 120.494,-79.056L119.967,-78.731L119.414,-76.882L117.891,-76.005L118.781,-74.102ZM86.25,-91.311L87.951,-90.002L86.992,-87.606C87.879,-86.567 88.734,-85.468 89.572,-84.336L91.219,-84.914L91.527,-88.652L90.098,-88.733L87.816,-92.621L86.561,-94.524L87.52,-96.251L85.994,-96.832L86.629,-98.425L84.928,-97.196L85.307,-93.606L86.25,-91.311ZM93.053,-97.615L93.391,-98.425C92.648,-98.735 91.906,-99.032 91.15,-99.315L91.381,-98.573L93.053,-97.615Z" style="fill:rgb(141,216,248);fill-rule:nonzero;"/>
        </g>
        <g transform="matrix(15.3601,0,0,15.3601,67.4613,59.0807)">
            <path d="M0.24,-0.19C0.25,-0.206 0.274,-0.243 0.312,-0.301C0.344,-0.351 0.396,-0.422 0.466,-0.516C0.507,-0.57 0.544,-0.616 0.578,-0.653C0.597,-0.675 0.615,-0.686 0.63,-0.686C0.639,-0.686 0.646,-0.683 0.652,-0.677C0.658,-0.672 0.66,-0.666 0.66,-0.658C0.66,-0.647 0.653,-0.63 0.64,-0.606C0.638,-0.601 0.624,-0.577 0.6,-0.535C0.557,-0.459 0.528,-0.405 0.513,-0.372C0.471,-0.283 0.44,-0.207 0.42,-0.144C0.409,-0.107 0.403,-0.079 0.403,-0.062C0.403,-0.058 0.404,-0.054 0.404,-0.049C0.406,-0.037 0.407,-0.029 0.407,-0.027C0.407,-0.017 0.403,-0.009 0.396,-0C0.39,0.007 0.383,0.011 0.375,0.011C0.366,0.011 0.358,0.005 0.353,-0.005C0.348,-0.014 0.345,-0.025 0.345,-0.04C0.345,-0.132 0.422,-0.313 0.576,-0.583C0.495,-0.497 0.406,-0.374 0.309,-0.213C0.287,-0.179 0.269,-0.155 0.255,-0.143C0.242,-0.131 0.229,-0.125 0.216,-0.125C0.204,-0.125 0.195,-0.13 0.189,-0.141C0.185,-0.148 0.183,-0.156 0.183,-0.166C0.183,-0.247 0.231,-0.375 0.328,-0.55C0.295,-0.516 0.264,-0.477 0.233,-0.433C0.178,-0.351 0.129,-0.268 0.086,-0.182C0.065,-0.14 0.041,-0.085 0.011,-0.016C-0.003,0.019 -0.02,0.037 -0.04,0.037C-0.044,0.037 -0.049,0.035 -0.052,0.03C-0.054,0.027 -0.056,0.024 -0.056,0.02C-0.056,0.013 -0.05,-0.004 -0.038,-0.031C-0.012,-0.092 0.008,-0.136 0.021,-0.163C0.091,-0.299 0.174,-0.427 0.27,-0.547C0.31,-0.597 0.338,-0.63 0.353,-0.645C0.369,-0.66 0.382,-0.668 0.393,-0.668C0.399,-0.668 0.405,-0.665 0.412,-0.659C0.419,-0.652 0.423,-0.645 0.423,-0.636C0.423,-0.626 0.416,-0.61 0.402,-0.587C0.363,-0.524 0.327,-0.452 0.294,-0.373C0.266,-0.301 0.248,-0.24 0.24,-0.19Z" style="fill:rgb(119,120,123);fill-rule:nonzero;"/>
        </g>
        <g transform="matrix(15.3601,0,0,15.3601,76.1838,59.0807)">
            <path d="M0.1,-0.331C0.105,-0.331 0.11,-0.328 0.113,-0.324C0.116,-0.321 0.117,-0.317 0.117,-0.313C0.117,-0.308 0.112,-0.298 0.103,-0.284C0.069,-0.232 0.045,-0.189 0.031,-0.155C0.015,-0.12 0.002,-0.084 -0.01,-0.047C-0.015,-0.031 -0.023,-0.023 -0.034,-0.023C-0.041,-0.023 -0.046,-0.026 -0.05,-0.031C-0.053,-0.035 -0.055,-0.04 -0.055,-0.044C-0.055,-0.054 -0.045,-0.087 -0.024,-0.142C-0.008,-0.186 0.019,-0.234 0.055,-0.287C0.067,-0.304 0.076,-0.315 0.082,-0.321C0.087,-0.327 0.093,-0.331 0.1,-0.331ZM0.192,-0.512C0.207,-0.512 0.214,-0.504 0.214,-0.489C0.214,-0.476 0.207,-0.46 0.193,-0.444C0.179,-0.428 0.166,-0.42 0.153,-0.42C0.147,-0.42 0.142,-0.422 0.138,-0.427C0.134,-0.431 0.132,-0.436 0.132,-0.442C0.132,-0.458 0.141,-0.475 0.158,-0.492C0.171,-0.505 0.182,-0.512 0.192,-0.512Z" style="fill:rgb(119,120,123);fill-rule:nonzero;"/>
        </g>
        <g transform="matrix(15.3601,0,0,15.3601,78.2089,59.0807)">
            <path d="M0.196,-0.362C0.216,-0.362 0.231,-0.359 0.241,-0.352C0.251,-0.344 0.256,-0.333 0.256,-0.319C0.256,-0.3 0.249,-0.281 0.235,-0.263C0.221,-0.246 0.201,-0.233 0.173,-0.222C0.158,-0.217 0.146,-0.214 0.136,-0.214C0.122,-0.214 0.115,-0.22 0.115,-0.232C0.115,-0.24 0.119,-0.246 0.127,-0.25C0.129,-0.251 0.14,-0.254 0.16,-0.259C0.172,-0.261 0.183,-0.267 0.193,-0.276C0.202,-0.283 0.207,-0.292 0.207,-0.3C0.207,-0.307 0.205,-0.312 0.201,-0.315C0.197,-0.319 0.191,-0.32 0.183,-0.32C0.164,-0.32 0.143,-0.313 0.121,-0.297C0.094,-0.28 0.081,-0.26 0.081,-0.236C0.081,-0.219 0.09,-0.198 0.107,-0.172C0.126,-0.145 0.136,-0.121 0.136,-0.102C0.136,-0.073 0.123,-0.051 0.098,-0.035C0.082,-0.025 0.064,-0.02 0.044,-0.02C0.013,-0.02 -0.011,-0.031 -0.027,-0.053C-0.038,-0.069 -0.044,-0.088 -0.044,-0.11C-0.044,-0.135 -0.037,-0.157 -0.024,-0.174C-0.016,-0.185 -0.007,-0.191 0.002,-0.191C0.01,-0.191 0.014,-0.188 0.014,-0.181C0.014,-0.179 0.013,-0.175 0.01,-0.169C0.002,-0.155 -0.001,-0.139 -0.001,-0.12C-0.001,-0.104 0.004,-0.091 0.016,-0.08C0.026,-0.07 0.037,-0.065 0.05,-0.065C0.063,-0.065 0.073,-0.069 0.08,-0.078C0.086,-0.085 0.089,-0.094 0.089,-0.105C0.089,-0.119 0.081,-0.136 0.065,-0.158C0.044,-0.188 0.033,-0.215 0.033,-0.24C0.033,-0.272 0.051,-0.301 0.086,-0.326C0.121,-0.35 0.157,-0.362 0.196,-0.362Z" style="fill:rgb(119,120,123);fill-rule:nonzero;"/>
        </g>
        <g transform="matrix(15.3601,0,0,15.3601,82.1164,59.0807)">
            <path d="M0.196,-0.362C0.216,-0.362 0.231,-0.359 0.241,-0.352C0.251,-0.344 0.256,-0.333 0.256,-0.319C0.256,-0.3 0.249,-0.281 0.235,-0.263C0.221,-0.246 0.201,-0.233 0.173,-0.222C0.158,-0.217 0.146,-0.214 0.136,-0.214C0.122,-0.214 0.115,-0.22 0.115,-0.232C0.115,-0.24 0.119,-0.246 0.127,-0.25C0.129,-0.251 0.14,-0.254 0.16,-0.259C0.172,-0.261 0.183,-0.267 0.193,-0.276C0.202,-0.283 0.207,-0.292 0.207,-0.3C0.207,-0.307 0.205,-0.312 0.201,-0.315C0.197,-0.319 0.191,-0.32 0.183,-0.32C0.164,-0.32 0.143,-0.313 0.121,-0.297C0.094,-0.28 0.081,-0.26 0.081,-0.236C0.081,-0.219 0.09,-0.198 0.107,-0.172C0.126,-0.145 0.136,-0.121 0.136,-0.102C0.136,-0.073 0.123,-0.051 0.098,-0.035C0.082,-0.025 0.064,-0.02 0.044,-0.02C0.013,-0.02 -0.011,-0.031 -0.027,-0.053C-0.038,-0.069 -0.044,-0.088 -0.044,-0.11C-0.044,-0.135 -0.037,-0.157 -0.024,-0.174C-0.016,-0.185 -0.007,-0.191 0.002,-0.191C0.01,-0.191 0.014,-0.188 0.014,-0.181C0.014,-0.179 0.013,-0.175 0.01,-0.169C0.002,-0.155 -0.001,-0.139 -0.001,-0.12C-0.001,-0.104 0.004,-0.091 0.016,-0.08C0.026,-0.07 0.037,-0.065 0.05,-0.065C0.063,-0.065 0.073,-0.069 0.08,-0.078C0.086,-0.085 0.089,-0.094 0.089,-0.105C0.089,-0.119 0.081,-0.136 0.065,-0.158C0.044,-0.188 0.033,-0.215 0.033,-0.24C0.033,-0.272 0.051,-0.301 0.086,-0.326C0.121,-0.35 0.157,-0.362 0.196,-0.362Z" style="fill:rgb(119,120,123);fill-rule:nonzero;"/>
        </g>
        <g transform="matrix(15.3601,0,0,15.3601,86.0239,59.0807)">
            <path d="M0.115,-0.119C0.104,-0.1 0.094,-0.084 0.083,-0.071C0.063,-0.045 0.043,-0.033 0.022,-0.033C0.005,-0.033 -0.009,-0.041 -0.019,-0.058C-0.025,-0.068 -0.028,-0.081 -0.028,-0.096C-0.028,-0.132 -0.016,-0.172 0.006,-0.215C0.032,-0.264 0.062,-0.301 0.098,-0.327C0.122,-0.344 0.144,-0.353 0.166,-0.353C0.18,-0.353 0.191,-0.348 0.2,-0.34C0.208,-0.332 0.212,-0.324 0.212,-0.314C0.212,-0.307 0.209,-0.297 0.204,-0.285C0.208,-0.278 0.211,-0.272 0.211,-0.267C0.211,-0.26 0.206,-0.249 0.197,-0.233C0.188,-0.217 0.178,-0.196 0.169,-0.169C0.159,-0.141 0.154,-0.119 0.154,-0.102C0.154,-0.088 0.158,-0.077 0.166,-0.068C0.168,-0.066 0.175,-0.062 0.186,-0.057C0.194,-0.053 0.198,-0.046 0.198,-0.037C0.198,-0.03 0.196,-0.025 0.191,-0.021C0.187,-0.017 0.181,-0.015 0.174,-0.015C0.157,-0.015 0.142,-0.023 0.129,-0.039C0.118,-0.051 0.113,-0.067 0.113,-0.086C0.113,-0.093 0.114,-0.104 0.115,-0.119ZM0.176,-0.279C0.172,-0.286 0.168,-0.292 0.164,-0.295C0.159,-0.299 0.154,-0.3 0.149,-0.3C0.124,-0.3 0.097,-0.279 0.068,-0.235C0.036,-0.188 0.021,-0.147 0.021,-0.114C0.021,-0.106 0.022,-0.099 0.025,-0.095C0.028,-0.091 0.033,-0.089 0.039,-0.089C0.055,-0.089 0.073,-0.105 0.094,-0.139C0.105,-0.157 0.12,-0.184 0.137,-0.219C0.149,-0.242 0.157,-0.258 0.162,-0.265C0.165,-0.269 0.169,-0.274 0.176,-0.279ZM0.1,-0.506C0.12,-0.506 0.156,-0.501 0.208,-0.491C0.216,-0.49 0.225,-0.489 0.235,-0.489C0.258,-0.489 0.282,-0.493 0.307,-0.5C0.312,-0.502 0.317,-0.502 0.32,-0.502C0.326,-0.502 0.33,-0.5 0.334,-0.494C0.336,-0.491 0.337,-0.487 0.337,-0.484C0.337,-0.472 0.329,-0.462 0.314,-0.455C0.294,-0.445 0.272,-0.44 0.249,-0.44C0.226,-0.44 0.19,-0.445 0.142,-0.453C0.135,-0.454 0.124,-0.455 0.11,-0.455C0.104,-0.455 0.099,-0.455 0.095,-0.455C0.077,-0.452 0.068,-0.451 0.067,-0.451C0.062,-0.451 0.057,-0.453 0.052,-0.458C0.048,-0.462 0.045,-0.468 0.045,-0.475C0.045,-0.495 0.064,-0.506 0.1,-0.506Z" style="fill:rgb(119,120,123);fill-rule:nonzero;"/>
        </g>
        <g transform="matrix(15.3601,0,0,15.3601,89.9989,59.0807)">
            <path d="M0.16,-0.353C0.187,-0.353 0.2,-0.337 0.2,-0.304C0.2,-0.261 0.18,-0.206 0.14,-0.14C0.097,-0.068 0.054,-0.032 0.014,-0.032C-0.005,-0.032 -0.019,-0.041 -0.028,-0.058C-0.032,-0.067 -0.035,-0.077 -0.035,-0.09C-0.035,-0.132 -0.02,-0.177 0.008,-0.226C0.035,-0.271 0.066,-0.306 0.103,-0.331C0.124,-0.346 0.143,-0.353 0.16,-0.353ZM0.109,-0.168C0.101,-0.175 0.097,-0.18 0.097,-0.184C0.097,-0.186 0.102,-0.193 0.113,-0.205C0.142,-0.238 0.157,-0.264 0.157,-0.285C0.157,-0.287 0.156,-0.29 0.154,-0.292C0.152,-0.297 0.148,-0.3 0.142,-0.3C0.132,-0.3 0.116,-0.29 0.096,-0.27C0.07,-0.243 0.05,-0.217 0.037,-0.189C0.021,-0.157 0.013,-0.131 0.013,-0.11C0.013,-0.105 0.014,-0.1 0.017,-0.096C0.021,-0.09 0.027,-0.087 0.033,-0.087C0.049,-0.087 0.066,-0.099 0.083,-0.122C0.091,-0.132 0.098,-0.142 0.103,-0.152C0.107,-0.163 0.11,-0.168 0.109,-0.168Z" style="fill:rgb(119,120,123);fill-rule:nonzero;"/>
        </g>
        <g transform="matrix(15.3601,0,0,15.3601,97.4015,59.0807)">
            <path d="M0.208,-0.399L0.228,-0.403C0.3,-0.417 0.35,-0.423 0.378,-0.423C0.399,-0.423 0.409,-0.415 0.409,-0.398C0.409,-0.388 0.405,-0.381 0.397,-0.377C0.391,-0.375 0.382,-0.373 0.369,-0.373C0.284,-0.367 0.22,-0.357 0.176,-0.343C0.159,-0.317 0.134,-0.269 0.101,-0.199C0.081,-0.158 0.066,-0.12 0.056,-0.085C0.063,-0.088 0.07,-0.09 0.078,-0.093C0.126,-0.109 0.161,-0.12 0.184,-0.125C0.214,-0.13 0.243,-0.133 0.27,-0.133C0.287,-0.133 0.3,-0.131 0.309,-0.127C0.316,-0.123 0.32,-0.117 0.32,-0.106C0.32,-0.096 0.315,-0.09 0.306,-0.086C0.302,-0.085 0.292,-0.084 0.276,-0.084C0.19,-0.079 0.113,-0.058 0.045,-0.021C0.037,-0.016 0.029,-0.013 0.023,-0.013C0.014,-0.013 0.006,-0.018 -0.001,-0.027C-0.008,-0.035 -0.011,-0.043 -0.011,-0.051C-0.011,-0.059 -0,-0.089 0.02,-0.141C0.051,-0.22 0.093,-0.306 0.146,-0.399C0.162,-0.427 0.193,-0.475 0.237,-0.542C0.247,-0.558 0.257,-0.573 0.267,-0.588C0.254,-0.591 0.247,-0.6 0.247,-0.614C0.247,-0.624 0.252,-0.632 0.263,-0.637C0.28,-0.645 0.312,-0.652 0.36,-0.66C0.432,-0.671 0.493,-0.676 0.543,-0.676C0.572,-0.676 0.586,-0.669 0.586,-0.654C0.586,-0.643 0.581,-0.635 0.571,-0.627C0.566,-0.624 0.559,-0.622 0.548,-0.622C0.547,-0.622 0.543,-0.622 0.537,-0.623L0.521,-0.623C0.497,-0.623 0.463,-0.62 0.419,-0.615C0.381,-0.611 0.347,-0.605 0.32,-0.597C0.323,-0.592 0.325,-0.588 0.325,-0.585C0.325,-0.579 0.317,-0.567 0.302,-0.547L0.278,-0.511C0.245,-0.461 0.222,-0.424 0.208,-0.399Z" style="fill:rgb(119,120,123);fill-rule:nonzero;"/>
        </g>
        <g transform="matrix(15.3601,0,0,15.3601,103.454,59.0807)">
            <path d="M0.152,-0.171C0.132,-0.137 0.115,-0.112 0.101,-0.095C0.066,-0.054 0.037,-0.034 0.014,-0.034C-0,-0.034 -0.011,-0.041 -0.019,-0.057C-0.024,-0.067 -0.026,-0.077 -0.026,-0.088C-0.026,-0.11 -0.017,-0.141 0.001,-0.182C0.018,-0.217 0.032,-0.245 0.043,-0.266C0.052,-0.28 0.057,-0.29 0.059,-0.294C0.063,-0.303 0.066,-0.31 0.069,-0.314C0.073,-0.321 0.079,-0.325 0.086,-0.325C0.09,-0.325 0.094,-0.323 0.097,-0.32C0.1,-0.316 0.102,-0.311 0.102,-0.306C0.102,-0.292 0.088,-0.259 0.062,-0.208C0.036,-0.158 0.022,-0.125 0.022,-0.108C0.022,-0.098 0.027,-0.093 0.035,-0.093C0.049,-0.093 0.069,-0.111 0.094,-0.147C0.106,-0.164 0.118,-0.184 0.13,-0.209C0.13,-0.218 0.129,-0.224 0.129,-0.228C0.129,-0.252 0.134,-0.274 0.143,-0.292C0.155,-0.315 0.171,-0.326 0.19,-0.326C0.202,-0.326 0.208,-0.319 0.208,-0.306C0.208,-0.284 0.196,-0.252 0.173,-0.209C0.18,-0.208 0.185,-0.208 0.189,-0.208C0.2,-0.208 0.214,-0.214 0.231,-0.228C0.245,-0.239 0.254,-0.245 0.258,-0.245C0.261,-0.245 0.265,-0.243 0.269,-0.238C0.272,-0.235 0.273,-0.231 0.273,-0.228C0.273,-0.216 0.265,-0.203 0.249,-0.188C0.23,-0.171 0.209,-0.163 0.185,-0.163C0.175,-0.163 0.164,-0.166 0.152,-0.171Z" style="fill:rgb(119,120,123);fill-rule:nonzero;"/>
        </g>
        <g transform="matrix(15.3601,0,0,15.3601,107.707,59.0807)">
            <path d="M0.115,-0.119C0.104,-0.1 0.094,-0.084 0.083,-0.071C0.063,-0.045 0.043,-0.033 0.022,-0.033C0.005,-0.033 -0.009,-0.041 -0.019,-0.058C-0.025,-0.068 -0.028,-0.081 -0.028,-0.096C-0.028,-0.132 -0.016,-0.172 0.006,-0.215C0.032,-0.264 0.062,-0.301 0.098,-0.327C0.122,-0.344 0.144,-0.353 0.166,-0.353C0.18,-0.353 0.191,-0.348 0.2,-0.34C0.208,-0.332 0.212,-0.324 0.212,-0.314C0.212,-0.307 0.209,-0.297 0.204,-0.285C0.208,-0.278 0.211,-0.272 0.211,-0.267C0.211,-0.26 0.206,-0.249 0.197,-0.233C0.188,-0.217 0.178,-0.196 0.169,-0.169C0.159,-0.141 0.154,-0.119 0.154,-0.102C0.154,-0.088 0.158,-0.077 0.166,-0.068C0.168,-0.066 0.175,-0.062 0.186,-0.057C0.194,-0.053 0.198,-0.046 0.198,-0.037C0.198,-0.03 0.196,-0.025 0.191,-0.021C0.187,-0.017 0.181,-0.015 0.174,-0.015C0.157,-0.015 0.142,-0.023 0.129,-0.039C0.118,-0.051 0.113,-0.067 0.113,-0.086C0.113,-0.093 0.114,-0.104 0.115,-0.119ZM0.176,-0.279C0.172,-0.286 0.168,-0.292 0.164,-0.295C0.159,-0.299 0.154,-0.3 0.149,-0.3C0.124,-0.3 0.097,-0.279 0.068,-0.235C0.036,-0.188 0.021,-0.147 0.021,-0.114C0.021,-0.106 0.022,-0.099 0.025,-0.095C0.028,-0.091 0.033,-0.089 0.039,-0.089C0.055,-0.089 0.073,-0.105 0.094,-0.139C0.105,-0.157 0.12,-0.184 0.137,-0.219C0.149,-0.242 0.157,-0.258 0.162,-0.265C0.165,-0.269 0.169,-0.274 0.176,-0.279Z" style="fill:rgb(119,120,123);fill-rule:nonzero;"/>
        </g>
        <g transform="matrix(15.3601,0,0,15.3601,111.682,59.0807)">
            <path d="M0.062,-0.206C0.066,-0.209 0.07,-0.213 0.074,-0.217C0.142,-0.284 0.188,-0.317 0.211,-0.317C0.224,-0.317 0.23,-0.31 0.23,-0.296C0.23,-0.286 0.224,-0.275 0.213,-0.261C0.151,-0.189 0.12,-0.125 0.12,-0.069C0.12,-0.051 0.125,-0.034 0.134,-0.018C0.139,-0.011 0.141,-0.005 0.141,-0C0.141,0.003 0.139,0.007 0.135,0.011C0.131,0.015 0.126,0.018 0.12,0.018C0.107,0.018 0.096,0.009 0.086,-0.008C0.078,-0.024 0.073,-0.043 0.073,-0.066C0.073,-0.11 0.09,-0.159 0.123,-0.212C0.079,-0.184 0.038,-0.133 -0,-0.062C-0.01,-0.044 -0.021,-0.036 -0.032,-0.036C-0.037,-0.036 -0.042,-0.038 -0.045,-0.042C-0.05,-0.046 -0.052,-0.052 -0.052,-0.059C-0.052,-0.077 -0.032,-0.123 0.008,-0.197C0.029,-0.238 0.046,-0.267 0.059,-0.285C0.071,-0.303 0.082,-0.312 0.09,-0.312C0.095,-0.312 0.099,-0.31 0.103,-0.306C0.107,-0.302 0.109,-0.296 0.109,-0.291C0.109,-0.283 0.105,-0.273 0.095,-0.26C0.082,-0.24 0.07,-0.222 0.062,-0.206Z" style="fill:rgb(119,120,123);fill-rule:nonzero;"/>
        </g>
        <g transform="matrix(15.3601,0,0,15.3601,115.634,59.0807)">
            <path d="M0.118,-0.08C0.153,-0.105 0.178,-0.129 0.195,-0.149C0.22,-0.18 0.238,-0.204 0.249,-0.223C0.254,-0.232 0.259,-0.236 0.265,-0.236C0.272,-0.236 0.276,-0.232 0.276,-0.225C0.276,-0.216 0.27,-0.201 0.258,-0.181C0.219,-0.118 0.162,-0.064 0.085,-0.017C0.049,0.058 0.023,0.109 0.006,0.135C-0.039,0.206 -0.081,0.241 -0.121,0.241C-0.142,0.241 -0.157,0.233 -0.166,0.216C-0.171,0.207 -0.174,0.196 -0.174,0.184C-0.174,0.133 -0.141,0.084 -0.075,0.037C-0.065,0.029 -0.023,0.005 0.051,-0.036C0.066,-0.066 0.077,-0.09 0.084,-0.107C0.05,-0.072 0.022,-0.054 -0,-0.054C-0.014,-0.054 -0.025,-0.061 -0.033,-0.075C-0.038,-0.085 -0.041,-0.094 -0.041,-0.104C-0.041,-0.128 -0.031,-0.158 -0.012,-0.195C0.016,-0.248 0.049,-0.29 0.087,-0.321C0.119,-0.347 0.148,-0.359 0.172,-0.359C0.185,-0.359 0.196,-0.355 0.205,-0.345C0.211,-0.339 0.214,-0.33 0.214,-0.318C0.214,-0.303 0.209,-0.284 0.199,-0.262C0.207,-0.255 0.21,-0.25 0.21,-0.246C0.21,-0.244 0.209,-0.241 0.206,-0.236C0.197,-0.224 0.183,-0.202 0.163,-0.168C0.146,-0.139 0.131,-0.11 0.118,-0.08ZM0.114,-0.193C0.11,-0.198 0.107,-0.201 0.107,-0.203C0.107,-0.206 0.11,-0.21 0.115,-0.214C0.131,-0.23 0.144,-0.246 0.154,-0.263C0.162,-0.277 0.167,-0.287 0.167,-0.294C0.167,-0.303 0.162,-0.308 0.154,-0.308C0.14,-0.308 0.12,-0.294 0.094,-0.268C0.063,-0.236 0.039,-0.201 0.022,-0.162C0.014,-0.142 0.009,-0.127 0.009,-0.117C0.009,-0.111 0.011,-0.106 0.013,-0.104C0.016,-0.101 0.02,-0.099 0.024,-0.099C0.036,-0.099 0.052,-0.111 0.072,-0.134C0.085,-0.149 0.096,-0.164 0.105,-0.178C0.112,-0.188 0.115,-0.193 0.114,-0.193ZM0.022,0.021C-0.021,0.039 -0.059,0.066 -0.092,0.104C-0.107,0.121 -0.118,0.139 -0.125,0.158C-0.126,0.164 -0.127,0.169 -0.127,0.173C-0.127,0.177 -0.126,0.181 -0.125,0.184C-0.121,0.19 -0.116,0.193 -0.109,0.193C-0.089,0.193 -0.066,0.171 -0.039,0.128C-0.015,0.09 0.005,0.055 0.022,0.021Z" style="fill:rgb(119,120,123);fill-rule:nonzero;"/>
        </g>
        <g transform="matrix(15.3601,0,0,15.3601,120.322,59.0807)">
            <path d="M0.01,-0.132L0.01,-0.123C0.01,-0.116 0.012,-0.11 0.015,-0.104C0.023,-0.092 0.037,-0.086 0.055,-0.086C0.096,-0.086 0.143,-0.118 0.196,-0.18C0.206,-0.191 0.214,-0.196 0.22,-0.196C0.224,-0.196 0.227,-0.194 0.23,-0.191C0.232,-0.188 0.233,-0.186 0.233,-0.184C0.233,-0.171 0.217,-0.149 0.186,-0.119C0.162,-0.095 0.136,-0.076 0.108,-0.061C0.08,-0.046 0.055,-0.039 0.031,-0.039C0.006,-0.039 -0.013,-0.047 -0.027,-0.064C-0.036,-0.076 -0.041,-0.092 -0.041,-0.112C-0.041,-0.167 -0.015,-0.221 0.037,-0.273C0.079,-0.316 0.115,-0.338 0.146,-0.338C0.155,-0.338 0.163,-0.335 0.169,-0.33C0.178,-0.323 0.182,-0.314 0.182,-0.303C0.182,-0.286 0.174,-0.265 0.158,-0.24C0.125,-0.188 0.076,-0.152 0.01,-0.132ZM0.021,-0.17C0.043,-0.178 0.061,-0.187 0.074,-0.196C0.097,-0.214 0.115,-0.234 0.128,-0.256C0.133,-0.264 0.136,-0.271 0.136,-0.277C0.136,-0.283 0.133,-0.287 0.126,-0.287C0.118,-0.287 0.106,-0.28 0.09,-0.268C0.062,-0.245 0.039,-0.213 0.021,-0.17ZM0.271,-0.54C0.277,-0.54 0.282,-0.537 0.285,-0.533C0.289,-0.53 0.291,-0.526 0.291,-0.522C0.291,-0.514 0.276,-0.492 0.247,-0.456C0.231,-0.437 0.221,-0.424 0.214,-0.419C0.208,-0.413 0.201,-0.41 0.195,-0.41C0.185,-0.41 0.18,-0.415 0.18,-0.427C0.18,-0.435 0.186,-0.446 0.199,-0.46C0.208,-0.47 0.223,-0.489 0.243,-0.519C0.253,-0.533 0.263,-0.54 0.271,-0.54Z" style="fill:rgb(119,120,123);fill-rule:nonzero;"/>
        </g>
        <g transform="matrix(15.3601,0,0,15.3601,124.537,59.0807)">
            <path d="M0.052,-0.2C0.042,-0.175 0.035,-0.154 0.03,-0.139C0.025,-0.123 0.022,-0.112 0.022,-0.106C0.022,-0.098 0.026,-0.094 0.034,-0.094C0.046,-0.094 0.061,-0.105 0.08,-0.127C0.088,-0.138 0.101,-0.157 0.119,-0.185C0.125,-0.196 0.133,-0.202 0.14,-0.202C0.149,-0.202 0.153,-0.198 0.153,-0.189C0.153,-0.175 0.137,-0.147 0.104,-0.104C0.071,-0.06 0.04,-0.038 0.011,-0.038C-0.001,-0.038 -0.011,-0.043 -0.019,-0.053C-0.025,-0.061 -0.027,-0.07 -0.027,-0.081C-0.027,-0.099 -0.022,-0.124 -0.011,-0.156C0,-0.188 0.017,-0.228 0.039,-0.274C0.095,-0.391 0.152,-0.488 0.21,-0.564C0.257,-0.626 0.295,-0.656 0.326,-0.656C0.335,-0.656 0.343,-0.653 0.35,-0.645C0.356,-0.638 0.359,-0.629 0.359,-0.619C0.359,-0.574 0.319,-0.498 0.237,-0.392C0.201,-0.344 0.157,-0.297 0.106,-0.25C0.093,-0.238 0.075,-0.221 0.052,-0.2ZM0.086,-0.278C0.154,-0.336 0.215,-0.409 0.268,-0.498C0.296,-0.543 0.31,-0.574 0.31,-0.589C0.31,-0.596 0.306,-0.6 0.3,-0.6C0.282,-0.6 0.25,-0.564 0.203,-0.493C0.164,-0.434 0.125,-0.362 0.086,-0.278Z" style="fill:rgb(119,120,123);fill-rule:nonzero;"/>
        </g>
        <g transform="matrix(15.3601,0,0,15.3601,127.837,59.0807)">
            <path d="M0.1,-0.331C0.105,-0.331 0.11,-0.328 0.113,-0.324C0.116,-0.321 0.117,-0.317 0.117,-0.313C0.117,-0.308 0.112,-0.298 0.103,-0.284C0.069,-0.232 0.045,-0.189 0.031,-0.155C0.015,-0.12 0.002,-0.084 -0.01,-0.047C-0.015,-0.031 -0.023,-0.023 -0.034,-0.023C-0.041,-0.023 -0.046,-0.026 -0.05,-0.031C-0.053,-0.035 -0.055,-0.04 -0.055,-0.044C-0.055,-0.054 -0.045,-0.087 -0.024,-0.142C-0.008,-0.186 0.019,-0.234 0.055,-0.287C0.067,-0.304 0.076,-0.315 0.082,-0.321C0.087,-0.327 0.093,-0.331 0.1,-0.331ZM0.192,-0.512C0.207,-0.512 0.214,-0.504 0.214,-0.489C0.214,-0.476 0.207,-0.46 0.193,-0.444C0.179,-0.428 0.166,-0.42 0.153,-0.42C0.147,-0.42 0.142,-0.422 0.138,-0.427C0.134,-0.431 0.132,-0.436 0.132,-0.442C0.132,-0.458 0.141,-0.475 0.158,-0.492C0.171,-0.505 0.182,-0.512 0.192,-0.512Z" style="fill:rgb(119,120,123);fill-rule:nonzero;"/>
        </g>
        <g transform="matrix(15.3601,0,0,15.3601,129.862,59.0807)">
            <path d="M0.148,-0.341C0.174,-0.341 0.187,-0.327 0.187,-0.3C0.187,-0.277 0.178,-0.253 0.159,-0.229C0.145,-0.21 0.132,-0.201 0.122,-0.201C0.112,-0.201 0.108,-0.206 0.108,-0.217C0.108,-0.222 0.109,-0.227 0.112,-0.23C0.113,-0.231 0.117,-0.235 0.124,-0.241C0.129,-0.247 0.135,-0.255 0.142,-0.266C0.146,-0.274 0.148,-0.28 0.148,-0.284C0.148,-0.289 0.145,-0.292 0.139,-0.292C0.132,-0.292 0.122,-0.287 0.108,-0.276C0.086,-0.259 0.064,-0.232 0.042,-0.195C0.019,-0.156 0.007,-0.126 0.007,-0.104C0.007,-0.097 0.009,-0.09 0.014,-0.085C0.02,-0.076 0.028,-0.072 0.039,-0.072C0.059,-0.072 0.083,-0.085 0.111,-0.11C0.135,-0.132 0.155,-0.154 0.171,-0.176C0.18,-0.188 0.187,-0.194 0.193,-0.194C0.197,-0.194 0.2,-0.192 0.203,-0.189C0.206,-0.186 0.207,-0.182 0.207,-0.179C0.207,-0.167 0.192,-0.144 0.161,-0.109C0.111,-0.054 0.067,-0.027 0.027,-0.027C0.003,-0.027 -0.016,-0.035 -0.028,-0.053C-0.037,-0.065 -0.042,-0.08 -0.042,-0.098C-0.042,-0.132 -0.028,-0.171 0,-0.215C0.027,-0.258 0.058,-0.292 0.094,-0.318C0.115,-0.333 0.133,-0.341 0.148,-0.341Z" style="fill:rgb(119,120,123);fill-rule:nonzero;"/>
        </g>
        <g transform="matrix(15.3601,0,0,15.3601,134.062,59.0807)">
            <path d="M0.115,-0.119C0.104,-0.1 0.094,-0.084 0.083,-0.071C0.063,-0.045 0.043,-0.033 0.022,-0.033C0.005,-0.033 -0.009,-0.041 -0.019,-0.058C-0.025,-0.068 -0.028,-0.081 -0.028,-0.096C-0.028,-0.132 -0.016,-0.172 0.006,-0.215C0.032,-0.264 0.062,-0.301 0.098,-0.327C0.122,-0.344 0.144,-0.353 0.166,-0.353C0.18,-0.353 0.191,-0.348 0.2,-0.34C0.208,-0.332 0.212,-0.324 0.212,-0.314C0.212,-0.307 0.209,-0.297 0.204,-0.285C0.208,-0.278 0.211,-0.272 0.211,-0.267C0.211,-0.26 0.206,-0.249 0.197,-0.233C0.188,-0.217 0.178,-0.196 0.169,-0.169C0.159,-0.141 0.154,-0.119 0.154,-0.102C0.154,-0.088 0.158,-0.077 0.166,-0.068C0.168,-0.066 0.175,-0.062 0.186,-0.057C0.194,-0.053 0.198,-0.046 0.198,-0.037C0.198,-0.03 0.196,-0.025 0.191,-0.021C0.187,-0.017 0.181,-0.015 0.174,-0.015C0.157,-0.015 0.142,-0.023 0.129,-0.039C0.118,-0.051 0.113,-0.067 0.113,-0.086C0.113,-0.093 0.114,-0.104 0.115,-0.119ZM0.176,-0.279C0.172,-0.286 0.168,-0.292 0.164,-0.295C0.159,-0.299 0.154,-0.3 0.149,-0.3C0.124,-0.3 0.097,-0.279 0.068,-0.235C0.036,-0.188 0.021,-0.147 0.021,-0.114C0.021,-0.106 0.022,-0.099 0.025,-0.095C0.028,-0.091 0.033,-0.089 0.039,-0.089C0.055,-0.089 0.073,-0.105 0.094,-0.139C0.105,-0.157 0.12,-0.184 0.137,-0.219C0.149,-0.242 0.157,-0.258 0.162,-0.265C0.165,-0.269 0.169,-0.274 0.176,-0.279Z" style="fill:rgb(119,120,123);fill-rule:nonzero;"/>
        </g>
        <g transform="matrix(15.3601,0,0,15.3601,141.877,59.0807)">
            <path d="M0.453,-0.426C0.424,-0.392 0.363,-0.312 0.27,-0.186C0.231,-0.134 0.195,-0.09 0.161,-0.054C0.123,-0.014 0.091,0.006 0.065,0.006C0.048,0.006 0.034,-0.003 0.022,-0.022C0.015,-0.036 0.011,-0.052 0.011,-0.07C0.011,-0.13 0.037,-0.211 0.089,-0.313C0.14,-0.413 0.206,-0.509 0.288,-0.604C0.322,-0.643 0.346,-0.662 0.359,-0.662C0.363,-0.662 0.367,-0.66 0.372,-0.657C0.377,-0.652 0.38,-0.646 0.38,-0.639C0.38,-0.629 0.373,-0.617 0.357,-0.601C0.353,-0.597 0.328,-0.568 0.281,-0.513C0.22,-0.442 0.167,-0.359 0.121,-0.265C0.102,-0.224 0.086,-0.185 0.075,-0.147C0.067,-0.121 0.063,-0.1 0.063,-0.085C0.063,-0.078 0.065,-0.073 0.068,-0.067C0.072,-0.061 0.077,-0.058 0.084,-0.058C0.097,-0.058 0.115,-0.072 0.139,-0.099C0.199,-0.167 0.296,-0.291 0.432,-0.468C0.466,-0.513 0.505,-0.56 0.548,-0.609C0.56,-0.622 0.569,-0.632 0.576,-0.638C0.583,-0.644 0.59,-0.647 0.6,-0.647C0.606,-0.647 0.611,-0.645 0.616,-0.64C0.62,-0.635 0.622,-0.631 0.622,-0.625C0.622,-0.617 0.615,-0.602 0.6,-0.58C0.526,-0.469 0.468,-0.363 0.425,-0.262C0.383,-0.163 0.361,-0.089 0.359,-0.041C0.359,-0.023 0.358,-0.013 0.356,-0.009C0.353,-0.003 0.349,-0 0.342,-0C0.332,-0 0.323,-0.004 0.316,-0.013C0.311,-0.02 0.308,-0.028 0.308,-0.038C0.308,-0.059 0.314,-0.092 0.325,-0.135C0.339,-0.189 0.362,-0.249 0.394,-0.314C0.396,-0.318 0.415,-0.355 0.453,-0.426Z" style="fill:rgb(119,120,123);fill-rule:nonzero;"/>
        </g>
        <g transform="matrix(15.3601,0,0,15.3601,149.864,59.0807)">
            <path d="M0.062,-0.206C0.066,-0.209 0.07,-0.213 0.074,-0.217C0.142,-0.284 0.188,-0.317 0.211,-0.317C0.224,-0.317 0.23,-0.31 0.23,-0.296C0.23,-0.286 0.224,-0.275 0.213,-0.261C0.151,-0.189 0.12,-0.125 0.12,-0.069C0.12,-0.051 0.125,-0.034 0.134,-0.018C0.139,-0.011 0.141,-0.005 0.141,-0C0.141,0.003 0.139,0.007 0.135,0.011C0.131,0.015 0.126,0.018 0.12,0.018C0.107,0.018 0.096,0.009 0.086,-0.008C0.078,-0.024 0.073,-0.043 0.073,-0.066C0.073,-0.11 0.09,-0.159 0.123,-0.212C0.079,-0.184 0.038,-0.133 -0,-0.062C-0.01,-0.044 -0.021,-0.036 -0.032,-0.036C-0.037,-0.036 -0.042,-0.038 -0.045,-0.042C-0.05,-0.046 -0.052,-0.052 -0.052,-0.059C-0.052,-0.077 -0.032,-0.123 0.008,-0.197C0.029,-0.238 0.046,-0.267 0.059,-0.285C0.071,-0.303 0.082,-0.312 0.09,-0.312C0.095,-0.312 0.099,-0.31 0.103,-0.306C0.107,-0.302 0.109,-0.296 0.109,-0.291C0.109,-0.283 0.105,-0.273 0.095,-0.26C0.082,-0.24 0.07,-0.222 0.062,-0.206Z" style="fill:rgb(119,120,123);fill-rule:nonzero;"/>
        </g>
        <g transform="matrix(15.3601,0,0,15.3601,153.817,59.0807)">
            <path d="M0.1,-0.331C0.105,-0.331 0.11,-0.328 0.113,-0.324C0.116,-0.321 0.117,-0.317 0.117,-0.313C0.117,-0.308 0.112,-0.298 0.103,-0.284C0.069,-0.232 0.045,-0.189 0.031,-0.155C0.015,-0.12 0.002,-0.084 -0.01,-0.047C-0.015,-0.031 -0.023,-0.023 -0.034,-0.023C-0.041,-0.023 -0.046,-0.026 -0.05,-0.031C-0.053,-0.035 -0.055,-0.04 -0.055,-0.044C-0.055,-0.054 -0.045,-0.087 -0.024,-0.142C-0.008,-0.186 0.019,-0.234 0.055,-0.287C0.067,-0.304 0.076,-0.315 0.082,-0.321C0.087,-0.327 0.093,-0.331 0.1,-0.331ZM0.192,-0.512C0.207,-0.512 0.214,-0.504 0.214,-0.489C0.214,-0.476 0.207,-0.46 0.193,-0.444C0.179,-0.428 0.166,-0.42 0.153,-0.42C0.147,-0.42 0.142,-0.422 0.138,-0.427C0.134,-0.431 0.132,-0.436 0.132,-0.442C0.132,-0.458 0.141,-0.475 0.158,-0.492C0.171,-0.505 0.182,-0.512 0.192,-0.512Z" style="fill:rgb(119,120,123);fill-rule:nonzero;"/>
        </g>
        <g transform="matrix(15.3601,0,0,15.3601,155.842,59.0807)">
            <path d="M0.115,-0.119C0.104,-0.1 0.094,-0.084 0.083,-0.071C0.063,-0.045 0.043,-0.033 0.022,-0.033C0.005,-0.033 -0.009,-0.041 -0.019,-0.058C-0.025,-0.068 -0.028,-0.081 -0.028,-0.096C-0.028,-0.132 -0.016,-0.172 0.006,-0.215C0.032,-0.264 0.062,-0.301 0.098,-0.327C0.122,-0.344 0.144,-0.353 0.166,-0.353C0.18,-0.353 0.191,-0.348 0.2,-0.34C0.208,-0.332 0.212,-0.324 0.212,-0.314C0.212,-0.307 0.209,-0.297 0.204,-0.285C0.208,-0.278 0.211,-0.272 0.211,-0.267C0.211,-0.26 0.206,-0.249 0.197,-0.233C0.188,-0.217 0.178,-0.196 0.169,-0.169C0.159,-0.141 0.154,-0.119 0.154,-0.102C0.154,-0.088 0.158,-0.077 0.166,-0.068C0.168,-0.066 0.175,-0.062 0.186,-0.057C0.194,-0.053 0.198,-0.046 0.198,-0.037C0.198,-0.03 0.196,-0.025 0.191,-0.021C0.187,-0.017 0.181,-0.015 0.174,-0.015C0.157,-0.015 0.142,-0.023 0.129,-0.039C0.118,-0.051 0.113,-0.067 0.113,-0.086C0.113,-0.093 0.114,-0.104 0.115,-0.119ZM0.176,-0.279C0.172,-0.286 0.168,-0.292 0.164,-0.295C0.159,-0.299 0.154,-0.3 0.149,-0.3C0.124,-0.3 0.097,-0.279 0.068,-0.235C0.036,-0.188 0.021,-0.147 0.021,-0.114C0.021,-0.106 0.022,-0.099 0.025,-0.095C0.028,-0.091 0.033,-0.089 0.039,-0.089C0.055,-0.089 0.073,-0.105 0.094,-0.139C0.105,-0.157 0.12,-0.184 0.137,-0.219C0.149,-0.242 0.157,-0.258 0.162,-0.265C0.165,-0.269 0.169,-0.274 0.176,-0.279ZM0.1,-0.506C0.12,-0.506 0.156,-0.501 0.208,-0.491C0.216,-0.49 0.225,-0.489 0.235,-0.489C0.258,-0.489 0.282,-0.493 0.307,-0.5C0.312,-0.502 0.317,-0.502 0.32,-0.502C0.326,-0.502 0.33,-0.5 0.334,-0.494C0.336,-0.491 0.337,-0.487 0.337,-0.484C0.337,-0.472 0.329,-0.462 0.314,-0.455C0.294,-0.445 0.272,-0.44 0.249,-0.44C0.226,-0.44 0.19,-0.445 0.142,-0.453C0.135,-0.454 0.124,-0.455 0.11,-0.455C0.104,-0.455 0.099,-0.455 0.095,-0.455C0.077,-0.452 0.068,-0.451 0.067,-0.451C0.062,-0.451 0.057,-0.453 0.052,-0.458C0.048,-0.462 0.045,-0.468 0.045,-0.475C0.045,-0.495 0.064,-0.506 0.1,-0.506Z" style="fill:rgb(119,120,123);fill-rule:nonzero;"/>
        </g>
        <g transform="matrix(15.3601,0,0,15.3601,159.817,59.0807)">
            <path d="M0.16,-0.353C0.187,-0.353 0.2,-0.337 0.2,-0.304C0.2,-0.261 0.18,-0.206 0.14,-0.14C0.097,-0.068 0.054,-0.032 0.014,-0.032C-0.005,-0.032 -0.019,-0.041 -0.028,-0.058C-0.032,-0.067 -0.035,-0.077 -0.035,-0.09C-0.035,-0.132 -0.02,-0.177 0.008,-0.226C0.035,-0.271 0.066,-0.306 0.103,-0.331C0.124,-0.346 0.143,-0.353 0.16,-0.353ZM0.109,-0.168C0.101,-0.175 0.097,-0.18 0.097,-0.184C0.097,-0.186 0.102,-0.193 0.113,-0.205C0.142,-0.238 0.157,-0.264 0.157,-0.285C0.157,-0.287 0.156,-0.29 0.154,-0.292C0.152,-0.297 0.148,-0.3 0.142,-0.3C0.132,-0.3 0.116,-0.29 0.096,-0.27C0.07,-0.243 0.05,-0.217 0.037,-0.189C0.021,-0.157 0.013,-0.131 0.013,-0.11C0.013,-0.105 0.014,-0.1 0.017,-0.096C0.021,-0.09 0.027,-0.087 0.033,-0.087C0.049,-0.087 0.066,-0.099 0.083,-0.122C0.091,-0.132 0.098,-0.142 0.103,-0.152C0.107,-0.163 0.11,-0.168 0.109,-0.168Z" style="fill:rgb(119,120,123);fill-rule:nonzero;"/>
        </g>
        <g transform="matrix(15.3601,0,0,15.3601,167.22,59.0807)">
            <path d="M0.412,-0.666C0.433,-0.666 0.45,-0.658 0.462,-0.643C0.471,-0.63 0.476,-0.615 0.476,-0.598C0.476,-0.566 0.465,-0.53 0.444,-0.49C0.426,-0.455 0.403,-0.424 0.375,-0.396C0.357,-0.378 0.342,-0.369 0.332,-0.369C0.325,-0.369 0.319,-0.373 0.313,-0.379C0.309,-0.384 0.307,-0.39 0.307,-0.396C0.307,-0.407 0.317,-0.42 0.336,-0.435C0.364,-0.456 0.387,-0.479 0.403,-0.503C0.428,-0.539 0.44,-0.569 0.44,-0.594C0.44,-0.604 0.438,-0.612 0.433,-0.617C0.429,-0.622 0.422,-0.624 0.414,-0.624C0.396,-0.624 0.37,-0.611 0.337,-0.585C0.3,-0.556 0.26,-0.516 0.219,-0.465C0.166,-0.401 0.125,-0.338 0.098,-0.276C0.069,-0.211 0.055,-0.156 0.055,-0.111C0.055,-0.089 0.061,-0.07 0.074,-0.055C0.088,-0.038 0.105,-0.029 0.125,-0.029C0.16,-0.029 0.204,-0.057 0.258,-0.111C0.274,-0.128 0.293,-0.152 0.316,-0.184C0.331,-0.204 0.34,-0.218 0.345,-0.227C0.35,-0.236 0.355,-0.241 0.362,-0.241C0.369,-0.241 0.373,-0.237 0.373,-0.23C0.373,-0.216 0.354,-0.183 0.318,-0.132C0.288,-0.089 0.254,-0.054 0.218,-0.027C0.177,0.003 0.138,0.018 0.102,0.018C0.063,0.018 0.034,0.001 0.013,-0.033C-0,-0.055 -0.007,-0.08 -0.007,-0.108C-0.007,-0.178 0.026,-0.267 0.093,-0.374C0.149,-0.465 0.209,-0.539 0.272,-0.594C0.326,-0.642 0.373,-0.666 0.412,-0.666Z" style="fill:rgb(119,120,123);fill-rule:nonzero;"/>
        </g>
        <g transform="matrix(15.3601,0,0,15.3601,173.64,59.0807)">
            <path d="M0.061,-0.199C0.092,-0.233 0.129,-0.266 0.171,-0.299C0.186,-0.311 0.202,-0.321 0.219,-0.332C0.227,-0.336 0.233,-0.339 0.235,-0.339C0.24,-0.339 0.245,-0.335 0.25,-0.328C0.252,-0.324 0.254,-0.321 0.254,-0.317C0.254,-0.312 0.248,-0.304 0.235,-0.293C0.202,-0.267 0.186,-0.247 0.186,-0.234C0.186,-0.226 0.19,-0.223 0.198,-0.223C0.212,-0.223 0.236,-0.234 0.271,-0.257C0.276,-0.261 0.281,-0.263 0.285,-0.263C0.288,-0.263 0.29,-0.262 0.293,-0.259C0.296,-0.256 0.297,-0.253 0.297,-0.25C0.297,-0.24 0.284,-0.225 0.256,-0.205C0.228,-0.184 0.201,-0.173 0.175,-0.173C0.164,-0.173 0.155,-0.176 0.146,-0.181C0.139,-0.186 0.135,-0.194 0.135,-0.206C0.135,-0.214 0.138,-0.223 0.145,-0.233C0.119,-0.215 0.089,-0.184 0.054,-0.14C0.034,-0.112 0.014,-0.079 -0.006,-0.039C-0.013,-0.024 -0.023,-0.016 -0.034,-0.016C-0.046,-0.016 -0.052,-0.022 -0.052,-0.033C-0.052,-0.044 -0.042,-0.074 -0.023,-0.122C0.005,-0.194 0.034,-0.249 0.064,-0.289C0.083,-0.313 0.099,-0.325 0.112,-0.325C0.116,-0.325 0.12,-0.324 0.124,-0.321C0.128,-0.318 0.13,-0.314 0.13,-0.309C0.13,-0.304 0.127,-0.297 0.12,-0.289C0.119,-0.287 0.11,-0.276 0.094,-0.256C0.08,-0.237 0.068,-0.218 0.061,-0.199Z" style="fill:rgb(119,120,123);fill-rule:nonzero;"/>
        </g>
        <g transform="matrix(15.3601,0,0,15.3601,178.335,59.0807)">
            <path d="M0.1,-0.331C0.105,-0.331 0.11,-0.328 0.113,-0.324C0.116,-0.321 0.117,-0.317 0.117,-0.313C0.117,-0.308 0.112,-0.298 0.103,-0.284C0.069,-0.232 0.045,-0.189 0.031,-0.155C0.015,-0.12 0.002,-0.084 -0.01,-0.047C-0.015,-0.031 -0.023,-0.023 -0.034,-0.023C-0.041,-0.023 -0.046,-0.026 -0.05,-0.031C-0.053,-0.035 -0.055,-0.04 -0.055,-0.044C-0.055,-0.054 -0.045,-0.087 -0.024,-0.142C-0.008,-0.186 0.019,-0.234 0.055,-0.287C0.067,-0.304 0.076,-0.315 0.082,-0.321C0.087,-0.327 0.093,-0.331 0.1,-0.331ZM0.192,-0.512C0.207,-0.512 0.214,-0.504 0.214,-0.489C0.214,-0.476 0.207,-0.46 0.193,-0.444C0.179,-0.428 0.166,-0.42 0.153,-0.42C0.147,-0.42 0.142,-0.422 0.138,-0.427C0.134,-0.431 0.132,-0.436 0.132,-0.442C0.132,-0.458 0.141,-0.475 0.158,-0.492C0.171,-0.505 0.182,-0.512 0.192,-0.512Z" style="fill:rgb(119,120,123);fill-rule:nonzero;"/>
        </g>
        <g transform="matrix(15.3601,0,0,15.3601,180.36,59.0807)">
            <path d="M0.196,-0.362C0.216,-0.362 0.231,-0.359 0.241,-0.352C0.251,-0.344 0.256,-0.333 0.256,-0.319C0.256,-0.3 0.249,-0.281 0.235,-0.263C0.221,-0.246 0.201,-0.233 0.173,-0.222C0.158,-0.217 0.146,-0.214 0.136,-0.214C0.122,-0.214 0.115,-0.22 0.115,-0.232C0.115,-0.24 0.119,-0.246 0.127,-0.25C0.129,-0.251 0.14,-0.254 0.16,-0.259C0.172,-0.261 0.183,-0.267 0.193,-0.276C0.202,-0.283 0.207,-0.292 0.207,-0.3C0.207,-0.307 0.205,-0.312 0.201,-0.315C0.197,-0.319 0.191,-0.32 0.183,-0.32C0.164,-0.32 0.143,-0.313 0.121,-0.297C0.094,-0.28 0.081,-0.26 0.081,-0.236C0.081,-0.219 0.09,-0.198 0.107,-0.172C0.126,-0.145 0.136,-0.121 0.136,-0.102C0.136,-0.073 0.123,-0.051 0.098,-0.035C0.082,-0.025 0.064,-0.02 0.044,-0.02C0.013,-0.02 -0.011,-0.031 -0.027,-0.053C-0.038,-0.069 -0.044,-0.088 -0.044,-0.11C-0.044,-0.135 -0.037,-0.157 -0.024,-0.174C-0.016,-0.185 -0.007,-0.191 0.002,-0.191C0.01,-0.191 0.014,-0.188 0.014,-0.181C0.014,-0.179 0.013,-0.175 0.01,-0.169C0.002,-0.155 -0.001,-0.139 -0.001,-0.12C-0.001,-0.104 0.004,-0.091 0.016,-0.08C0.026,-0.07 0.037,-0.065 0.05,-0.065C0.063,-0.065 0.073,-0.069 0.08,-0.078C0.086,-0.085 0.089,-0.094 0.089,-0.105C0.089,-0.119 0.081,-0.136 0.065,-0.158C0.044,-0.188 0.033,-0.215 0.033,-0.24C0.033,-0.272 0.051,-0.301 0.086,-0.326C0.121,-0.35 0.157,-0.362 0.196,-0.362Z" style="fill:rgb(119,120,123);fill-rule:nonzero;"/>
        </g>
        <g transform="matrix(15.3601,0,0,15.3601,184.267,59.0807)">
            <path d="M0.15,-0.353C0.129,-0.32 0.11,-0.283 0.092,-0.242C0.066,-0.184 0.053,-0.141 0.053,-0.112C0.053,-0.104 0.055,-0.098 0.058,-0.094C0.062,-0.09 0.067,-0.087 0.074,-0.087C0.09,-0.087 0.11,-0.103 0.133,-0.133C0.147,-0.152 0.16,-0.171 0.172,-0.19C0.178,-0.201 0.185,-0.206 0.192,-0.206C0.196,-0.206 0.2,-0.205 0.203,-0.202C0.205,-0.199 0.207,-0.196 0.207,-0.193C0.207,-0.181 0.191,-0.154 0.159,-0.112C0.121,-0.062 0.087,-0.037 0.056,-0.037C0.039,-0.037 0.025,-0.045 0.014,-0.06C0.007,-0.07 0.004,-0.084 0.004,-0.102C0.004,-0.141 0.015,-0.187 0.038,-0.239C0.044,-0.252 0.059,-0.284 0.084,-0.333C0.075,-0.331 0.069,-0.33 0.064,-0.33C0.057,-0.33 0.051,-0.332 0.046,-0.335C0.039,-0.34 0.035,-0.345 0.035,-0.352C0.035,-0.36 0.04,-0.367 0.049,-0.372C0.052,-0.373 0.064,-0.375 0.085,-0.378C0.093,-0.379 0.105,-0.382 0.12,-0.387C0.131,-0.408 0.15,-0.436 0.175,-0.471C0.19,-0.49 0.2,-0.503 0.205,-0.509C0.213,-0.517 0.22,-0.521 0.226,-0.521C0.23,-0.521 0.234,-0.519 0.238,-0.514C0.242,-0.51 0.244,-0.506 0.244,-0.501C0.244,-0.493 0.235,-0.476 0.217,-0.451C0.205,-0.435 0.196,-0.422 0.19,-0.412C0.226,-0.421 0.252,-0.426 0.268,-0.426C0.285,-0.426 0.294,-0.419 0.294,-0.404C0.294,-0.396 0.291,-0.391 0.285,-0.387C0.282,-0.385 0.273,-0.384 0.26,-0.382C0.254,-0.383 0.23,-0.376 0.186,-0.364C0.174,-0.36 0.162,-0.356 0.15,-0.353Z" style="fill:rgb(119,120,123);fill-rule:nonzero;"/>
        </g>
        <g transform="matrix(15.3601,0,0,15.3601,188.017,59.0807)">
            <path d="M0.115,-0.119C0.104,-0.1 0.094,-0.084 0.083,-0.071C0.063,-0.045 0.043,-0.033 0.022,-0.033C0.005,-0.033 -0.009,-0.041 -0.019,-0.058C-0.025,-0.068 -0.028,-0.081 -0.028,-0.096C-0.028,-0.132 -0.016,-0.172 0.006,-0.215C0.032,-0.264 0.062,-0.301 0.098,-0.327C0.122,-0.344 0.144,-0.353 0.166,-0.353C0.18,-0.353 0.191,-0.348 0.2,-0.34C0.208,-0.332 0.212,-0.324 0.212,-0.314C0.212,-0.307 0.209,-0.297 0.204,-0.285C0.208,-0.278 0.211,-0.272 0.211,-0.267C0.211,-0.26 0.206,-0.249 0.197,-0.233C0.188,-0.217 0.178,-0.196 0.169,-0.169C0.159,-0.141 0.154,-0.119 0.154,-0.102C0.154,-0.088 0.158,-0.077 0.166,-0.068C0.168,-0.066 0.175,-0.062 0.186,-0.057C0.194,-0.053 0.198,-0.046 0.198,-0.037C0.198,-0.03 0.196,-0.025 0.191,-0.021C0.187,-0.017 0.181,-0.015 0.174,-0.015C0.157,-0.015 0.142,-0.023 0.129,-0.039C0.118,-0.051 0.113,-0.067 0.113,-0.086C0.113,-0.093 0.114,-0.104 0.115,-0.119ZM0.176,-0.279C0.172,-0.286 0.168,-0.292 0.164,-0.295C0.159,-0.299 0.154,-0.3 0.149,-0.3C0.124,-0.3 0.097,-0.279 0.068,-0.235C0.036,-0.188 0.021,-0.147 0.021,-0.114C0.021,-0.106 0.022,-0.099 0.025,-0.095C0.028,-0.091 0.033,-0.089 0.039,-0.089C0.055,-0.089 0.073,-0.105 0.094,-0.139C0.105,-0.157 0.12,-0.184 0.137,-0.219C0.149,-0.242 0.157,-0.258 0.162,-0.265C0.165,-0.269 0.169,-0.274 0.176,-0.279ZM0.1,-0.506C0.12,-0.506 0.156,-0.501 0.208,-0.491C0.216,-0.49 0.225,-0.489 0.235,-0.489C0.258,-0.489 0.282,-0.493 0.307,-0.5C0.312,-0.502 0.317,-0.502 0.32,-0.502C0.326,-0.502 0.33,-0.5 0.334,-0.494C0.336,-0.491 0.337,-0.487 0.337,-0.484C0.337,-0.472 0.329,-0.462 0.314,-0.455C0.294,-0.445 0.272,-0.44 0.249,-0.44C0.226,-0.44 0.19,-0.445 0.142,-0.453C0.135,-0.454 0.124,-0.455 0.11,-0.455C0.104,-0.455 0.099,-0.455 0.095,-0.455C0.077,-0.452 0.068,-0.451 0.067,-0.451C0.062,-0.451 0.057,-0.453 0.052,-0.458C0.048,-0.462 0.045,-0.468 0.045,-0.475C0.045,-0.495 0.064,-0.506 0.1,-0.506Z" style="fill:rgb(119,120,123);fill-rule:nonzero;"/>
        </g>
    </g>
</svg>
