<?xml version="1.0" encoding="UTF-8" standalone="no"?>
<!DOCTYPE svg PUBLIC "-//W3C//DTD SVG 1.1//EN" "http://www.w3.org/Graphics/SVG/1.1/DTD/svg11.dtd">
<svg width="100%" height="100%" viewBox="0 0 1200 500" version="1.1" xmlns="http://www.w3.org/2000/svg" xmlns:xlink="http://www.w3.org/1999/xlink" xml:space="preserve" xmlns:serif="http://www.serif.com/" style="fill-rule:evenodd;clip-rule:evenodd;stroke-linejoin:round;stroke-miterlimit:2;">
    <g transform="matrix(8.53769,0,0,8.5368,-3670.85,69.585)">
        <g id="g361">
            <path id="path364" d="M558.35,0L442.121,0C440.874,0 439.859,1.015 439.859,2.261L439.859,41.757C439.859,42.039 440.087,42.268 440.37,42.268L560.1,42.268C560.382,42.268 560.611,42.039 560.611,41.757L560.611,2.261C560.611,1.015 559.596,0 558.35,0ZM442.121,1.021L558.35,1.021C559.034,1.021 559.589,1.578 559.589,2.261L559.589,29.649L476.516,29.649C473.471,35.154 467.604,38.893 460.872,38.893C454.137,38.893 448.272,35.158 445.229,29.649L440.88,29.649L440.88,2.261C440.88,1.578 441.437,1.021 442.121,1.021Z" style="fill-rule:nonzero;"/>
            <g id="g5908_4_" transform="matrix(0.872921,0,0,0.872921,50.1254,143.214)">
                <path id="path5906_4_" d="M486.267,-141.531C486.273,-132.85 479.239,-125.81 470.559,-125.803C461.879,-125.798 454.838,-132.831 454.832,-141.511L454.832,-141.531C454.826,-150.212 461.86,-157.253 470.54,-157.258C479.221,-157.263 486.263,-150.23 486.267,-141.55L486.267,-141.531Z" style="fill:white;fill-rule:nonzero;"/>
                <g id="g5706_4_" transform="matrix(1,0,0,1,-289.616,99.0653)">
                    <path id="path5708_4_" d="M772.943,-253.398C776.428,-249.913 778.171,-245.645 778.171,-240.596C778.171,-235.546 776.458,-231.324 773.032,-227.928C769.396,-224.352 765.1,-222.564 760.142,-222.564C755.245,-222.564 751.022,-224.337 747.478,-227.884C743.932,-231.429 742.16,-235.667 742.16,-240.596C742.16,-245.524 743.932,-249.792 747.478,-253.398C750.933,-256.885 755.155,-258.628 760.142,-258.628C765.191,-258.628 769.457,-256.885 772.943,-253.398ZM749.824,-251.054C746.878,-248.077 745.404,-244.591 745.404,-240.591C745.404,-236.593 746.863,-233.136 749.778,-230.22C752.696,-227.304 756.167,-225.846 760.196,-225.846C764.225,-225.846 767.726,-227.319 770.703,-230.265C773.529,-233.001 774.942,-236.442 774.942,-240.591C774.942,-244.709 773.506,-248.205 770.634,-251.076C767.763,-253.947 764.284,-255.383 760.196,-255.383C756.108,-255.383 752.649,-253.939 749.824,-251.054ZM757.578,-242.351C757.128,-243.332 756.455,-243.823 755.555,-243.823C753.967,-243.823 753.173,-242.753 753.173,-240.614C753.173,-238.475 753.967,-237.406 755.555,-237.406C756.605,-237.406 757.354,-237.927 757.804,-238.97L760.007,-237.797C758.956,-235.932 757.381,-234.998 755.281,-234.998C753.662,-234.998 752.364,-235.495 751.389,-236.488C750.414,-237.481 749.926,-238.851 749.926,-240.596C749.926,-242.311 750.429,-243.673 751.434,-244.681C752.439,-245.69 753.692,-246.193 755.192,-246.193C757.413,-246.193 759.001,-245.319 759.963,-243.571L757.578,-242.351ZM767.942,-242.351C767.491,-243.332 766.83,-243.823 765.96,-243.823C764.339,-243.823 763.528,-242.753 763.528,-240.614C763.528,-238.475 764.339,-237.406 765.96,-237.406C767.011,-237.406 767.747,-237.927 768.167,-238.97L770.419,-237.797C769.371,-235.932 767.798,-234.998 765.701,-234.998C764.084,-234.998 762.789,-235.495 761.815,-236.488C760.843,-237.481 760.355,-238.851 760.355,-240.596C760.355,-242.311 760.849,-243.673 761.838,-244.681C762.826,-245.69 764.084,-246.193 765.612,-246.193C767.828,-246.193 769.415,-245.319 770.373,-243.571L767.942,-242.351Z" style="fill-rule:nonzero;"/>
                </g>
            </g>
            <g id="g370">
                <path id="path372" d="M488.253,32.956C488.571,32.956 488.862,32.984 489.124,33.04C489.385,33.096 489.609,33.187 489.796,33.315C489.983,33.442 490.127,33.612 490.231,33.823C490.334,34.035 490.385,34.296 490.385,34.607C490.385,34.943 490.309,35.223 490.156,35.446C490.003,35.671 489.778,35.854 489.478,35.997C489.89,36.115 490.198,36.322 490.401,36.618C490.604,36.914 490.706,37.27 490.706,37.687C490.706,38.023 490.64,38.314 490.509,38.561C490.378,38.806 490.202,39.007 489.981,39.162C489.759,39.318 489.506,39.434 489.223,39.508C488.939,39.583 488.648,39.62 488.348,39.62L485.112,39.62L485.112,32.956L488.253,32.956L488.253,32.956ZM488.067,35.651C488.328,35.651 488.543,35.589 488.711,35.465C488.879,35.341 488.963,35.14 488.963,34.86C488.963,34.705 488.935,34.577 488.879,34.479C488.823,34.379 488.749,34.302 488.655,34.245C488.561,34.189 488.454,34.15 488.333,34.129C488.211,34.107 488.084,34.097 487.954,34.097L486.581,34.097L486.581,35.651L488.067,35.651ZM488.152,38.479C488.295,38.479 488.432,38.466 488.563,38.438C488.694,38.409 488.809,38.362 488.91,38.298C489.009,38.232 489.088,38.144 489.148,38.031C489.208,37.92 489.237,37.776 489.237,37.603C489.237,37.261 489.14,37.017 488.947,36.87C488.753,36.725 488.499,36.651 488.18,36.651L486.581,36.651L486.581,38.479L488.152,38.479Z" style="fill:white;fill-rule:nonzero;"/>
                <path id="path374" d="M490.964,32.956L492.608,32.956L494.168,35.588L495.719,32.956L497.353,32.956L494.879,37.063L494.879,39.62L493.411,39.62L493.411,37.025L490.964,32.956Z" style="fill:white;fill-rule:nonzero;"/>
            </g>
            <g id="g376">
                <path id="path378" d="M512.831,32.956L515.615,37.427L515.63,37.427L515.63,32.956L517.005,32.956L517.005,39.62L515.54,39.62L512.766,35.158L512.748,35.158L512.748,39.62L511.373,39.62L511.373,32.956L512.831,32.956Z" style="fill:white;fill-rule:nonzero;"/>
                <path id="path380" d="M522.569,34.731C522.482,34.591 522.373,34.468 522.242,34.362C522.111,34.257 521.963,34.174 521.798,34.115C521.633,34.056 521.46,34.026 521.281,34.026C520.951,34.026 520.67,34.09 520.44,34.218C520.209,34.345 520.023,34.516 519.88,34.73C519.737,34.945 519.632,35.189 519.567,35.463C519.501,35.736 519.469,36.02 519.469,36.312C519.469,36.592 519.501,36.864 519.567,37.128C519.632,37.393 519.737,37.631 519.88,37.842C520.023,38.054 520.209,38.223 520.44,38.351C520.67,38.479 520.951,38.542 521.281,38.542C521.728,38.542 522.079,38.405 522.331,38.131C522.583,37.857 522.737,37.496 522.792,37.048L524.211,37.048C524.174,37.465 524.078,37.842 523.922,38.178C523.767,38.515 523.561,38.801 523.306,39.038C523.051,39.275 522.752,39.456 522.41,39.581C522.068,39.706 521.691,39.769 521.281,39.769C520.77,39.769 520.311,39.68 519.903,39.502C519.496,39.325 519.151,39.08 518.871,38.77C518.589,38.458 518.375,38.092 518.225,37.672C518.076,37.251 518,36.799 518,36.313C518,35.814 518.076,35.353 518.225,34.926C518.375,34.499 518.589,34.127 518.871,33.81C519.151,33.492 519.496,33.243 519.903,33.063C520.311,32.882 520.77,32.792 521.281,32.792C521.648,32.792 521.995,32.845 522.322,32.951C522.648,33.057 522.941,33.211 523.199,33.414C523.458,33.616 523.67,33.867 523.838,34.166C524.006,34.465 524.112,34.808 524.156,35.193L522.737,35.193C522.712,35.025 522.656,34.871 522.569,34.731Z" style="fill:white;fill-rule:nonzero;"/>
            </g>
            <g id="g382">
                <path id="path384" d="M538.831,32.956L541.615,37.427L541.63,37.427L541.63,32.956L543.005,32.956L543.005,39.62L541.54,39.62L538.766,35.158L538.748,35.158L538.748,39.62L537.373,39.62L537.373,32.956L538.831,32.956Z" style="fill:white;fill-rule:nonzero;"/>
                <path id="path386" d="M547.167,32.956C547.598,32.956 547.998,33.024 548.369,33.161C548.74,33.298 549.06,33.504 549.332,33.777C549.602,34.051 549.814,34.394 549.966,34.804C550.12,35.215 550.196,35.697 550.196,36.251C550.196,36.736 550.133,37.184 550.009,37.595C549.884,38.005 549.696,38.36 549.444,38.658C549.191,38.957 548.876,39.192 548.5,39.363C548.123,39.534 547.679,39.62 547.167,39.62L544.29,39.62L544.29,32.956L547.167,32.956L547.167,32.956ZM547.065,38.386C547.277,38.386 547.482,38.352 547.681,38.283C547.88,38.215 548.058,38.102 548.213,37.942C548.369,37.784 548.494,37.578 548.587,37.323C548.68,37.068 548.727,36.757 548.727,36.391C548.727,36.055 548.695,35.752 548.629,35.481C548.564,35.211 548.457,34.979 548.307,34.787C548.158,34.595 547.96,34.446 547.714,34.344C547.468,34.241 547.165,34.19 546.804,34.19L545.758,34.19L545.758,38.386L547.065,38.386L547.065,38.386Z" style="fill:white;fill-rule:nonzero;"/>
            </g>
            <g transform="matrix(1.14682,0,0,1.14682,219.006,166.153)">
                <g id="g6370_1_">
                    <g id="g7610_1_">
                        <path id="path6372_1_" d="M269.618,-131.735C269.622,-126.908 265.712,-122.993 260.885,-122.989C256.058,-122.986 252.143,-126.896 252.14,-131.722L252.14,-131.735C252.136,-136.562 256.046,-140.477 260.873,-140.481C265.699,-140.484 269.615,-136.574 269.618,-131.748L269.618,-131.735Z" style="fill:white;fill-rule:nonzero;"/>
                        <path id="path6374_1_" d="M260.865,-141.91C263.719,-141.91 266.129,-140.926 268.099,-138.96C270.069,-136.992 271.054,-134.584 271.054,-131.735C271.054,-128.886 270.086,-126.503 268.15,-124.587C266.095,-122.568 263.667,-121.56 260.865,-121.56C258.099,-121.56 255.713,-122.561 253.709,-124.562C251.705,-126.562 250.704,-128.954 250.704,-131.735C250.704,-134.516 251.705,-136.925 253.709,-138.96C255.661,-140.926 258.048,-141.91 260.865,-141.91ZM252.993,-134.469C252.69,-133.61 252.537,-132.699 252.537,-131.735C252.537,-129.48 253.362,-127.53 255.008,-125.884C256.655,-124.24 258.616,-123.417 260.892,-123.417C263.166,-123.417 265.144,-124.248 266.825,-125.91C267.388,-126.454 267.852,-127.047 268.216,-127.69L264.38,-129.398C264.12,-128.107 262.969,-127.236 261.58,-127.134L261.58,-125.565L260.411,-125.565L260.411,-127.134C259.269,-127.146 258.167,-127.613 257.323,-128.352L258.724,-129.765C259.399,-129.13 260.074,-128.845 260.996,-128.845C261.592,-128.845 262.254,-129.078 262.254,-129.856C262.254,-130.131 262.148,-130.323 261.98,-130.467L261.009,-130.898L259.802,-131.437C259.204,-131.703 258.697,-131.928 258.19,-132.154L252.993,-134.469ZM260.892,-140.079C258.581,-140.079 256.63,-139.265 255.033,-137.636C254.599,-137.198 254.221,-136.74 253.901,-136.262L257.79,-134.53C258.141,-135.609 259.166,-136.264 260.411,-136.337L260.411,-137.905L261.58,-137.905L261.58,-136.337C262.384,-136.298 263.267,-136.077 264.136,-135.404L262.799,-134.029C262.306,-134.379 261.684,-134.625 261.06,-134.625C260.554,-134.625 259.84,-134.47 259.84,-133.835C259.84,-133.738 259.873,-133.653 259.932,-133.576L261.233,-132.998L262.114,-132.605C262.676,-132.354 263.215,-132.115 263.747,-131.878L268.961,-129.557C269.133,-130.239 269.22,-130.966 269.22,-131.735C269.22,-134.058 268.405,-136.026 266.775,-137.636C265.161,-139.265 263.201,-140.079 260.892,-140.079Z" style="fill-rule:nonzero;"/>
                    </g>
                </g>
            </g>
            <g id="g6394_1_" transform="matrix(0.624995,0,0,0.624995,312.851,316.933)">
                <path id="path6396_1_" d="M387.834,-482.974C387.842,-473.563 380.217,-465.927 370.806,-465.919C361.393,-465.913 353.758,-473.537 353.751,-482.95L353.751,-482.974C353.745,-492.385 361.368,-500.021 370.781,-500.029C380.192,-500.036 387.828,-492.411 387.834,-482.999L387.834,-482.974Z" style="fill:white;fill-rule:nonzero;"/>
                <g id="g6398_1_" transform="matrix(1,0,0,1,-23.9521,-87.921)">
                    <path id="path6400_1_" d="M394.478,-413.723C389.307,-413.723 384.928,-411.92 381.346,-408.31C377.669,-404.576 375.831,-400.158 375.831,-395.053C375.831,-389.949 377.669,-385.563 381.346,-381.891C385.021,-378.219 389.4,-376.383 394.478,-376.383C399.619,-376.383 404.074,-378.235 407.844,-381.936C411.394,-385.453 413.172,-389.826 413.172,-395.053C413.172,-400.282 411.365,-404.7 407.75,-408.31C404.136,-411.92 399.711,-413.723 394.478,-413.723ZM394.524,-410.365C398.761,-410.365 402.36,-408.87 405.321,-405.882C408.311,-402.926 409.805,-399.318 409.805,-395.053C409.805,-390.759 408.343,-387.196 405.414,-384.365C402.329,-381.315 398.699,-379.792 394.524,-379.792C390.349,-379.792 386.75,-381.3 383.728,-384.32C380.706,-387.337 379.196,-390.916 379.196,-395.053C379.196,-399.193 380.722,-402.802 383.777,-405.882C386.705,-408.87 390.286,-410.365 394.524,-410.365Z" style="fill-rule:nonzero;"/>
                    <g id="g6402_1_">
                        <path id="path6404_1_" d="M401.555,-399.478L387.985,-399.478L387.985,-396.264L401.555,-396.264L401.555,-399.478ZM401.555,-393.478L387.985,-393.478L387.985,-390.264L401.555,-390.264L401.555,-393.478Z" style="fill-rule:nonzero;"/>
                    </g>
                </g>
            </g>
            <g id="g398">
                <circle id="circle400" cx="491.947" cy="15.314" r="10.806" style="fill:white;"/>
                <g id="g402">
                    <path id="path404" d="M495.075,12.187C495.075,11.771 494.737,11.434 494.321,11.434L489.548,11.434C489.132,11.434 488.794,11.771 488.794,12.187L488.794,16.96L490.126,16.96L490.126,22.612L493.743,22.612L493.743,16.96L495.075,16.96L495.075,12.187L495.075,12.187Z" style="fill-rule:nonzero;"/>
                    <circle id="circle406" cx="491.935" cy="9.172" r="1.632"/>
                </g>
                <path id="path408" d="M491.919,3.408C488.688,3.408 485.952,4.535 483.712,6.792C481.415,9.125 480.266,11.887 480.266,15.076C480.266,18.265 481.415,21.008 483.712,23.303C486.01,25.597 488.747,26.745 491.919,26.745C495.132,26.745 497.918,25.588 500.274,23.273C502.494,21.076 503.603,18.343 503.603,15.076C503.603,11.808 502.474,9.047 500.215,6.791C497.957,4.535 495.192,3.408 491.919,3.408ZM491.95,5.507C494.598,5.507 496.846,6.441 498.696,8.308C500.566,10.155 501.501,12.412 501.501,15.076C501.501,17.759 500.585,19.987 498.754,21.756C496.827,23.662 494.558,24.615 491.95,24.615C489.339,24.615 487.09,23.672 485.202,21.786C483.313,19.899 482.369,17.663 482.369,15.076C482.369,12.489 483.323,10.233 485.231,8.308C487.062,6.441 489.301,5.507 491.95,5.507Z"/>
            </g>
        </g>
    </g>
</svg>
