<?xml version="1.0" encoding="UTF-8" standalone="no"?>
<!DOCTYPE svg PUBLIC "-//W3C//DTD SVG 1.1//EN" "http://www.w3.org/Graphics/SVG/1.1/DTD/svg11.dtd">
<svg width="100%" height="100%" viewBox="0 0 1200 500" version="1.1" xmlns="http://www.w3.org/2000/svg" xmlns:xlink="http://www.w3.org/1999/xlink" xml:space="preserve" xmlns:serif="http://www.serif.com/" style="fill-rule:evenodd;clip-rule:evenodd;stroke-linejoin:round;stroke-miterlimit:2;">
    <g transform="matrix(3.1344,0,0,3.1344,-329.605,-260.051)">
        <g transform="matrix(0.367398,0,0,0.367398,382.022,108.576)">
            <rect x="32.536" y="30.081" width="219.919" height="219.919" style="fill:rgb(0,89,170);"/>
        </g>
        <g transform="matrix(0.367398,0,0,0.170218,293.116,87.7083)">
            <rect x="32.536" y="30.081" width="219.919" height="219.919" style="fill:rgb(0,89,170);"/>
        </g>
        <g transform="matrix(0.273724,0,0,0.273724,110.704,161.54)">
            <rect x="32.536" y="30.081" width="219.919" height="219.919" style="fill:rgb(0,89,170);"/>
        </g>
        <g transform="matrix(4.27503,0,0,4.27503,-178.418,-323.74)">
            <text x="68.536px" y="106.081px" style="font-family:'OpenSans-Bold', 'Open Sans', sans-serif;font-weight:700;font-size:12px;fill:rgb(0,89,170);">TITULO</text>
        </g>
        <g transform="matrix(2.2451,0,0,2.2451,-36.9038,-79.495)">
            <text x="68.536px" y="106.081px" style="font-family:'OpenSans-Regular', 'Open Sans', sans-serif;font-size:12px;fill:rgb(0,89,170);">DATA</text>
        </g>
        <g transform="matrix(2.2451,0,0,2.2451,43.1321,-8.45537)">
            <text x="68.536px" y="106.081px" style="font-family:'OpenSans-Regular', 'Open Sans', sans-serif;font-size:12px;fill:rgb(0,89,170);">PALESTRANTE</text>
        </g>
        <g transform="matrix(1.3846,0,0,1.3846,88.6036,36.2145)">
            <text x="68.536px" y="106.081px" style="font-family:'OpenSans-Regular', 'Open Sans', sans-serif;font-size:12px;fill:rgb(0,89,170);">SUBITEM 1</text>
            <text x="68.536px" y="118.081px" style="font-family:'OpenSans-Regular', 'Open Sans', sans-serif;font-size:12px;fill:rgb(0,89,170);">SUBITEM 2</text>
        </g>
        <g transform="matrix(2.2451,0,0,2.2451,237.994,-8.45537)">
            <text x="68.536px" y="106.081px" style="font-family:'OpenSans-Regular', 'Open Sans', sans-serif;font-size:12px;fill:rgb(0,89,170);">LOCAL</text>
        </g>
        <g transform="matrix(2.2451,0,0,2.2451,233.509,-125.437)">
            <text x="72.256px" y="106.081px" style="font-family:'OpenSans-Regular', 'Open Sans', sans-serif;font-size:12px;fill:rgb(0,89,170);">MAPA</text>
        </g>
        <g transform="matrix(2.2451,0,0,2.2451,55.8306,-79.495)">
            <text x="68.536px" y="106.081px" style="font-family:'OpenSans-Regular', 'Open Sans', sans-serif;font-size:12px;fill:rgb(0,89,170);">HORA</text>
        </g>
        <g transform="matrix(1.40728,0,0,1.40728,202.304,9.38384)">
            <text x="68.536px" y="106.081px" style="font-family:'OpenSans-Regular', 'Open Sans', sans-serif;font-size:12px;fill:rgb(0,89,170);">INSCRIÇÃO</text>
        </g>
        <g transform="matrix(2.10604,0,0,2.10604,134.21,-28.9046)">
            <text x="68.536px" y="106.081px" style="font-family:'OpenSans-Regular', 'Open Sans', sans-serif;font-size:12px;fill:rgb(0,89,170);">VALORES</text>
        </g>
    </g>
</svg>
